<?xml version="1.0" standalone="no"?>
<!DOCTYPE svg PUBLIC "-//W3C//DTD SVG 1.1//EN" "http://www.w3.org/Graphics/SVG/1.1/DTD/svg11.dtd" >
<svg xmlns="http://www.w3.org/2000/svg" version="1.1">
<metadata>
Created by FontForge 20201107 at Fri Mar 11 12:11:56 2022
 By 
Copyright (c) 2021 by PT Bank Central Asia TBK. All rights reserved.
</metadata>
<defs>
<font id="BCASans-Regular" horiz-adv-x="714" >
  <font-face 
    font-family="BCA Sans"
    font-weight="400"
    font-stretch="normal"
    units-per-em="1000"
    panose-1="0 0 0 0 0 0 0 0 0 0"
    ascent="800"
    descent="-200"
    x-height="518"
    cap-height="710"
    bbox="-200 -227 1308 982"
    underline-thickness="50"
    underline-position="-125"
    unicode-range="U+0020-FB02"
  />
<missing-glyph horiz-adv-x="733" 
d="M90 0h553v710h-553v-710zM178 78v554h377v-554h-377z" />
    <glyph glyph-name="fi" unicode="fi" horiz-adv-x="696" 
d="M162 0h82v448h144v70h-144v82q0 41 22.5 56.5t50.5 15.5q35 0 66 -17h5v65q-20 11 -41.5 15.5t-43.5 4.5q-58 0 -99.5 -33.5t-41.5 -104.5v-84h-112v-70h112v-448zM567 603q26 0 44.5 17.5t18.5 43.5q0 27 -18.5 44.5t-44.5 17.5q-25 0 -44 -17.5t-19 -44.5
q0 -26 19 -43.5t44 -17.5zM526 0h82v518h-82v-518z" />
    <glyph glyph-name="fl" unicode="fl" horiz-adv-x="690" 
d="M162 0h82v448h144v70h-144v82q0 41 22.5 56.5t50.5 15.5q35 0 66 -17h5v65q-20 11 -41.5 15.5t-43.5 4.5q-58 0 -99.5 -33.5t-41.5 -104.5v-84h-112v-70h112v-448zM518 0h82v710h-82v-710z" />
    <glyph glyph-name=".notdef" horiz-adv-x="733" 
d="M90 0h553v710h-553v-710zM178 78v554h377v-554h-377z" />
    <glyph glyph-name=".null" horiz-adv-x="0" 
 />
    <glyph glyph-name="nonmarkingreturn" horiz-adv-x="333" 
 />
    <glyph glyph-name="space" unicode=" " horiz-adv-x="220" 
 />
    <glyph glyph-name="exclam" unicode="!" horiz-adv-x="287" 
d="M105 202h78l5 520h-89zM143 -6q28 0 46 17t18 46t-18 46.5t-46 17.5q-27 0 -45 -17.5t-18 -46.5t18 -46t45 -17z" />
    <glyph glyph-name="quotedbl" unicode="&#x22;" horiz-adv-x="423" 
d="M247 478h71l25 232h-96v-232zM80 478h71l25 232h-96v-232z" />
    <glyph glyph-name="numbersign" unicode="#" horiz-adv-x="813" 
d="M162 0h81l36 172h186l-36 -172h81l36 172h149l13 68h-147l50 236h148l14 69h-148l35 165h-81l-35 -165h-186l35 165h-81l-35 -165h-148l-15 -69h149l-50 -236h-149l-14 -68h148zM294 240l50 236h186l-50 -236h-186z" />
    <glyph glyph-name="dollar" unicode="$" horiz-adv-x="644" 
d="M289 -160h57v149q68 3 119 28.5t80 69t29 103.5q0 57 -20 92.5t-53 56.5t-73.5 33.5t-81.5 22.5v247q46 -7 78.5 -32.5t38.5 -67.5l86 4q-10 71 -65.5 118t-137.5 56v140h-57v-139q-94 -6 -150.5 -59t-56.5 -139q0 -54 17.5 -89t47.5 -56.5t67 -34t75 -21.5v-254
q-57 8 -96.5 42t-46.5 93l-86 -4q4 -60 34.5 -105t80.5 -72t114 -32v-150zM170 527q0 52 33 81.5t86 34.5v-233q-33 10 -60 23.5t-43 35.5t-16 58zM486 183q0 -51 -38 -81.5t-102 -34.5v242q38 -10 70 -23.5t51 -38t19 -64.5z" />
    <glyph glyph-name="percent" unicode="%" horiz-adv-x="988" 
d="M255 361q51 0 90.5 23t62 63.5t22.5 91.5q0 52 -22.5 92.5t-62 63.5t-90.5 23t-90.5 -23t-62 -63.5t-22.5 -92.5q0 -51 22.5 -91.5t62 -63.5t90.5 -23zM158 0h102l572 710h-103zM255 431q-43 0 -71.5 30.5t-28.5 77.5q0 48 28.5 78.5t71.5 30.5q44 0 72.5 -30.5
t28.5 -78.5q0 -47 -28.5 -77.5t-72.5 -30.5zM733 -8q51 0 90.5 23t62 63.5t22.5 92.5t-22.5 92t-62 63t-90.5 23t-90.5 -23t-62 -63t-22.5 -92t22.5 -92.5t62 -63.5t90.5 -23zM733 62q-43 0 -72 30.5t-29 78.5q0 47 29 77.5t72 30.5q44 0 72.5 -30.5t28.5 -77.5
q0 -48 -28.5 -78.5t-72.5 -30.5z" />
    <glyph glyph-name="ampersand" unicode="&#x26;" horiz-adv-x="766" 
d="M323 -12q62 0 113.5 23t94.5 68l81 -79h99l-136 135q26 38 50.5 85t47.5 103h-85q-17 -40 -34 -73t-34 -60l-178 177q39 22 74.5 47.5t57.5 60.5t22 82q0 76 -47 120.5t-126 44.5q-51 0 -91.5 -21t-63.5 -58.5t-23 -87.5q0 -45 21 -87t59 -86q-36 -20 -68 -46.5
t-52 -63.5t-20 -90q0 -56 29.5 -100t83 -69t125.5 -25zM294 418q-28 32 -48.5 66t-20.5 70q0 47 28 73t71 26t69.5 -26t26.5 -72q0 -48 -36 -78.5t-90 -58.5zM325 59q-73 0 -115.5 36.5t-42.5 92.5q0 54 30 85t77 57l203 -199q-65 -72 -152 -72z" />
    <glyph glyph-name="quotesingle" unicode="'" horiz-adv-x="256" 
d="M80 478h71l25 232h-96v-232z" />
    <glyph glyph-name="parenleft" unicode="(" horiz-adv-x="297" 
d="M171 -140h86q-60 98 -90 207t-30 218q0 227 120 425h-86q-59 -92 -90 -200t-31 -225q0 -112 31 -222.5t90 -202.5z" />
    <glyph glyph-name="parenright" unicode=")" horiz-adv-x="297" 
d="M40 -140h85q60 92 91 202.5t31 222.5q0 237 -122 425h-85q120 -198 120 -425q0 -109 -30 -218t-90 -207z" />
    <glyph glyph-name="asterisk" unicode="*" horiz-adv-x="579" 
d="M191 313l98 139l99 -139l56 39l-100 140l155 48l-18 64l-157 -47v153h-68v-153l-158 47l-18 -64l156 -48l-100 -140z" />
    <glyph glyph-name="plus" unicode="+" 
d="M317 0h81v222h216v76h-216v220h-81v-220h-217v-76h217v-222z" />
    <glyph glyph-name="comma" unicode="," horiz-adv-x="287" 
d="M85 -111q44 0 71 22t39 56.5t12 69.5q0 42 -18 63t-46 21q-27 0 -45 -17.5t-18 -46.5t18 -46t45 -17q2 0 5 0.5t5 1.5q-3 -30 -21.5 -45.5t-46.5 -15.5v-46z" />
    <glyph glyph-name="hyphen" unicode="-" horiz-adv-x="510" 
d="M80 222h350v77h-350v-77z" />
    <glyph glyph-name="period" unicode="." horiz-adv-x="287" 
d="M143 -6q28 0 46 17t18 46t-18 46.5t-46 17.5q-27 0 -45 -17.5t-18 -46.5t18 -46t45 -17z" />
    <glyph glyph-name="slash" unicode="/" horiz-adv-x="459" 
d="M50 0h87l282 710h-87z" />
    <glyph glyph-name="zero" unicode="0" horiz-adv-x="706" 
d="M353 -12q88 0 151.5 44.5t97.5 126.5t34 196q0 115 -34.5 197t-97.5 126t-151 44t-151.5 -44t-97.5 -126t-34 -197q0 -114 34.5 -196t98 -126.5t150.5 -44.5zM353 68q-93 0 -143 75t-50 212q0 138 49.5 212.5t143.5 74.5t143.5 -74t49.5 -213q0 -138 -49.5 -212.5
t-143.5 -74.5z" />
    <glyph glyph-name="one" unicode="1" horiz-adv-x="412" 
d="M204 0h88v710h-59l-193 -102v-84l164 85v-609z" />
    <glyph glyph-name="two" unicode="2" horiz-adv-x="622" 
d="M60 0h492v78h-357l182 188q55 57 88 101.5t47.5 84t14.5 80.5q0 56 -27.5 99t-77 67t-116.5 24q-66 0 -117 -25.5t-81 -71.5t-35 -108l86 -3q4 62 44 95t101 33q60 0 96.5 -30t36.5 -83q0 -35 -15 -69.5t-52 -79.5t-103 -112l-207 -210v-58z" />
    <glyph glyph-name="three" unicode="3" horiz-adv-x="634" 
d="M315 -12q74 0 130 27.5t87.5 76t31.5 111.5q0 64 -37.5 110t-102.5 64q51 22 80.5 65.5t29.5 96.5t-29 94t-79 65t-112 24q-67 0 -119 -25.5t-83 -70t-36 -103.5l85 -3q5 57 45.5 89.5t106.5 32.5q59 0 95 -29.5t36 -80.5q0 -54 -36.5 -87t-98.5 -33h-69v-78h74
q76 0 118 -35t42 -94q0 -64 -43 -100.5t-116 -36.5q-71 0 -117 34.5t-51 95.5l-87 -3q5 -62 38.5 -108.5t89 -72.5t127.5 -26z" />
    <glyph glyph-name="four" unicode="4" horiz-adv-x="667" 
d="M397 0h88v179h112v78h-112v453h-108l-337 -443v-88h357v-179zM126 257l271 358v-358h-271z" />
    <glyph glyph-name="five" unicode="5" horiz-adv-x="625" 
d="M313 -12q72 0 129 30.5t90 86t33 129.5q0 70 -31.5 125.5t-86.5 88t-127 32.5q-44 0 -82.5 -14t-67.5 -38l29 204h335v78h-399l-55 -367l76 -19q20 31 61 54.5t95 23.5q50 0 86.5 -22t56.5 -60t20 -86q0 -75 -44 -120.5t-118 -45.5q-69 0 -115 35.5t-52 96.5l-86 -3
q5 -62 38.5 -109.5t88.5 -73.5t126 -26z" />
    <glyph glyph-name="six" unicode="6" horiz-adv-x="626" 
d="M323 -12q69 0 124 30.5t87 85t32 125.5q0 70 -31 123.5t-83.5 83.5t-118.5 30q-47 0 -92.5 -17.5t-78.5 -62.5q10 68 38.5 126.5t83.5 94t144 35.5q25 0 47.5 -2t43.5 -6v80q-20 4 -43 6t-49 2q-96 0 -165.5 -35.5t-114 -97t-66 -139.5t-21.5 -162q0 -97 33.5 -164
t92.5 -101.5t137 -34.5zM321 67q-46 0 -83 20t-58.5 56t-21.5 84q0 46 21 82t58 57.5t84 21.5q45 0 80 -21t55 -57t20 -83q0 -72 -43.5 -116t-111.5 -44z" />
    <glyph glyph-name="seven" unicode="7" horiz-adv-x="542" 
d="M162 0h88q12 176 80 337t182 299v74h-472v-78h367q-105 -133 -168.5 -293.5t-76.5 -338.5z" />
    <glyph glyph-name="eight" unicode="8" horiz-adv-x="625" 
d="M312 -12q75 0 132 27t89 74.5t32 110.5q0 68 -37.5 117t-102.5 67q47 21 74.5 62t27.5 91q0 56 -28 97.5t-76.5 64.5t-110.5 23q-61 0 -109.5 -23t-76.5 -64.5t-28 -97.5q0 -51 27.5 -91.5t73.5 -61.5q-64 -18 -101.5 -67t-37.5 -117q0 -63 32 -110.5t88.5 -74.5
t131.5 -27zM312 420q-57 0 -91.5 29.5t-34.5 80.5q0 53 34 84t92 31q59 0 93 -31t34 -84q0 -51 -35 -80.5t-92 -29.5zM312 65q-74 0 -118 37.5t-44 101.5t44 101t118 37q75 0 119 -37t44 -101t-44 -101.5t-119 -37.5z" />
    <glyph glyph-name="nine" unicode="9" horiz-adv-x="626" 
d="M198 -12q96 0 166 35.5t114.5 97t66 139.5t21.5 162q0 97 -33.5 164t-92.5 101.5t-137 34.5q-69 0 -124 -30.5t-87 -85t-32 -125.5q0 -70 31 -123.5t84 -83.5t118 -30q47 0 92.5 17.5t78.5 62.5q-9 -68 -38 -126.5t-84 -94t-144 -35.5q-25 0 -47.5 2t-44.5 6v-80
q21 -4 44 -6t48 -2zM304 322q-45 0 -79.5 21t-54.5 57.5t-20 82.5q0 72 43.5 115.5t110.5 43.5q46 0 83 -19.5t58.5 -55t21.5 -84.5q0 -45 -20.5 -81.5t-57.5 -58t-85 -21.5z" />
    <glyph glyph-name="colon" unicode=":" horiz-adv-x="287" 
d="M143 353q28 0 46 17t18 46t-18 46.5t-46 17.5q-27 0 -45 -17.5t-18 -46.5t18 -46t45 -17zM143 -6q28 0 46 17t18 46t-18 46.5t-46 17.5q-27 0 -45 -17.5t-18 -46.5t18 -46t45 -17z" />
    <glyph glyph-name="semicolon" unicode=";" horiz-adv-x="288" 
d="M143 353q28 0 46 17t18 46t-18 46.5t-46 17.5q-27 0 -45 -17.5t-18 -46.5t18 -46t45 -17zM86 -111q44 0 71 22t39 56.5t12 69.5q0 42 -18 63t-46 21q-27 0 -45 -17.5t-18 -46.5t18 -46t45 -17q2 0 5 0.5t5 1.5q-3 -30 -21.5 -45.5t-46.5 -15.5v-46z" />
    <glyph glyph-name="less" unicode="&#x3c;" 
d="M591 -4v80l-381 177l381 176v81l-469 -218v-78z" />
    <glyph glyph-name="equal" unicode="=" 
d="M107 332h500v77h-500v-77zM107 110h500v76h-500v-76z" />
    <glyph glyph-name="greater" unicode="&#x3e;" 
d="M123 -4l469 218v78l-469 218v-81l381 -176l-381 -177v-80z" />
    <glyph glyph-name="question" unicode="?" horiz-adv-x="541" 
d="M210 202h82v20q0 33 15.5 66t62.5 71q60 49 85.5 94t25.5 94q0 53 -27 92.5t-75 61t-110 21.5q-97 0 -155 -55t-64 -144l86 -3q5 58 41 91.5t91 33.5q56 0 90 -27.5t34 -77.5q0 -34 -19.5 -66.5t-65.5 -69.5q-42 -33 -63 -64t-27.5 -60t-6.5 -58v-20zM253 -6q27 0 45 17
t18 46t-18 46.5t-45 17.5q-28 0 -46 -17.5t-18 -46.5t18 -46t46 -17z" />
    <glyph glyph-name="at" unicode="@" horiz-adv-x="883" 
d="M448 -118q86 0 161.5 26t121.5 67l-39 57q-48 -34 -109 -55t-135 -21q-91 0 -160 40t-107.5 111t-38.5 163q0 94 40 167.5t111 116t164 42.5q83 0 147 -34.5t100.5 -94t36.5 -133.5q0 -46 -14.5 -85.5t-38.5 -64t-53 -24.5q-46 0 -34 68l42 239h-76l-7 -41
q-17 23 -46.5 36.5t-66.5 13.5q-61 0 -109.5 -30t-76.5 -81t-28 -114q0 -73 43.5 -119t112.5 -46q82 0 134 60q10 -28 37 -44t64 -16q57 0 102 33t71 89.5t26 126.5q0 72 -27.5 133t-77 106.5t-116.5 70.5t-146 25q-85 0 -157.5 -29.5t-126 -83.5t-83 -127t-29.5 -159
q0 -84 28.5 -155t81 -123.5t123.5 -81.5t155 -29zM412 158q-47 0 -72 26.5t-25 72.5q0 65 36 106t91 41q50 0 77 -23.5t27 -67.5q0 -42 -17 -77.5t-47.5 -56.5t-69.5 -21z" />
    <glyph glyph-name="A" unicode="A" horiz-adv-x="733" 
d="M40 0h98l72 184h313l72 -184h98l-283 710h-88zM239 261l127 327l127 -327h-254z" />
    <glyph glyph-name="B" unicode="B" horiz-adv-x="659" 
d="M90 0h286q68 0 118 26.5t77.5 71t27.5 99.5q0 60 -32 103.5t-85 62.5q48 30 68 71.5t20 84.5q0 58 -27 101t-73.5 66.5t-105.5 23.5h-274v-710zM178 398v234h178q56 0 91 -32.5t35 -84.5t-35 -84.5t-91 -32.5h-178zM178 78v244h200q59 0 96 -34t37 -90q0 -52 -36.5 -86
t-96.5 -34h-200z" />
    <glyph glyph-name="C" unicode="C" horiz-adv-x="814" 
d="M427 -12q90 0 161 34t114.5 91t51.5 126l-85 8q-6 -53 -40 -93.5t-86.5 -63t-115.5 -22.5q-80 0 -140.5 36.5t-93.5 101t-33 149.5t33.5 149.5t94 101t139.5 36.5q61 0 114 -23t87.5 -63t40.5 -93l85 8q-7 69 -51.5 126t-115.5 91t-160 34q-78 0 -143 -27.5t-113 -77
t-74.5 -116.5t-26.5 -146t26.5 -146t74 -116.5t113 -77t143.5 -27.5z" />
    <glyph glyph-name="D" unicode="D" horiz-adv-x="762" 
d="M90 0h231q113 0 196.5 45t129 125t45.5 185q0 108 -45.5 187.5t-128.5 123.5t-197 44h-231v-710zM178 78v554h145q86 0 148.5 -35.5t96.5 -98t34 -143.5q0 -79 -34 -141.5t-96.5 -99t-148.5 -36.5h-145z" />
    <glyph glyph-name="E" unicode="E" horiz-adv-x="580" 
d="M90 0h440v78h-352v245h312v78h-312v231h352v78h-440v-710z" />
    <glyph glyph-name="F" unicode="F" horiz-adv-x="573" 
d="M90 0h88v316h315v78h-315v238h355v78h-443v-710z" />
    <glyph glyph-name="G" unicode="G" horiz-adv-x="843" 
d="M423 -12q90 0 159.5 41t107.5 111l7 -140h66v379h-347v-78h259q0 -70 -31 -122.5t-85.5 -81.5t-128.5 -29q-81 0 -142 36.5t-94.5 101t-33.5 149.5t33.5 149.5t94 101t139.5 36.5q60 0 112.5 -22.5t87 -61.5t41.5 -90l85 9q-9 67 -53 122.5t-114.5 89t-158.5 33.5
q-78 0 -143 -27.5t-113 -77t-74.5 -116.5t-26.5 -146t26 -146t74 -116.5t112.5 -77t140.5 -27.5z" />
    <glyph glyph-name="H" unicode="H" horiz-adv-x="733" 
d="M90 0h88v316h377v-316h88v710h-88v-316h-377v316h-88v-710z" />
    <glyph glyph-name="I" unicode="I" horiz-adv-x="268" 
d="M90 0h82v710h-82v-710z" />
    <glyph glyph-name="J" unicode="J" horiz-adv-x="622" 
d="M289 -12q73 0 128 29t86.5 81t31.5 122v490h-339v-78h251v-408q0 -71 -44.5 -113.5t-113.5 -42.5q-67 0 -112 38.5t-50 105.5l-87 -7q4 -63 36 -112t86.5 -77t126.5 -28z" />
    <glyph glyph-name="K" unicode="K" horiz-adv-x="680" 
d="M90 0h88v223l105 118l251 -341h106l-295 408l264 302h-115l-316 -356v356h-88v-710z" />
    <glyph glyph-name="L" unicode="L" horiz-adv-x="581" 
d="M90 0h451v78h-363v632h-88v-710z" />
    <glyph glyph-name="M" unicode="M" horiz-adv-x="892" 
d="M90 0h88v516l245 -516h47l244 516v-516h88v710h-92l-264 -559l-264 559h-92v-710z" />
    <glyph glyph-name="N" unicode="N" horiz-adv-x="744" 
d="M90 0h88v552l394 -552h82v710h-88v-549l-395 549h-81v-710z" />
    <glyph glyph-name="O" unicode="O" horiz-adv-x="862" 
d="M431 -12q78 0 144 27.5t114.5 77.5t75.5 117t27 145t-27 145t-76 116.5t-115 77.5t-143 28t-143 -27.5t-115 -77.5t-76 -117t-27 -145t27 -145t75.5 -117t114.5 -77.5t144 -27.5zM431 68q-82 0 -143 37.5t-94.5 102.5t-33.5 147t33.5 147t94.5 102.5t143 37.5t143 -37.5
t94.5 -102.5t33.5 -147t-34 -147t-94.5 -102.5t-142.5 -37.5z" />
    <glyph glyph-name="P" unicode="P" horiz-adv-x="617" 
d="M90 0h88v297h159q103 0 161.5 57.5t58.5 149.5q0 93 -58.5 149.5t-161.5 56.5h-247v-710zM178 375v257h158q62 0 97.5 -34.5t35.5 -93.5q0 -57 -35.5 -93t-97.5 -36h-158z" />
    <glyph glyph-name="Q" unicode="Q" horiz-adv-x="843" 
d="M431 -12q53 0 101 13t88 38l114 -114l59 60l-106 106q49 49 77 117t28 147q0 78 -27 145t-76 116.5t-115 77.5t-143 28t-143 -27.5t-115 -77.5t-76 -117t-27 -145t27 -145t75.5 -117t114.5 -77.5t144 -27.5zM431 68q-82 0 -143 37.5t-94.5 102.5t-33.5 147t33.5 147
t94.5 102.5t143 37.5t143 -37.5t94.5 -102.5t33.5 -147q0 -62 -19.5 -114.5t-54.5 -90.5l-143 143l-60 -59l136 -136q-58 -30 -130 -30z" />
    <glyph glyph-name="R" unicode="R" horiz-adv-x="664" 
d="M90 0h88v297h122l219 -297h105l-219 302q77 15 121 69t44 133q0 93 -58.5 149.5t-162.5 56.5h-259v-710zM178 375v257h171q62 0 97.5 -34.5t35.5 -93.5q0 -58 -35.5 -93.5t-97.5 -35.5h-171z" />
    <glyph glyph-name="S" unicode="S" horiz-adv-x="644" 
d="M323 -12q74 0 130.5 24.5t88.5 69.5t32 108q0 57 -20 92.5t-53 56.5t-73.5 33.5t-81.5 22.5q-46 12 -86 25t-65 37.5t-25 69.5q0 58 40 87.5t102 29.5q59 0 101.5 -26t49.5 -76l86 4q-7 52 -39.5 91.5t-84 62t-114.5 22.5q-69 0 -120.5 -24.5t-80 -69t-28.5 -105.5
q0 -57 20 -93t52.5 -57.5t73 -33.5t80.5 -21q47 -11 87.5 -24t65.5 -38.5t25 -72.5q0 -55 -44 -86t-117 -31q-70 0 -120.5 34.5t-58.5 102.5l-86 -4q5 -65 40 -112.5t93 -73t130 -25.5z" />
    <glyph glyph-name="T" unicode="T" horiz-adv-x="583" 
d="M248 0h88v632h207v78h-503v-78h208v-632z" />
    <glyph glyph-name="U" unicode="U" horiz-adv-x="678" 
d="M338 -12q75 0 133 31t91.5 87t33.5 129v475h-88v-474q0 -74 -46.5 -121t-123.5 -47q-75 0 -121.5 47t-46.5 121v474h-88v-475q0 -73 33.5 -129t91.5 -87t131 -31z" />
    <glyph glyph-name="V" unicode="V" horiz-adv-x="713" 
d="M312 0h89l272 710h-96l-221 -586l-220 586h-96z" />
    <glyph glyph-name="W" unicode="W" horiz-adv-x="1066" 
d="M263 0h89l181 564l181 -564h90l222 710h-92l-178 -567l-182 567h-80l-185 -566l-177 566h-92z" />
    <glyph glyph-name="X" unicode="X" horiz-adv-x="690" 
d="M398 367l237 343h-107l-183 -266l-183 266h-107l237 -343l-252 -367h105l200 290l200 -290h105z" />
    <glyph glyph-name="Y" unicode="Y" horiz-adv-x="676" 
d="M294 0h88v326l254 384h-107l-191 -293l-191 293h-107l254 -384v-326z" />
    <glyph glyph-name="Z" unicode="Z" horiz-adv-x="606" 
d="M30 0h526v78h-402l380 582v50h-488v-78h365l-381 -582v-50z" />
    <glyph glyph-name="bracketleft" unicode="[" horiz-adv-x="302" 
d="M50 -140h212v77h-125v696h125v77h-212v-850z" />
    <glyph glyph-name="backslash" unicode="\" horiz-adv-x="459" 
d="M322 0h87l-283 710h-86z" />
    <glyph glyph-name="bracketright" unicode="]" horiz-adv-x="302" 
d="M40 -140h212v850h-212v-77h125v-696h-125v-77z" />
    <glyph glyph-name="asciicircum" unicode="^" 
d="M113 360h84l160 276l161 -276h84l-204 350h-81z" />
    <glyph glyph-name="underscore" unicode="_" horiz-adv-x="529" 
d="M60 -71h409v71h-409v-71z" />
    <glyph glyph-name="grave" unicode="`" horiz-adv-x="359" 
d="M194 600h85l-87 150h-112z" />
    <glyph glyph-name="a" unicode="a" horiz-adv-x="596" 
d="M238 -12q65 0 110 22.5t68 59.5v-70h80v357q0 77 -57 125t-158 48q-85 0 -145 -43.5t-74 -120.5l79 -4q11 48 48.5 72t90.5 24q62 0 98 -28t36 -73v-18l-185 -36q-76 -15 -122.5 -55.5t-46.5 -112.5q0 -67 49 -107t129 -40zM249 59q-44 0 -75 19t-31 61q0 41 30.5 65.5
t76.5 33.5l164 32v-63q0 -70 -44 -109t-121 -39z" />
    <glyph glyph-name="b" unicode="b" horiz-adv-x="668" 
d="M350 -12q75 0 133 34t91.5 95t33.5 142t-33.5 142t-91.5 95t-132 34q-59 0 -109.5 -25t-79.5 -70v275h-82v-710h80v86q30 -47 80.5 -72.5t109.5 -25.5zM344 62q-51 0 -92.5 23t-65.5 67t-24 107t24 107t65.5 67t92.5 23q52 0 92.5 -24.5t64 -68.5t23.5 -104
q0 -59 -23.5 -103.5t-64 -69t-92.5 -24.5z" />
    <glyph glyph-name="c" unicode="c" horiz-adv-x="630" 
d="M326 -12q61 0 112.5 23.5t86.5 66.5t45 102l-78 9q-14 -61 -60.5 -93.5t-105.5 -32.5q-50 0 -91 24t-65.5 68t-24.5 104t24.5 104t65.5 68t91 24q59 0 105.5 -32.5t60.5 -93.5l77 9q-10 60 -44.5 103t-86 66t-112.5 23q-75 0 -135.5 -34.5t-95.5 -95.5t-35 -141t35 -141
t95.5 -95.5t135.5 -34.5z" />
    <glyph glyph-name="d" unicode="d" horiz-adv-x="668" 
d="M318 -12q59 0 109 25.5t81 71.5v-85h80v722h-82v-287q-29 44 -79.5 69.5t-109.5 25.5q-73 0 -131.5 -34t-92 -95t-33.5 -142t33.5 -142t91.5 -95t133 -34zM324 62q-52 0 -92.5 24.5t-64 69t-23.5 103.5q0 60 23.5 104t64 68.5t92.5 24.5q51 0 92.5 -23t65.5 -67t24 -107
t-24 -107t-65.5 -67t-92.5 -23z" />
    <glyph glyph-name="e" unicode="e" horiz-adv-x="636" 
d="M326 -12q89 0 156 47t87 129l-80 6q-13 -53 -58 -83.5t-105 -30.5q-46 0 -87 21t-67 60.5t-30 95.5h429q5 28 5 54q0 67 -31 122t-87.5 88t-134.5 33q-74 0 -133.5 -34.5t-94.5 -95.5t-35 -141t35 -141t95.5 -95.5t135.5 -34.5zM144 303q6 52 32 87t65 53.5t82 18.5
q77 0 124 -45.5t48 -113.5h-351z" />
    <glyph glyph-name="f" unicode="f" horiz-adv-x="438" 
d="M162 0h82v448h144v70h-144v82q0 41 22.5 56.5t50.5 15.5q35 0 66 -17h5v65q-20 11 -41.5 15.5t-43.5 4.5q-58 0 -99.5 -33.5t-41.5 -104.5v-84h-112v-70h112v-448z" />
    <glyph glyph-name="g" unicode="g" horiz-adv-x="666" 
d="M328 -212q73 0 131 31t92.5 89.5t34.5 138.5v471h-80v-84q-30 47 -81 71.5t-108 24.5q-75 0 -133 -33.5t-91 -92t-33 -133.5q0 -74 33.5 -132.5t91.5 -92t131 -33.5q58 0 109 25.5t79 69.5v-61q0 -59 -24 -100.5t-64.5 -63t-88.5 -21.5q-56 0 -101.5 28t-64.5 80l-81 -9
q12 -55 47.5 -94t87.5 -59t113 -20zM323 87q-52 0 -92.5 23.5t-63.5 65t-23 95.5q0 55 23 96.5t63.5 65t92.5 23.5q51 0 92 -22t65 -63.5t24 -99.5q0 -57 -24 -98.5t-65 -63.5t-92 -22z" />
    <glyph glyph-name="h" unicode="h" horiz-adv-x="593" 
d="M80 0h82v302q0 71 41 113.5t105 42.5q57 0 95 -38t38 -118v-302h82v306q0 110 -56 167t-145 57q-48 0 -91 -20.5t-69 -66.5v270h-82v-713z" />
    <glyph glyph-name="i" unicode="i" horiz-adv-x="258" 
d="M129 603q26 0 44.5 17.5t18.5 43.5q0 27 -18.5 44.5t-44.5 17.5q-25 0 -44 -17.5t-19 -44.5q0 -26 19 -43.5t44 -17.5zM88 0h82v518h-82v-518z" />
    <glyph glyph-name="j" unicode="j" horiz-adv-x="294" 
d="M164 603q26 0 45 17.5t19 43.5q0 27 -19 44.5t-45 17.5q-25 0 -44 -17.5t-19 -44.5q0 -26 19 -43.5t44 -17.5zM54 -222q66 0 109 40t43 111v589h-82v-584q0 -46 -21 -67t-59 -21q-19 0 -35 4.5t-34 12.5h-5v-65q40 -20 84 -20z" />
    <glyph glyph-name="k" unicode="k" horiz-adv-x="562" 
d="M80 0h82v176l92 89l191 -265h97l-226 317l206 201h-104l-256 -240v444h-82v-722z" />
    <glyph glyph-name="l" unicode="l" horiz-adv-x="252" 
d="M80 0h82v710h-82v-710z" />
    <glyph glyph-name="m" unicode="m" horiz-adv-x="934" 
d="M80 0h82v302q0 71 39 113.5t102 42.5q57 0 92.5 -38t35.5 -118v-302h82v302q0 71 39 113.5t102 42.5q57 0 92.5 -38t35.5 -118v-302h82v306q0 110 -53.5 167t-142.5 57q-52 0 -101 -26t-74 -84q-23 55 -68.5 82.5t-107.5 27.5q-49 0 -90 -19.5t-67 -65.5v73h-80v-518z
" />
    <glyph glyph-name="n" unicode="n" horiz-adv-x="593" 
d="M80 0h82v302q0 69 40.5 112.5t105.5 43.5q62 0 97.5 -41t35.5 -115v-302h82v306q0 104 -54 164t-147 60q-111 0 -162 -86v74h-80v-518z" />
    <glyph glyph-name="o" unicode="o" horiz-adv-x="650" 
d="M326 -12q75 0 134.5 34.5t94.5 95.5t35 141q0 81 -34.5 142t-94.5 95t-135 34q-78 0 -138 -34.5t-94 -95.5t-34 -141t34.5 -141t94.5 -95.5t137 -34.5zM326 62q-53 0 -94.5 24.5t-64.5 69t-23 103.5t23 103.5t64.5 69t94.5 24.5q51 0 91.5 -24.5t64.5 -69t24 -103.5
t-23.5 -103.5t-64.5 -69t-92 -24.5z" />
    <glyph glyph-name="p" unicode="p" horiz-adv-x="668" 
d="M80 -200h82v283q29 -44 80 -69.5t109 -25.5q74 0 132 34t91.5 95.5t33.5 141.5q0 81 -33.5 142t-91.5 95t-133 34q-58 0 -108.5 -25t-81.5 -71v84h-80v-718zM344 62q-51 0 -92.5 23t-65.5 67t-24 107t24 107t65.5 67t92.5 23q52 0 92.5 -24.5t64 -68.5t23.5 -104
q0 -59 -23.5 -103.5t-64 -69t-92.5 -24.5z" />
    <glyph glyph-name="q" unicode="q" horiz-adv-x="668" 
d="M506 -200h82v718h-80v-84q-31 46 -81 71t-109 25q-75 0 -133 -34t-91.5 -95t-33.5 -142q0 -80 33.5 -141.5t92 -95.5t131.5 -34q59 0 109.5 25.5t79.5 69.5v-283zM324 62q-52 0 -92.5 24.5t-64 69t-23.5 103.5q0 60 23.5 104t64 68.5t92.5 24.5q51 0 92.5 -23t65.5 -67
t24 -107t-24 -107t-65.5 -67t-92.5 -23z" />
    <glyph glyph-name="r" unicode="r" horiz-adv-x="382" 
d="M80 0h82v287q0 52 19 88.5t50.5 55.5t68.5 19q17 0 24.5 -1t13.5 -3h4v77q-16 7 -40 7q-36 0 -76 -21t-66 -69v78h-80v-518z" />
    <glyph glyph-name="s" unicode="s" horiz-adv-x="506" 
d="M255 -12q55 0 98 18.5t68 52.5t25 79q0 42 -15.5 69.5t-41 44.5t-56.5 27.5t-62 18.5q-33 9 -61.5 18.5t-46 26.5t-17.5 46q0 31 27 50t71 19q43 0 73.5 -22t35.5 -60l77 9q-6 66 -58 105.5t-129 39.5q-80 0 -129.5 -40.5t-49.5 -106.5q0 -41 15 -67.5t40.5 -43t56 -26.5
t61.5 -18q33 -8 62 -18.5t47 -28t18 -47.5q0 -33 -31 -53.5t-78 -20.5q-53 0 -88 27t-41 72l-76 -9q3 -49 30 -85.5t72.5 -56.5t102.5 -20z" />
    <glyph glyph-name="t" unicode="t" horiz-adv-x="413" 
d="M268 -12q45 0 85 20v65h-5q-36 -17 -66 -17q-36 0 -51 20t-15 51v321h137v70h-137v163h-6l-76 -27v-136h-104v-70h104v-327q0 -63 36.5 -98t97.5 -35z" />
    <glyph glyph-name="u" unicode="u" horiz-adv-x="575" 
d="M262 -12q52 0 94.5 20.5t68.5 63.5v-72h80v518h-82v-310q0 -70 -41 -108t-104 -38q-54 0 -90 33t-36 113v310h-82v-317q0 -108 54 -160.5t138 -52.5z" />
    <glyph glyph-name="v" unicode="v" horiz-adv-x="589" 
d="M258 0h74l217 518h-88l-166 -403l-166 403h-89z" />
    <glyph glyph-name="w" unicode="w" horiz-adv-x="919" 
d="M227 0h75l158 405l154 -405h73l192 518h-88l-141 -397l-152 397h-76l-155 -399l-139 399h-88z" />
    <glyph glyph-name="x" unicode="x" horiz-adv-x="587" 
d="M40 0h103l151 202l151 -202h102l-203 269l187 249h-99l-138 -183l-138 183h-99l187 -249z" />
    <glyph glyph-name="y" unicode="y" horiz-adv-x="589" 
d="M145 -223q47 0 76.5 21.5t49.5 59.5t40 86l238 574h-88l-166 -405l-167 405h-88l212 -505l-21 -55q-21 -55 -43.5 -79t-51.5 -24q-13 0 -24 1.5t-19 3.5h-8v-72q19 -11 60 -11z" />
    <glyph glyph-name="z" unicode="z" horiz-adv-x="494" 
d="M30 0h424v70h-300l297 413v35h-403v-70h281l-299 -413v-35z" />
    <glyph glyph-name="braceleft" unicode="{" horiz-adv-x="389" 
d="M316 -140h33v77h-20q-53 0 -69 20.5t-16 60.5v165q0 39 -13.5 64t-64.5 38q45 11 61.5 35t16.5 67v166q0 50 21.5 65t63.5 15h20v77h-33q-80 0 -119.5 -38.5t-39.5 -109.5v-157q0 -44 -22.5 -66.5t-84.5 -22.5v-61q62 0 84.5 -22.5t22.5 -67.5v-156q0 -77 42 -113
t117 -36z" />
    <glyph glyph-name="bar" unicode="|" horiz-adv-x="323" 
d="M120 -100h83v855h-83v-855z" />
    <glyph glyph-name="braceright" unicode="}" horiz-adv-x="389" 
d="M40 -140h33q75 0 117 36t42 113v156q0 45 23 67.5t84 22.5v61q-62 0 -84.5 22.5t-22.5 66.5v157q0 71 -39.5 109.5t-119.5 38.5h-33v-77h20q42 0 63.5 -15t21.5 -65v-166q0 -43 16.5 -67t61.5 -35q-51 -13 -64.5 -38t-13.5 -64v-165q0 -40 -16 -60.5t-69 -20.5h-20v-77z
" />
    <glyph glyph-name="asciitilde" unicode="~" 
d="M465 201q60 0 93 37t28 110h-69q2 -43 -15 -59t-46 -16q-25 0 -46.5 12t-44 27t-49 27t-62.5 12q-33 0 -63.5 -15.5t-48.5 -48t-15 -83.5h68q-1 40 18.5 58t48.5 18q27 0 49.5 -12t44.5 -27.5t48.5 -27.5t60.5 -12z" />
    <glyph glyph-name="uni00A0" unicode="&#xa0;" horiz-adv-x="220" 
 />
    <glyph glyph-name="exclamdown" unicode="&#xa1;" horiz-adv-x="287" 
d="M105 322h78l5 -520h-89zM143 530q28 0 46 -17t18 -46t-18 -46.5t-46 -17.5q-27 0 -45 17.5t-18 46.5t18 46t45 17z" />
    <glyph glyph-name="cent" unicode="&#xa2;" horiz-adv-x="630" 
d="M296 0h57v85q82 8 142 58.5t75 132.5l-78 9q-13 -54 -51 -85.5t-88 -38.5v388q50 -7 88 -38.5t51 -85.5l77 9q-14 83 -74 133t-142 58v85h-57v-86q-68 -6 -121 -42t-84 -94t-31 -133t31 -133t84 -94t121 -42v-86zM145 355q0 81 43.5 132t107.5 62v-388q-64 11 -107.5 62
t-43.5 132z" />
    <glyph glyph-name="sterling" unicode="&#xa3;" horiz-adv-x="637" 
d="M50 0h535v75h-430q59 56 83.5 114t14.5 134h174v65h-187q-7 31 -13 61.5t-6 61.5q0 62 37.5 98t97.5 36q62 0 101.5 -34.5t43.5 -96.5l86 3q-7 92 -68.5 148.5t-165.5 56.5q-66 0 -116 -26t-77.5 -72t-27.5 -106q0 -34 6 -66.5t12 -63.5h-100v-65h112q11 -70 -18 -125.5
t-94 -112.5v-85z" />
    <glyph glyph-name="currency" unicode="&#xa4;" horiz-adv-x="600" 
d="M187 189q50 -37 113 -37q30 0 59 9.5t54 28.5l77 -79l50 48l-79 79q17 24 27 53.5t10 60.5q0 32 -10 61t-27 53l79 79l-50 47l-77 -77q-52 37 -113 37q-62 0 -113 -37l-79 77l-48 -47l78 -80q-17 -24 -27 -53t-10 -60t10 -60.5t27 -53.5l-78 -79l48 -48zM300 221
q-36 0 -65.5 17.5t-47 47.5t-17.5 66q0 37 17.5 66.5t47 47t65.5 17.5t65.5 -17.5t46.5 -47t17 -66.5q0 -36 -17 -66t-46.5 -47.5t-65.5 -17.5z" />
    <glyph glyph-name="yen" unicode="&#xa5;" horiz-adv-x="635" 
d="M515 710l-197 -303l-198 303h-100l231 -349h-187v-65h210v-95h-210v-65h210v-136h87v136h210v65h-210v95h210v65h-187l231 349h-100z" />
    <glyph glyph-name="brokenbar" unicode="&#xa6;" horiz-adv-x="323" 
d="M120 388h83v367h-83v-367zM120 -100h83v367h-83v-367z" />
    <glyph glyph-name="section" unicode="&#xa7;" horiz-adv-x="495" 
d="M250 -90q57 0 101 18.5t69 52.5t25 80q0 56 -27 86.5t-66 48.5q43 17 68 49.5t25 75.5t-15.5 71t-41.5 46t-57 28.5t-62 19.5q-32 10 -61 20.5t-46.5 28t-17.5 45.5q0 36 27.5 57.5t71.5 21.5q43 0 73 -21t36 -60h78q-3 67 -56 105.5t-132 38.5q-81 0 -130.5 -40.5
t-49.5 -107.5q0 -53 25.5 -83t62.5 -47q-41 -17 -64.5 -50.5t-23.5 -79.5q0 -42 15.5 -69.5t41 -44.5t56.5 -27.5t61 -19.5q33 -9 62 -20t46.5 -28.5t17.5 -48.5q0 -37 -31 -59.5t-81 -22.5q-51 0 -85.5 24.5t-39.5 73.5h-79q3 -77 60.5 -119.5t143.5 -42.5zM267 225
q-32 10 -60.5 20.5t-46 28t-17.5 46.5q0 41 25 67t66 29q34 -10 63.5 -20.5t48 -28.5t18.5 -50q0 -39 -26.5 -63.5t-70.5 -28.5z" />
    <glyph glyph-name="dieresis" unicode="&#xa8;" horiz-adv-x="482" 
d="M143 603q26 0 44.5 17.5t18.5 43.5q0 27 -18.5 44.5t-44.5 17.5q-25 0 -44 -17.5t-19 -44.5q0 -26 19 -43.5t44 -17.5zM339 603q26 0 44.5 17.5t18.5 43.5q0 27 -18.5 44.5t-44.5 17.5q-25 0 -44 -17.5t-19 -44.5q0 -26 19 -43.5t44 -17.5z" />
    <glyph glyph-name="copyright" unicode="&#xa9;" horiz-adv-x="960" 
d="M480 -50q86 0 158.5 30.5t127 85.5t84.5 129t30 160q0 87 -30 160.5t-84 128.5t-127 85.5t-159 30.5q-85 0 -158 -30.5t-127.5 -85.5t-84.5 -128.5t-30 -160.5q0 -86 30 -160t84.5 -129t127.5 -85.5t158 -30.5zM480 14q-97 0 -172.5 43.5t-118.5 120.5t-43 177t43 177
t118.5 120.5t172.5 43.5t172.5 -43.5t118.5 -120.5t43 -177t-43 -177t-118 -120.5t-173 -43.5zM486 170q47 0 83 18.5t58 49t25 64.5l-60 4q-4 -34 -35.5 -55.5t-71.5 -21.5q-54 0 -86.5 35.5t-32.5 91.5t32 91t87 35q40 0 71.5 -21t35.5 -56l60 4q-3 35 -25 65t-58 48.5
t-83 18.5q-52 0 -94 -24t-66 -66t-24 -95t24 -95.5t65.5 -66.5t94.5 -24z" />
    <glyph glyph-name="ordfeminine" unicode="&#xaa;" horiz-adv-x="434" 
d="M186 391q75 0 104 45v-38h64v211q0 48 -35 78t-100 30q-53 0 -91 -26.5t-46 -75.5l63 -3q6 26 26.5 38t46.5 12q31 0 50 -14.5t19 -38.5v-8l-105 -20q-43 -8 -72.5 -32t-29.5 -69q0 -40 29.5 -64.5t76.5 -24.5zM200 444q-22 0 -37.5 10.5t-15.5 30.5t15 32.5t39 16.5
l86 17v-29q0 -37 -23.5 -57.5t-63.5 -20.5z" />
    <glyph glyph-name="guillemotleft" unicode="&#xab;" horiz-adv-x="623" 
d="M472 56h101l-137 203l137 203h-101l-138 -203zM198 56h100l-137 203l137 203h-100l-138 -203z" />
    <glyph glyph-name="logicalnot" unicode="&#xac;" 
d="M534 0h80v298h-514v-76h434v-222z" />
    <glyph glyph-name="uni00AD" unicode="&#xad;" horiz-adv-x="550" 
d="M110 222h350v77h-350v-77z" />
    <glyph glyph-name="registered" unicode="&#xae;" horiz-adv-x="960" 
d="M480 -50q86 0 158.5 30.5t127 85.5t84.5 128.5t30 159.5q0 87 -30 160.5t-84 128.5t-127 85.5t-159 30.5q-85 0 -158 -30.5t-127.5 -85.5t-84.5 -128.5t-30 -160.5q0 -86 30 -159.5t84.5 -128.5t127.5 -85.5t158 -30.5zM480 14q-97 0 -172.5 43.5t-118.5 120t-43 176.5
t43 177t118.5 120.5t172.5 43.5t172.5 -43.5t118.5 -120.5t43 -177t-43 -176.5t-118 -120t-173 -43.5zM356 177h58v139h53l101 -139h70l-105 144q37 10 57 37.5t20 65.5q0 49 -30.5 78.5t-87.5 29.5h-136v-355zM414 368v112h78q26 0 41 -15.5t15 -40.5t-15 -40.5t-41 -15.5
h-78z" />
    <glyph glyph-name="macron" unicode="&#xaf;" horiz-adv-x="440" 
d="M80 612h280v70h-280v-70z" />
    <glyph glyph-name="degree" unicode="&#xb0;" horiz-adv-x="451" 
d="M226 428q41 0 74 19.5t52 52.5t19 73q0 41 -19 73.5t-52 52t-74 19.5t-74.5 -19.5t-52.5 -52t-19 -73.5q0 -40 19 -73t52.5 -52.5t74.5 -19.5zM226 485q-37 0 -62 26t-25 62q0 37 25 63.5t62 26.5t62 -26.5t25 -63.5q0 -36 -24.5 -62t-62.5 -26z" />
    <glyph glyph-name="plusminus" unicode="&#xb1;" 
d="M317 133h81v172h216v76h-216v171h-81v-171h-217v-76h217v-172zM100 0h514v77h-514v-77z" />
    <glyph glyph-name="uni00B2" unicode="&#xb2;" horiz-adv-x="375" 
d="M33 284h304v63h-198l102 103q44 44 63.5 78t19.5 72q0 52 -38 84.5t-100 32.5q-61 0 -102 -34.5t-46 -94.5l69 -2q2 36 24.5 52.5t51.5 16.5q32 0 51 -15.5t19 -43.5q0 -27 -20.5 -57t-76.5 -85l-123 -121v-49z" />
    <glyph glyph-name="uni00B3" unicode="&#xb3;" horiz-adv-x="382" 
d="M190 277q68 0 111 36.5t43 93.5q0 36 -21 63.5t-59 37.5q28 13 45.5 39t17.5 58q0 49 -39.5 80.5t-98.5 31.5q-63 0 -102.5 -34.5t-43.5 -89.5l68 -2q2 30 23 47t55 17q30 0 48.5 -15.5t18.5 -42.5q0 -28 -19 -45t-51 -17h-42v-60h47q39 0 60 -18t21 -47q0 -33 -22.5 -52
t-59.5 -19t-61.5 18.5t-27.5 49.5l-69 -2q5 -58 48 -93t110 -35z" />
    <glyph glyph-name="acute" unicode="&#xb4;" horiz-adv-x="359" 
d="M80 600h85l114 150h-112z" />
    <glyph glyph-name="uni00B5" unicode="&#xb5;" horiz-adv-x="630" 
d="M70 -155h82v183q23 -22 54 -31t65 -9q45 0 90.5 22t70.5 76q12 -45 50 -69.5t93 -24.5h20v67h-17q-31 0 -51.5 19.5t-20.5 58.5v381h-82v-307q0 -70 -40.5 -109.5t-102.5 -39.5q-36 0 -65.5 13t-46.5 44.5t-17 84.5v314h-82v-673z" />
    <glyph glyph-name="paragraph" unicode="&#xb6;" horiz-adv-x="510" 
d="M243 -150h67v860h-67q-49 0 -90.5 -24.5t-66 -65.5t-24.5 -91t24.5 -91t65.5 -65.5t91 -24.5v-498zM381 -150h67v860h-67v-860z" />
    <glyph glyph-name="periodcentered" unicode="&#xb7;" horiz-adv-x="287" 
d="M143 196q28 0 46 17t18 46t-18 46.5t-46 17.5q-27 0 -45 -17.5t-18 -46.5t18 -46t45 -17z" />
    <glyph glyph-name="cedilla" unicode="&#xb8;" horiz-adv-x="351" 
d="M97 -72v-40h33q65 0 65 -30q0 -15 -18.5 -21.5t-42.5 -6.5q-18 0 -32.5 2t-21.5 3v-55q21 -7 71 -7q51 0 85.5 23t34.5 65q0 38 -27.5 59t-71.5 22l29 63v5h-66z" />
    <glyph glyph-name="uni00B9" unicode="&#xb9;" horiz-adv-x="256" 
d="M117 284h71v426h-51l-117 -63v-66l97 50v-347z" />
    <glyph glyph-name="ordmasculine" unicode="&#xba;" horiz-adv-x="485" 
d="M243 391q46 0 82.5 21t58 58t21.5 84q0 48 -21 84.5t-57.5 57.5t-83.5 21t-84 -21t-58 -57.5t-21 -84.5q0 -47 21.5 -84t58.5 -58t83 -21zM243 451q-42 0 -68.5 29t-26.5 74q0 46 26.5 74.5t68.5 28.5q40 0 67 -28.5t27 -74.5q0 -45 -26.5 -74t-67.5 -29z" />
    <glyph glyph-name="guillemotright" unicode="&#xbb;" horiz-adv-x="623" 
d="M50 56h101l138 203l-138 203h-101l137 -203zM325 56h100l138 203l-138 203h-100l137 -203z" />
    <glyph glyph-name="onequarter" unicode="&#xbc;" horiz-adv-x="865" 
d="M117 284h71v426h-51l-117 -63v-66l97 50v-347zM56 0h82l572 710h-83zM693 0h70v101h64v62h-64v263h-87l-194 -257v-68h211v-101zM550 163l143 190v-190h-143z" />
    <glyph glyph-name="onehalf" unicode="&#xbd;" horiz-adv-x="885" 
d="M117 284h71v426h-51l-117 -63v-66l97 50v-347zM56 0h82l572 710h-83zM543 0h304v63h-198l102 103q44 44 63.5 78t19.5 72q0 52 -38 84.5t-100 32.5q-61 0 -102 -34.5t-46 -94.5l69 -2q2 36 24.5 52.5t51.5 16.5q32 0 51 -15.5t19 -43.5q0 -27 -20.5 -57t-76.5 -85
l-123 -121v-49z" />
    <glyph glyph-name="threequarters" unicode="&#xbe;" horiz-adv-x="991" 
d="M190 277q68 0 111 36.5t43 93.5q0 36 -21 63.5t-59 37.5q28 13 45.5 39t17.5 58q0 49 -39.5 80.5t-98.5 31.5q-63 0 -102.5 -34.5t-43.5 -89.5l68 -2q2 30 23 47t55 17q30 0 48.5 -15.5t18.5 -42.5q0 -28 -19 -45t-51 -17h-42v-60h47q39 0 60 -18t21 -47q0 -33 -22.5 -52
t-59.5 -19t-61.5 18.5t-27.5 49.5l-69 -2q5 -58 48 -93t110 -35zM182 0h82l572 710h-83zM819 0h70v101h64v62h-64v263h-87l-194 -257v-68h211v-101zM676 163l143 190v-190h-143z" />
    <glyph glyph-name="questiondown" unicode="&#xbf;" horiz-adv-x="541" 
d="M331 322h-82v-20q0 -33 -15.5 -66t-62.5 -71q-60 -49 -85.5 -94t-25.5 -94q0 -53 27 -92.5t75 -61t110 -21.5q97 0 155 55t64 144l-86 3q-5 -58 -41 -91.5t-91 -33.5q-56 0 -90 27.5t-34 77.5q0 34 19.5 66.5t65.5 69.5q42 33 63 64t27.5 60t6.5 58v20zM288 530
q-27 0 -45 -17t-18 -46t18 -46.5t45 -17.5q28 0 46 17.5t18 46.5t-18 46t-46 17z" />
    <glyph glyph-name="Agrave" unicode="&#xc0;" horiz-adv-x="733" 
d="M40 0h98l72 184h313l72 -184h98l-283 710h-88zM239 261l127 327l127 -327h-254zM325 792h85l-87 150h-112z" />
    <glyph glyph-name="Aacute" unicode="&#xc1;" horiz-adv-x="733" 
d="M40 0h98l72 184h313l72 -184h98l-283 710h-88zM239 261l127 327l127 -327h-254zM324 792h85l114 150h-112z" />
    <glyph glyph-name="Acircumflex" unicode="&#xc2;" horiz-adv-x="733" 
d="M40 0h98l72 184h313l72 -184h98l-283 710h-88zM239 261l127 327l127 -327h-254zM187 792h98l82 95l82 -95h98l-128 150h-104z" />
    <glyph glyph-name="Atilde" unicode="&#xc3;" horiz-adv-x="733" 
d="M40 0h98l72 184h313l72 -184h98l-283 710h-88zM239 261l127 327l127 -327h-254zM423 792q47 0 72.5 29t25.5 81h-57q0 -28 -11.5 -39.5t-29.5 -11.5q-17 0 -31.5 12.5t-33 25.5t-48.5 13q-45 0 -71 -28.5t-26 -81.5h57q0 29 12.5 40t28.5 11q17 0 31.5 -13t33 -25.5
t47.5 -12.5z" />
    <glyph glyph-name="Adieresis" unicode="&#xc4;" horiz-adv-x="733" 
d="M40 0h98l72 184h313l72 -184h98l-283 710h-88zM239 261l127 327l127 -327h-254zM269 795q26 0 44.5 17.5t18.5 43.5q0 27 -18.5 44.5t-44.5 17.5q-25 0 -44 -17.5t-19 -44.5q0 -26 19 -43.5t44 -17.5zM465 795q26 0 44.5 17.5t18.5 43.5q0 27 -18.5 44.5t-44.5 17.5
q-25 0 -44 -17.5t-19 -44.5q0 -26 19 -43.5t44 -17.5z" />
    <glyph glyph-name="Aring" unicode="&#xc5;" horiz-adv-x="733" 
d="M40 0h98l72 184h313l72 -184h98l-283 710h-88zM239 261l127 327l127 -327h-254zM367 782q41 0 70.5 28.5t29.5 72.5q0 43 -29.5 71t-70.5 28t-70.5 -28t-29.5 -71q0 -44 29.5 -72.5t70.5 -28.5zM367 842q-16 0 -27 11.5t-11 29.5q0 17 11 28t27 11q17 0 27.5 -11
t10.5 -28q0 -18 -10.5 -29.5t-27.5 -11.5z" />
    <glyph glyph-name="AE" unicode="&#xc6;" horiz-adv-x="1000" 
d="M950 710h-628l-282 -710h98l72 184h300v-184h440v78h-352v245h312v78h-312v231h352v78zM384 632h126v-371h-271z" />
    <glyph glyph-name="Ccedilla" unicode="&#xc7;" horiz-adv-x="814" 
d="M427 -12q90 0 161 34t114.5 91t51.5 126l-85 8q-6 -53 -40 -93.5t-86.5 -63t-115.5 -22.5q-80 0 -140.5 36.5t-93.5 101t-33 149.5t33.5 149.5t94 101t139.5 36.5q61 0 114 -23t87.5 -63t40.5 -93l85 8q-7 69 -51.5 126t-115.5 91t-160 34q-78 0 -143 -27.5t-113 -77
t-74.5 -116.5t-26.5 -146t26.5 -146t74 -116.5t113 -77t143.5 -27.5zM328 -72v-40h33q65 0 65 -30q0 -15 -18.5 -21.5t-42.5 -6.5q-18 0 -32.5 2t-21.5 3v-55q21 -7 71 -7q51 0 85.5 23t34.5 65q0 38 -27.5 59t-71.5 22l29 63v5h-66z" />
    <glyph glyph-name="Egrave" unicode="&#xc8;" horiz-adv-x="580" 
d="M90 0h440v78h-352v245h312v78h-312v231h352v78h-440v-710zM248 792h85l-87 150h-112z" />
    <glyph glyph-name="Eacute" unicode="&#xc9;" horiz-adv-x="580" 
d="M90 0h440v78h-352v245h312v78h-312v231h352v78h-440v-710zM247 792h85l114 150h-112z" />
    <glyph glyph-name="Ecircumflex" unicode="&#xca;" horiz-adv-x="580" 
d="M90 0h440v78h-352v245h312v78h-312v231h352v78h-440v-710zM110 792h98l82 95l82 -95h98l-128 150h-104z" />
    <glyph glyph-name="Edieresis" unicode="&#xcb;" horiz-adv-x="580" 
d="M90 0h440v78h-352v245h312v78h-312v231h352v78h-440v-710zM192 795q26 0 44.5 17.5t18.5 43.5q0 27 -18.5 44.5t-44.5 17.5q-25 0 -44 -17.5t-19 -44.5q0 -26 19 -43.5t44 -17.5zM388 795q26 0 44.5 17.5t18.5 43.5q0 27 -18.5 44.5t-44.5 17.5q-25 0 -44 -17.5
t-19 -44.5q0 -26 19 -43.5t44 -17.5z" />
    <glyph glyph-name="Igrave" unicode="&#xcc;" horiz-adv-x="268" 
d="M90 0h82v710h-82v-710zM92 792h85l-87 150h-112z" />
    <glyph glyph-name="Iacute" unicode="&#xcd;" horiz-adv-x="268" 
d="M90 0h82v710h-82v-710zM91 792h85l114 150h-112z" />
    <glyph glyph-name="Icircumflex" unicode="&#xce;" horiz-adv-x="268" 
d="M90 0h82v710h-82v-710zM-46 792h98l82 95l82 -95h98l-128 150h-104z" />
    <glyph glyph-name="Idieresis" unicode="&#xcf;" horiz-adv-x="268" 
d="M90 0h82v710h-82v-710zM36 795q26 0 44.5 17.5t18.5 43.5q0 27 -18.5 44.5t-44.5 17.5q-25 0 -44 -17.5t-19 -44.5q0 -26 19 -43.5t44 -17.5zM232 795q26 0 44.5 17.5t18.5 43.5q0 27 -18.5 44.5t-44.5 17.5q-25 0 -44 -17.5t-19 -44.5q0 -26 19 -43.5t44 -17.5z" />
    <glyph glyph-name="Eth" unicode="&#xd0;" horiz-adv-x="762" 
d="M90 0h231q113 0 196.5 45t129 125t45.5 185q0 108 -45.5 187.5t-128.5 123.5t-197 44h-231v-710zM178 78v554h145q86 0 148.5 -35.5t96.5 -98t34 -143.5q0 -79 -34 -141.5t-96.5 -99t-148.5 -36.5h-145zM-16 316h300v77h-300v-77z" />
    <glyph glyph-name="Ntilde" unicode="&#xd1;" horiz-adv-x="744" 
d="M90 0h88v552l394 -552h82v710h-88v-549l-395 549h-81v-710zM428 792q47 0 72.5 29t25.5 81h-57q0 -28 -11.5 -39.5t-29.5 -11.5q-17 0 -31.5 12.5t-33 25.5t-48.5 13q-45 0 -71 -28.5t-26 -81.5h57q0 29 12.5 40t28.5 11q17 0 31.5 -13t33 -25.5t47.5 -12.5z" />
    <glyph glyph-name="Ograve" unicode="&#xd2;" horiz-adv-x="862" 
d="M431 -12q78 0 144 27.5t114.5 77.5t75.5 117t27 145t-27 145t-76 116.5t-115 77.5t-143 28t-143 -27.5t-115 -77.5t-76 -117t-27 -145t27 -145t75.5 -117t114.5 -77.5t144 -27.5zM431 68q-82 0 -143 37.5t-94.5 102.5t-33.5 147t33.5 147t94.5 102.5t143 37.5t143 -37.5
t94.5 -102.5t33.5 -147t-34 -147t-94.5 -102.5t-142.5 -37.5zM389 792h85l-87 150h-112z" />
    <glyph glyph-name="Oacute" unicode="&#xd3;" horiz-adv-x="862" 
d="M431 -12q78 0 144 27.5t114.5 77.5t75.5 117t27 145t-27 145t-76 116.5t-115 77.5t-143 28t-143 -27.5t-115 -77.5t-76 -117t-27 -145t27 -145t75.5 -117t114.5 -77.5t144 -27.5zM431 68q-82 0 -143 37.5t-94.5 102.5t-33.5 147t33.5 147t94.5 102.5t143 37.5t143 -37.5
t94.5 -102.5t33.5 -147t-34 -147t-94.5 -102.5t-142.5 -37.5zM388 792h85l114 150h-112z" />
    <glyph glyph-name="Ocircumflex" unicode="&#xd4;" horiz-adv-x="862" 
d="M431 -12q78 0 144 27.5t114.5 77.5t75.5 117t27 145t-27 145t-76 116.5t-115 77.5t-143 28t-143 -27.5t-115 -77.5t-76 -117t-27 -145t27 -145t75.5 -117t114.5 -77.5t144 -27.5zM431 68q-82 0 -143 37.5t-94.5 102.5t-33.5 147t33.5 147t94.5 102.5t143 37.5t143 -37.5
t94.5 -102.5t33.5 -147t-34 -147t-94.5 -102.5t-142.5 -37.5zM251 792h98l82 95l82 -95h98l-128 150h-104z" />
    <glyph glyph-name="Otilde" unicode="&#xd5;" horiz-adv-x="862" 
d="M431 -12q78 0 144 27.5t114.5 77.5t75.5 117t27 145t-27 145t-76 116.5t-115 77.5t-143 28t-143 -27.5t-115 -77.5t-76 -117t-27 -145t27 -145t75.5 -117t114.5 -77.5t144 -27.5zM431 68q-82 0 -143 37.5t-94.5 102.5t-33.5 147t33.5 147t94.5 102.5t143 37.5t143 -37.5
t94.5 -102.5t33.5 -147t-34 -147t-94.5 -102.5t-142.5 -37.5zM487 792q47 0 72.5 29t25.5 81h-57q0 -28 -11.5 -39.5t-29.5 -11.5q-17 0 -31.5 12.5t-33 25.5t-48.5 13q-45 0 -71 -28.5t-26 -81.5h57q0 29 12.5 40t28.5 11q17 0 31.5 -13t33 -25.5t47.5 -12.5z" />
    <glyph glyph-name="Odieresis" unicode="&#xd6;" horiz-adv-x="862" 
d="M431 -12q78 0 144 27.5t114.5 77.5t75.5 117t27 145t-27 145t-76 116.5t-115 77.5t-143 28t-143 -27.5t-115 -77.5t-76 -117t-27 -145t27 -145t75.5 -117t114.5 -77.5t144 -27.5zM431 68q-82 0 -143 37.5t-94.5 102.5t-33.5 147t33.5 147t94.5 102.5t143 37.5t143 -37.5
t94.5 -102.5t33.5 -147t-34 -147t-94.5 -102.5t-142.5 -37.5zM333 795q26 0 44.5 17.5t18.5 43.5q0 27 -18.5 44.5t-44.5 17.5q-25 0 -44 -17.5t-19 -44.5q0 -26 19 -43.5t44 -17.5zM529 795q26 0 44.5 17.5t18.5 43.5q0 27 -18.5 44.5t-44.5 17.5q-25 0 -44 -17.5
t-19 -44.5q0 -26 19 -43.5t44 -17.5z" />
    <glyph glyph-name="multiply" unicode="&#xd7;" 
d="M167 19l191 187l190 -187l55 56l-190 188l190 187l-55 55l-190 -188l-191 188l-55 -55l189 -187l-189 -188z" />
    <glyph glyph-name="Oslash" unicode="&#xd8;" horiz-adv-x="862" 
d="M431 -12q78 0 144 27.5t114.5 77.5t75.5 117t27 145t-27 145t-76 116.5t-115 77.5t-143 28t-143 -27.5t-115 -77.5t-76 -117t-27 -145t27 -145t75.5 -117t114.5 -77.5t144 -27.5zM431 68q-82 0 -143 37.5t-94.5 102.5t-33.5 147t33.5 147t94.5 102.5t143 37.5t143 -37.5
t94.5 -102.5t33.5 -147t-34 -147t-94.5 -102.5t-142.5 -37.5zM38 0h104l682 710h-104z" />
    <glyph glyph-name="Ugrave" unicode="&#xd9;" horiz-adv-x="678" 
d="M338 -12q75 0 133 31t91.5 87t33.5 129v475h-88v-474q0 -74 -46.5 -121t-123.5 -47q-75 0 -121.5 47t-46.5 121v474h-88v-475q0 -73 33.5 -129t91.5 -87t131 -31zM297 792h85l-87 150h-112z" />
    <glyph glyph-name="Uacute" unicode="&#xda;" horiz-adv-x="678" 
d="M338 -12q75 0 133 31t91.5 87t33.5 129v475h-88v-474q0 -74 -46.5 -121t-123.5 -47q-75 0 -121.5 47t-46.5 121v474h-88v-475q0 -73 33.5 -129t91.5 -87t131 -31zM296 792h85l114 150h-112z" />
    <glyph glyph-name="Ucircumflex" unicode="&#xdb;" horiz-adv-x="678" 
d="M338 -12q75 0 133 31t91.5 87t33.5 129v475h-88v-474q0 -74 -46.5 -121t-123.5 -47q-75 0 -121.5 47t-46.5 121v474h-88v-475q0 -73 33.5 -129t91.5 -87t131 -31zM159 792h98l82 95l82 -95h98l-128 150h-104z" />
    <glyph glyph-name="Udieresis" unicode="&#xdc;" horiz-adv-x="678" 
d="M338 -12q75 0 133 31t91.5 87t33.5 129v475h-88v-474q0 -74 -46.5 -121t-123.5 -47q-75 0 -121.5 47t-46.5 121v474h-88v-475q0 -73 33.5 -129t91.5 -87t131 -31zM241 795q26 0 44.5 17.5t18.5 43.5q0 27 -18.5 44.5t-44.5 17.5q-25 0 -44 -17.5t-19 -44.5
q0 -26 19 -43.5t44 -17.5zM437 795q26 0 44.5 17.5t18.5 43.5q0 27 -18.5 44.5t-44.5 17.5q-25 0 -44 -17.5t-19 -44.5q0 -26 19 -43.5t44 -17.5z" />
    <glyph glyph-name="Yacute" unicode="&#xdd;" horiz-adv-x="676" 
d="M294 0h88v326l254 384h-107l-191 -293l-191 293h-107l254 -384v-326zM295 792h85l114 150h-112z" />
    <glyph glyph-name="Thorn" unicode="&#xde;" horiz-adv-x="617" 
d="M90 0h88v149h159q103 0 161.5 57.5t58.5 149.5q0 93 -58.5 149.5t-161.5 56.5h-159v148h-88v-710zM178 227v257h158q62 0 97.5 -34.5t35.5 -93.5q0 -57 -35.5 -93t-97.5 -36h-158z" />
    <glyph glyph-name="germandbls" unicode="&#xdf;" horiz-adv-x="662" 
d="M80 0h82v484q0 76 46.5 120t122.5 44q73 0 115.5 -35.5t42.5 -95.5q0 -53 -36.5 -87.5t-94.5 -34.5h-55v-72h80q59 0 97 -34.5t38 -90.5q0 -53 -37.5 -88.5t-97.5 -35.5h-80v-74h77q67 0 117 26t77.5 71t27.5 100q0 60 -32 103.5t-85 62.5q48 30 68 71t20 84
q0 94 -66 149t-178 55q-76 0 -132 -29t-86.5 -82.5t-30.5 -126.5v-484z" />
    <glyph glyph-name="agrave" unicode="&#xe0;" horiz-adv-x="596" 
d="M238 -12q65 0 110 22.5t68 59.5v-70h80v357q0 77 -57 125t-158 48q-85 0 -145 -43.5t-74 -120.5l79 -4q11 48 48.5 72t90.5 24q62 0 98 -28t36 -73v-18l-185 -36q-76 -15 -122.5 -55.5t-46.5 -112.5q0 -67 49 -107t129 -40zM249 59q-44 0 -75 19t-31 61q0 41 30.5 65.5
t76.5 33.5l164 32v-63q0 -70 -44 -109t-121 -39zM256 600h85l-87 150h-112z" />
    <glyph glyph-name="aacute" unicode="&#xe1;" horiz-adv-x="596" 
d="M238 -12q65 0 110 22.5t68 59.5v-70h80v357q0 77 -57 125t-158 48q-85 0 -145 -43.5t-74 -120.5l79 -4q11 48 48.5 72t90.5 24q62 0 98 -28t36 -73v-18l-185 -36q-76 -15 -122.5 -55.5t-46.5 -112.5q0 -67 49 -107t129 -40zM249 59q-44 0 -75 19t-31 61q0 41 30.5 65.5
t76.5 33.5l164 32v-63q0 -70 -44 -109t-121 -39zM255 600h85l114 150h-112z" />
    <glyph glyph-name="acircumflex" unicode="&#xe2;" horiz-adv-x="596" 
d="M238 -12q65 0 110 22.5t68 59.5v-70h80v357q0 77 -57 125t-158 48q-85 0 -145 -43.5t-74 -120.5l79 -4q11 48 48.5 72t90.5 24q62 0 98 -28t36 -73v-18l-185 -36q-76 -15 -122.5 -55.5t-46.5 -112.5q0 -67 49 -107t129 -40zM249 59q-44 0 -75 19t-31 61q0 41 30.5 65.5
t76.5 33.5l164 32v-63q0 -70 -44 -109t-121 -39zM118 600h98l82 95l82 -95h98l-128 150h-104z" />
    <glyph glyph-name="atilde" unicode="&#xe3;" horiz-adv-x="596" 
d="M238 -12q65 0 110 22.5t68 59.5v-70h80v357q0 77 -57 125t-158 48q-85 0 -145 -43.5t-74 -120.5l79 -4q11 48 48.5 72t90.5 24q62 0 98 -28t36 -73v-18l-185 -36q-76 -15 -122.5 -55.5t-46.5 -112.5q0 -67 49 -107t129 -40zM249 59q-44 0 -75 19t-31 61q0 41 30.5 65.5
t76.5 33.5l164 32v-63q0 -70 -44 -109t-121 -39zM354 600q47 0 72.5 29t25.5 81h-57q0 -28 -11.5 -39.5t-29.5 -11.5q-17 0 -31.5 12.5t-33 25.5t-48.5 13q-45 0 -71 -28.5t-26 -81.5h57q0 29 12.5 40t28.5 11q17 0 31.5 -13t33 -25.5t47.5 -12.5z" />
    <glyph glyph-name="adieresis" unicode="&#xe4;" horiz-adv-x="596" 
d="M238 -12q65 0 110 22.5t68 59.5v-70h80v357q0 77 -57 125t-158 48q-85 0 -145 -43.5t-74 -120.5l79 -4q11 48 48.5 72t90.5 24q62 0 98 -28t36 -73v-18l-185 -36q-76 -15 -122.5 -55.5t-46.5 -112.5q0 -67 49 -107t129 -40zM249 59q-44 0 -75 19t-31 61q0 41 30.5 65.5
t76.5 33.5l164 32v-63q0 -70 -44 -109t-121 -39zM200 603q26 0 44.5 17.5t18.5 43.5q0 27 -18.5 44.5t-44.5 17.5q-25 0 -44 -17.5t-19 -44.5q0 -26 19 -43.5t44 -17.5zM396 603q26 0 44.5 17.5t18.5 43.5q0 27 -18.5 44.5t-44.5 17.5q-25 0 -44 -17.5t-19 -44.5
q0 -26 19 -43.5t44 -17.5z" />
    <glyph glyph-name="aring" unicode="&#xe5;" horiz-adv-x="596" 
d="M238 -12q65 0 110 22.5t68 59.5v-70h80v357q0 77 -57 125t-158 48q-85 0 -145 -43.5t-74 -120.5l79 -4q11 48 48.5 72t90.5 24q62 0 98 -28t36 -73v-18l-185 -36q-76 -15 -122.5 -55.5t-46.5 -112.5q0 -67 49 -107t129 -40zM249 59q-44 0 -75 19t-31 61q0 41 30.5 65.5
t76.5 33.5l164 32v-63q0 -70 -44 -109t-121 -39zM298 590q41 0 70.5 28.5t29.5 72.5q0 43 -29.5 71t-70.5 28t-70.5 -28t-29.5 -71q0 -44 29.5 -72.5t70.5 -28.5zM298 650q-16 0 -27 11.5t-11 29.5q0 17 11 28t27 11q17 0 27.5 -11t10.5 -28q0 -18 -10.5 -29.5t-27.5 -11.5z
" />
    <glyph glyph-name="ae" unicode="&#xe6;" horiz-adv-x="993" 
d="M238 -12q65 0 110 22.5t68 59.5v-70h80v61q36 -35 84 -54t103 -19q89 0 156 47t87 129l-80 6q-13 -53 -58 -83.5t-105 -30.5q-46 0 -87 21t-67 60.5t-30 95.5h429q5 28 5 54q0 67 -31 122t-87.5 88t-134.5 33q-62 0 -115 -25t-88 -69q-24 43 -74 68.5t-122 25.5
q-85 0 -145 -43.5t-74 -120.5l79 -4q11 48 48.5 72t90.5 24q62 0 98 -28t36 -73v-18l-185 -36q-76 -15 -122.5 -55.5t-46.5 -112.5q0 -67 49 -107t129 -40zM501 303q6 52 32 87t65 53.5t82 18.5q77 0 124 -45.5t48 -113.5h-351zM249 59q-44 0 -75 19t-31 61q0 41 30.5 65.5
t76.5 33.5l164 32v-63q0 -70 -44 -109t-121 -39z" />
    <glyph glyph-name="ccedilla" unicode="&#xe7;" horiz-adv-x="630" 
d="M326 -12q61 0 112.5 23.5t86.5 66.5t45 102l-78 9q-14 -61 -60.5 -93.5t-105.5 -32.5q-50 0 -91 24t-65.5 68t-24.5 104t24.5 104t65.5 68t91 24q59 0 105.5 -32.5t60.5 -93.5l77 9q-10 60 -44.5 103t-86 66t-112.5 23q-75 0 -135.5 -34.5t-95.5 -95.5t-35 -141t35 -141
t95.5 -95.5t135.5 -34.5zM236 -72v-40h33q65 0 65 -30q0 -15 -18.5 -21.5t-42.5 -6.5q-18 0 -32.5 2t-21.5 3v-55q21 -7 71 -7q51 0 85.5 23t34.5 65q0 38 -27.5 59t-71.5 22l29 63v5h-66z" />
    <glyph glyph-name="egrave" unicode="&#xe8;" horiz-adv-x="636" 
d="M326 -12q89 0 156 47t87 129l-80 6q-13 -53 -58 -83.5t-105 -30.5q-46 0 -87 21t-67 60.5t-30 95.5h429q5 28 5 54q0 67 -31 122t-87.5 88t-134.5 33q-74 0 -133.5 -34.5t-94.5 -95.5t-35 -141t35 -141t95.5 -95.5t135.5 -34.5zM144 303q6 52 32 87t65 53.5t82 18.5
q77 0 124 -45.5t48 -113.5h-351zM276 600h85l-87 150h-112z" />
    <glyph glyph-name="eacute" unicode="&#xe9;" horiz-adv-x="636" 
d="M326 -12q89 0 156 47t87 129l-80 6q-13 -53 -58 -83.5t-105 -30.5q-46 0 -87 21t-67 60.5t-30 95.5h429q5 28 5 54q0 67 -31 122t-87.5 88t-134.5 33q-74 0 -133.5 -34.5t-94.5 -95.5t-35 -141t35 -141t95.5 -95.5t135.5 -34.5zM144 303q6 52 32 87t65 53.5t82 18.5
q77 0 124 -45.5t48 -113.5h-351zM275 600h85l114 150h-112z" />
    <glyph glyph-name="ecircumflex" unicode="&#xea;" horiz-adv-x="636" 
d="M326 -12q89 0 156 47t87 129l-80 6q-13 -53 -58 -83.5t-105 -30.5q-46 0 -87 21t-67 60.5t-30 95.5h429q5 28 5 54q0 67 -31 122t-87.5 88t-134.5 33q-74 0 -133.5 -34.5t-94.5 -95.5t-35 -141t35 -141t95.5 -95.5t135.5 -34.5zM144 303q6 52 32 87t65 53.5t82 18.5
q77 0 124 -45.5t48 -113.5h-351zM138 600h98l82 95l82 -95h98l-128 150h-104z" />
    <glyph glyph-name="edieresis" unicode="&#xeb;" horiz-adv-x="636" 
d="M326 -12q89 0 156 47t87 129l-80 6q-13 -53 -58 -83.5t-105 -30.5q-46 0 -87 21t-67 60.5t-30 95.5h429q5 28 5 54q0 67 -31 122t-87.5 88t-134.5 33q-74 0 -133.5 -34.5t-94.5 -95.5t-35 -141t35 -141t95.5 -95.5t135.5 -34.5zM144 303q6 52 32 87t65 53.5t82 18.5
q77 0 124 -45.5t48 -113.5h-351zM220 603q26 0 44.5 17.5t18.5 43.5q0 27 -18.5 44.5t-44.5 17.5q-25 0 -44 -17.5t-19 -44.5q0 -26 19 -43.5t44 -17.5zM416 603q26 0 44.5 17.5t18.5 43.5q0 27 -18.5 44.5t-44.5 17.5q-25 0 -44 -17.5t-19 -44.5q0 -26 19 -43.5t44 -17.5z
" />
    <glyph glyph-name="igrave" unicode="&#xec;" horiz-adv-x="242" 
d="M80 0h82v518h-82v-518zM79 600h85l-87 150h-112z" />
    <glyph glyph-name="iacute" unicode="&#xed;" horiz-adv-x="242" 
d="M80 0h82v518h-82v-518zM78 600h85l114 150h-112z" />
    <glyph glyph-name="icircumflex" unicode="&#xee;" horiz-adv-x="242" 
d="M80 0h82v518h-82v-518zM-59 600h98l82 95l82 -95h98l-128 150h-104z" />
    <glyph glyph-name="idieresis" unicode="&#xef;" horiz-adv-x="242" 
d="M80 0h82v518h-82v-518zM23 603q26 0 44.5 17.5t18.5 43.5q0 27 -18.5 44.5t-44.5 17.5q-25 0 -44 -17.5t-19 -44.5q0 -26 19 -43.5t44 -17.5zM219 603q26 0 44.5 17.5t18.5 43.5q0 27 -18.5 44.5t-44.5 17.5q-25 0 -44 -17.5t-19 -44.5q0 -26 19 -43.5t44 -17.5z" />
    <glyph glyph-name="eth" unicode="&#xf0;" horiz-adv-x="625" 
d="M313 -12q73 0 130 34.5t89.5 99.5t32.5 156q0 86 -30 164.5t-97 148.5l100 28l-14 49l-128 -37q-28 24 -61.5 47t-71.5 44l-46 -45q27 -15 53 -31.5t50 -35.5l-99 -29l14 -48l129 37q28 -28 51 -61.5t39 -74.5q-31 25 -69 36.5t-78 11.5q-70 0 -126 -31.5t-88.5 -86
t-32.5 -125.5q0 -72 32.5 -129t90 -89.5t130.5 -32.5zM313 62q-48 0 -86.5 22.5t-60.5 62.5t-22 92t22 91.5t60.5 61.5t86.5 22t86 -22t60 -61.5t22 -91.5t-22 -92t-60 -62.5t-86 -22.5z" />
    <glyph glyph-name="ntilde" unicode="&#xf1;" horiz-adv-x="593" 
d="M80 0h82v302q0 69 40.5 112.5t105.5 43.5q62 0 97.5 -41t35.5 -115v-302h82v306q0 104 -54 164t-147 60q-111 0 -162 -86v74h-80v-518zM353 600q47 0 72.5 29t25.5 81h-57q0 -28 -11.5 -39.5t-29.5 -11.5q-17 0 -31.5 12.5t-33 25.5t-48.5 13q-45 0 -71 -28.5t-26 -81.5
h57q0 29 12.5 40t28.5 11q17 0 31.5 -13t33 -25.5t47.5 -12.5z" />
    <glyph glyph-name="ograve" unicode="&#xf2;" horiz-adv-x="650" 
d="M326 -12q75 0 134.5 34.5t94.5 95.5t35 141q0 81 -34.5 142t-94.5 95t-135 34q-78 0 -138 -34.5t-94 -95.5t-34 -141t34.5 -141t94.5 -95.5t137 -34.5zM326 62q-53 0 -94.5 24.5t-64.5 69t-23 103.5t23 103.5t64.5 69t94.5 24.5q51 0 91.5 -24.5t64.5 -69t24 -103.5
t-23.5 -103.5t-64.5 -69t-92 -24.5zM283 600h85l-87 150h-112z" />
    <glyph glyph-name="oacute" unicode="&#xf3;" horiz-adv-x="650" 
d="M326 -12q75 0 134.5 34.5t94.5 95.5t35 141q0 81 -34.5 142t-94.5 95t-135 34q-78 0 -138 -34.5t-94 -95.5t-34 -141t34.5 -141t94.5 -95.5t137 -34.5zM326 62q-53 0 -94.5 24.5t-64.5 69t-23 103.5t23 103.5t64.5 69t94.5 24.5q51 0 91.5 -24.5t64.5 -69t24 -103.5
t-23.5 -103.5t-64.5 -69t-92 -24.5zM282 600h85l114 150h-112z" />
    <glyph glyph-name="ocircumflex" unicode="&#xf4;" horiz-adv-x="650" 
d="M326 -12q75 0 134.5 34.5t94.5 95.5t35 141q0 81 -34.5 142t-94.5 95t-135 34q-78 0 -138 -34.5t-94 -95.5t-34 -141t34.5 -141t94.5 -95.5t137 -34.5zM326 62q-53 0 -94.5 24.5t-64.5 69t-23 103.5t23 103.5t64.5 69t94.5 24.5q51 0 91.5 -24.5t64.5 -69t24 -103.5
t-23.5 -103.5t-64.5 -69t-92 -24.5zM145 600h98l82 95l82 -95h98l-128 150h-104z" />
    <glyph glyph-name="otilde" unicode="&#xf5;" horiz-adv-x="650" 
d="M326 -12q75 0 134.5 34.5t94.5 95.5t35 141q0 81 -34.5 142t-94.5 95t-135 34q-78 0 -138 -34.5t-94 -95.5t-34 -141t34.5 -141t94.5 -95.5t137 -34.5zM326 62q-53 0 -94.5 24.5t-64.5 69t-23 103.5t23 103.5t64.5 69t94.5 24.5q51 0 91.5 -24.5t64.5 -69t24 -103.5
t-23.5 -103.5t-64.5 -69t-92 -24.5zM381 600q47 0 72.5 29t25.5 81h-57q0 -28 -11.5 -39.5t-29.5 -11.5q-17 0 -31.5 12.5t-33 25.5t-48.5 13q-45 0 -71 -28.5t-26 -81.5h57q0 29 12.5 40t28.5 11q17 0 31.5 -13t33 -25.5t47.5 -12.5z" />
    <glyph glyph-name="odieresis" unicode="&#xf6;" horiz-adv-x="650" 
d="M326 -12q75 0 134.5 34.5t94.5 95.5t35 141q0 81 -34.5 142t-94.5 95t-135 34q-78 0 -138 -34.5t-94 -95.5t-34 -141t34.5 -141t94.5 -95.5t137 -34.5zM326 62q-53 0 -94.5 24.5t-64.5 69t-23 103.5t23 103.5t64.5 69t94.5 24.5q51 0 91.5 -24.5t64.5 -69t24 -103.5
t-23.5 -103.5t-64.5 -69t-92 -24.5zM227 603q26 0 44.5 17.5t18.5 43.5q0 27 -18.5 44.5t-44.5 17.5q-25 0 -44 -17.5t-19 -44.5q0 -26 19 -43.5t44 -17.5zM423 603q26 0 44.5 17.5t18.5 43.5q0 27 -18.5 44.5t-44.5 17.5q-25 0 -44 -17.5t-19 -44.5q0 -26 19 -43.5
t44 -17.5z" />
    <glyph glyph-name="divide" unicode="&#xf7;" 
d="M313 442h88v92h-88v-92zM100 233h514v68h-514v-68zM313 0h88v92h-88v-92z" />
    <glyph glyph-name="oslash" unicode="&#xf8;" horiz-adv-x="650" 
d="M326 -12q75 0 134.5 34.5t94.5 95.5t35 141q0 81 -34.5 142t-94.5 95t-135 34q-78 0 -138 -34.5t-94 -95.5t-34 -141t34.5 -141t94.5 -95.5t137 -34.5zM326 62q-53 0 -94.5 24.5t-64.5 69t-23 103.5t23 103.5t64.5 69t94.5 24.5q51 0 91.5 -24.5t64.5 -69t24 -103.5
t-23.5 -103.5t-64.5 -69t-92 -24.5zM24 0h104l498 518h-104z" />
    <glyph glyph-name="ugrave" unicode="&#xf9;" horiz-adv-x="575" 
d="M262 -12q52 0 94.5 20.5t68.5 63.5v-72h80v518h-82v-310q0 -70 -41 -108t-104 -38q-54 0 -90 33t-36 113v310h-82v-317q0 -108 54 -160.5t138 -52.5zM246 600h85l-87 150h-112z" />
    <glyph glyph-name="uacute" unicode="&#xfa;" horiz-adv-x="575" 
d="M262 -12q52 0 94.5 20.5t68.5 63.5v-72h80v518h-82v-310q0 -70 -41 -108t-104 -38q-54 0 -90 33t-36 113v310h-82v-317q0 -108 54 -160.5t138 -52.5zM245 600h85l114 150h-112z" />
    <glyph glyph-name="ucircumflex" unicode="&#xfb;" horiz-adv-x="575" 
d="M262 -12q52 0 94.5 20.5t68.5 63.5v-72h80v518h-82v-310q0 -70 -41 -108t-104 -38q-54 0 -90 33t-36 113v310h-82v-317q0 -108 54 -160.5t138 -52.5zM108 600h98l82 95l82 -95h98l-128 150h-104z" />
    <glyph glyph-name="udieresis" unicode="&#xfc;" horiz-adv-x="575" 
d="M262 -12q52 0 94.5 20.5t68.5 63.5v-72h80v518h-82v-310q0 -70 -41 -108t-104 -38q-54 0 -90 33t-36 113v310h-82v-317q0 -108 54 -160.5t138 -52.5zM190 603q26 0 44.5 17.5t18.5 43.5q0 27 -18.5 44.5t-44.5 17.5q-25 0 -44 -17.5t-19 -44.5q0 -26 19 -43.5t44 -17.5z
M386 603q26 0 44.5 17.5t18.5 43.5q0 27 -18.5 44.5t-44.5 17.5q-25 0 -44 -17.5t-19 -44.5q0 -26 19 -43.5t44 -17.5z" />
    <glyph glyph-name="yacute" unicode="&#xfd;" horiz-adv-x="589" 
d="M145 -223q47 0 76.5 21.5t49.5 59.5t40 86l238 574h-88l-166 -405l-167 405h-88l212 -505l-21 -55q-21 -55 -43.5 -79t-51.5 -24q-13 0 -24 1.5t-19 3.5h-8v-72q19 -11 60 -11zM252 600h85l114 150h-112z" />
    <glyph glyph-name="thorn" unicode="&#xfe;" horiz-adv-x="668" 
d="M80 -200h82v283q29 -44 80 -69.5t109 -25.5q74 0 132 34t91.5 95.5t33.5 141.5q0 81 -33.5 142t-91.5 95t-133 34q-58 0 -107.5 -24.5t-80.5 -68.5v285h-82v-922zM344 62q-51 0 -92.5 23t-65.5 67t-24 107t24 107t65.5 67t92.5 23q52 0 92.5 -24.5t64 -68.5t23.5 -104
q0 -59 -23.5 -103.5t-64 -69t-92.5 -24.5z" />
    <glyph glyph-name="ydieresis" unicode="&#xff;" horiz-adv-x="589" 
d="M145 -223q47 0 76.5 21.5t49.5 59.5t40 86l238 574h-88l-166 -405l-167 405h-88l212 -505l-21 -55q-21 -55 -43.5 -79t-51.5 -24q-13 0 -24 1.5t-19 3.5h-8v-72q19 -11 60 -11zM197 603q26 0 44.5 17.5t18.5 43.5q0 27 -18.5 44.5t-44.5 17.5q-25 0 -44 -17.5t-19 -44.5
q0 -26 19 -43.5t44 -17.5zM393 603q26 0 44.5 17.5t18.5 43.5q0 27 -18.5 44.5t-44.5 17.5q-25 0 -44 -17.5t-19 -44.5q0 -26 19 -43.5t44 -17.5z" />
    <glyph glyph-name="dotlessi" unicode="&#x131;" horiz-adv-x="242" 
d="M80 0h82v518h-82v-518z" />
    <glyph glyph-name="Lslash" unicode="&#x141;" horiz-adv-x="581" 
d="M90 0h451v78h-363v632h-88v-710zM-16 213l300 200v84l-300 -200v-84z" />
    <glyph glyph-name="lslash" unicode="&#x142;" horiz-adv-x="252" 
d="M80 0h82v710h-82v-710zM-4 290l250 166v84l-250 -166v-84z" />
    <glyph glyph-name="OE" unicode="&#x152;" horiz-adv-x="1197" 
d="M431 -12q86 0 156.5 33t119.5 91v-112h440v78h-352v245h312v78h-312v231h352v78h-440v-114q-49 59 -120 92.5t-156 33.5q-77 0 -143 -27.5t-115 -77.5t-76 -117t-27 -145t27 -145t75.5 -117t114.5 -77.5t144 -27.5zM431 68q-82 0 -143 37.5t-94.5 102.5t-33.5 147
t33.5 147t94.5 102.5t143 37.5t143 -37.5t94.5 -102.5t33.5 -147t-34 -147t-94.5 -102.5t-142.5 -37.5z" />
    <glyph glyph-name="oe" unicode="&#x153;" horiz-adv-x="1085" 
d="M326 -12q72 0 131 32.5t93 88.5q35 -56 94 -88.5t131 -32.5q89 0 156 47t87 129l-80 6q-13 -53 -58 -83.5t-105 -30.5q-46 0 -87 21t-67 60.5t-30 95.5h429q5 28 5 54q0 67 -31 122t-87.5 88t-134.5 33q-71 0 -129 -32t-93 -88q-34 56 -93 88t-131 32q-78 0 -138 -34.5
t-94 -95.5t-34 -141t34.5 -141t94.5 -95.5t137 -34.5zM593 303q6 52 32 87t65 53.5t82 18.5q77 0 124 -45.5t48 -113.5h-351zM326 62q-53 0 -94.5 24.5t-64.5 69t-23 103.5t23 103.5t64.5 69t94.5 24.5q51 0 91.5 -24.5t64.5 -69t24 -103.5t-23.5 -103.5t-64.5 -69
t-92 -24.5z" />
    <glyph glyph-name="Scaron" unicode="&#x160;" horiz-adv-x="644" 
d="M323 -12q74 0 130.5 24.5t88.5 69.5t32 108q0 57 -20 92.5t-53 56.5t-73.5 33.5t-81.5 22.5q-46 12 -86 25t-65 37.5t-25 69.5q0 58 40 87.5t102 29.5q59 0 101.5 -26t49.5 -76l86 4q-7 52 -39.5 91.5t-84 62t-114.5 22.5q-69 0 -120.5 -24.5t-80 -69t-28.5 -105.5
q0 -57 20 -93t52.5 -57.5t73 -33.5t80.5 -21q47 -11 87.5 -24t65.5 -38.5t25 -72.5q0 -55 -44 -86t-117 -31q-70 0 -120.5 34.5t-58.5 102.5l-86 -4q5 -65 40 -112.5t93 -73t130 -25.5zM270 792h104l128 150h-98l-82 -95l-82 95h-98z" />
    <glyph glyph-name="scaron" unicode="&#x161;" horiz-adv-x="506" 
d="M255 -12q55 0 98 18.5t68 52.5t25 79q0 42 -15.5 69.5t-41 44.5t-56.5 27.5t-62 18.5q-33 9 -61.5 18.5t-46 26.5t-17.5 46q0 31 27 50t71 19q43 0 73.5 -22t35.5 -60l77 9q-6 66 -58 105.5t-129 39.5q-80 0 -129.5 -40.5t-49.5 -106.5q0 -41 15 -67.5t40.5 -43t56 -26.5
t61.5 -18q33 -8 62 -18.5t47 -28t18 -47.5q0 -33 -31 -53.5t-78 -20.5q-53 0 -88 27t-41 72l-76 -9q3 -49 30 -85.5t72.5 -56.5t102.5 -20zM201 600h104l128 150h-98l-82 -95l-82 95h-98z" />
    <glyph glyph-name="Ydieresis" unicode="&#x178;" horiz-adv-x="676" 
d="M294 0h88v326l254 384h-107l-191 -293l-191 293h-107l254 -384v-326zM240 795q26 0 44.5 17.5t18.5 43.5q0 27 -18.5 44.5t-44.5 17.5q-25 0 -44 -17.5t-19 -44.5q0 -26 19 -43.5t44 -17.5zM436 795q26 0 44.5 17.5t18.5 43.5q0 27 -18.5 44.5t-44.5 17.5
q-25 0 -44 -17.5t-19 -44.5q0 -26 19 -43.5t44 -17.5z" />
    <glyph glyph-name="Zcaron" unicode="&#x17d;" horiz-adv-x="606" 
d="M30 0h526v78h-402l380 582v50h-488v-78h365l-381 -582v-50zM251 792h104l128 150h-98l-82 -95l-82 95h-98z" />
    <glyph glyph-name="zcaron" unicode="&#x17e;" horiz-adv-x="494" 
d="M30 0h424v70h-300l297 413v35h-403v-70h281l-299 -413v-35zM195 600h104l128 150h-98l-82 -95l-82 95h-98z" />
    <glyph glyph-name="florin" unicode="&#x192;" horiz-adv-x="477" 
d="M135 -223q59 0 100 34t41 104v309h151v70h-151v306q0 41 22 57t50 16q36 0 67 -17h5v64q-20 11 -41.5 15.5t-43.5 4.5q-58 0 -99.5 -33.5t-41.5 -104.5v-308h-119v-70h119v-306q0 -42 -22 -57.5t-51 -15.5q-34 0 -66 16h-5v-64q20 -11 41.5 -15.5t43.5 -4.5z" />
    <glyph glyph-name="uni0237" unicode="&#x237;" horiz-adv-x="286" 
d="M54 -222q66 0 109 40t43 111v589h-82v-584q0 -46 -21 -67t-59 -21q-19 0 -35 4.5t-34 12.5h-5v-65q40 -20 84 -20z" />
    <glyph glyph-name="circumflex" unicode="&#x2c6;" horiz-adv-x="520" 
d="M80 600h98l82 95l82 -95h98l-128 150h-104z" />
    <glyph glyph-name="caron" unicode="&#x2c7;" horiz-adv-x="520" 
d="M208 600h104l128 150h-98l-82 -95l-82 95h-98z" />
    <glyph glyph-name="breve" unicode="&#x2d8;" horiz-adv-x="464" 
d="M232 600q70 0 111 40.5t41 109.5h-80q0 -34 -20 -57t-52 -23q-31 0 -51.5 23t-20.5 57h-80q0 -69 41 -109.5t111 -40.5z" />
    <glyph glyph-name="dotaccent" unicode="&#x2d9;" horiz-adv-x="286" 
d="M143 603q26 0 44.5 17.5t18.5 43.5q0 27 -18.5 44.5t-44.5 17.5q-25 0 -44 -17.5t-19 -44.5q0 -26 19 -43.5t44 -17.5z" />
    <glyph glyph-name="ring" unicode="&#x2da;" horiz-adv-x="360" 
d="M180 590q41 0 70.5 28.5t29.5 72.5q0 43 -29.5 71t-70.5 28t-70.5 -28t-29.5 -71q0 -44 29.5 -72.5t70.5 -28.5zM180 650q-16 0 -27 11.5t-11 29.5q0 17 11 28t27 11q17 0 27.5 -11t10.5 -28q0 -18 -10.5 -29.5t-27.5 -11.5z" />
    <glyph glyph-name="ogonek" unicode="&#x2db;" horiz-adv-x="334" 
d="M197 -205q12 0 25 1.5t25 5.5v64q-4 -1 -12.5 -2.5t-18.5 -1.5q-20 0 -37.5 10t-17.5 37q0 31 28 54.5t65 36.5l-87 12q-49 -28 -68 -60t-19 -64q0 -48 35.5 -70.5t81.5 -22.5z" />
    <glyph glyph-name="tilde" unicode="&#x2dc;" horiz-adv-x="468" 
d="M290 600q47 0 72.5 29t25.5 81h-57q0 -28 -11.5 -39.5t-29.5 -11.5q-17 0 -31.5 12.5t-33 25.5t-48.5 13q-45 0 -71 -28.5t-26 -81.5h57q0 29 12.5 40t28.5 11q17 0 31.5 -13t33 -25.5t47.5 -12.5z" />
    <glyph glyph-name="hungarumlaut" unicode="&#x2dd;" horiz-adv-x="559" 
d="M80 600h85l114 150h-112zM280 600h85l114 150h-112z" />
    <glyph glyph-name="gravecomb" unicode="&#x300;" horiz-adv-x="0" 
d="M194 600h85l-87 150h-112z" />
    <glyph glyph-name="acutecomb" unicode="&#x301;" horiz-adv-x="0" 
d="M80 600h85l114 150h-112z" />
    <glyph glyph-name="uni0302" unicode="&#x302;" horiz-adv-x="0" 
d="M80 600h98l82 95l82 -95h98l-128 150h-104z" />
    <glyph glyph-name="tildecomb" unicode="&#x303;" horiz-adv-x="0" 
d="M290 600q47 0 72.5 29t25.5 81h-57q0 -28 -11.5 -39.5t-29.5 -11.5q-17 0 -31.5 12.5t-33 25.5t-48.5 13q-45 0 -71 -28.5t-26 -81.5h57q0 29 12.5 40t28.5 11q17 0 31.5 -13t33 -25.5t47.5 -12.5z" />
    <glyph glyph-name="uni0304" unicode="&#x304;" horiz-adv-x="0" 
d="M80 612h280v70h-280v-70z" />
    <glyph glyph-name="uni0306" unicode="&#x306;" horiz-adv-x="0" 
d="M232 600q70 0 111 40.5t41 109.5h-80q0 -34 -20 -57t-52 -23q-31 0 -51.5 23t-20.5 57h-80q0 -69 41 -109.5t111 -40.5z" />
    <glyph glyph-name="uni0307" unicode="&#x307;" horiz-adv-x="0" 
d="M143 603q26 0 44.5 17.5t18.5 43.5q0 27 -18.5 44.5t-44.5 17.5q-25 0 -44 -17.5t-19 -44.5q0 -26 19 -43.5t44 -17.5z" />
    <glyph glyph-name="uni0308" unicode="&#x308;" horiz-adv-x="0" 
d="M143 603q26 0 44.5 17.5t18.5 43.5q0 27 -18.5 44.5t-44.5 17.5q-25 0 -44 -17.5t-19 -44.5q0 -26 19 -43.5t44 -17.5zM339 603q26 0 44.5 17.5t18.5 43.5q0 27 -18.5 44.5t-44.5 17.5q-25 0 -44 -17.5t-19 -44.5q0 -26 19 -43.5t44 -17.5z" />
    <glyph glyph-name="uni030A" unicode="&#x30a;" horiz-adv-x="0" 
d="M180 590q41 0 70.5 28.5t29.5 72.5q0 43 -29.5 71t-70.5 28t-70.5 -28t-29.5 -71q0 -44 29.5 -72.5t70.5 -28.5zM180 650q-16 0 -27 11.5t-11 29.5q0 17 11 28t27 11q17 0 27.5 -11t10.5 -28q0 -18 -10.5 -29.5t-27.5 -11.5z" />
    <glyph glyph-name="uni030B" unicode="&#x30b;" horiz-adv-x="0" 
d="M80 600h85l114 150h-112zM280 600h85l114 150h-112z" />
    <glyph glyph-name="uni030C" unicode="&#x30c;" horiz-adv-x="0" 
d="M208 600h104l128 150h-98l-82 -95l-82 95h-98z" />
    <glyph glyph-name="uni0327" unicode="&#x327;" horiz-adv-x="0" 
d="M97 -72v-40h33q65 0 65 -30q0 -15 -18.5 -21.5t-42.5 -6.5q-18 0 -32.5 2t-21.5 3v-55q21 -7 71 -7q51 0 85.5 23t34.5 65q0 38 -27.5 59t-71.5 22l29 63v5h-66z" />
    <glyph glyph-name="uni0328" unicode="&#x328;" horiz-adv-x="0" 
d="M197 -205q12 0 25 1.5t25 5.5v64q-4 -1 -12.5 -2.5t-18.5 -1.5q-20 0 -37.5 10t-17.5 37q0 31 28 54.5t65 36.5l-87 12q-49 -28 -68 -60t-19 -64q0 -48 35.5 -70.5t81.5 -22.5z" />
    <glyph glyph-name="uni0335" unicode="&#x335;" horiz-adv-x="0" 
d="M130 222h300v77h-300v-77z" />
    <glyph glyph-name="uni0337" unicode="&#x337;" horiz-adv-x="0" 
d="M130 215l250 166v84l-250 -166v-84z" />
    <glyph glyph-name="uni0338" unicode="&#x338;" horiz-adv-x="0" 
d="M50 0h104l498 518h-104z" />
    <glyph glyph-name="uni0394" unicode="&#x394;" horiz-adv-x="733" 
d="M40 0h653l-283 710h-88zM168 77l198 511l199 -511h-397z" />
    <glyph glyph-name="uni03A9" unicode="&#x3a9;" horiz-adv-x="882" 
d="M70 0h314v78q-65 13 -113.5 51t-74.5 96t-26 130q0 82 33.5 147t94.5 102.5t143 37.5t143 -37.5t94.5 -102.5t33.5 -147q0 -72 -26 -130t-74 -96t-114 -51v-78h314v78h-148q64 47 101 118.5t37 158.5q0 78 -27 145t-76 117t-115 77.5t-143 27.5t-143 -27.5t-115 -77.5
t-76 -117t-27 -145q0 -87 37 -158.5t101 -118.5h-148v-78z" />
    <glyph glyph-name="pi" unicode="&#x3c0;" horiz-adv-x="726" 
d="M581 -12q45 0 85 20v65h-5q-36 -17 -66 -17q-36 0 -51 20t-15 51v321h137v70h-636v-70h104v-448h82v448h231v-327q0 -63 36.5 -98t97.5 -35z" />
    <glyph glyph-name="uni2010" unicode="&#x2010;" horiz-adv-x="550" 
d="M110 222h350v77h-350v-77z" />
    <glyph glyph-name="endash" unicode="&#x2013;" horiz-adv-x="603" 
d="M80 221h443v76h-443v-76z" />
    <glyph glyph-name="emdash" unicode="&#x2014;" horiz-adv-x="946" 
d="M80 221h786v76h-786v-76z" />
    <glyph glyph-name="uni2015" unicode="&#x2015;" horiz-adv-x="986" 
d="M110 221h786v76h-786v-76z" />
    <glyph glyph-name="quoteleft" unicode="&#x2018;" horiz-adv-x="277" 
d="M143 496q28 0 46 17.5t18 46.5t-18 46t-46 17q-5 0 -8 -1q4 24 22 36t45 12v46q-41 0 -68 -19.5t-40.5 -50.5t-13.5 -66q0 -40 17.5 -62t45.5 -22z" />
    <glyph glyph-name="quoteright" unicode="&#x2019;" horiz-adv-x="277" 
d="M76 496q41 0 67.5 19.5t40 51t13.5 65.5q0 41 -17 62.5t-46 21.5q-28 0 -46 -17t-18 -47q0 -28 18 -45.5t46 -17.5q6 0 8 2q-3 -25 -21.5 -37t-44.5 -12v-46z" />
    <glyph glyph-name="quotesinglbase" unicode="&#x201a;" horiz-adv-x="277" 
d="M76 -99q41 0 67.5 19.5t40 51t13.5 65.5q0 41 -17 62.5t-46 21.5q-28 0 -46 -17.5t-18 -46.5t18 -46t46 -17q6 0 9 1q-4 -24 -22.5 -36t-44.5 -12v-46z" />
    <glyph glyph-name="quotedblleft" unicode="&#x201c;" horiz-adv-x="467" 
d="M334 496q27 0 45 17.5t18 46.5t-18 46t-45 17q-6 0 -9 -1q4 24 22 36t45 12v46q-40 0 -67.5 -19.5t-41 -50.5t-13.5 -66q0 -40 17.5 -62t46.5 -22zM143 496q28 0 46 17.5t18 46.5t-18 46t-46 17q-5 0 -8 -1q4 24 22 36t45 12v46q-41 0 -68 -19.5t-40.5 -50.5t-13.5 -66
q0 -40 17.5 -62t45.5 -22z" />
    <glyph glyph-name="quotedblright" unicode="&#x201d;" horiz-adv-x="467" 
d="M266 496q41 0 67.5 19.5t40 51t13.5 65.5q0 41 -17 62.5t-46 21.5q-28 0 -46 -17t-18 -47q0 -28 18 -45.5t46 -17.5q6 0 8 2q-3 -25 -21.5 -37t-44.5 -12v-46zM76 496q41 0 67.5 19.5t40 51t13.5 65.5q0 41 -17 62.5t-46 21.5q-28 0 -46 -17t-18 -47q0 -28 18 -45.5
t46 -17.5q6 0 8 2q-3 -25 -21.5 -37t-44.5 -12v-46z" />
    <glyph glyph-name="quotedblbase" unicode="&#x201e;" horiz-adv-x="467" 
d="M266 -99q41 0 67.5 19.5t40 51t13.5 65.5q0 41 -17 62.5t-46 21.5q-28 0 -46 -17.5t-18 -46.5t18 -46t46 -17q6 0 9 1q-4 -24 -22.5 -36t-44.5 -12v-46zM76 -99q41 0 67.5 19.5t40 51t13.5 65.5q0 41 -17 62.5t-46 21.5q-28 0 -46 -17.5t-18 -46.5t18 -46t46 -17q6 0 9 1
q-4 -24 -22.5 -36t-44.5 -12v-46z" />
    <glyph glyph-name="dagger" unicode="&#x2020;" horiz-adv-x="663" 
d="M290 0h83v472h190v76h-190v162h-83v-162h-190v-76h190v-472z" />
    <glyph glyph-name="daggerdbl" unicode="&#x2021;" horiz-adv-x="663" 
d="M290 0h83v162h190v76h-190v234h190v76h-190v162h-83v-162h-190v-76h190v-234h-190v-76h190v-162z" />
    <glyph glyph-name="bullet" unicode="&#x2022;" horiz-adv-x="438" 
d="M219 120q38 0 69.5 18.5t50.5 50.5t19 70q0 39 -19 70.5t-50.5 50t-69.5 18.5t-70 -18.5t-50.5 -50t-18.5 -70.5q0 -38 18.5 -70t50.5 -50.5t70 -18.5z" />
    <glyph glyph-name="ellipsis" unicode="&#x2026;" horiz-adv-x="742" 
d="M143 -6q28 0 46 17t18 46t-18 46.5t-46 17.5q-27 0 -45 -17.5t-18 -46.5t18 -46t45 -17zM370 -6q28 0 46 17t18 46t-18 46.5t-46 17.5q-27 0 -45 -17.5t-18 -46.5t18 -46t45 -17zM598 -6q28 0 46 17t18 46t-18 46.5t-46 17.5q-27 0 -45 -17.5t-18 -46.5t18 -46t45 -17z
" />
    <glyph glyph-name="perthousand" unicode="&#x2030;" horiz-adv-x="1388" 
d="M255 361q51 0 90.5 23t62 63.5t22.5 91.5q0 52 -22.5 92.5t-62 63.5t-90.5 23t-90.5 -23t-62 -63.5t-22.5 -92.5q0 -51 22.5 -91.5t62 -63.5t90.5 -23zM158 0h102l572 710h-103zM255 431q-43 0 -71.5 30.5t-28.5 77.5q0 48 28.5 78.5t71.5 30.5q44 0 72.5 -30.5
t28.5 -78.5q0 -47 -28.5 -77.5t-72.5 -30.5zM733 -8q51 0 90.5 23t62 63.5t22.5 92.5t-22.5 92t-62 63t-90.5 23t-90.5 -23t-62 -63t-22.5 -92t22.5 -92.5t62 -63.5t90.5 -23zM1133 -8q51 0 90.5 23t62 63.5t22.5 92.5t-22.5 92t-62 63t-90.5 23t-90.5 -23t-62 -63
t-22.5 -92t22.5 -92.5t62 -63.5t90.5 -23zM733 62q-43 0 -72 30.5t-29 78.5q0 47 29 77.5t72 30.5q44 0 72.5 -30.5t28.5 -77.5q0 -48 -28.5 -78.5t-72.5 -30.5zM1133 62q-43 0 -72 30.5t-29 78.5q0 47 29 77.5t72 30.5q44 0 72.5 -30.5t28.5 -77.5q0 -48 -28.5 -78.5
t-72.5 -30.5z" />
    <glyph glyph-name="minute" unicode="&#x2032;" horiz-adv-x="232" 
d="M80 508h57l15 202h-72v-202z" />
    <glyph glyph-name="second" unicode="&#x2033;" horiz-adv-x="399" 
d="M246 508h57l16 202h-73v-202zM80 508h57l15 202h-72v-202z" />
    <glyph glyph-name="guilsinglleft" unicode="&#x2039;" horiz-adv-x="348" 
d="M198 56h100l-137 203l137 203h-100l-138 -203z" />
    <glyph glyph-name="guilsinglright" unicode="&#x203a;" horiz-adv-x="349" 
d="M50 56h101l138 203l-138 203h-101l137 -203z" />
    <glyph glyph-name="fraction" unicode="&#x2044;" horiz-adv-x="254" 
d="M-200 0h82l572 710h-83z" />
    <glyph glyph-name="uni2070" unicode="&#x2070;" horiz-adv-x="424" 
d="M212 277q80 0 127 59t47 161t-47 161t-127 59t-127 -58.5t-47 -161.5q0 -102 47 -161t127 -59zM212 341q-49 0 -75.5 41t-26.5 115t26 115t76 41t76 -40t26 -116q0 -75 -26 -115.5t-76 -40.5z" />
    <glyph glyph-name="uni2074" unicode="&#x2074;" horiz-adv-x="403" 
d="M231 284h70v101h64v62h-64v263h-87l-194 -257v-68h211v-101zM88 447l143 190v-190h-143z" />
    <glyph glyph-name="uni2075" unicode="&#x2075;" horiz-adv-x="376" 
d="M189 277q43 0 78 18t56 51.5t21 78.5q0 64 -41.5 105.5t-106.5 41.5q-21 0 -42 -6t-38 -19l14 100h193v63h-243l-36 -223l61 -17q12 17 32.5 29.5t49.5 12.5q38 0 61.5 -24t23.5 -62q0 -39 -23 -63t-61 -24q-35 0 -59 18.5t-28 50.5l-69 -2q5 -58 47.5 -93.5t109.5 -35.5
z" />
    <glyph glyph-name="uni2076" unicode="&#x2076;" horiz-adv-x="375" 
d="M194 277q65 0 107 40.5t42 104.5q0 62 -40.5 101.5t-100.5 39.5q-24 0 -47 -8t-40 -29q9 53 41.5 90.5t101.5 37.5q28 0 56 -5v63q-13 3 -29 4t-27 1q-75 0 -125 -36t-75.5 -94.5t-25.5 -128.5q0 -87 44.5 -134t117.5 -47zM192 339q-35 0 -59 22.5t-24 58.5
q0 35 23.5 58.5t59.5 23.5q35 0 57 -23.5t22 -58.5q0 -36 -22 -58.5t-57 -22.5z" />
    <glyph glyph-name="uni2077" unicode="&#x2077;" horiz-adv-x="328" 
d="M91 284h71q7 105 47 198t105 169v59h-294v-63h208q-58 -75 -94.5 -167.5t-42.5 -195.5z" />
    <glyph glyph-name="uni2078" unicode="&#x2078;" horiz-adv-x="374" 
d="M187 277q69 0 112 35.5t43 91.5q0 40 -21.5 68.5t-57.5 38.5q28 14 44 39t16 54q0 50 -39 81.5t-97 31.5t-96.5 -31.5t-38.5 -81.5q0 -29 15.5 -54t43.5 -39q-37 -10 -58 -39t-21 -68q0 -57 43.5 -92t111.5 -35zM187 539q-30 0 -48 15.5t-18 41.5q0 27 18 43.5t48 16.5
q29 0 47.5 -16t18.5 -44q0 -26 -18.5 -41.5t-47.5 -15.5zM187 338q-37 0 -60 19t-23 52q0 32 23 51t60 19q38 0 60.5 -19t22.5 -51q0 -33 -22.5 -52t-60.5 -19z" />
    <glyph glyph-name="uni2079" unicode="&#x2079;" horiz-adv-x="375" 
d="M117 277q75 0 125 36t75.5 95t25.5 128q0 87 -44.5 134t-117.5 47q-64 0 -106.5 -40.5t-42.5 -104.5q0 -62 40.5 -101.5t100.5 -39.5q26 0 48.5 8.5t39.5 28.5q-10 -54 -43 -91t-101 -37q-14 0 -28 1.5t-29 3.5v-63q15 -3 30 -4t27 -1zM183 492q-34 0 -56.5 23t-22.5 59
t22.5 58.5t56.5 22.5q35 0 59 -22.5t24 -58.5q0 -35 -23.5 -58.5t-59.5 -23.5z" />
    <glyph glyph-name="uni2080" unicode="&#x2080;" horiz-adv-x="424" 
d="M212 -7q80 0 127 59t47 161t-47 161t-127 59t-127 -58.5t-47 -161.5q0 -102 47 -161t127 -59zM212 57q-49 0 -75.5 41t-26.5 115t26 115t76 41t76 -40t26 -116q0 -75 -26 -115.5t-76 -40.5z" />
    <glyph glyph-name="uni2081" unicode="&#x2081;" horiz-adv-x="256" 
d="M117 0h71v426h-51l-117 -63v-66l97 50v-347z" />
    <glyph glyph-name="uni2082" unicode="&#x2082;" horiz-adv-x="375" 
d="M33 0h304v63h-198l102 103q44 44 63.5 78t19.5 72q0 52 -38 84.5t-100 32.5q-61 0 -102 -34.5t-46 -94.5l69 -2q2 36 24.5 52.5t51.5 16.5q32 0 51 -15.5t19 -43.5q0 -27 -20.5 -57t-76.5 -85l-123 -121v-49z" />
    <glyph glyph-name="uni2083" unicode="&#x2083;" horiz-adv-x="382" 
d="M190 -7q68 0 111 36.5t43 93.5q0 36 -21 63.5t-59 37.5q28 13 45.5 39t17.5 58q0 49 -39.5 80.5t-98.5 31.5q-63 0 -102.5 -34.5t-43.5 -89.5l68 -2q2 30 23 47t55 17q30 0 48.5 -15.5t18.5 -42.5q0 -28 -19 -45t-51 -17h-42v-60h47q39 0 60 -18t21 -47q0 -33 -22.5 -52
t-59.5 -19t-61.5 18.5t-27.5 49.5l-69 -2q5 -58 48 -93t110 -35z" />
    <glyph glyph-name="uni2084" unicode="&#x2084;" horiz-adv-x="403" 
d="M231 0h70v101h64v62h-64v263h-87l-194 -257v-68h211v-101zM88 163l143 190v-190h-143z" />
    <glyph glyph-name="uni2085" unicode="&#x2085;" horiz-adv-x="376" 
d="M189 -7q43 0 78 18t56 51.5t21 78.5q0 64 -41.5 105.5t-106.5 41.5q-21 0 -42 -6t-38 -19l14 100h193v63h-243l-36 -223l61 -17q12 17 32.5 29.5t49.5 12.5q38 0 61.5 -24t23.5 -62q0 -39 -23 -63t-61 -24q-35 0 -59 18.5t-28 50.5l-69 -2q5 -58 47.5 -93.5t109.5 -35.5z
" />
    <glyph glyph-name="uni2086" unicode="&#x2086;" horiz-adv-x="375" 
d="M194 -7q65 0 107 40.5t42 104.5q0 62 -40.5 101.5t-100.5 39.5q-24 0 -47 -8t-40 -29q9 53 41.5 90.5t101.5 37.5q28 0 56 -5v63q-13 3 -29 4t-27 1q-75 0 -125 -36t-75.5 -94.5t-25.5 -128.5q0 -87 44.5 -134t117.5 -47zM192 55q-35 0 -59 22.5t-24 58.5q0 35 23.5 58.5
t59.5 23.5q35 0 57 -23.5t22 -58.5q0 -36 -22 -58.5t-57 -22.5z" />
    <glyph glyph-name="uni2087" unicode="&#x2087;" horiz-adv-x="328" 
d="M91 0h71q7 105 47 198t105 169v59h-294v-63h208q-58 -75 -94.5 -167.5t-42.5 -195.5z" />
    <glyph glyph-name="uni2088" unicode="&#x2088;" horiz-adv-x="374" 
d="M187 -7q69 0 112 35.5t43 91.5q0 40 -21.5 68.5t-57.5 38.5q28 14 44 39t16 54q0 50 -39 81.5t-97 31.5t-96.5 -31.5t-38.5 -81.5q0 -29 15.5 -54t43.5 -39q-37 -10 -58 -39t-21 -68q0 -57 43.5 -92t111.5 -35zM187 255q-30 0 -48 15.5t-18 41.5q0 27 18 43.5t48 16.5
q29 0 47.5 -16t18.5 -44q0 -26 -18.5 -41.5t-47.5 -15.5zM187 54q-37 0 -60 19t-23 52q0 32 23 51t60 19q38 0 60.5 -19t22.5 -51q0 -33 -22.5 -52t-60.5 -19z" />
    <glyph glyph-name="uni2089" unicode="&#x2089;" horiz-adv-x="375" 
d="M117 -7q75 0 125 36t75.5 95t25.5 128q0 87 -44.5 134t-117.5 47q-64 0 -106.5 -40.5t-42.5 -104.5q0 -62 40.5 -101.5t100.5 -39.5q26 0 48.5 8.5t39.5 28.5q-10 -54 -43 -91t-101 -37q-14 0 -28 1.5t-29 3.5v-63q15 -3 30 -4t27 -1zM183 208q-34 0 -56.5 23t-22.5 59
t22.5 58.5t56.5 22.5q35 0 59 -22.5t24 -58.5q0 -35 -23.5 -58.5t-59.5 -23.5z" />
    <glyph glyph-name="Euro" unicode="&#x20ac;" horiz-adv-x="698" 
d="M504 -12q71 0 134 23v83q-59 -28 -134 -28q-93 0 -159 48t-93 129h311v64h-326q-3 23 -3 48q0 26 3 48h326v64h-311q29 81 95 129t157 48q37 0 71.5 -7.5t62.5 -22.5v85q-63 23 -134 23q-84 0 -153.5 -32.5t-118 -89.5t-70.5 -133h-92v-64h80q-3 -24 -3 -48t3 -48h-80
v-64h92q22 -76 70.5 -133.5t118 -89.5t153.5 -32z" />
    <glyph glyph-name="trademark" unicode="&#x2122;" horiz-adv-x="841" 
d="M390 355h60v232l110 -232h31l110 234v-234h60v355h-67l-119 -252l-119 252h-66v-355zM181 355h59v302h101v53h-261v-53h101v-302z" />
    <glyph glyph-name="estimated" unicode="&#x212e;" horiz-adv-x="920" 
d="M463 -10q72 0 125 17.5t93.5 49t75.5 72.5h-58q-48 -55 -101.5 -86t-134.5 -31q-49 0 -88.5 12t-75 37.5t-73.5 67.5v212h614v9q0 75 -28 140t-79 114.5t-120.5 77.5t-152.5 28t-152.5 -28t-120.5 -77.5t-79 -115t-28 -140.5q0 -74 27.5 -139t78.5 -114.5t121.5 -77.5
t155.5 -28zM226 360v210q53 62 105.5 90t128.5 28q49 0 85 -10t70.5 -34t77.5 -68v-216h-467z" />
    <glyph glyph-name="oneeighth" unicode="&#x215b;" horiz-adv-x="884" 
d="M117 284h71v426h-51l-117 -63v-66l97 50v-347zM56 0h82l572 710h-83zM697 -7q69 0 112 35.5t43 91.5q0 40 -21.5 68.5t-57.5 38.5q28 14 44 39t16 54q0 50 -39 81.5t-97 31.5t-96.5 -31.5t-38.5 -81.5q0 -29 15.5 -54t43.5 -39q-37 -10 -58 -39t-21 -68q0 -57 43.5 -92
t111.5 -35zM697 255q-30 0 -48 15.5t-18 41.5q0 27 18 43.5t48 16.5q29 0 47.5 -16t18.5 -44q0 -26 -18.5 -41.5t-47.5 -15.5zM697 54q-37 0 -60 19t-23 52q0 32 23 51t60 19q38 0 60.5 -19t22.5 -51q0 -33 -22.5 -52t-60.5 -19z" />
    <glyph glyph-name="threeeighths" unicode="&#x215c;" horiz-adv-x="1010" 
d="M190 277q68 0 111 36.5t43 93.5q0 36 -21 63.5t-59 37.5q28 13 45.5 39t17.5 58q0 49 -39.5 80.5t-98.5 31.5q-63 0 -102.5 -34.5t-43.5 -89.5l68 -2q2 30 23 47t55 17q30 0 48.5 -15.5t18.5 -42.5q0 -28 -19 -45t-51 -17h-42v-60h47q39 0 60 -18t21 -47q0 -33 -22.5 -52
t-59.5 -19t-61.5 18.5t-27.5 49.5l-69 -2q5 -58 48 -93t110 -35zM182 0h82l572 710h-83zM823 -7q69 0 112 35.5t43 91.5q0 40 -21.5 68.5t-57.5 38.5q28 14 44 39t16 54q0 50 -39 81.5t-97 31.5t-96.5 -31.5t-38.5 -81.5q0 -29 15.5 -54t43.5 -39q-37 -10 -58 -39t-21 -68
q0 -57 43.5 -92t111.5 -35zM823 255q-30 0 -48 15.5t-18 41.5q0 27 18 43.5t48 16.5q29 0 47.5 -16t18.5 -44q0 -26 -18.5 -41.5t-47.5 -15.5zM823 54q-37 0 -60 19t-23 52q0 32 23 51t60 19q38 0 60.5 -19t22.5 -51q0 -33 -22.5 -52t-60.5 -19z" />
    <glyph glyph-name="fiveeighths" unicode="&#x215d;" horiz-adv-x="1004" 
d="M189 277q43 0 78 18t56 51.5t21 78.5q0 64 -41.5 105.5t-106.5 41.5q-21 0 -42 -6t-38 -19l14 100h193v63h-243l-36 -223l61 -17q12 17 32.5 29.5t49.5 12.5q38 0 61.5 -24t23.5 -62q0 -39 -23 -63t-61 -24q-35 0 -59 18.5t-28 50.5l-69 -2q5 -58 47.5 -93.5t109.5 -35.5
zM176 0h82l572 710h-83zM817 -7q69 0 112 35.5t43 91.5q0 40 -21.5 68.5t-57.5 38.5q28 14 44 39t16 54q0 50 -39 81.5t-97 31.5t-96.5 -31.5t-38.5 -81.5q0 -29 15.5 -54t43.5 -39q-37 -10 -58 -39t-21 -68q0 -57 43.5 -92t111.5 -35zM817 255q-30 0 -48 15.5t-18 41.5
q0 27 18 43.5t48 16.5q29 0 47.5 -16t18.5 -44q0 -26 -18.5 -41.5t-47.5 -15.5zM817 54q-37 0 -60 19t-23 52q0 32 23 51t60 19q38 0 60.5 -19t22.5 -51q0 -33 -22.5 -52t-60.5 -19z" />
    <glyph glyph-name="seveneighths" unicode="&#x215e;" horiz-adv-x="956" 
d="M91 284h71q7 105 47 198t105 169v59h-294v-63h208q-58 -75 -94.5 -167.5t-42.5 -195.5zM128 0h82l572 710h-83zM769 -7q69 0 112 35.5t43 91.5q0 40 -21.5 68.5t-57.5 38.5q28 14 44 39t16 54q0 50 -39 81.5t-97 31.5t-96.5 -31.5t-38.5 -81.5q0 -29 15.5 -54t43.5 -39
q-37 -10 -58 -39t-21 -68q0 -57 43.5 -92t111.5 -35zM769 255q-30 0 -48 15.5t-18 41.5q0 27 18 43.5t48 16.5q29 0 47.5 -16t18.5 -44q0 -26 -18.5 -41.5t-47.5 -15.5zM769 54q-37 0 -60 19t-23 52q0 32 23 51t60 19q38 0 60.5 -19t22.5 -51q0 -33 -22.5 -52t-60.5 -19z
" />
    <glyph glyph-name="partialdiff" unicode="&#x2202;" horiz-adv-x="594" 
d="M290 -12q74 0 128.5 35t85 99.5t30.5 150.5q0 114 -48 216.5t-139.5 181.5t-222.5 122l-27 -71q125 -41 206 -114t117 -167q-30 19 -63 27t-65 8q-68 0 -120.5 -30t-82 -85.5t-29.5 -132.5q0 -73 29 -127t80.5 -83.5t120.5 -29.5zM292 59q-70 0 -108.5 45.5t-38.5 124.5
q0 85 43.5 132t121.5 47q35 0 68 -11t64 -35q4 -21 6 -42.5t2 -43.5q0 -103 -42.5 -160t-115.5 -57z" />
    <glyph glyph-name="emptyset" unicode="&#x2205;" horiz-adv-x="772" 
d="M425 -12q78 0 144 27t114.5 76.5t75.5 116.5t27 147q0 73 -23.5 136t-64.5 110l101 109h-91l-58 -63q-46 36 -103 55.5t-122 19.5q-77 0 -143 -27t-115 -76.5t-76 -116.5t-27 -147q0 -73 23 -135.5t63 -110.5l-101 -109h91l59 63q45 -36 102.5 -55.5t123.5 -19.5z
M204 166q-57 75 -57 189q0 86 33 151t95.5 101.5t149.5 36.5q101 0 172 -54zM425 66q-52 0 -96 14t-78 39l393 424q29 -37 44 -84.5t15 -103.5q0 -86 -35.5 -151.5t-98 -101.5t-144.5 -36z" />
    <glyph glyph-name="product" unicode="&#x220f;" horiz-adv-x="703" 
d="M169 -90h83v728h199v-728h83v728h122v72h-609v-72h122v-728z" />
    <glyph glyph-name="summation" unicode="&#x2211;" horiz-adv-x="597" 
d="M65 -90h477v72h-375l237 329l-237 327h375v72h-477v-68l245 -331l-245 -333v-68z" />
    <glyph glyph-name="minus" unicode="&#x2212;" 
d="M120 222h474v76h-474v-76z" />
    <glyph glyph-name="uni2215" unicode="&#x2215;" horiz-adv-x="479" 
d="M80 0h87l282 710h-87z" />
    <glyph glyph-name="uni2219" unicode="&#x2219;" horiz-adv-x="478" 
d="M249 120q38 0 69.5 18.5t50.5 50.5t19 70q0 39 -19 70.5t-50.5 50t-69.5 18.5t-70 -18.5t-50.5 -50t-18.5 -70.5q0 -38 18.5 -70t50.5 -50.5t70 -18.5z" />
    <glyph glyph-name="radical" unicode="&#x221a;" horiz-adv-x="896" 
d="M205 -155h96l309 793h266v72h-320l-302 -775l-139 394h-85z" />
    <glyph glyph-name="infinity" unicode="&#x221e;" horiz-adv-x="958" 
d="M285 86q55 0 102.5 31t90.5 96q83 -127 194 -127q51 0 90.5 23t62.5 63t23 90q0 51 -23 90.5t-63 62t-92 22.5q-53 0 -98 -29.5t-92 -96.5q-43 63 -89.5 94.5t-103.5 31.5q-51 0 -91 -23t-63 -63t-23 -91t22.5 -90t62 -61.5t90.5 -22.5zM292 153q-50 0 -79.5 31t-29.5 77
q0 47 31 78.5t80 31.5q38 0 72 -25.5t74 -84.5q-33 -53 -69.5 -80.5t-78.5 -27.5zM666 153q-40 0 -76 26t-72 82q40 60 74 85t71 25q51 0 81.5 -31.5t30.5 -78.5q0 -46 -29.5 -77t-79.5 -31z" />
    <glyph glyph-name="integral" unicode="&#x222b;" horiz-adv-x="561" 
d="M136 -12q75 0 116.5 41t49.5 118l44 413q10 96 99 96q20 0 42 -4t39 -12l-4 66q-18 8 -41 12t-46 4q-76 0 -119 -41.5t-51 -119.5l-44 -414q-5 -47 -31 -69.5t-69 -22.5q-16 0 -37 3.5t-44 10.5l5 -66q40 -15 91 -15z" />
    <glyph glyph-name="approxequal" unicode="&#x2248;" 
d="M467 337q60 0 113 50v77q-31 -30 -58 -42t-56 -12q-27 0 -52.5 10t-52 22.5t-54.5 22.5t-58 10q-34 0 -59.5 -11.5t-55.5 -40.5v-76q26 27 52 41t63 14q28 0 55 -10t53.5 -22.5t54 -22.5t55.5 -10zM467 128q30 0 57.5 12t55.5 39v75q-32 -31 -59.5 -42.5t-54.5 -11.5
t-52.5 10t-52 22.5t-54.5 22.5t-58 10q-36 0 -61 -12t-54 -38v-77q26 26 52 39.5t63 13.5q38 0 73.5 -16t71 -31.5t73.5 -15.5z" />
    <glyph glyph-name="notequal" unicode="&#x2260;" 
d="M245 -77h80l40 187h242v76h-226l31 146h195v77h-179l40 186h-79l-40 -186h-242v-77h226l-32 -146h-194v-76h178z" />
    <glyph glyph-name="lessequal" unicode="&#x2264;" 
d="M591 142v81l-378 166l378 165v81l-469 -207v-79zM122 0h469v74h-469v-74z" />
    <glyph glyph-name="greaterequal" unicode="&#x2265;" 
d="M123 142l469 207v79l-469 207v-81l378 -165l-378 -166v-81zM123 0h469v74h-469v-74z" />
    <glyph glyph-name="lozenge" unicode="&#x25ca;" horiz-adv-x="667" 
d="M297 0h74l216 355l-216 355h-74l-217 -355zM334 95l-163 260l163 260l163 -260z" />
    <glyph glyph-name="zero.tf" horiz-adv-x="600" 
d="M300 -12q82 0 140.5 44.5t90 126.5t31.5 196q0 115 -32 197t-90.5 126t-139.5 44t-140 -44.5t-90.5 -126.5t-31.5 -196t32 -196t90.5 -126.5t139.5 -44.5zM300 68q-83 0 -128 75t-45 212q0 138 44.5 212.5t128.5 74.5t128.5 -74t44.5 -213q0 -138 -44.5 -212.5
t-128.5 -74.5z" />
    <glyph glyph-name="one.tf" horiz-adv-x="600" 
d="M58 0h485v78h-199v632h-59l-191 -102v-84l163 85v-531h-199v-78z" />
    <glyph glyph-name="two.tf" horiz-adv-x="600" 
d="M54 0h483v78h-348l177 188q54 57 86 101.5t46.5 84t14.5 80.5q0 56 -27 99t-76 67t-114 24q-64 0 -114.5 -25.5t-80.5 -71.5t-34 -108l85 -3q4 62 43 95t99 33q58 0 93.5 -30t35.5 -83q0 -35 -14.5 -69.5t-50.5 -79.5t-101 -112l-203 -210v-58z" />
    <glyph glyph-name="three.tf" horiz-adv-x="600" 
d="M298 -12q71 0 125.5 27.5t85.5 76t31 111.5q0 64 -36 110t-99 64q50 22 78 66t28 96q0 53 -28.5 94t-77 65t-108.5 24q-65 0 -115.5 -25.5t-80.5 -70t-35 -103.5l84 -3q5 57 44 89.5t102 32.5q56 0 90.5 -29.5t34.5 -80.5q0 -54 -35 -87t-94 -33h-67v-78h72q73 0 113 -35
t40 -94q0 -64 -41.5 -100.5t-110.5 -36.5q-66 0 -111 33.5t-50 96.5l-87 -3q5 -62 37.5 -108.5t87 -72.5t123.5 -26z" />
    <glyph glyph-name="four.tf" horiz-adv-x="600" 
d="M358 0h88v179h105v78h-105v453h-108l-317 -443v-88h337v-179zM106 257l252 358v-358h-252z" />
    <glyph glyph-name="five.tf" horiz-adv-x="600" 
d="M301 -12q71 0 126.5 30.5t88 86t32.5 129.5q0 70 -30.5 125.5t-84.5 88t-125 32.5q-42 0 -80 -14t-66 -38l28 204h327v78h-390l-54 -367l75 -19q20 31 60 54.5t92 23.5q48 0 83.5 -22t55 -60t19.5 -86q0 -75 -43 -120.5t-114 -45.5q-67 0 -111.5 35.5t-50.5 96.5l-86 -3
q5 -62 37.5 -109.5t87 -73.5t123.5 -26z" />
    <glyph glyph-name="six.tf" horiz-adv-x="600" 
d="M310 -12q68 0 121.5 30.5t85 85t31.5 125.5q0 70 -30.5 123.5t-82 83.5t-115.5 30q-46 0 -90 -17.5t-76 -62.5q10 68 37.5 126.5t81.5 94t140 35.5q46 0 89 -8v80q-20 4 -42 6t-48 2q-94 0 -162 -35.5t-112 -97t-65 -139.5t-21 -162q0 -97 33 -164t91 -101.5t134 -34.5z
M308 67q-44 0 -80 20t-57 56t-21 84q0 46 20.5 82t56 57.5t81.5 21.5q44 0 77.5 -21t53 -57t19.5 -83q0 -72 -42.5 -116t-107.5 -44z" />
    <glyph glyph-name="seven.tf" horiz-adv-x="600" 
d="M187 0h88q14 180 87 341t191 295v74h-495v-78h390q-112 -133 -179.5 -293.5t-81.5 -338.5z" />
    <glyph glyph-name="eight.tf" horiz-adv-x="600" 
d="M300 -12q74 0 129.5 27t87 74.5t31.5 110.5q0 68 -37 117t-100 67q47 21 73.5 62t26.5 91q0 56 -28 97.5t-75.5 64.5t-107.5 23t-107.5 -23t-75 -64.5t-27.5 -97.5q0 -51 26.5 -91.5t72.5 -61.5q-63 -18 -99.5 -67t-36.5 -117q0 -63 31 -110.5t87 -74.5t129 -27zM300 420
q-55 0 -88.5 29.5t-33.5 80.5q0 53 33.5 84t88.5 31q56 0 89.5 -31t33.5 -84q0 -51 -34 -80.5t-89 -29.5zM300 65q-72 0 -114.5 37.5t-42.5 101.5t42.5 101t114.5 37q73 0 115.5 -37t42.5 -101t-42.5 -101.5t-115.5 -37.5z" />
    <glyph glyph-name="nine.tf" horiz-adv-x="600" 
d="M187 -12q94 0 162.5 35.5t112.5 97t65 139.5t21 162q0 97 -33 164t-91 101.5t-134 34.5q-67 0 -121 -30.5t-85.5 -85t-31.5 -125.5q0 -70 30.5 -123.5t82 -83.5t115.5 -30q45 0 89.5 17.5t76.5 62.5q-9 -68 -37 -126.5t-81.5 -94t-140.5 -35.5q-23 0 -46 2t-44 6v-80
q21 -4 43 -6t47 -2zM291 322q-43 0 -77 21t-53 57.5t-19 82.5q0 72 42 115.5t107 43.5q45 0 80.5 -19.5t56.5 -55t21 -84.5q0 -45 -20 -81.5t-55.5 -58t-82.5 -21.5z" />
    <glyph glyph-name="zero.dnom" horiz-adv-x="424" 
d="M212 -7q80 0 127 59t47 161t-47 161t-127 59t-127 -58.5t-47 -161.5q0 -102 47 -161t127 -59zM212 57q-49 0 -75.5 41t-26.5 115t26 115t76 41t76 -40t26 -116q0 -75 -26 -115.5t-76 -40.5z" />
    <glyph glyph-name="one.dnom" horiz-adv-x="256" 
d="M117 0h71v426h-51l-117 -63v-66l97 50v-347z" />
    <glyph glyph-name="two.dnom" horiz-adv-x="375" 
d="M33 0h304v63h-198l102 103q44 44 63.5 78t19.5 72q0 52 -38 84.5t-100 32.5q-61 0 -102 -34.5t-46 -94.5l69 -2q2 36 24.5 52.5t51.5 16.5q32 0 51 -15.5t19 -43.5q0 -27 -20.5 -57t-76.5 -85l-123 -121v-49z" />
    <glyph glyph-name="three.dnom" horiz-adv-x="382" 
d="M190 -7q68 0 111 36.5t43 93.5q0 36 -21 63.5t-59 37.5q28 13 45.5 39t17.5 58q0 49 -39.5 80.5t-98.5 31.5q-63 0 -102.5 -34.5t-43.5 -89.5l68 -2q2 30 23 47t55 17q30 0 48.5 -15.5t18.5 -42.5q0 -28 -19 -45t-51 -17h-42v-60h47q39 0 60 -18t21 -47q0 -33 -22.5 -52
t-59.5 -19t-61.5 18.5t-27.5 49.5l-69 -2q5 -58 48 -93t110 -35z" />
    <glyph glyph-name="four.dnom" horiz-adv-x="403" 
d="M231 0h70v101h64v62h-64v263h-87l-194 -257v-68h211v-101zM88 163l143 190v-190h-143z" />
    <glyph glyph-name="five.dnom" horiz-adv-x="376" 
d="M189 -7q43 0 78 18t56 51.5t21 78.5q0 64 -41.5 105.5t-106.5 41.5q-21 0 -42 -6t-38 -19l14 100h193v63h-243l-36 -223l61 -17q12 17 32.5 29.5t49.5 12.5q38 0 61.5 -24t23.5 -62q0 -39 -23 -63t-61 -24q-35 0 -59 18.5t-28 50.5l-69 -2q5 -58 47.5 -93.5t109.5 -35.5z
" />
    <glyph glyph-name="six.dnom" horiz-adv-x="375" 
d="M194 -7q65 0 107 40.5t42 104.5q0 62 -40.5 101.5t-100.5 39.5q-24 0 -47 -8t-40 -29q9 53 41.5 90.5t101.5 37.5q28 0 56 -5v63q-13 3 -29 4t-27 1q-75 0 -125 -36t-75.5 -94.5t-25.5 -128.5q0 -87 44.5 -134t117.5 -47zM192 55q-35 0 -59 22.5t-24 58.5q0 35 23.5 58.5
t59.5 23.5q35 0 57 -23.5t22 -58.5q0 -36 -22 -58.5t-57 -22.5z" />
    <glyph glyph-name="seven.dnom" horiz-adv-x="328" 
d="M91 0h71q7 105 47 198t105 169v59h-294v-63h208q-58 -75 -94.5 -167.5t-42.5 -195.5z" />
    <glyph glyph-name="eight.dnom" horiz-adv-x="374" 
d="M187 -7q69 0 112 35.5t43 91.5q0 40 -21.5 68.5t-57.5 38.5q28 14 44 39t16 54q0 50 -39 81.5t-97 31.5t-96.5 -31.5t-38.5 -81.5q0 -29 15.5 -54t43.5 -39q-37 -10 -58 -39t-21 -68q0 -57 43.5 -92t111.5 -35zM187 255q-30 0 -48 15.5t-18 41.5q0 27 18 43.5t48 16.5
q29 0 47.5 -16t18.5 -44q0 -26 -18.5 -41.5t-47.5 -15.5zM187 54q-37 0 -60 19t-23 52q0 32 23 51t60 19q38 0 60.5 -19t22.5 -51q0 -33 -22.5 -52t-60.5 -19z" />
    <glyph glyph-name="nine.dnom" horiz-adv-x="375" 
d="M117 -7q75 0 125 36t75.5 95t25.5 128q0 87 -44.5 134t-117.5 47q-64 0 -106.5 -40.5t-42.5 -104.5q0 -62 40.5 -101.5t100.5 -39.5q26 0 48.5 8.5t39.5 28.5q-10 -54 -43 -91t-101 -37q-14 0 -28 1.5t-29 3.5v-63q15 -3 30 -4t27 -1zM183 208q-34 0 -56.5 23t-22.5 59
t22.5 58.5t56.5 22.5q35 0 59 -22.5t24 -58.5q0 -35 -23.5 -58.5t-59.5 -23.5z" />
    <glyph glyph-name="zero.numr" horiz-adv-x="424" 
d="M212 277q80 0 127 59t47 161t-47 161t-127 59t-127 -58.5t-47 -161.5q0 -102 47 -161t127 -59zM212 341q-49 0 -75.5 41t-26.5 115t26 115t76 41t76 -40t26 -116q0 -75 -26 -115.5t-76 -40.5z" />
    <glyph glyph-name="one.numr" horiz-adv-x="256" 
d="M117 284h71v426h-51l-117 -63v-66l97 50v-347z" />
    <glyph glyph-name="two.numr" horiz-adv-x="375" 
d="M33 284h304v63h-198l102 103q44 44 63.5 78t19.5 72q0 52 -38 84.5t-100 32.5q-61 0 -102 -34.5t-46 -94.5l69 -2q2 36 24.5 52.5t51.5 16.5q32 0 51 -15.5t19 -43.5q0 -27 -20.5 -57t-76.5 -85l-123 -121v-49z" />
    <glyph glyph-name="three.numr" horiz-adv-x="382" 
d="M190 277q68 0 111 36.5t43 93.5q0 36 -21 63.5t-59 37.5q28 13 45.5 39t17.5 58q0 49 -39.5 80.5t-98.5 31.5q-63 0 -102.5 -34.5t-43.5 -89.5l68 -2q2 30 23 47t55 17q30 0 48.5 -15.5t18.5 -42.5q0 -28 -19 -45t-51 -17h-42v-60h47q39 0 60 -18t21 -47q0 -33 -22.5 -52
t-59.5 -19t-61.5 18.5t-27.5 49.5l-69 -2q5 -58 48 -93t110 -35z" />
    <glyph glyph-name="four.numr" horiz-adv-x="403" 
d="M231 284h70v101h64v62h-64v263h-87l-194 -257v-68h211v-101zM88 447l143 190v-190h-143z" />
    <glyph glyph-name="five.numr" horiz-adv-x="376" 
d="M189 277q43 0 78 18t56 51.5t21 78.5q0 64 -41.5 105.5t-106.5 41.5q-21 0 -42 -6t-38 -19l14 100h193v63h-243l-36 -223l61 -17q12 17 32.5 29.5t49.5 12.5q38 0 61.5 -24t23.5 -62q0 -39 -23 -63t-61 -24q-35 0 -59 18.5t-28 50.5l-69 -2q5 -58 47.5 -93.5t109.5 -35.5
z" />
    <glyph glyph-name="six.numr" horiz-adv-x="375" 
d="M194 277q65 0 107 40.5t42 104.5q0 62 -40.5 101.5t-100.5 39.5q-24 0 -47 -8t-40 -29q9 53 41.5 90.5t101.5 37.5q28 0 56 -5v63q-13 3 -29 4t-27 1q-75 0 -125 -36t-75.5 -94.5t-25.5 -128.5q0 -87 44.5 -134t117.5 -47zM192 339q-35 0 -59 22.5t-24 58.5
q0 35 23.5 58.5t59.5 23.5q35 0 57 -23.5t22 -58.5q0 -36 -22 -58.5t-57 -22.5z" />
    <glyph glyph-name="seven.numr" horiz-adv-x="328" 
d="M91 284h71q7 105 47 198t105 169v59h-294v-63h208q-58 -75 -94.5 -167.5t-42.5 -195.5z" />
    <glyph glyph-name="eight.numr" horiz-adv-x="374" 
d="M187 277q69 0 112 35.5t43 91.5q0 40 -21.5 68.5t-57.5 38.5q28 14 44 39t16 54q0 50 -39 81.5t-97 31.5t-96.5 -31.5t-38.5 -81.5q0 -29 15.5 -54t43.5 -39q-37 -10 -58 -39t-21 -68q0 -57 43.5 -92t111.5 -35zM187 539q-30 0 -48 15.5t-18 41.5q0 27 18 43.5t48 16.5
q29 0 47.5 -16t18.5 -44q0 -26 -18.5 -41.5t-47.5 -15.5zM187 338q-37 0 -60 19t-23 52q0 32 23 51t60 19q38 0 60.5 -19t22.5 -51q0 -33 -22.5 -52t-60.5 -19z" />
    <glyph glyph-name="nine.numr" horiz-adv-x="375" 
d="M117 277q75 0 125 36t75.5 95t25.5 128q0 87 -44.5 134t-117.5 47q-64 0 -106.5 -40.5t-42.5 -104.5q0 -62 40.5 -101.5t100.5 -39.5q26 0 48.5 8.5t39.5 28.5q-10 -54 -43 -91t-101 -37q-14 0 -28 1.5t-29 3.5v-63q15 -3 30 -4t27 -1zM183 492q-34 0 -56.5 23t-22.5 59
t22.5 58.5t56.5 22.5q35 0 59 -22.5t24 -58.5q0 -35 -23.5 -58.5t-59.5 -23.5z" />
    <glyph glyph-name="exclamdown.case" horiz-adv-x="287" 
d="M105 511h78l5 -520h-89zM143 719q28 0 46 -17t18 -46t-18 -46.5t-46 -17.5q-27 0 -45 17.5t-18 46.5t18 46t45 17z" />
    <glyph glyph-name="questiondown.case" horiz-adv-x="541" 
d="M331 511h-82v-20q0 -33 -15.5 -66t-62.5 -71q-60 -49 -85.5 -94t-25.5 -94q0 -53 27 -92.5t75 -61t110 -21.5q97 0 155 55t64 144l-86 3q-5 -58 -41 -91.5t-91 -33.5q-56 0 -90 27.5t-34 77.5q0 34 19.5 66.5t65.5 69.5q42 33 63 64t27.5 60t6.5 58v20zM288 719
q-27 0 -45 -17t-18 -46t18 -46.5t45 -17.5q28 0 46 17.5t18 46.5t-18 46t-46 17z" />
    <glyph glyph-name="periodcentered.case" horiz-adv-x="287" 
d="M143 292q28 0 46 17t18 46t-18 46.5t-46 17.5q-27 0 -45 -17.5t-18 -46.5t18 -46t45 -17z" />
    <glyph glyph-name="bullet.case" horiz-adv-x="438" 
d="M219 216q38 0 69.5 18.5t50.5 50.5t19 70q0 39 -19 70.5t-50.5 50t-69.5 18.5t-70 -18.5t-50.5 -50t-18.5 -70.5q0 -38 18.5 -70t50.5 -50.5t70 -18.5z" />
    <glyph glyph-name="parenleft.case" horiz-adv-x="297" 
d="M171 -70h86q-60 98 -90 207t-30 218q0 227 120 425h-86q-59 -92 -90 -200t-31 -225q0 -112 31 -222.5t90 -202.5z" />
    <glyph glyph-name="parenright.case" horiz-adv-x="297" 
d="M40 -70h85q60 92 91 202.5t31 222.5q0 237 -122 425h-85q120 -198 120 -425q0 -109 -30 -218t-90 -207z" />
    <glyph glyph-name="braceleft.case" horiz-adv-x="389" 
d="M316 -70h33v77h-20q-53 0 -69 20.5t-16 60.5v165q0 39 -13.5 64t-64.5 38q45 11 61.5 35t16.5 67v166q0 50 21.5 65t63.5 15h20v77h-33q-80 0 -119.5 -38.5t-39.5 -109.5v-157q0 -44 -22.5 -66.5t-84.5 -22.5v-61q62 0 84.5 -22.5t22.5 -67.5v-156q0 -77 42 -113t117 -36
z" />
    <glyph glyph-name="braceright.case" horiz-adv-x="389" 
d="M40 -70h33q75 0 117 36t42 113v156q0 45 23 67.5t84 22.5v61q-62 0 -84.5 22.5t-22.5 66.5v157q0 71 -39.5 109.5t-119.5 38.5h-33v-77h20q42 0 63.5 -15t21.5 -65v-166q0 -43 16.5 -67t61.5 -35q-51 -13 -64.5 -38t-13.5 -64v-165q0 -40 -16 -60.5t-69 -20.5h-20v-77z
" />
    <glyph glyph-name="bracketleft.case" horiz-adv-x="302" 
d="M50 -70h212v77h-125v696h125v77h-212v-850z" />
    <glyph glyph-name="bracketright.case" horiz-adv-x="302" 
d="M40 -70h212v850h-212v-77h125v-696h-125v-77z" />
    <glyph glyph-name="hyphen.case" horiz-adv-x="510" 
d="M80 317h350v77h-350v-77z" />
    <glyph glyph-name="endash.case" horiz-adv-x="603" 
d="M80 317h443v76h-443v-76z" />
    <glyph glyph-name="emdash.case" horiz-adv-x="946" 
d="M80 317h786v76h-786v-76z" />
    <glyph glyph-name="uni2015.case" horiz-adv-x="986" 
d="M110 317h786v76h-786v-76z" />
    <glyph glyph-name="uni2010.case" horiz-adv-x="550" 
d="M110 317h350v77h-350v-77z" />
    <glyph glyph-name="guillemotleft.case" horiz-adv-x="623" 
d="M472 152h101l-137 203l137 203h-101l-138 -203zM198 152h100l-137 203l137 203h-100l-138 -203z" />
    <glyph glyph-name="guillemotright.case" horiz-adv-x="623" 
d="M50 152h101l138 203l-138 203h-101l137 -203zM325 152h100l138 203l-138 203h-100l137 -203z" />
    <glyph glyph-name="guilsinglleft.case" horiz-adv-x="348" 
d="M198 153h100l-137 203l137 203h-100l-138 -203z" />
    <glyph glyph-name="guilsinglright.case" horiz-adv-x="349" 
d="M50 152h101l138 203l-138 203h-101l137 -203z" />
    <glyph glyph-name="plus.case" 
d="M317 96h81v222h216v76h-216v220h-81v-220h-217v-76h217v-222z" />
    <glyph glyph-name="minus.case" 
d="M120 317h474v76h-474v-76z" />
    <glyph glyph-name="multiply.case" 
d="M167 112l191 187l190 -187l55 56l-190 188l190 187l-55 55l-190 -188l-191 188l-55 -55l189 -187l-189 -188z" />
    <glyph glyph-name="divide.case" 
d="M313 530h88v92h-88v-92zM100 321h514v68h-514v-68zM313 88h88v92h-88v-92z" />
    <glyph glyph-name="equal.case" 
d="M107 428h500v77h-500v-77zM107 206h500v76h-500v-76z" />
    <glyph glyph-name="greater.case" 
d="M123 98l469 218v78l-469 218v-81l381 -176l-381 -177v-80z" />
    <glyph glyph-name="less.case" 
d="M591 98v80l-381 177l381 176v81l-469 -218v-78z" />
    <glyph glyph-name="at.case" horiz-adv-x="883" 
d="M448 -39q86 0 161.5 26t121.5 67l-39 57q-48 -34 -109 -55t-135 -21q-91 0 -160 40t-107.5 111t-38.5 163q0 94 40 167.5t111 116t164 42.5q83 0 147 -34.5t100.5 -94t36.5 -133.5q0 -46 -14.5 -85.5t-38.5 -64t-53 -24.5q-46 0 -34 68l42 239h-76l-7 -41
q-17 23 -46.5 36.5t-66.5 13.5q-61 0 -109.5 -30t-76.5 -81t-28 -114q0 -73 43.5 -119t112.5 -46q82 0 134 60q10 -28 37 -44t64 -16q57 0 102 33t71 89.5t26 126.5q0 72 -27.5 133t-77 106.5t-116.5 70.5t-146 25q-85 0 -157.5 -29.5t-126 -83.5t-83 -127t-29.5 -159
q0 -84 28.5 -155t81 -123.5t123.5 -81.5t155 -29zM412 237q-47 0 -72 26.5t-25 72.5q0 65 36 106t91 41q50 0 77 -23.5t27 -67.5q0 -42 -17 -77.5t-47.5 -56.5t-69.5 -21z" />
    <glyph glyph-name="uni0335.case" horiz-adv-x="0" 
d="M130 222h300v77h-300v-77z" />
    <glyph glyph-name="uni0337.case" horiz-adv-x="0" 
d="M130 215l300 200v84l-300 -200v-84z" />
    <glyph glyph-name="uni0338.case" horiz-adv-x="0" 
d="M50 0h104l682 710h-104z" />
    </font>
</defs>
</svg>
