<?xml version="1.0" standalone="no"?>
<!DOCTYPE svg PUBLIC "-//W3C//DTD SVG 1.1//EN" "http://www.w3.org/Graphics/SVG/1.1/DTD/svg11.dtd" >
<svg xmlns="http://www.w3.org/2000/svg" version="1.1">
<metadata>
Created by FontForge 20201107 at Fri Mar 11 12:11:57 2022
 By 
Copyright (c) 2021 by PT Bank Central Asia TBK. All rights reserved.
</metadata>
<defs>
<font id="BCASans-SemiBold" horiz-adv-x="711" >
  <font-face 
    font-family="BCA Sans SemiBold"
    font-weight="600"
    font-stretch="normal"
    units-per-em="1000"
    panose-1="0 0 0 0 0 0 0 0 0 0"
    ascent="800"
    descent="-200"
    x-height="520"
    cap-height="710"
    bbox="-200 -225 1357 987"
    underline-thickness="50"
    underline-position="-125"
    unicode-range="U+0020-FB02"
  />
<missing-glyph horiz-adv-x="720" 
d="M83 0h553v710h-553v-710zM196 106v498h328v-498h-328z" />
    <glyph glyph-name="fi" unicode="fi" horiz-adv-x="707" 
d="M148 0h115v423h129v97h-129v65q0 34 20 48.5t48 14.5q14 0 28.5 -3t27.5 -10h5v87q-19 10 -42 14t-46 4q-66 0 -111 -37.5t-45 -113.5v-69h-105v-97h105v-423zM571 593q31 0 54 20.5t23 52.5q0 34 -23 54t-54 20t-54 -20t-23 -54q0 -32 23 -52.5t54 -20.5zM514 0h115v520
h-115v-520z" />
    <glyph glyph-name="fl" unicode="fl" horiz-adv-x="707" 
d="M148 0h115v423h129v97h-129v65q0 34 20 48.5t48 14.5q14 0 28.5 -3t27.5 -10h5v87q-19 10 -42 14t-46 4q-66 0 -111 -37.5t-45 -113.5v-69h-105v-97h105v-423zM508 0h115v710h-115v-710z" />
    <glyph glyph-name=".notdef" horiz-adv-x="720" 
d="M83 0h553v710h-553v-710zM196 106v498h328v-498h-328z" />
    <glyph glyph-name=".null" horiz-adv-x="0" 
 />
    <glyph glyph-name="nonmarkingreturn" horiz-adv-x="333" 
 />
    <glyph glyph-name="space" unicode=" " horiz-adv-x="220" 
 />
    <glyph glyph-name="exclam" unicode="!" horiz-adv-x="308" 
d="M101 222h107l8 500h-124zM153 -6q33 0 55.5 20.5t22.5 55.5q0 37 -22.5 57.5t-55.5 20.5q-31 0 -53.5 -20.5t-22.5 -57.5q0 -35 22.5 -55.5t53.5 -20.5z" />
    <glyph glyph-name="quotedbl" unicode="&#x22;" horiz-adv-x="466" 
d="M268 458h91l30 252h-121v-252zM77 458h91l30 252h-121v-252z" />
    <glyph glyph-name="numbersign" unicode="#" horiz-adv-x="829" 
d="M153 0h112l36 170h158l-36 -170h112l36 170h143l18 92h-141l40 190h142l20 93h-143l35 165h-112l-35 -165h-158l35 165h-112l-35 -165h-142l-20 -93h143l-41 -190h-142l-19 -92h142zM321 262l40 190h158l-41 -190h-157z" />
    <glyph glyph-name="dollar" unicode="$" horiz-adv-x="652" 
d="M290 -157h68v146q67 5 119 31.5t81.5 72.5t29.5 109q0 58 -20.5 94.5t-54.5 58t-74.5 33.5t-80.5 22v205q35 -8 60 -30.5t30 -57.5l117 5q-9 75 -66 125.5t-141 61.5v141h-68v-139q-98 -6 -156.5 -61.5t-58.5 -143.5q0 -57 18.5 -93t50 -58t69.5 -35t77 -22v-215
q-47 9 -80 38t-39 79l-118 -5q4 -61 36 -107t84 -74t117 -34v-147zM196 524q0 42 26 65.5t68 29.5v-191q-41 13 -67.5 33.5t-26.5 62.5zM467 189q0 -42 -30 -67t-79 -30v199q46 -13 77.5 -34.5t31.5 -67.5z" />
    <glyph glyph-name="percent" unicode="%" horiz-adv-x="1023" 
d="M261 347q54 0 95.5 24t65 66t23.5 95q0 54 -23.5 96t-65 66t-95.5 24t-95.5 -24t-65 -66t-23.5 -96q0 -53 23.5 -95t65 -66t95.5 -24zM180 0h118l547 710h-119zM261 433q-40 0 -66.5 28t-26.5 71q0 44 26.5 72.5t66.5 28.5t66.5 -28.5t26.5 -72.5q0 -43 -26.5 -71
t-66.5 -28zM763 -8q54 0 95.5 24t65 66t23.5 96t-23.5 95.5t-65 65.5t-95.5 24t-95.5 -24t-65 -65.5t-23.5 -95.5t23.5 -96t65 -66t95.5 -24zM763 77q-40 0 -67 28.5t-27 72.5t27 71.5t67 27.5t66.5 -27.5t26.5 -71.5t-26.5 -72.5t-66.5 -28.5z" />
    <glyph glyph-name="ampersand" unicode="&#x26;" horiz-adv-x="784" 
d="M330 -12q59 0 108.5 20.5t91.5 59.5l71 -68h131l-139 138q53 75 103 187h-116q-16 -34 -30.5 -62t-29.5 -51l-154 153q38 21 71.5 46t54.5 59.5t21 80.5q0 78 -49 124.5t-134 46.5q-54 0 -96.5 -21.5t-67 -60.5t-24.5 -90q0 -82 71 -166q-35 -20 -65 -47t-48 -64t-18 -90
q0 -56 30 -100t85.5 -69.5t132.5 -25.5zM303 431q-25 29 -40.5 57.5t-15.5 59.5q0 41 24 62.5t60 21.5t59 -21.5t23 -61.5t-31.5 -67t-78.5 -51zM332 82q-64 0 -102 31.5t-38 81.5q0 46 23.5 72.5t60.5 48.5l183 -179q-55 -55 -127 -55z" />
    <glyph glyph-name="quotesingle" unicode="'" horiz-adv-x="274" 
d="M77 458h91l30 252h-121v-252z" />
    <glyph glyph-name="parenleft" unicode="(" horiz-adv-x="323" 
d="M168 -140h119q-61 98 -90.5 207t-29.5 218q0 228 120 425h-119q-59 -92 -90 -200t-31 -225q0 -112 31 -222.5t90 -202.5z" />
    <glyph glyph-name="parenright" unicode=")" horiz-adv-x="323" 
d="M37 -140h117q61 92 92 202.5t31 222.5q0 238 -123 425h-117q120 -199 120 -425q0 -109 -30 -218t-90 -207z" />
    <glyph glyph-name="asterisk" unicode="*" horiz-adv-x="582" 
d="M201 304l90 126l90 -126l73 51l-91 129l143 42l-24 85l-146 -42v141h-89v-141l-147 42l-23 -85l143 -42l-91 -129z" />
    <glyph glyph-name="plus" unicode="+" 
d="M301 0h110v209h203v104h-203v207h-110v-207h-204v-104h204v-209z" />
    <glyph glyph-name="comma" unicode="," horiz-adv-x="308" 
d="M86 -121q53 0 85 24t46 63.5t14 83.5q0 50 -22.5 74t-55.5 24q-31 0 -53.5 -20.5t-22.5 -57.5q0 -35 22.5 -55.5t53.5 -20.5q7 0 11 2q-4 -30 -25 -45.5t-53 -15.5v-56z" />
    <glyph glyph-name="hyphen" unicode="-" horiz-adv-x="504" 
d="M77 210h350v104h-350v-104z" />
    <glyph glyph-name="period" unicode="." horiz-adv-x="308" 
d="M153 -6q33 0 55.5 20.5t22.5 55.5q0 37 -22.5 57.5t-55.5 20.5q-31 0 -53.5 -20.5t-22.5 -57.5q0 -35 22.5 -55.5t53.5 -20.5z" />
    <glyph glyph-name="slash" unicode="/" horiz-adv-x="488" 
d="M47 0h121l283 710h-121z" />
    <glyph glyph-name="zero" unicode="0" horiz-adv-x="707" 
d="M354 -12q90 0 155 44.5t100 126.5t35 196q0 115 -35.5 197t-100.5 126t-155 44q-89 0 -154.5 -44.5t-100.5 -126.5t-35 -196t35.5 -196t101 -126.5t154.5 -44.5zM354 98q-81 0 -124.5 67t-43.5 190q0 124 43 190.5t125 66.5t124.5 -66t42.5 -191q0 -124 -42.5 -190.5
t-124.5 -66.5z" />
    <glyph glyph-name="one" unicode="1" horiz-adv-x="429" 
d="M195 0h121v710h-88l-195 -106v-113l162 85v-576z" />
    <glyph glyph-name="two" unicode="2" horiz-adv-x="624" 
d="M54 0h507v107h-326l169 170q71 73 104 129.5t33 118.5q0 59 -29 103t-81 69t-121 25q-70 0 -124.5 -27t-86.5 -76t-37 -114l118 -3q3 56 38 84.5t87 28.5t83 -25.5t31 -69.5q0 -30 -15 -61t-50 -71.5t-96 -101.5l-204 -202v-84z" />
    <glyph glyph-name="three" unicode="3" horiz-adv-x="638" 
d="M317 -12q76 0 133.5 28t90.5 77t33 112q0 62 -35 106.5t-96 62.5q49 23 76.5 66t27.5 94q0 55 -30.5 97t-82.5 66.5t-117 24.5q-70 0 -124 -26.5t-85.5 -73.5t-36.5 -109l117 -3q4 50 38 77.5t89 27.5q50 0 80 -25t30 -69q0 -45 -30.5 -73.5t-83.5 -28.5h-70v-103h79
q64 0 98 -29t34 -77q0 -54 -36.5 -84.5t-98.5 -30.5q-61 0 -100.5 29.5t-44.5 80.5l-119 -3q5 -64 39.5 -112t92 -75t132.5 -27z" />
    <glyph glyph-name="four" unicode="4" horiz-adv-x="673" 
d="M384 0h120v167h106v107h-106v436h-149l-322 -426v-117h351v-167zM150 274l234 311v-311h-234z" />
    <glyph glyph-name="five" unicode="5" horiz-adv-x="628" 
d="M315 -12q73 0 132 30t93.5 86t34.5 132q0 71 -31.5 126t-87 86.5t-128.5 31.5q-78 0 -132 -41l24 164h320v107h-407l-60 -373l105 -28q20 29 54 49t81 20q63 0 101 -40t38 -101q0 -64 -37.5 -103t-99.5 -39q-59 0 -98 30t-46 82l-118 -3q5 -64 39.5 -113t91.5 -76
t131 -27z" />
    <glyph glyph-name="six" unicode="6" horiz-adv-x="627" 
d="M324 -12q72 0 128.5 31t88.5 86t32 126q0 69 -31 122t-84 83t-120 30q-40 0 -77 -13.5t-66 -46.5q11 59 38 105.5t76 74t123 27.5q25 0 48 -2t45 -6v109q-22 4 -45 6t-49 2q-93 0 -164 -34t-118.5 -94t-71.5 -138.5t-24 -166.5q0 -96 34 -163t95 -102.5t142 -35.5z
M320 94q-58 0 -96.5 37t-38.5 96q0 57 38 95.5t97 38.5q57 0 93.5 -37.5t36.5 -96.5t-36.5 -96t-93.5 -37z" />
    <glyph glyph-name="seven" unicode="7" horiz-adv-x="548" 
d="M151 0h123q10 173 76.5 328.5t174.5 280.5v101h-492v-107h344q-97 -125 -156.5 -278.5t-69.5 -324.5z" />
    <glyph glyph-name="eight" unicode="8" horiz-adv-x="625" 
d="M312 -12q77 0 135.5 27t91 74.5t32.5 110.5q0 65 -35 112.5t-95 65.5q45 23 71.5 64t26.5 91q0 56 -29.5 98.5t-81 66.5t-116.5 24q-66 0 -117 -24t-80.5 -66.5t-29.5 -98.5q0 -50 26.5 -91t72.5 -64q-61 -18 -96 -65t-35 -113q0 -63 32.5 -110.5t91 -74.5t135.5 -27z
M312 425q-49 0 -78.5 25.5t-29.5 69.5t29.5 70.5t78.5 26.5q50 0 79.5 -26.5t29.5 -70.5t-30 -69.5t-79 -25.5zM312 93q-61 0 -98.5 31t-37.5 84t37.5 83.5t98.5 30.5q62 0 99 -30.5t37 -83.5t-37 -84t-99 -31z" />
    <glyph glyph-name="nine" unicode="9" horiz-adv-x="627" 
d="M195 -12q94 0 164.5 34t118 94t71.5 138.5t24 166.5q0 96 -33.5 163.5t-94.5 102.5t-142 35q-72 0 -128.5 -31t-89 -85.5t-32.5 -126.5q0 -69 31 -122t84.5 -83t120.5 -30q39 0 77 13.5t66 46.5q-11 -58 -38.5 -105t-75.5 -74.5t-123 -27.5q-25 0 -48 2t-46 6v-109
q23 -4 46 -6t48 -2zM306 349q-57 0 -93.5 38t-36.5 96q0 59 36.5 95.5t93.5 36.5q58 0 96.5 -36.5t38.5 -95.5q0 -57 -38 -95.5t-97 -38.5z" />
    <glyph glyph-name="colon" unicode=":" horiz-adv-x="308" 
d="M153 343q33 0 55.5 20.5t22.5 55.5q0 36 -22.5 57t-55.5 21q-31 0 -53.5 -21t-22.5 -57q0 -35 22.5 -55.5t53.5 -20.5zM153 -6q33 0 55.5 20.5t22.5 55.5q0 37 -22.5 57.5t-55.5 20.5q-31 0 -53.5 -20.5t-22.5 -57.5q0 -35 22.5 -55.5t53.5 -20.5z" />
    <glyph glyph-name="semicolon" unicode=";" horiz-adv-x="308" 
d="M153 343q33 0 55.5 20.5t22.5 55.5q0 36 -22.5 57t-55.5 21q-31 0 -53.5 -21t-22.5 -57q0 -35 22.5 -55.5t53.5 -20.5zM87 -121q53 0 85 24t46 63.5t14 83.5q0 50 -22.5 74t-55.5 24q-32 0 -54.5 -20.5t-22.5 -57.5q0 -35 22.5 -55.5t54.5 -20.5q2 0 5 0.5t5 1.5
q-4 -30 -24.5 -45.5t-52.5 -15.5v-56z" />
    <glyph glyph-name="less" unicode="&#x3c;" 
d="M597 -8v107l-363 158l363 157v107l-483 -211v-106z" />
    <glyph glyph-name="equal" unicode="=" 
d="M106 331h500v105h-500v-105zM106 90h500v104h-500v-104z" />
    <glyph glyph-name="greater" unicode="&#x3e;" 
d="M114 -8l483 212v106l-483 211v-107l363 -157l-363 -158v-107z" />
    <glyph glyph-name="question" unicode="?" horiz-adv-x="555" 
d="M203 222h113v17q0 28 14 57t57 63q60 49 86 92t26 93q0 54 -28 94t-77.5 62t-115.5 22q-104 0 -165 -57t-66 -149l117 -3q4 49 34 76.5t76 27.5q47 0 75 -22.5t28 -63.5q0 -31 -20 -59t-60 -59q-41 -32 -61 -61t-26.5 -57t-6.5 -56v-17zM263 -6q32 0 54.5 20.5t22.5 55.5
q0 37 -22.5 57.5t-54.5 20.5q-33 0 -55.5 -20.5t-22.5 -57.5q0 -35 22.5 -55.5t55.5 -20.5z" />
    <glyph glyph-name="at" unicode="@" horiz-adv-x="891" 
d="M452 -133q92 0 171 27.5t127 68.5l-46 70q-48 -34 -111.5 -55.5t-140.5 -21.5q-89 0 -157 39.5t-106 109t-38 158.5q0 92 39.5 164t109.5 113t161 41q82 0 144.5 -33.5t98.5 -90.5t36 -130q0 -44 -13 -81t-34.5 -59t-48.5 -22q-22 0 -30.5 18t-2.5 50l41 231h-91l-6 -38
q-15 22 -43.5 34.5t-63.5 12.5q-63 0 -112.5 -30.5t-78 -82.5t-28.5 -117q0 -49 20 -86.5t55.5 -59t81.5 -21.5q41 0 76.5 17t58.5 45q11 -29 39.5 -45.5t67.5 -16.5q59 0 106 33t74 90t27 129q0 74 -28 136.5t-79 108.5t-119 71.5t-149 25.5q-87 0 -160.5 -30t-128 -85
t-84.5 -129t-30 -162q0 -86 29 -158.5t82.5 -126t125.5 -83t158 -29.5zM413 164q-40 0 -62.5 24t-22.5 64q0 59 33.5 96t81.5 37q44 0 67.5 -22t23.5 -61q0 -38 -16 -69.5t-43.5 -50t-61.5 -18.5z" />
    <glyph glyph-name="A" unicode="A" horiz-adv-x="749" 
d="M33 0h134l64 166h288l64 -166h133l-281 710h-122zM269 273l106 279l105 -279h-211z" />
    <glyph glyph-name="B" unicode="B" horiz-adv-x="673" 
d="M83 0h303q71 0 123.5 26.5t81.5 72t29 102.5q0 60 -30.5 103.5t-83.5 62.5q45 28 64 67.5t19 82.5q0 59 -27 102t-74 67t-109 24h-296v-710zM204 412v194h162q45 0 74 -27t29 -69q0 -43 -29 -70.5t-74 -27.5h-162zM204 104v207h183q50 0 81 -28.5t31 -75.5q0 -45 -31 -74
t-81 -29h-183z" />
    <glyph glyph-name="C" unicode="C" horiz-adv-x="813" 
d="M426 -12q95 0 167.5 34.5t115.5 92.5t51 127l-117 10q-6 -46 -36.5 -81t-77.5 -54.5t-102 -19.5q-73 0 -127.5 33t-84.5 91t-30 134t30 134t84.5 91t127.5 33q54 0 101 -20t78 -54.5t37 -80.5l117 10q-8 69 -51.5 126.5t-115.5 92.5t-167 35q-79 0 -145.5 -27.5
t-115.5 -77t-75.5 -116.5t-26.5 -146t26.5 -146t75 -116.5t115 -77t146.5 -27.5z" />
    <glyph glyph-name="D" unicode="D" horiz-adv-x="765" 
d="M83 0h239q117 0 202 44t131 124t46 187q0 110 -46 189.5t-130.5 122.5t-202.5 43h-239v-710zM204 107v496h122q79 0 135.5 -31.5t87 -87.5t30.5 -129t-30.5 -129t-87 -87.5t-135.5 -31.5h-122z" />
    <glyph glyph-name="E" unicode="E" horiz-adv-x="583" 
d="M83 0h457v107h-336v200h296v105h-296v191h336v107h-457v-710z" />
    <glyph glyph-name="F" unicode="F" horiz-adv-x="572" 
d="M83 0h121v302h295v106h-295v195h335v107h-456v-710z" />
    <glyph glyph-name="G" unicode="G" horiz-adv-x="842" 
d="M419 -12q82 0 146 34.5t102 95.5l8 -118h94v391h-353v-106h232q-3 -85 -61.5 -136.5t-154.5 -51.5q-75 0 -130.5 33t-86 91t-30.5 134t30 134t84.5 91t127.5 33q52 0 97 -18.5t76.5 -51t39.5 -75.5l118 11q-10 66 -54 121.5t-115 88.5t-163 33q-79 0 -145.5 -27.5
t-115.5 -77t-75.5 -116.5t-26.5 -146t26.5 -146t74.5 -116.5t113 -77t142 -27.5z" />
    <glyph glyph-name="H" unicode="H" horiz-adv-x="740" 
d="M83 0h121v301h332v-301h121v710h-121v-302h-332v302h-121v-710z" />
    <glyph glyph-name="I" unicode="I" horiz-adv-x="287" 
d="M83 0h117v710h-117v-710z" />
    <glyph glyph-name="J" unicode="J" horiz-adv-x="640" 
d="M298 -12q76 0 135 29.5t92.5 83t33.5 125.5v484h-371v-107h251v-370q0 -62 -40.5 -99t-100.5 -37q-58 0 -99 35t-45 97l-121 -7q3 -65 36 -118.5t92 -84.5t137 -31z" />
    <glyph glyph-name="K" unicode="K" horiz-adv-x="701" 
d="M83 0h121v213l88 100l229 -313h147l-291 404l264 306h-150l-287 -325v325h-121v-710z" />
    <glyph glyph-name="L" unicode="L" horiz-adv-x="587" 
d="M83 0h471v107h-350v603h-121v-710z" />
    <glyph glyph-name="M" unicode="M" horiz-adv-x="907" 
d="M83 0h120v466l220 -466h62l219 466v-466h120v710h-133l-237 -502l-238 502h-133v-710z" />
    <glyph glyph-name="N" unicode="N" horiz-adv-x="751" 
d="M83 0h120v497l351 -497h114v710h-120v-492l-352 492h-113v-710z" />
    <glyph glyph-name="O" unicode="O" horiz-adv-x="860" 
d="M430 -12q80 0 146.5 27.5t116 77.5t76.5 117t27 145t-27.5 145t-77 116.5t-116.5 77.5t-145 28q-79 0 -146 -27.5t-116.5 -77.5t-77 -117t-27.5 -145t27.5 -145t76.5 -117t116.5 -77.5t146.5 -27.5zM430 98q-73 0 -128 33t-85.5 91.5t-30.5 132.5q0 75 30.5 133t85.5 91
t128 33t127.5 -33t85 -91t30.5 -133t-30.5 -133t-85 -91t-127.5 -33z" />
    <glyph glyph-name="P" unicode="P" horiz-adv-x="626" 
d="M83 0h121v278h137q74 0 126 27.5t79 76.5t27 112q0 98 -59.5 157t-172.5 59h-258v-710zM204 384v220h137q52 0 82 -29.5t30 -79.5q0 -49 -30 -80t-82 -31h-137z" />
    <glyph glyph-name="Q" unicode="Q" horiz-adv-x="840" 
d="M430 -12q48 0 92.5 10.5t82.5 30.5l112 -112l80 80l-100 100q47 49 73 115t26 143q0 78 -27.5 145t-77 116.5t-116.5 77.5t-145 28q-79 0 -146 -27.5t-116.5 -77.5t-77 -117t-27.5 -145t27.5 -145t76.5 -117t116.5 -77.5t146.5 -27.5zM430 98q-73 0 -128 33t-85.5 91.5
t-30.5 132.5q0 75 30.5 133t85.5 91t128 33t127.5 -33t85 -91t30.5 -133q0 -52 -15.5 -97t-43.5 -78l-142 142l-80 -80l128 -128q-42 -16 -90 -16z" />
    <glyph glyph-name="R" unicode="R" horiz-adv-x="681" 
d="M83 0h121v278h100l204 -278h139l-211 290q73 19 113 73.5t40 130.5q0 98 -60 157t-173 59h-273v-710zM204 384v220h152q53 0 83 -29.5t30 -79.5q0 -49 -30 -80t-83 -31h-152z" />
    <glyph glyph-name="S" unicode="S" horiz-adv-x="652" 
d="M328 -12q75 0 134 25t92.5 73t33.5 116q0 58 -20.5 94.5t-54.5 58t-74.5 33.5t-80.5 22q-43 11 -80 22.5t-59.5 32t-22.5 59.5q0 47 33 71.5t85 24.5q50 0 89 -23.5t45 -69.5l117 5q-6 57 -41 99.5t-89.5 66.5t-121.5 24q-72 0 -125.5 -25.5t-83 -72t-29.5 -108.5
q0 -59 20 -96t53.5 -59t74 -34.5t80.5 -21.5q43 -10 80.5 -22t60.5 -33.5t23 -60.5q0 -48 -38.5 -73.5t-99.5 -25.5t-105.5 30.5t-52.5 89.5l-118 -5q5 -67 42 -115.5t97.5 -75t135.5 -26.5z" />
    <glyph glyph-name="T" unicode="T" horiz-adv-x="589" 
d="M235 0h121v603h199v107h-522v-107h202v-603z" />
    <glyph glyph-name="U" unicode="U" horiz-adv-x="694" 
d="M346 -12q77 0 139 32t98 90.5t36 136.5v463h-121v-459q0 -69 -41.5 -111.5t-110.5 -42.5q-67 0 -108.5 42.5t-41.5 111.5v459h-121v-463q0 -78 36.5 -136.5t98 -90.5t136.5 -32z" />
    <glyph glyph-name="V" unicode="V" horiz-adv-x="729" 
d="M303 0h123l270 710h-132l-200 -543l-198 543h-133z" />
    <glyph glyph-name="W" unicode="W" horiz-adv-x="1073" 
d="M252 0h115l170 514l169 -514h115l218 710h-126l-157 -506l-167 506h-104l-169 -504l-155 504h-128z" />
    <glyph glyph-name="X" unicode="X" horiz-adv-x="714" 
d="M428 365l239 345h-143l-167 -242l-167 242h-143l239 -345l-253 -365h142l182 262l182 -262h142z" />
    <glyph glyph-name="Y" unicode="Y" horiz-adv-x="692" 
d="M286 0h120v322l253 388h-140l-173 -270l-173 270h-140l253 -388v-322z" />
    <glyph glyph-name="Z" unicode="Z" horiz-adv-x="604" 
d="M23 0h537v107h-371l353 536v67h-500v-107h340l-359 -536v-67z" />
    <glyph glyph-name="bracketleft" unicode="[" horiz-adv-x="322" 
d="M47 -140h239v105h-119v640h119v105h-239v-850z" />
    <glyph glyph-name="backslash" unicode="\" horiz-adv-x="488" 
d="M320 0h121l-284 710h-120z" />
    <glyph glyph-name="bracketright" unicode="]" horiz-adv-x="322" 
d="M37 -140h239v850h-239v-105h119v-640h-119v-105z" />
    <glyph glyph-name="asciicircum" unicode="^" 
d="M104 360h112l140 250l140 -250h111l-197 350h-109z" />
    <glyph glyph-name="underscore" unicode="_" horiz-adv-x="530" 
d="M57 -94h417v94h-417v-94z" />
    <glyph glyph-name="grave" unicode="`" horiz-adv-x="372" 
d="M188 600h108l-82 153h-137z" />
    <glyph glyph-name="a" unicode="a" horiz-adv-x="606" 
d="M230 -12q58 0 103.5 19.5t69.5 55.5v-63h110v352q0 80 -59.5 130t-167.5 50q-59 0 -108 -20t-81 -58t-40 -93l109 -5q9 41 41 61t77 20q52 0 83 -23.5t31 -61.5v-14l-174 -34q-47 -9 -86 -29t-62 -54t-23 -85q0 -67 49 -107.5t128 -40.5zM255 79q-37 0 -62 16.5t-25 50.5
t25 53.5t63 26.5l142 27v-46q0 -62 -39 -95t-104 -33z" />
    <glyph glyph-name="b" unicode="b" horiz-adv-x="671" 
d="M357 -12q75 0 134 34.5t93 95.5t34 142t-34.5 142.5t-93 95.5t-131.5 34q-54 0 -98.5 -19.5t-72.5 -55.5v253h-115v-710h107v70q30 -40 76 -61t101 -21zM346 92q-44 0 -80 20t-57 57.5t-21 90.5q0 54 21 91.5t57 57.5t80 20q67 0 111 -46t44 -123q0 -76 -44 -122
t-111 -46z" />
    <glyph glyph-name="c" unicode="c" horiz-adv-x="630" 
d="M326 -12q64 0 117.5 24.5t89 69t44.5 105.5l-107 11q-14 -52 -54 -79t-90 -27q-42 0 -77.5 20.5t-56.5 58.5t-21 89q0 52 21 89.5t56.5 58t77.5 20.5q50 0 90 -26.5t54 -79.5l106 11q-9 62 -44.5 106.5t-88.5 68.5t-117 24q-78 0 -139.5 -35t-97.5 -96t-36 -141
q0 -79 36 -140.5t97.5 -96.5t139.5 -35z" />
    <glyph glyph-name="d" unicode="d" horiz-adv-x="671" 
d="M315 -12q54 0 100.5 21.5t75.5 62.5v-72h107v722h-115v-266q-28 35 -72.5 55.5t-97.5 20.5q-73 0 -132 -34t-93.5 -95.5t-34.5 -142.5t34.5 -142t93.5 -95.5t134 -34.5zM326 92q-44 0 -79.5 21t-56 58.5t-20.5 88.5t20.5 89t56 59t79.5 21q66 0 111.5 -44.5t45.5 -124.5
q0 -79 -45.5 -123.5t-111.5 -44.5z" />
    <glyph glyph-name="e" unicode="e" horiz-adv-x="635" 
d="M326 -12q92 0 159.5 47t89.5 131l-111 6q-11 -43 -48.5 -67.5t-89.5 -24.5q-38 0 -72.5 16.5t-58 49.5t-27.5 80h407q4 13 5.5 29t1.5 33q0 66 -31.5 121.5t-89.5 89t-140 33.5q-75 0 -136 -35t-96.5 -96t-35.5 -141q0 -79 36 -140.5t98 -96.5t139 -35zM169 311
q6 45 28.5 74t55.5 43.5t68 14.5q64 0 105 -36.5t42 -95.5h-299z" />
    <glyph glyph-name="f" unicode="f" horiz-adv-x="435" 
d="M148 0h115v423h129v97h-129v65q0 34 20 48.5t48 14.5q14 0 28.5 -3t27.5 -10h5v87q-19 10 -42 14t-46 4q-66 0 -111 -37.5t-45 -113.5v-69h-105v-97h105v-423z" />
    <glyph glyph-name="g" unicode="g" horiz-adv-x="667" 
d="M327 -218q76 0 136 31.5t95 89.5t35 138v479h-107v-69q-28 40 -75 60.5t-99 20.5q-75 0 -133.5 -33.5t-92 -92t-33.5 -132.5t34 -132.5t92 -92.5t131 -34q52 0 97 20.5t71 54.5v-49q0 -51 -21 -85.5t-55.5 -52t-75.5 -17.5q-48 0 -87.5 24t-56.5 70l-109 -11
q11 -59 47 -101t90 -64t117 -22zM324 119q-67 0 -110.5 43t-43.5 111q0 70 43.5 113t110.5 43q65 0 109.5 -41.5t44.5 -114.5q0 -72 -44.5 -113t-109.5 -41z" />
    <glyph glyph-name="h" unicode="h" horiz-adv-x="600" 
d="M73 0h115v302q0 59 34 94t87 35q49 0 81 -32t32 -97v-302h115v309q0 108 -55.5 165.5t-144.5 57.5q-43 0 -83 -17.5t-66 -57.5v255h-115v-712z" />
    <glyph glyph-name="i" unicode="i" horiz-adv-x="272" 
d="M136 593q31 0 54 20.5t23 52.5q0 34 -23 54t-54 20t-54 -20t-23 -54q0 -32 23 -52.5t54 -20.5zM79 0h115v520h-115v-520z" />
    <glyph glyph-name="j" unicode="j" horiz-adv-x="296" 
d="M159 593q32 0 55 20.5t23 52.5q0 34 -23 54t-55 20q-31 0 -54 -20t-23 -54q0 -32 23 -52.5t54 -20.5zM50 -225q74 0 120.5 43t46.5 120v582h-115v-572q0 -43 -19.5 -61.5t-52.5 -18.5q-18 0 -32 3t-30 10h-5v-87q20 -10 42.5 -14.5t44.5 -4.5z" />
    <glyph glyph-name="k" unicode="k" horiz-adv-x="584" 
d="M73 0h115v168l75 74l173 -242h135l-223 316l198 204h-139l-219 -212v414h-115v-722z" />
    <glyph glyph-name="l" unicode="l" horiz-adv-x="272" 
d="M73 0h115v710h-115v-710z" />
    <glyph glyph-name="m" unicode="m" horiz-adv-x="929" 
d="M73 0h115v302q0 59 32.5 94t83.5 35q49 0 78.5 -32t29.5 -97v-302h115v302q0 59 32 94t84 35q48 0 77.5 -32t29.5 -97v-302h115v309q0 108 -52.5 165.5t-142.5 57.5q-49 0 -96.5 -23t-73.5 -75q-24 49 -67 73.5t-101 24.5q-46 0 -86 -17.5t-66 -59.5v65h-107v-520z" />
    <glyph glyph-name="n" unicode="n" horiz-adv-x="600" 
d="M73 0h115v302q0 57 33.5 93t87.5 36q53 0 83 -34.5t30 -94.5v-302h115v309q0 104 -54 163.5t-146 59.5q-49 0 -91.5 -20t-65.5 -59v67h-107v-520z" />
    <glyph glyph-name="o" unicode="o" horiz-adv-x="650" 
d="M326 -12q77 0 138.5 35t97 96.5t35.5 140.5q0 80 -35.5 141.5t-96.5 96t-139 34.5q-79 0 -140.5 -35t-97 -96t-35.5 -141q0 -79 35.5 -140.5t97.5 -96.5t140 -35zM326 92q-69 0 -112.5 46.5t-43.5 121.5q0 76 43.5 122.5t112.5 46.5q44 0 78.5 -21t55 -59t20.5 -89
q0 -50 -20 -88t-55 -59t-79 -21z" />
    <glyph glyph-name="p" unicode="p" horiz-adv-x="671" 
d="M73 -200h115v265q28 -36 73 -56.5t98 -20.5q73 0 131.5 34.5t93 96t34.5 141.5q0 81 -34 142.5t-93 95.5t-134 34q-55 0 -101 -21t-76 -62v71h-107v-720zM346 92q-44 0 -80 20t-57 57.5t-21 90.5q0 54 21 91.5t57 57.5t80 20q67 0 111 -46t44 -123q0 -76 -44 -122
t-111 -46z" />
    <glyph glyph-name="q" unicode="q" horiz-adv-x="671" 
d="M483 -200h115v720h-107v-71q-29 41 -75.5 62t-100.5 21q-75 0 -134 -34t-93.5 -95.5t-34.5 -142.5q0 -80 34.5 -141.5t93.5 -96t132 -34.5q53 0 97.5 20.5t72.5 56.5v-265zM326 92q-44 0 -79.5 21t-56 58.5t-20.5 88.5t20.5 89t56 59t79.5 21q66 0 111.5 -44.5
t45.5 -124.5q0 -79 -45.5 -123.5t-111.5 -44.5z" />
    <glyph glyph-name="r" unicode="r" horiz-adv-x="394" 
d="M73 0h115v282q0 68 37 104.5t87 36.5q14 0 25 -1.5t19 -3.5h5v107q-7 3 -18.5 5t-25.5 2q-34 0 -73 -19t-64 -63v70h-107v-520z" />
    <glyph glyph-name="s" unicode="s" horiz-adv-x="513" 
d="M258 -12q60 0 105.5 19.5t71 55t25.5 82.5q0 45 -16 73.5t-42.5 45.5t-58 27t-61.5 18t-55.5 16.5t-41 23t-15.5 38.5q0 25 22 40.5t58 15.5q35 0 61.5 -18.5t30.5 -53.5l107 11q-5 69 -61 109.5t-141 40.5q-87 0 -139.5 -42.5t-52.5 -113.5q0 -43 16 -70.5t42 -44
t57.5 -26.5t61.5 -18t56 -17t41.5 -23.5t15.5 -39.5q0 -27 -25 -43t-63 -16q-44 0 -73.5 23t-34.5 63l-106 -11q4 -76 62.5 -120.5t152.5 -44.5z" />
    <glyph glyph-name="t" unicode="t" horiz-adv-x="422" 
d="M281 -12q23 0 46 4.5t42 13.5v87h-5q-14 -6 -28 -9.5t-28 -3.5q-34 0 -49 18.5t-15 47.5v277h125v97h-125v164h-7l-108 -38v-126h-99v-97h99v-287q0 -71 42 -109.5t110 -38.5z" />
    <glyph glyph-name="u" unicode="u" horiz-adv-x="583" 
d="M257 -12q47 0 88.5 18t67.5 56v-62h107v520h-115v-307q0 -58 -33.5 -90t-86.5 -32q-46 0 -76.5 29t-30.5 93v307h-115v-319q0 -104 54 -158.5t140 -54.5z" />
    <glyph glyph-name="v" unicode="v" horiz-adv-x="605" 
d="M255 0h96l221 520h-121l-148 -356l-147 356h-123z" />
    <glyph glyph-name="w" unicode="w" horiz-adv-x="921" 
d="M223 0h96l140 364l134 -364h95l200 520h-124l-125 -343l-128 343h-99l-134 -343l-120 343h-125z" />
    <glyph glyph-name="x" unicode="x" horiz-adv-x="601" 
d="M33 0h137l131 176l130 -176h137l-201 268l187 252h-131l-122 -163l-122 163h-131l186 -252z" />
    <glyph glyph-name="y" unicode="y" horiz-adv-x="605" 
d="M147 -215q54 0 88 23.5t57.5 63.5t44.5 91l235 557h-121l-148 -357l-148 357h-122l211 -495l-17 -42q-19 -51 -43.5 -72t-52.5 -21q-14 0 -24 1.5t-17 3.5h-10v-98q11 -6 29 -9t38 -3z" />
    <glyph glyph-name="z" unicode="z" horiz-adv-x="499" 
d="M23 0h443v97h-274l268 377v46h-418v-97h254l-273 -376v-47z" />
    <glyph glyph-name="braceleft" unicode="{" horiz-adv-x="410" 
d="M333 -140h40v105h-20q-50 0 -64.5 18.5t-14.5 55.5v139q0 44 -15.5 68.5t-71.5 38.5q50 12 68.5 36.5t18.5 70.5v140q0 45 19.5 59t59.5 14h20v105h-40q-88 0 -133.5 -41.5t-45.5 -118.5v-131q0 -46 -22.5 -68.5t-84.5 -22.5v-85q62 0 84.5 -23t22.5 -69v-130
q0 -80 47 -120.5t132 -40.5z" />
    <glyph glyph-name="bar" unicode="|" horiz-adv-x="349" 
d="M117 -100h115v855h-115v-855z" />
    <glyph glyph-name="braceright" unicode="}" horiz-adv-x="410" 
d="M37 -140h40q84 0 131.5 40.5t47.5 120.5v130q0 46 22.5 69t84.5 23v85q-62 0 -84.5 22.5t-22.5 68.5v131q0 77 -46 118.5t-133 41.5h-40v-105h20q40 0 59.5 -14t19.5 -59v-140q0 -46 18.5 -70.5t67.5 -36.5q-37 -9 -55.5 -23t-24.5 -34.5t-6 -49.5v-139
q0 -37 -14.5 -55.5t-64.5 -18.5h-20v-105z" />
    <glyph glyph-name="asciitilde" unicode="~" 
d="M459 193q66 0 102.5 41t30.5 120h-90q2 -38 -13 -53t-42 -15q-23 0 -42.5 10.5t-40.5 24.5t-47 24.5t-61 10.5q-38 0 -71 -18t-51.5 -53.5t-14.5 -89.5h89q-2 35 15 52t44 17q24 0 45 -10.5t42.5 -25t46.5 -25t58 -10.5z" />
    <glyph glyph-name="uni00A0" unicode="&#xa0;" horiz-adv-x="220" 
 />
    <glyph glyph-name="exclamdown" unicode="&#xa1;" horiz-adv-x="308" 
d="M101 304h107l8 -500h-124zM153 532q33 0 55.5 -20.5t22.5 -55.5q0 -37 -22.5 -57.5t-55.5 -20.5q-31 0 -53.5 20.5t-22.5 57.5q0 35 22.5 55.5t53.5 20.5z" />
    <glyph glyph-name="cent" unicode="&#xa2;" horiz-adv-x="630" 
d="M291 0h68v85q56 6 102 31.5t76.5 67.5t39.5 98l-107 11q-12 -44 -42 -69.5t-69 -33.5v330q39 -8 69 -33.5t42 -69.5l106 11q-12 85 -72.5 136.5t-144.5 60.5v85h-68v-85q-69 -8 -122.5 -44t-84.5 -94.5t-31 -131.5t31 -131t84.5 -94.5t122.5 -44.5v-85zM171 355
q0 67 34.5 110t85.5 54v-328q-51 11 -85.5 54.5t-34.5 109.5z" />
    <glyph glyph-name="sterling" unicode="&#xa3;" horiz-adv-x="646" 
d="M47 0h551v103h-411q51 48 72.5 98.5t15.5 112.5h166v83h-181q-7 29 -13 55.5t-6 51.5q0 53 32 83t84 30q53 0 87 -29.5t38 -85.5l118 3q-7 98 -71.5 157.5t-177.5 59.5q-69 0 -121 -26t-81 -72.5t-29 -107.5q0 -30 6 -60t12 -59h-91v-83h101q5 -57 -20 -104.5t-81 -96.5
v-113z" />
    <glyph glyph-name="currency" unicode="&#xa4;" horiz-adv-x="614" 
d="M195 177q52 -35 112 -35t112 35l75 -76l63 62l-76 76q16 24 25 53t9 60t-9 60t-25 53l76 76l-63 61l-75 -75q-25 17 -54 26t-58 9q-31 0 -59 -9t-53 -26l-76 75l-62 -61l75 -77q-16 -24 -25 -52.5t-9 -59.5t9 -60t25 -53l-75 -76l62 -62zM307 231q-33 0 -60.5 16
t-43.5 43.5t-16 61.5t16 61.5t43.5 43.5t60.5 16q50 0 84.5 -35t34.5 -86t-34.5 -86t-84.5 -35z" />
    <glyph glyph-name="yen" unicode="&#xa5;" horiz-adv-x="658" 
d="M506 710l-177 -275l-177 275h-135l225 -346h-169v-83h196v-76h-196v-84h196v-121h120v121h196v84h-196v76h196v83h-169l226 346h-136z" />
    <glyph glyph-name="brokenbar" unicode="&#xa6;" horiz-adv-x="349" 
d="M117 388h115v367h-115v-367zM117 -100h115v367h-115v-367z" />
    <glyph glyph-name="section" unicode="&#xa7;" horiz-adv-x="510" 
d="M258 -86q59 0 105.5 19.5t73.5 55t27 83.5q0 54 -24 84.5t-59 49.5q38 18 60.5 49t22.5 71q0 45 -16.5 74t-43 47t-58 29t-61.5 19q-30 9 -55.5 18t-41.5 23.5t-16 38.5q0 29 22 46t58 17q35 0 61.5 -17t31.5 -51h108q-1 47 -28.5 81t-73 52.5t-102.5 18.5
q-86 0 -139.5 -43.5t-53.5 -114.5q0 -51 23 -81t57 -47q-37 -19 -58.5 -51t-21.5 -75t16.5 -71.5t42.5 -46t57.5 -28.5t61.5 -19t55.5 -17t41.5 -23.5t16 -40.5q0 -30 -24.5 -47.5t-65.5 -17.5q-43 0 -72 20t-34 62h-108q1 -53 29.5 -90.5t77 -57t108.5 -19.5zM273 243
q-41 11 -72 27t-31 51q0 33 19.5 54t51.5 25q29 -8 54 -17.5t40 -24t15 -40.5q0 -32 -21 -52t-56 -23z" />
    <glyph glyph-name="dieresis" unicode="&#xa8;" horiz-adv-x="520" 
d="M153 593q32 0 54.5 20.5t22.5 52.5q0 34 -22.5 54t-54.5 20q-31 0 -53.5 -20t-22.5 -54q0 -32 22.5 -52.5t53.5 -20.5zM367 593q31 0 54 20.5t23 52.5q0 34 -23 54t-54 20t-54 -20t-23 -54q0 -32 23 -52.5t54 -20.5z" />
    <glyph glyph-name="copyright" unicode="&#xa9;" horiz-adv-x="953" 
d="M477 -50q86 0 158.5 30.5t127 85.5t84.5 129t30 160q0 87 -30 160.5t-84 128.5t-127 85.5t-159 30.5q-85 0 -158 -30.5t-127.5 -85.5t-84.5 -128.5t-30 -160.5q0 -86 30 -160t84.5 -129t127.5 -85.5t158 -30.5zM477 32q-92 0 -163.5 41.5t-112 114.5t-40.5 167
q0 95 40.5 167.5t112 114t163.5 41.5t163 -41.5t111.5 -114t40.5 -167.5q0 -94 -40.5 -167t-111.5 -114.5t-163 -41.5zM480 170q50 0 87 19.5t58 50.5t24 66l-78 5q-4 -30 -31 -47t-61 -17q-44 0 -73.5 30t-29.5 79q0 50 28.5 79t74.5 29q34 0 61 -17t31 -47l78 5
q-3 35 -24.5 66t-58 50.5t-86.5 19.5q-53 0 -95 -24t-66.5 -66t-24.5 -95t24 -95.5t66.5 -66.5t95.5 -24z" />
    <glyph glyph-name="ordfeminine" unicode="&#xaa;" horiz-adv-x="438" 
d="M182 391q33 0 60 10.5t42 31.5v-35h77v209q0 50 -36 80.5t-104 30.5q-55 0 -94.5 -27t-47.5 -78l76 -3q6 23 24 33t40 10q26 0 43.5 -12.5t17.5 -33.5v-6l-100 -19q-41 -8 -72 -31t-31 -70q0 -40 29.5 -65t75.5 -25zM202 453q-19 0 -31.5 9.5t-12.5 25.5q0 17 12.5 27
t32.5 14l77 15v-22q0 -34 -21.5 -51.5t-56.5 -17.5z" />
    <glyph glyph-name="guillemotleft" unicode="&#xab;" horiz-adv-x="678" 
d="M492 54h139l-138 207l138 207h-139l-139 -207zM196 54h138l-138 207l138 207h-138l-139 -207z" />
    <glyph glyph-name="logicalnot" unicode="&#xac;" 
d="M505 0h109v313h-517v-104h408v-209z" />
    <glyph glyph-name="uni00AD" unicode="&#xad;" horiz-adv-x="544" 
d="M107 210h350v104h-350v-104z" />
    <glyph glyph-name="registered" unicode="&#xae;" horiz-adv-x="953" 
d="M477 -50q86 0 158.5 30.5t127 85.5t84.5 128.5t30 159.5q0 87 -30 160.5t-84 128.5t-127 85.5t-159 30.5q-85 0 -158 -30.5t-127.5 -85.5t-84.5 -128.5t-30 -160.5q0 -86 30 -159.5t84.5 -128.5t127.5 -85.5t158 -30.5zM477 32q-92 0 -163.5 41t-112 114t-40.5 167
q0 95 40.5 167.5t112 114t163.5 41.5t163 -41.5t111.5 -114t40.5 -167.5q0 -94 -40.5 -167t-111.5 -114t-163 -41zM344 178h75v128h40l93 -128h90l-101 138q35 11 53 38.5t18 64.5q0 52 -31.5 83t-93.5 31h-143v-355zM419 373v93h68q21 0 33.5 -13.5t12.5 -33.5
q0 -19 -12.5 -32.5t-33.5 -13.5h-68z" />
    <glyph glyph-name="macron" unicode="&#xaf;" horiz-adv-x="455" 
d="M77 617h301v87h-301v-87z" />
    <glyph glyph-name="degree" unicode="&#xb0;" horiz-adv-x="472" 
d="M236 403q46 0 81.5 21t56.5 56.5t21 79.5q0 45 -21 80.5t-56.5 56.5t-81.5 21q-45 0 -81 -21t-57 -56.5t-21 -80.5q0 -44 21 -79.5t57 -56.5t81 -21zM236 476q-36 0 -59.5 25t-23.5 59q0 35 23.5 60.5t59.5 25.5q35 0 59 -25.5t24 -60.5q0 -34 -23.5 -59t-59.5 -25z" />
    <glyph glyph-name="plusminus" unicode="&#xb1;" 
d="M301 162h110v160h203v104h-203v158h-110v-158h-204v-104h204v-160zM97 0h517v105h-517v-105z" />
    <glyph glyph-name="uni00B2" unicode="&#xb2;" horiz-adv-x="376" 
d="M30 284h311v76h-185l96 95q39 38 58.5 71t19.5 71q0 53 -39.5 86.5t-103.5 33.5t-106.5 -36t-47.5 -98l83 -2q2 33 22 47.5t45 14.5q28 0 45 -13.5t17 -37.5t-20.5 -52t-72.5 -78l-122 -118v-60z" />
    <glyph glyph-name="uni00B3" unicode="&#xb3;" horiz-adv-x="384" 
d="M191 277q69 0 113.5 37t44.5 94q0 35 -20 62t-56 37q28 14 44 39.5t16 56.5q0 50 -41 82t-101 32q-64 0 -105 -35.5t-45 -92.5l82 -2q2 26 20 41t47 15q26 0 42 -13.5t16 -37.5q0 -23 -16.5 -38.5t-44.5 -15.5h-42v-71h49q34 0 51.5 -15t17.5 -40q0 -28 -20 -44.5
t-52 -16.5q-33 0 -54.5 15.5t-24.5 43.5l-83 -2q5 -59 49 -95t113 -36z" />
    <glyph glyph-name="acute" unicode="&#xb4;" horiz-adv-x="372" 
d="M77 600h107l112 153h-138z" />
    <glyph glyph-name="uni00B5" unicode="&#xb5;" horiz-adv-x="632" 
d="M63 -155h115v170q18 -15 41 -21t48 -6q28 0 58 9t56 29.5t41 53.5q16 -42 56.5 -65t101.5 -23h20v92h-15q-28 0 -46 17.5t-18 51.5v367h-115v-306q0 -58 -33 -90.5t-86 -32.5q-46 0 -77.5 27t-31.5 91v311h-115v-675z" />
    <glyph glyph-name="paragraph" unicode="&#xb6;" horiz-adv-x="547" 
d="M253 -150h86v860h-86q-53 0 -97.5 -26.5t-70.5 -70.5t-26 -97q0 -54 26 -98t70.5 -70.5t97.5 -26.5v-471zM403 -150h85v860h-85v-860z" />
    <glyph glyph-name="periodcentered" unicode="&#xb7;" horiz-adv-x="308" 
d="M153 184q33 0 55.5 20t22.5 56t-22.5 57t-55.5 21q-31 0 -53.5 -21t-22.5 -57t22.5 -56t53.5 -20z" />
    <glyph glyph-name="cedilla" unicode="&#xb8;" horiz-adv-x="346" 
d="M94 -63v-49h30q32 0 45.5 -6t13.5 -20q0 -13 -15.5 -18t-39.5 -5q-14 0 -28.5 1.5t-22.5 2.5v-60q9 -4 27.5 -6t40.5 -2q56 0 90 24t34 68q0 38 -25 59t-66 22l26 56v6h-75z" />
    <glyph glyph-name="uni00B9" unicode="&#xb9;" horiz-adv-x="264" 
d="M113 284h85v426h-63l-118 -65v-78l96 50v-333z" />
    <glyph glyph-name="ordmasculine" unicode="&#xba;" horiz-adv-x="484" 
d="M242 391q48 0 85.5 21t59 58.5t21.5 84.5t-21.5 84t-59 58t-85.5 21q-47 0 -84.5 -21t-59 -58t-21.5 -84t21.5 -84.5t59 -58.5t84.5 -21zM242 464q-36 0 -59.5 25.5t-23.5 65.5t23.5 65t59.5 25q35 0 59 -25t24 -65t-23.5 -65.5t-59.5 -25.5z" />
    <glyph glyph-name="guillemotright" unicode="&#xbb;" horiz-adv-x="678" 
d="M47 54h139l139 207l-139 207h-139l137 -207zM344 54h138l139 207l-139 207h-138l137 -207z" />
    <glyph glyph-name="onequarter" unicode="&#xbc;" horiz-adv-x="882" 
d="M113 284h85v426h-63l-118 -65v-78l96 50v-333zM64 0h105l547 710h-106zM701 0h85v96h61v75h-61v255h-105l-188 -249v-81h208v-96zM575 171l126 169v-169h-126z" />
    <glyph glyph-name="onehalf" unicode="&#xbd;" horiz-adv-x="892" 
d="M113 284h85v426h-63l-118 -65v-78l96 50v-333zM64 0h105l547 710h-106zM546 0h311v76h-185l96 95q39 38 58.5 71t19.5 71q0 53 -39.5 86.5t-103.5 33.5t-106.5 -36t-47.5 -98l83 -2q2 33 22 47.5t45 14.5q28 0 45 -13.5t17 -37.5t-20.5 -52t-72.5 -78l-122 -118v-60z" />
    <glyph glyph-name="threequarters" unicode="&#xbe;" horiz-adv-x="1002" 
d="M191 277q69 0 113.5 37t44.5 94q0 35 -20 62t-56 37q28 14 44 39.5t16 56.5q0 50 -41 82t-101 32q-64 0 -105 -35.5t-45 -92.5l82 -2q2 26 20 41t47 15q26 0 42 -13.5t16 -37.5q0 -23 -16.5 -38.5t-44.5 -15.5h-42v-71h49q34 0 51.5 -15t17.5 -40q0 -28 -20 -44.5
t-52 -16.5q-33 0 -54.5 15.5t-24.5 43.5l-83 -2q5 -59 49 -95t113 -36zM184 0h105l547 710h-106zM821 0h85v96h61v75h-61v255h-105l-188 -249v-81h208v-96zM695 171l126 169v-169h-126z" />
    <glyph glyph-name="questiondown" unicode="&#xbf;" horiz-adv-x="555" 
d="M352 304h-113v-17q0 -28 -14 -57t-57 -63q-60 -49 -86 -92t-26 -93q0 -54 28 -94t77.5 -62t115.5 -22q104 0 165 57t66 149l-117 3q-4 -49 -34 -76.5t-76 -27.5q-47 0 -75 22.5t-28 63.5q0 31 20 59t60 59q41 32 61 61t26.5 57t6.5 56v17zM292 532q-32 0 -54.5 -20.5
t-22.5 -55.5q0 -37 22.5 -57.5t54.5 -20.5q33 0 55.5 20.5t22.5 57.5q0 35 -22.5 55.5t-55.5 20.5z" />
    <glyph glyph-name="Agrave" unicode="&#xc0;" horiz-adv-x="749" 
d="M33 0h134l64 166h288l64 -166h133l-281 710h-122zM269 273l106 279l105 -279h-211zM321 790h108l-82 153h-137z" />
    <glyph glyph-name="Aacute" unicode="&#xc1;" horiz-adv-x="749" 
d="M33 0h134l64 166h288l64 -166h133l-281 710h-122zM269 273l106 279l105 -279h-211zM321 790h107l112 153h-138z" />
    <glyph glyph-name="Acircumflex" unicode="&#xc2;" horiz-adv-x="749" 
d="M33 0h134l64 166h288l64 -166h133l-281 710h-122zM269 273l106 279l105 -279h-211zM182 790h121l72 92l72 -92h122l-125 153h-138z" />
    <glyph glyph-name="Atilde" unicode="&#xc3;" horiz-adv-x="749" 
d="M33 0h134l64 166h288l64 -166h133l-281 710h-122zM269 273l106 279l105 -279h-211zM436 790q48 0 77 32t29 91h-70q0 -51 -40 -51q-17 0 -32.5 12.5t-35.5 25.5t-52 13q-46 0 -75 -31t-29 -92h70q0 29 11.5 40t27.5 11q18 0 33 -13t35 -25.5t51 -12.5z" />
    <glyph glyph-name="Adieresis" unicode="&#xc4;" horiz-adv-x="749" 
d="M33 0h134l64 166h288l64 -166h133l-281 710h-122zM269 273l106 279l105 -279h-211zM268 783q32 0 54.5 20.5t22.5 52.5q0 34 -22.5 54t-54.5 20q-31 0 -53.5 -20t-22.5 -54q0 -32 22.5 -52.5t53.5 -20.5zM482 783q31 0 54 20.5t23 52.5q0 34 -23 54t-54 20t-54 -20
t-23 -54q0 -32 23 -52.5t54 -20.5z" />
    <glyph glyph-name="Aring" unicode="&#xc5;" horiz-adv-x="749" 
d="M33 0h134l64 166h288l64 -166h133l-281 710h-122zM269 273l106 279l105 -279h-211zM375 780q43 0 73 29t30 75q0 44 -30 73.5t-73 29.5t-73 -29.5t-30 -73.5q0 -46 30 -75t73 -29zM375 844q-16 0 -26.5 11.5t-10.5 28.5t10.5 28t26.5 11q17 0 27 -11t10 -28t-10 -28.5
t-27 -11.5z" />
    <glyph glyph-name="AE" unicode="&#xc6;" horiz-adv-x="1015" 
d="M972 710h-659l-280 -710h134l64 166h284v-166h457v107h-337v200h297v105h-297v191h337v107zM394 603h121v-330h-246z" />
    <glyph glyph-name="Ccedilla" unicode="&#xc7;" horiz-adv-x="813" 
d="M426 -12q95 0 167.5 34.5t115.5 92.5t51 127l-117 10q-6 -46 -36.5 -81t-77.5 -54.5t-102 -19.5q-73 0 -127.5 33t-84.5 91t-30 134t30 134t84.5 91t127.5 33q54 0 101 -20t78 -54.5t37 -80.5l117 10q-8 69 -51.5 126.5t-115.5 92.5t-167 35q-79 0 -145.5 -27.5
t-115.5 -77t-75.5 -116.5t-26.5 -146t26.5 -146t75 -116.5t115 -77t146.5 -27.5zM327 -63v-49h30q32 0 45.5 -6t13.5 -20q0 -13 -15.5 -18t-39.5 -5q-14 0 -28.5 1.5t-22.5 2.5v-60q9 -4 27.5 -6t40.5 -2q56 0 90 24t34 68q0 38 -25 59t-66 22l26 56v6h-75z" />
    <glyph glyph-name="Egrave" unicode="&#xc8;" horiz-adv-x="583" 
d="M83 0h457v107h-336v200h296v105h-296v191h336v107h-457v-710zM238 790h108l-82 153h-137z" />
    <glyph glyph-name="Eacute" unicode="&#xc9;" horiz-adv-x="583" 
d="M83 0h457v107h-336v200h296v105h-296v191h336v107h-457v-710zM238 790h107l112 153h-138z" />
    <glyph glyph-name="Ecircumflex" unicode="&#xca;" horiz-adv-x="583" 
d="M83 0h457v107h-336v200h296v105h-296v191h336v107h-457v-710zM99 790h121l72 92l72 -92h122l-125 153h-138z" />
    <glyph glyph-name="Edieresis" unicode="&#xcb;" horiz-adv-x="583" 
d="M83 0h457v107h-336v200h296v105h-296v191h336v107h-457v-710zM184 783q32 0 54.5 20.5t22.5 52.5q0 34 -22.5 54t-54.5 20q-31 0 -53.5 -20t-22.5 -54q0 -32 22.5 -52.5t53.5 -20.5zM398 783q31 0 54 20.5t23 52.5q0 34 -23 54t-54 20t-54 -20t-23 -54q0 -32 23 -52.5
t54 -20.5z" />
    <glyph glyph-name="Igrave" unicode="&#xcc;" horiz-adv-x="287" 
d="M83 0h117v710h-117v-710zM90 790h108l-82 153h-137z" />
    <glyph glyph-name="Iacute" unicode="&#xcd;" horiz-adv-x="287" 
d="M83 0h117v710h-117v-710zM90 790h107l112 153h-138z" />
    <glyph glyph-name="Icircumflex" unicode="&#xce;" horiz-adv-x="287" 
d="M83 0h117v710h-117v-710zM-49 790h121l72 92l72 -92h122l-125 153h-138z" />
    <glyph glyph-name="Idieresis" unicode="&#xcf;" horiz-adv-x="287" 
d="M83 0h117v710h-117v-710zM37 783q32 0 54.5 20.5t22.5 52.5q0 34 -22.5 54t-54.5 20q-31 0 -53.5 -20t-22.5 -54q0 -32 22.5 -52.5t53.5 -20.5zM251 783q31 0 54 20.5t23 52.5q0 34 -23 54t-54 20t-54 -20t-23 -54q0 -32 23 -52.5t54 -20.5z" />
    <glyph glyph-name="Eth" unicode="&#xd0;" horiz-adv-x="765" 
d="M83 0h239q117 0 202 44t131 124t46 187q0 110 -46 189.5t-130.5 122.5t-202.5 43h-239v-710zM204 107v496h122q79 0 135.5 -31.5t87 -87.5t30.5 -129t-30.5 -129t-87 -87.5t-135.5 -31.5h-122zM-15 303h317v104h-317v-104z" />
    <glyph glyph-name="Ntilde" unicode="&#xd1;" horiz-adv-x="751" 
d="M83 0h120v497l351 -497h114v710h-120v-492l-352 492h-113v-710zM437 790q48 0 77 32t29 91h-70q0 -51 -40 -51q-17 0 -32.5 12.5t-35.5 25.5t-52 13q-46 0 -75 -31t-29 -92h70q0 29 11.5 40t27.5 11q18 0 33 -13t35 -25.5t51 -12.5z" />
    <glyph glyph-name="Ograve" unicode="&#xd2;" horiz-adv-x="860" 
d="M430 -12q80 0 146.5 27.5t116 77.5t76.5 117t27 145t-27.5 145t-77 116.5t-116.5 77.5t-145 28q-79 0 -146 -27.5t-116.5 -77.5t-77 -117t-27.5 -145t27.5 -145t76.5 -117t116.5 -77.5t146.5 -27.5zM430 98q-73 0 -128 33t-85.5 91.5t-30.5 132.5q0 75 30.5 133t85.5 91
t128 33t127.5 -33t85 -91t30.5 -133t-30.5 -133t-85 -91t-127.5 -33zM377 790h108l-82 153h-137z" />
    <glyph glyph-name="Oacute" unicode="&#xd3;" horiz-adv-x="860" 
d="M430 -12q80 0 146.5 27.5t116 77.5t76.5 117t27 145t-27.5 145t-77 116.5t-116.5 77.5t-145 28q-79 0 -146 -27.5t-116.5 -77.5t-77 -117t-27.5 -145t27.5 -145t76.5 -117t116.5 -77.5t146.5 -27.5zM430 98q-73 0 -128 33t-85.5 91.5t-30.5 132.5q0 75 30.5 133t85.5 91
t128 33t127.5 -33t85 -91t30.5 -133t-30.5 -133t-85 -91t-127.5 -33zM376 790h107l112 153h-138z" />
    <glyph glyph-name="Ocircumflex" unicode="&#xd4;" horiz-adv-x="860" 
d="M430 -12q80 0 146.5 27.5t116 77.5t76.5 117t27 145t-27.5 145t-77 116.5t-116.5 77.5t-145 28q-79 0 -146 -27.5t-116.5 -77.5t-77 -117t-27.5 -145t27.5 -145t76.5 -117t116.5 -77.5t146.5 -27.5zM430 98q-73 0 -128 33t-85.5 91.5t-30.5 132.5q0 75 30.5 133t85.5 91
t128 33t127.5 -33t85 -91t30.5 -133t-30.5 -133t-85 -91t-127.5 -33zM237 790h121l72 92l72 -92h122l-125 153h-138z" />
    <glyph glyph-name="Otilde" unicode="&#xd5;" horiz-adv-x="860" 
d="M430 -12q80 0 146.5 27.5t116 77.5t76.5 117t27 145t-27.5 145t-77 116.5t-116.5 77.5t-145 28q-79 0 -146 -27.5t-116.5 -77.5t-77 -117t-27.5 -145t27.5 -145t76.5 -117t116.5 -77.5t146.5 -27.5zM430 98q-73 0 -128 33t-85.5 91.5t-30.5 132.5q0 75 30.5 133t85.5 91
t128 33t127.5 -33t85 -91t30.5 -133t-30.5 -133t-85 -91t-127.5 -33zM491 790q48 0 77 32t29 91h-70q0 -51 -40 -51q-17 0 -32.5 12.5t-35.5 25.5t-52 13q-46 0 -75 -31t-29 -92h70q0 29 11.5 40t27.5 11q18 0 33 -13t35 -25.5t51 -12.5z" />
    <glyph glyph-name="Odieresis" unicode="&#xd6;" horiz-adv-x="860" 
d="M430 -12q80 0 146.5 27.5t116 77.5t76.5 117t27 145t-27.5 145t-77 116.5t-116.5 77.5t-145 28q-79 0 -146 -27.5t-116.5 -77.5t-77 -117t-27.5 -145t27.5 -145t76.5 -117t116.5 -77.5t146.5 -27.5zM430 98q-73 0 -128 33t-85.5 91.5t-30.5 132.5q0 75 30.5 133t85.5 91
t128 33t127.5 -33t85 -91t30.5 -133t-30.5 -133t-85 -91t-127.5 -33zM323 783q32 0 54.5 20.5t22.5 52.5q0 34 -22.5 54t-54.5 20q-31 0 -53.5 -20t-22.5 -54q0 -32 22.5 -52.5t53.5 -20.5zM537 783q31 0 54 20.5t23 52.5q0 34 -23 54t-54 20t-54 -20t-23 -54
q0 -32 23 -52.5t54 -20.5z" />
    <glyph glyph-name="multiply" unicode="&#xd7;" 
d="M177 13l179 174l179 -174l74 75l-178 175l178 175l-74 75l-179 -176l-179 176l-75 -75l178 -175l-178 -175z" />
    <glyph glyph-name="Oslash" unicode="&#xd8;" horiz-adv-x="860" 
d="M430 -12q80 0 146.5 27.5t116 77.5t76.5 117t27 145t-27.5 145t-77 116.5t-116.5 77.5t-145 28q-79 0 -146 -27.5t-116.5 -77.5t-77 -117t-27.5 -145t27.5 -145t76.5 -117t116.5 -77.5t146.5 -27.5zM430 98q-73 0 -128 33t-85.5 91.5t-30.5 132.5q0 75 30.5 133t85.5 91
t128 33t127.5 -33t85 -91t30.5 -133t-30.5 -133t-85 -91t-127.5 -33zM31 0h116l682 710h-116z" />
    <glyph glyph-name="Ugrave" unicode="&#xd9;" horiz-adv-x="694" 
d="M346 -12q77 0 139 32t98 90.5t36 136.5v463h-121v-459q0 -69 -41.5 -111.5t-110.5 -42.5q-67 0 -108.5 42.5t-41.5 111.5v459h-121v-463q0 -78 36.5 -136.5t98 -90.5t136.5 -32zM294 790h108l-82 153h-137z" />
    <glyph glyph-name="Uacute" unicode="&#xda;" horiz-adv-x="694" 
d="M346 -12q77 0 139 32t98 90.5t36 136.5v463h-121v-459q0 -69 -41.5 -111.5t-110.5 -42.5q-67 0 -108.5 42.5t-41.5 111.5v459h-121v-463q0 -78 36.5 -136.5t98 -90.5t136.5 -32zM293 790h107l112 153h-138z" />
    <glyph glyph-name="Ucircumflex" unicode="&#xdb;" horiz-adv-x="694" 
d="M346 -12q77 0 139 32t98 90.5t36 136.5v463h-121v-459q0 -69 -41.5 -111.5t-110.5 -42.5q-67 0 -108.5 42.5t-41.5 111.5v459h-121v-463q0 -78 36.5 -136.5t98 -90.5t136.5 -32zM154 790h121l72 92l72 -92h122l-125 153h-138z" />
    <glyph glyph-name="Udieresis" unicode="&#xdc;" horiz-adv-x="694" 
d="M346 -12q77 0 139 32t98 90.5t36 136.5v463h-121v-459q0 -69 -41.5 -111.5t-110.5 -42.5q-67 0 -108.5 42.5t-41.5 111.5v459h-121v-463q0 -78 36.5 -136.5t98 -90.5t136.5 -32zM240 783q32 0 54.5 20.5t22.5 52.5q0 34 -22.5 54t-54.5 20q-31 0 -53.5 -20t-22.5 -54
q0 -32 22.5 -52.5t53.5 -20.5zM454 783q31 0 54 20.5t23 52.5q0 34 -23 54t-54 20t-54 -20t-23 -54q0 -32 23 -52.5t54 -20.5z" />
    <glyph glyph-name="Yacute" unicode="&#xdd;" horiz-adv-x="692" 
d="M286 0h120v322l253 388h-140l-173 -270l-173 270h-140l253 -388v-322zM292 790h107l112 153h-138z" />
    <glyph glyph-name="Thorn" unicode="&#xde;" horiz-adv-x="626" 
d="M83 0h121v140h137q111 0 171.5 60t60.5 156q0 98 -59.5 156.5t-172.5 58.5h-137v139h-121v-710zM204 245v221h137q52 0 82 -29.5t30 -80.5q0 -49 -30 -80t-82 -31h-137z" />
    <glyph glyph-name="germandbls" unicode="&#xdf;" horiz-adv-x="674" 
d="M73 0h115v478q0 65 40.5 103t106.5 38q63 0 99 -28.5t36 -77.5q0 -44 -29.5 -72t-79.5 -28h-48v-101h78q50 0 81.5 -29.5t31.5 -76.5q0 -44 -31.5 -73.5t-81.5 -29.5h-78v-103h72q75 0 128 28.5t80.5 75.5t27.5 101q0 59 -31 102t-81 60q46 32 62 72t16 77
q0 63 -31.5 109.5t-89 71.5t-136.5 25q-78 0 -136 -30t-89.5 -84.5t-31.5 -129.5v-478z" />
    <glyph glyph-name="agrave" unicode="&#xe0;" horiz-adv-x="606" 
d="M230 -12q58 0 103.5 19.5t69.5 55.5v-63h110v352q0 80 -59.5 130t-167.5 50q-59 0 -108 -20t-81 -58t-40 -93l109 -5q9 41 41 61t77 20q52 0 83 -23.5t31 -61.5v-14l-174 -34q-47 -9 -86 -29t-62 -54t-23 -85q0 -67 49 -107.5t128 -40.5zM255 79q-37 0 -62 16.5t-25 50.5
t25 53.5t63 26.5l142 27v-46q0 -62 -39 -95t-104 -33zM250 600h108l-82 153h-137z" />
    <glyph glyph-name="aacute" unicode="&#xe1;" horiz-adv-x="606" 
d="M230 -12q58 0 103.5 19.5t69.5 55.5v-63h110v352q0 80 -59.5 130t-167.5 50q-59 0 -108 -20t-81 -58t-40 -93l109 -5q9 41 41 61t77 20q52 0 83 -23.5t31 -61.5v-14l-174 -34q-47 -9 -86 -29t-62 -54t-23 -85q0 -67 49 -107.5t128 -40.5zM255 79q-37 0 -62 16.5t-25 50.5
t25 53.5t63 26.5l142 27v-46q0 -62 -39 -95t-104 -33zM250 600h107l112 153h-138z" />
    <glyph glyph-name="acircumflex" unicode="&#xe2;" horiz-adv-x="606" 
d="M230 -12q58 0 103.5 19.5t69.5 55.5v-63h110v352q0 80 -59.5 130t-167.5 50q-59 0 -108 -20t-81 -58t-40 -93l109 -5q9 41 41 61t77 20q52 0 83 -23.5t31 -61.5v-14l-174 -34q-47 -9 -86 -29t-62 -54t-23 -85q0 -67 49 -107.5t128 -40.5zM255 79q-37 0 -62 16.5t-25 50.5
t25 53.5t63 26.5l142 27v-46q0 -62 -39 -95t-104 -33zM110 600h121l72 92l72 -92h122l-125 153h-138z" />
    <glyph glyph-name="atilde" unicode="&#xe3;" horiz-adv-x="606" 
d="M230 -12q58 0 103.5 19.5t69.5 55.5v-63h110v352q0 80 -59.5 130t-167.5 50q-59 0 -108 -20t-81 -58t-40 -93l109 -5q9 41 41 61t77 20q52 0 83 -23.5t31 -61.5v-14l-174 -34q-47 -9 -86 -29t-62 -54t-23 -85q0 -67 49 -107.5t128 -40.5zM255 79q-37 0 -62 16.5t-25 50.5
t25 53.5t63 26.5l142 27v-46q0 -62 -39 -95t-104 -33zM365 600q48 0 77 32t29 91h-70q0 -51 -40 -51q-17 0 -32.5 12.5t-35.5 25.5t-52 13q-46 0 -75 -31t-29 -92h70q0 29 11.5 40t27.5 11q18 0 33 -13t35 -25.5t51 -12.5z" />
    <glyph glyph-name="adieresis" unicode="&#xe4;" horiz-adv-x="606" 
d="M230 -12q58 0 103.5 19.5t69.5 55.5v-63h110v352q0 80 -59.5 130t-167.5 50q-59 0 -108 -20t-81 -58t-40 -93l109 -5q9 41 41 61t77 20q52 0 83 -23.5t31 -61.5v-14l-174 -34q-47 -9 -86 -29t-62 -54t-23 -85q0 -67 49 -107.5t128 -40.5zM255 79q-37 0 -62 16.5t-25 50.5
t25 53.5t63 26.5l142 27v-46q0 -62 -39 -95t-104 -33zM196 593q32 0 54.5 20.5t22.5 52.5q0 34 -22.5 54t-54.5 20q-31 0 -53.5 -20t-22.5 -54q0 -32 22.5 -52.5t53.5 -20.5zM410 593q31 0 54 20.5t23 52.5q0 34 -23 54t-54 20t-54 -20t-23 -54q0 -32 23 -52.5t54 -20.5z
" />
    <glyph glyph-name="aring" unicode="&#xe5;" horiz-adv-x="606" 
d="M230 -12q58 0 103.5 19.5t69.5 55.5v-63h110v352q0 80 -59.5 130t-167.5 50q-59 0 -108 -20t-81 -58t-40 -93l109 -5q9 41 41 61t77 20q52 0 83 -23.5t31 -61.5v-14l-174 -34q-47 -9 -86 -29t-62 -54t-23 -85q0 -67 49 -107.5t128 -40.5zM255 79q-37 0 -62 16.5t-25 50.5
t25 53.5t63 26.5l142 27v-46q0 -62 -39 -95t-104 -33zM303 590q43 0 73 29t30 75q0 44 -30 73.5t-73 29.5t-73 -29.5t-30 -73.5q0 -46 30 -75t73 -29zM303 654q-16 0 -26.5 11.5t-10.5 28.5t10.5 28t26.5 11q17 0 27 -11t10 -28t-10 -28.5t-27 -11.5z" />
    <glyph glyph-name="ae" unicode="&#xe6;" horiz-adv-x="986" 
d="M230 -12q58 0 103.5 19.5t69.5 55.5v-63h110v39q34 -24 75.5 -37.5t87.5 -13.5q92 0 159.5 47t90.5 131l-111 6q-12 -43 -49.5 -67.5t-89.5 -24.5q-38 0 -72.5 16.5t-57.5 49.5t-27 80h407q6 26 6 62q0 66 -31.5 121.5t-89.5 89t-140 33.5q-57 0 -106 -20.5t-85 -56.5
q-28 36 -77 56.5t-117 20.5q-59 0 -108 -20t-81 -58t-40 -93l109 -5q9 41 41 61t77 20q52 0 83 -23.5t31 -61.5v-14l-174 -34q-47 -9 -86 -29t-62 -54t-23 -85q0 -67 49 -107.5t128 -40.5zM520 311q6 45 28.5 74t55 43.5t67.5 14.5q64 0 105 -36.5t42 -95.5h-298zM255 79
q-37 0 -62 16.5t-25 50.5t25 53.5t63 26.5l142 27v-46q0 -62 -39 -95t-104 -33z" />
    <glyph glyph-name="ccedilla" unicode="&#xe7;" horiz-adv-x="630" 
d="M326 -12q64 0 117.5 24.5t89 69t44.5 105.5l-107 11q-14 -52 -54 -79t-90 -27q-42 0 -77.5 20.5t-56.5 58.5t-21 89q0 52 21 89.5t56.5 58t77.5 20.5q50 0 90 -26.5t54 -79.5l106 11q-9 62 -44.5 106.5t-88.5 68.5t-117 24q-78 0 -139.5 -35t-97.5 -96t-36 -141
q0 -79 36 -140.5t97.5 -96.5t139.5 -35zM236 -63v-49h30q32 0 45.5 -6t13.5 -20q0 -13 -15.5 -18t-39.5 -5q-14 0 -28.5 1.5t-22.5 2.5v-60q9 -4 27.5 -6t40.5 -2q56 0 90 24t34 68q0 38 -25 59t-66 22l26 56v6h-75z" />
    <glyph glyph-name="egrave" unicode="&#xe8;" horiz-adv-x="635" 
d="M326 -12q92 0 159.5 47t89.5 131l-111 6q-11 -43 -48.5 -67.5t-89.5 -24.5q-38 0 -72.5 16.5t-58 49.5t-27.5 80h407q4 13 5.5 29t1.5 33q0 66 -31.5 121.5t-89.5 89t-140 33.5q-75 0 -136 -35t-96.5 -96t-35.5 -141q0 -79 36 -140.5t98 -96.5t139 -35zM169 311
q6 45 28.5 74t55.5 43.5t68 14.5q64 0 105 -36.5t42 -95.5h-299zM264 600h108l-82 153h-137z" />
    <glyph glyph-name="eacute" unicode="&#xe9;" horiz-adv-x="635" 
d="M326 -12q92 0 159.5 47t89.5 131l-111 6q-11 -43 -48.5 -67.5t-89.5 -24.5q-38 0 -72.5 16.5t-58 49.5t-27.5 80h407q4 13 5.5 29t1.5 33q0 66 -31.5 121.5t-89.5 89t-140 33.5q-75 0 -136 -35t-96.5 -96t-35.5 -141q0 -79 36 -140.5t98 -96.5t139 -35zM169 311
q6 45 28.5 74t55.5 43.5t68 14.5q64 0 105 -36.5t42 -95.5h-299zM264 600h107l112 153h-138z" />
    <glyph glyph-name="ecircumflex" unicode="&#xea;" horiz-adv-x="635" 
d="M326 -12q92 0 159.5 47t89.5 131l-111 6q-11 -43 -48.5 -67.5t-89.5 -24.5q-38 0 -72.5 16.5t-58 49.5t-27.5 80h407q4 13 5.5 29t1.5 33q0 66 -31.5 121.5t-89.5 89t-140 33.5q-75 0 -136 -35t-96.5 -96t-35.5 -141q0 -79 36 -140.5t98 -96.5t139 -35zM169 311
q6 45 28.5 74t55.5 43.5t68 14.5q64 0 105 -36.5t42 -95.5h-299zM125 600h121l72 92l72 -92h122l-125 153h-138z" />
    <glyph glyph-name="edieresis" unicode="&#xeb;" horiz-adv-x="635" 
d="M326 -12q92 0 159.5 47t89.5 131l-111 6q-11 -43 -48.5 -67.5t-89.5 -24.5q-38 0 -72.5 16.5t-58 49.5t-27.5 80h407q4 13 5.5 29t1.5 33q0 66 -31.5 121.5t-89.5 89t-140 33.5q-75 0 -136 -35t-96.5 -96t-35.5 -141q0 -79 36 -140.5t98 -96.5t139 -35zM169 311
q6 45 28.5 74t55.5 43.5t68 14.5q64 0 105 -36.5t42 -95.5h-299zM210 593q32 0 54.5 20.5t22.5 52.5q0 34 -22.5 54t-54.5 20q-31 0 -53.5 -20t-22.5 -54q0 -32 22.5 -52.5t53.5 -20.5zM424 593q31 0 54 20.5t23 52.5q0 34 -23 54t-54 20t-54 -20t-23 -54q0 -32 23 -52.5
t54 -20.5z" />
    <glyph glyph-name="igrave" unicode="&#xec;" horiz-adv-x="262" 
d="M73 0h115v520h-115v-520zM77 600h108l-82 153h-137z" />
    <glyph glyph-name="iacute" unicode="&#xed;" horiz-adv-x="262" 
d="M73 0h115v520h-115v-520zM77 600h107l112 153h-138z" />
    <glyph glyph-name="icircumflex" unicode="&#xee;" horiz-adv-x="262" 
d="M73 0h115v520h-115v-520zM-62 600h121l72 92l72 -92h122l-125 153h-138z" />
    <glyph glyph-name="idieresis" unicode="&#xef;" horiz-adv-x="262" 
d="M73 0h115v520h-115v-520zM24 593q32 0 54.5 20.5t22.5 52.5q0 34 -22.5 54t-54.5 20q-31 0 -53.5 -20t-22.5 -54q0 -32 22.5 -52.5t53.5 -20.5zM238 593q31 0 54 20.5t23 52.5q0 34 -23 54t-54 20t-54 -20t-23 -54q0 -32 23 -52.5t54 -20.5z" />
    <glyph glyph-name="eth" unicode="&#xf0;" horiz-adv-x="620" 
d="M310 -12q75 0 133 34t91 99.5t33 158.5q0 86 -28.5 162t-90.5 143l100 28l-17 58l-132 -38q-28 24 -61 46.5t-71 42.5l-63 -55q26 -14 50 -29.5t46 -32.5l-103 -30l17 -57l137 40q23 -25 42.5 -54t32.5 -63q-28 19 -61 27.5t-65 8.5q-69 0 -125 -30.5t-89 -84t-33 -122.5
q0 -74 33 -131t91 -89t133 -32zM310 92q-60 0 -100 40.5t-40 107.5t40 107t100 40q59 0 99.5 -40t40.5 -107t-40.5 -107.5t-99.5 -40.5z" />
    <glyph glyph-name="ntilde" unicode="&#xf1;" horiz-adv-x="600" 
d="M73 0h115v302q0 57 33.5 93t87.5 36q53 0 83 -34.5t30 -94.5v-302h115v309q0 104 -54 163.5t-146 59.5q-49 0 -91.5 -20t-65.5 -59v67h-107v-520zM362 600q48 0 77 32t29 91h-70q0 -51 -40 -51q-17 0 -32.5 12.5t-35.5 25.5t-52 13q-46 0 -75 -31t-29 -92h70
q0 29 11.5 40t27.5 11q18 0 33 -13t35 -25.5t51 -12.5z" />
    <glyph glyph-name="ograve" unicode="&#xf2;" horiz-adv-x="650" 
d="M326 -12q77 0 138.5 35t97 96.5t35.5 140.5q0 80 -35.5 141.5t-96.5 96t-139 34.5q-79 0 -140.5 -35t-97 -96t-35.5 -141q0 -79 35.5 -140.5t97.5 -96.5t140 -35zM326 92q-69 0 -112.5 46.5t-43.5 121.5q0 76 43.5 122.5t112.5 46.5q44 0 78.5 -21t55 -59t20.5 -89
q0 -50 -20 -88t-55 -59t-79 -21zM272 600h108l-82 153h-137z" />
    <glyph glyph-name="oacute" unicode="&#xf3;" horiz-adv-x="650" 
d="M326 -12q77 0 138.5 35t97 96.5t35.5 140.5q0 80 -35.5 141.5t-96.5 96t-139 34.5q-79 0 -140.5 -35t-97 -96t-35.5 -141q0 -79 35.5 -140.5t97.5 -96.5t140 -35zM326 92q-69 0 -112.5 46.5t-43.5 121.5q0 76 43.5 122.5t112.5 46.5q44 0 78.5 -21t55 -59t20.5 -89
q0 -50 -20 -88t-55 -59t-79 -21zM271 600h107l112 153h-138z" />
    <glyph glyph-name="ocircumflex" unicode="&#xf4;" horiz-adv-x="650" 
d="M326 -12q77 0 138.5 35t97 96.5t35.5 140.5q0 80 -35.5 141.5t-96.5 96t-139 34.5q-79 0 -140.5 -35t-97 -96t-35.5 -141q0 -79 35.5 -140.5t97.5 -96.5t140 -35zM326 92q-69 0 -112.5 46.5t-43.5 121.5q0 76 43.5 122.5t112.5 46.5q44 0 78.5 -21t55 -59t20.5 -89
q0 -50 -20 -88t-55 -59t-79 -21zM132 600h121l72 92l72 -92h122l-125 153h-138z" />
    <glyph glyph-name="otilde" unicode="&#xf5;" horiz-adv-x="650" 
d="M326 -12q77 0 138.5 35t97 96.5t35.5 140.5q0 80 -35.5 141.5t-96.5 96t-139 34.5q-79 0 -140.5 -35t-97 -96t-35.5 -141q0 -79 35.5 -140.5t97.5 -96.5t140 -35zM326 92q-69 0 -112.5 46.5t-43.5 121.5q0 76 43.5 122.5t112.5 46.5q44 0 78.5 -21t55 -59t20.5 -89
q0 -50 -20 -88t-55 -59t-79 -21zM386 600q48 0 77 32t29 91h-70q0 -51 -40 -51q-17 0 -32.5 12.5t-35.5 25.5t-52 13q-46 0 -75 -31t-29 -92h70q0 29 11.5 40t27.5 11q18 0 33 -13t35 -25.5t51 -12.5z" />
    <glyph glyph-name="odieresis" unicode="&#xf6;" horiz-adv-x="650" 
d="M326 -12q77 0 138.5 35t97 96.5t35.5 140.5q0 80 -35.5 141.5t-96.5 96t-139 34.5q-79 0 -140.5 -35t-97 -96t-35.5 -141q0 -79 35.5 -140.5t97.5 -96.5t140 -35zM326 92q-69 0 -112.5 46.5t-43.5 121.5q0 76 43.5 122.5t112.5 46.5q44 0 78.5 -21t55 -59t20.5 -89
q0 -50 -20 -88t-55 -59t-79 -21zM218 593q32 0 54.5 20.5t22.5 52.5q0 34 -22.5 54t-54.5 20q-31 0 -53.5 -20t-22.5 -54q0 -32 22.5 -52.5t53.5 -20.5zM432 593q31 0 54 20.5t23 52.5q0 34 -23 54t-54 20t-54 -20t-23 -54q0 -32 23 -52.5t54 -20.5z" />
    <glyph glyph-name="divide" unicode="&#xf7;" 
d="M298 438h115v115h-115v-115zM97 230h517v93h-517v-93zM298 0h115v115h-115v-115z" />
    <glyph glyph-name="oslash" unicode="&#xf8;" horiz-adv-x="650" 
d="M326 -12q77 0 138.5 35t97 96.5t35.5 140.5q0 80 -35.5 141.5t-96.5 96t-139 34.5q-79 0 -140.5 -35t-97 -96t-35.5 -141q0 -79 35.5 -140.5t97.5 -96.5t140 -35zM326 92q-69 0 -112.5 46.5t-43.5 121.5q0 76 43.5 122.5t112.5 46.5q44 0 78.5 -21t55 -59t20.5 -89
q0 -50 -20 -88t-55 -59t-79 -21zM17 0h116l500 520h-116z" />
    <glyph glyph-name="ugrave" unicode="&#xf9;" horiz-adv-x="583" 
d="M257 -12q47 0 88.5 18t67.5 56v-62h107v520h-115v-307q0 -58 -33.5 -90t-86.5 -32q-46 0 -76.5 29t-30.5 93v307h-115v-319q0 -104 54 -158.5t140 -54.5zM239 600h108l-82 153h-137z" />
    <glyph glyph-name="uacute" unicode="&#xfa;" horiz-adv-x="583" 
d="M257 -12q47 0 88.5 18t67.5 56v-62h107v520h-115v-307q0 -58 -33.5 -90t-86.5 -32q-46 0 -76.5 29t-30.5 93v307h-115v-319q0 -104 54 -158.5t140 -54.5zM238 600h107l112 153h-138z" />
    <glyph glyph-name="ucircumflex" unicode="&#xfb;" horiz-adv-x="583" 
d="M257 -12q47 0 88.5 18t67.5 56v-62h107v520h-115v-307q0 -58 -33.5 -90t-86.5 -32q-46 0 -76.5 29t-30.5 93v307h-115v-319q0 -104 54 -158.5t140 -54.5zM99 600h121l72 92l72 -92h122l-125 153h-138z" />
    <glyph glyph-name="udieresis" unicode="&#xfc;" horiz-adv-x="583" 
d="M257 -12q47 0 88.5 18t67.5 56v-62h107v520h-115v-307q0 -58 -33.5 -90t-86.5 -32q-46 0 -76.5 29t-30.5 93v307h-115v-319q0 -104 54 -158.5t140 -54.5zM185 593q32 0 54.5 20.5t22.5 52.5q0 34 -22.5 54t-54.5 20q-31 0 -53.5 -20t-22.5 -54q0 -32 22.5 -52.5
t53.5 -20.5zM399 593q31 0 54 20.5t23 52.5q0 34 -23 54t-54 20t-54 -20t-23 -54q0 -32 23 -52.5t54 -20.5z" />
    <glyph glyph-name="yacute" unicode="&#xfd;" horiz-adv-x="605" 
d="M147 -215q54 0 88 23.5t57.5 63.5t44.5 91l235 557h-121l-148 -357l-148 357h-122l211 -495l-17 -42q-19 -51 -43.5 -72t-52.5 -21q-14 0 -24 1.5t-17 3.5h-10v-98q11 -6 29 -9t38 -3zM249 600h107l112 153h-138z" />
    <glyph glyph-name="thorn" unicode="&#xfe;" horiz-adv-x="671" 
d="M73 -200h115v265q28 -36 73 -56.5t98 -20.5q73 0 131.5 34.5t93 96t34.5 141.5q0 81 -34 142.5t-93 95.5t-134 34q-52 0 -96 -19.5t-73 -54.5v264h-115v-922zM346 92q-44 0 -80 20t-57 57.5t-21 90.5q0 54 21 91.5t57 57.5t80 20q67 0 111 -46t44 -123q0 -76 -44 -122
t-111 -46z" />
    <glyph glyph-name="ydieresis" unicode="&#xff;" horiz-adv-x="605" 
d="M147 -215q54 0 88 23.5t57.5 63.5t44.5 91l235 557h-121l-148 -357l-148 357h-122l211 -495l-17 -42q-19 -51 -43.5 -72t-52.5 -21q-14 0 -24 1.5t-17 3.5h-10v-98q11 -6 29 -9t38 -3zM196 593q32 0 54.5 20.5t22.5 52.5q0 34 -22.5 54t-54.5 20q-31 0 -53.5 -20
t-22.5 -54q0 -32 22.5 -52.5t53.5 -20.5zM410 593q31 0 54 20.5t23 52.5q0 34 -23 54t-54 20t-54 -20t-23 -54q0 -32 23 -52.5t54 -20.5z" />
    <glyph glyph-name="dotlessi" unicode="&#x131;" horiz-adv-x="262" 
d="M73 0h115v520h-115v-520z" />
    <glyph glyph-name="Lslash" unicode="&#x141;" horiz-adv-x="587" 
d="M83 0h471v107h-350v603h-121v-710zM-23 199l334 200v112l-334 -200v-112z" />
    <glyph glyph-name="lslash" unicode="&#x142;" horiz-adv-x="272" 
d="M73 0h115v710h-115v-710zM-6 277l274 164v112l-274 -164v-112z" />
    <glyph glyph-name="OE" unicode="&#x152;" horiz-adv-x="1179" 
d="M430 -12q76 0 139.5 27t109.5 74v-89h457v107h-336v200h296v105h-296v191h336v107h-457v-91q-46 48 -110 75.5t-139 27.5q-79 0 -146 -27.5t-116.5 -77.5t-77 -117t-27.5 -145t27.5 -145t76.5 -117t116.5 -77.5t146.5 -27.5zM430 98q-73 0 -128 33t-85.5 91.5
t-30.5 132.5q0 75 30.5 133t85.5 91t128 33t127.5 -33t85 -91t30.5 -133t-30.5 -133t-85 -91t-127.5 -33z" />
    <glyph glyph-name="oe" unicode="&#x153;" horiz-adv-x="1065" 
d="M326 -12q68 0 123.5 28t91.5 77q35 -49 91.5 -77t123.5 -28q92 0 159.5 47t90.5 131l-111 6q-12 -43 -49.5 -67.5t-89.5 -24.5q-38 0 -72.5 16.5t-58 49.5t-27.5 80h408q6 26 6 62q0 66 -31.5 121.5t-89.5 89t-140 33.5q-66 0 -121 -27.5t-90 -75.5q-35 49 -90.5 76
t-123.5 27q-79 0 -140.5 -35t-97 -96t-35.5 -141q0 -79 35.5 -140.5t97.5 -96.5t140 -35zM599 311q6 45 28.5 74t55.5 43.5t68 14.5q64 0 105 -36.5t42 -95.5h-299zM326 92q-69 0 -112.5 46.5t-43.5 121.5q0 76 43.5 122.5t112.5 46.5q44 0 78.5 -21t55 -59t20.5 -89
q0 -50 -20 -88t-55 -59t-79 -21z" />
    <glyph glyph-name="Scaron" unicode="&#x160;" horiz-adv-x="652" 
d="M328 -12q75 0 134 25t92.5 73t33.5 116q0 58 -20.5 94.5t-54.5 58t-74.5 33.5t-80.5 22q-43 11 -80 22.5t-59.5 32t-22.5 59.5q0 47 33 71.5t85 24.5q50 0 89 -23.5t45 -69.5l117 5q-6 57 -41 99.5t-89.5 66.5t-121.5 24q-72 0 -125.5 -25.5t-83 -72t-29.5 -108.5
q0 -59 20 -96t53.5 -59t74 -34.5t80.5 -21.5q43 -10 80.5 -22t60.5 -33.5t23 -60.5q0 -48 -38.5 -73.5t-99.5 -25.5t-105.5 30.5t-52.5 89.5l-118 -5q5 -67 42 -115.5t97.5 -75t135.5 -26.5zM257 790h138l125 153h-122l-72 -92l-72 92h-121z" />
    <glyph glyph-name="scaron" unicode="&#x161;" horiz-adv-x="513" 
d="M258 -12q60 0 105.5 19.5t71 55t25.5 82.5q0 45 -16 73.5t-42.5 45.5t-58 27t-61.5 18t-55.5 16.5t-41 23t-15.5 38.5q0 25 22 40.5t58 15.5q35 0 61.5 -18.5t30.5 -53.5l107 11q-5 69 -61 109.5t-141 40.5q-87 0 -139.5 -42.5t-52.5 -113.5q0 -43 16 -70.5t42 -44
t57.5 -26.5t61.5 -18t56 -17t41.5 -23.5t15.5 -39.5q0 -27 -25 -43t-63 -16q-44 0 -73.5 23t-34.5 63l-106 -11q4 -76 62.5 -120.5t152.5 -44.5zM188 600h138l125 153h-122l-72 -92l-72 92h-121z" />
    <glyph glyph-name="Ydieresis" unicode="&#x178;" horiz-adv-x="692" 
d="M286 0h120v322l253 388h-140l-173 -270l-173 270h-140l253 -388v-322zM239 783q32 0 54.5 20.5t22.5 52.5q0 34 -22.5 54t-54.5 20q-31 0 -53.5 -20t-22.5 -54q0 -32 22.5 -52.5t53.5 -20.5zM453 783q31 0 54 20.5t23 52.5q0 34 -23 54t-54 20t-54 -20t-23 -54
q0 -32 23 -52.5t54 -20.5z" />
    <glyph glyph-name="Zcaron" unicode="&#x17d;" horiz-adv-x="604" 
d="M23 0h537v107h-371l353 536v67h-500v-107h340l-359 -536v-67zM233 790h138l125 153h-122l-72 -92l-72 92h-121z" />
    <glyph glyph-name="zcaron" unicode="&#x17e;" horiz-adv-x="499" 
d="M23 0h443v97h-274l268 377v46h-418v-97h254l-273 -376v-47zM181 600h138l125 153h-122l-72 -92l-72 92h-121z" />
    <glyph glyph-name="florin" unicode="&#x192;" horiz-adv-x="465" 
d="M131 -225q67 0 111.5 37.5t44.5 113.5v283h134v97h-134v279q0 35 20 49t48 14q31 0 57 -13h5v87q-19 10 -42 14t-46 4q-67 0 -112 -37.5t-45 -113.5v-283h-109v-97h109v-278q0 -35 -19 -49.5t-48 -14.5q-30 0 -57 12h-5v-86q19 -10 42 -14t46 -4z" />
    <glyph glyph-name="uni0237" unicode="&#x237;" horiz-adv-x="291" 
d="M50 -225q74 0 120.5 43t46.5 120v582h-115v-572q0 -43 -19.5 -61.5t-52.5 -18.5q-18 0 -32 3t-30 10h-5v-87q20 -10 42.5 -14.5t44.5 -4.5z" />
    <glyph glyph-name="circumflex" unicode="&#x2c6;" horiz-adv-x="540" 
d="M77 600h121l72 92l72 -92h122l-125 153h-138z" />
    <glyph glyph-name="caron" unicode="&#x2c7;" horiz-adv-x="540" 
d="M201 600h138l125 153h-122l-72 -92l-72 92h-121z" />
    <glyph glyph-name="breve" unicode="&#x2d8;" horiz-adv-x="485" 
d="M242 600q78 0 121.5 43t44.5 110h-98q-1 -30 -19.5 -50t-48.5 -20t-48.5 20t-18.5 50h-98q1 -67 44.5 -110t120.5 -43z" />
    <glyph glyph-name="dotaccent" unicode="&#x2d9;" horiz-adv-x="307" 
d="M153 593q32 0 54.5 20.5t22.5 52.5q0 34 -22.5 54t-54.5 20q-31 0 -53.5 -20t-22.5 -54q0 -32 22.5 -52.5t53.5 -20.5z" />
    <glyph glyph-name="ring" unicode="&#x2da;" horiz-adv-x="360" 
d="M180 590q43 0 73 29t30 75q0 44 -30 73.5t-73 29.5t-73 -29.5t-30 -73.5q0 -46 30 -75t73 -29zM180 654q-16 0 -26.5 11.5t-10.5 28.5t10.5 28t26.5 11q17 0 27 -11t10 -28t-10 -28.5t-27 -11.5z" />
    <glyph glyph-name="ogonek" unicode="&#x2db;" horiz-adv-x="345" 
d="M201 -212q14 0 28 2t28 6v70q-6 -1 -14 -2.5t-18 -1.5q-24 0 -40 11.5t-16 36.5q0 31 28.5 55.5t71.5 34.5l-100 15q-51 -28 -71.5 -61.5t-20.5 -67.5q0 -47 36 -72.5t88 -25.5z" />
    <glyph glyph-name="tilde" unicode="&#x2dc;" horiz-adv-x="488" 
d="M305 600q48 0 77 32t29 91h-70q0 -51 -40 -51q-17 0 -32.5 12.5t-35.5 25.5t-52 13q-46 0 -75 -31t-29 -92h70q0 29 11.5 40t27.5 11q18 0 33 -13t35 -25.5t51 -12.5z" />
    <glyph glyph-name="hungarumlaut" unicode="&#x2dd;" horiz-adv-x="589" 
d="M77 600h107l112 153h-138zM293 600h108l111 153h-137z" />
    <glyph glyph-name="gravecomb" unicode="&#x300;" horiz-adv-x="0" 
d="M188 600h108l-82 153h-137z" />
    <glyph glyph-name="acutecomb" unicode="&#x301;" horiz-adv-x="0" 
d="M77 600h107l112 153h-138z" />
    <glyph glyph-name="uni0302" unicode="&#x302;" horiz-adv-x="0" 
d="M77 600h121l72 92l72 -92h122l-125 153h-138z" />
    <glyph glyph-name="tildecomb" unicode="&#x303;" horiz-adv-x="0" 
d="M305 600q48 0 77 32t29 91h-70q0 -51 -40 -51q-17 0 -32.5 12.5t-35.5 25.5t-52 13q-46 0 -75 -31t-29 -92h70q0 29 11.5 40t27.5 11q18 0 33 -13t35 -25.5t51 -12.5z" />
    <glyph glyph-name="uni0304" unicode="&#x304;" horiz-adv-x="0" 
d="M77 617h301v87h-301v-87z" />
    <glyph glyph-name="uni0306" unicode="&#x306;" horiz-adv-x="0" 
d="M242 600q78 0 121.5 43t44.5 110h-98q-1 -30 -19.5 -50t-48.5 -20t-48.5 20t-18.5 50h-98q1 -67 44.5 -110t120.5 -43z" />
    <glyph glyph-name="uni0307" unicode="&#x307;" horiz-adv-x="0" 
d="M153 593q32 0 54.5 20.5t22.5 52.5q0 34 -22.5 54t-54.5 20q-31 0 -53.5 -20t-22.5 -54q0 -32 22.5 -52.5t53.5 -20.5z" />
    <glyph glyph-name="uni0308" unicode="&#x308;" horiz-adv-x="0" 
d="M153 593q32 0 54.5 20.5t22.5 52.5q0 34 -22.5 54t-54.5 20q-31 0 -53.5 -20t-22.5 -54q0 -32 22.5 -52.5t53.5 -20.5zM367 593q31 0 54 20.5t23 52.5q0 34 -23 54t-54 20t-54 -20t-23 -54q0 -32 23 -52.5t54 -20.5z" />
    <glyph glyph-name="uni030A" unicode="&#x30a;" horiz-adv-x="0" 
d="M180 590q43 0 73 29t30 75q0 44 -30 73.5t-73 29.5t-73 -29.5t-30 -73.5q0 -46 30 -75t73 -29zM180 654q-16 0 -26.5 11.5t-10.5 28.5t10.5 28t26.5 11q17 0 27 -11t10 -28t-10 -28.5t-27 -11.5z" />
    <glyph glyph-name="uni030B" unicode="&#x30b;" horiz-adv-x="0" 
d="M77 600h107l112 153h-138zM293 600h108l111 153h-137z" />
    <glyph glyph-name="uni030C" unicode="&#x30c;" horiz-adv-x="0" 
d="M201 600h138l125 153h-122l-72 -92l-72 92h-121z" />
    <glyph glyph-name="uni0327" unicode="&#x327;" horiz-adv-x="0" 
d="M94 -63v-49h30q32 0 45.5 -6t13.5 -20q0 -13 -15.5 -18t-39.5 -5q-14 0 -28.5 1.5t-22.5 2.5v-60q9 -4 27.5 -6t40.5 -2q56 0 90 24t34 68q0 38 -25 59t-66 22l26 56v6h-75z" />
    <glyph glyph-name="uni0328" unicode="&#x328;" horiz-adv-x="0" 
d="M201 -212q14 0 28 2t28 6v70q-6 -1 -14 -2.5t-18 -1.5q-24 0 -40 11.5t-16 36.5q0 31 28.5 55.5t71.5 34.5l-100 15q-51 -28 -71.5 -61.5t-20.5 -67.5q0 -47 36 -72.5t88 -25.5z" />
    <glyph glyph-name="uni0335" unicode="&#x335;" horiz-adv-x="0" 
d="M127 210h317v104h-317v-104z" />
    <glyph glyph-name="uni0337" unicode="&#x337;" horiz-adv-x="0" 
d="M127 202l274 164v112l-274 -164v-112z" />
    <glyph glyph-name="uni0338" unicode="&#x338;" horiz-adv-x="0" 
d="M50 0h116l500 520h-116z" />
    <glyph glyph-name="uni0394" unicode="&#x394;" horiz-adv-x="749" 
d="M33 0h683l-281 710h-122zM207 107l167 443l169 -443h-336z" />
    <glyph glyph-name="uni03A9" unicode="&#x3a9;" horiz-adv-x="879" 
d="M63 0h321v107q-87 18 -137.5 84.5t-50.5 163.5q0 75 30.5 133t85.5 91t128 33t127.5 -33t85 -91t30.5 -133q0 -97 -50.5 -163.5t-137.5 -84.5v-107h321v107h-124q53 44 83.5 108t30.5 140q0 78 -27.5 145t-77 117t-116.5 77.5t-145 27.5q-79 0 -146 -27.5t-116.5 -77.5
t-77 -117t-27.5 -145q0 -76 31 -140t83 -108h-124v-107z" />
    <glyph glyph-name="pi" unicode="&#x3c0;" horiz-adv-x="727" 
d="M586 -12q23 0 46 4.5t42 13.5v87h-5q-14 -6 -28 -9.5t-28 -3.5q-34 0 -48.5 18.5t-14.5 47.5v277h124v97h-644v-97h99v-423h115v423h191v-287q0 -71 42 -109.5t109 -38.5z" />
    <glyph glyph-name="uni2010" unicode="&#x2010;" horiz-adv-x="544" 
d="M107 210h350v104h-350v-104z" />
    <glyph glyph-name="endash" unicode="&#x2013;" horiz-adv-x="617" 
d="M77 209h464v104h-464v-104z" />
    <glyph glyph-name="emdash" unicode="&#x2014;" horiz-adv-x="944" 
d="M77 209h790v104h-790v-104z" />
    <glyph glyph-name="uni2015" unicode="&#x2015;" horiz-adv-x="984" 
d="M107 209h790v104h-790v-104z" />
    <glyph glyph-name="quoteleft" unicode="&#x2018;" horiz-adv-x="298" 
d="M153 457q33 0 55.5 21t22.5 57t-22.5 56t-55.5 20q-5 0 -8 -1q5 25 25.5 37.5t50.5 12.5v56q-46 0 -78.5 -21.5t-49 -58t-16.5 -81.5q0 -46 21 -72t55 -26z" />
    <glyph glyph-name="quoteright" unicode="&#x2019;" horiz-adv-x="298" 
d="M77 457q47 0 79 21.5t48.5 58.5t16.5 81q0 47 -21 72.5t-56 25.5q-32 0 -54.5 -20.5t-22.5 -57.5q0 -35 22.5 -55.5t54.5 -20.5q6 0 9 1q-4 -25 -25 -37.5t-51 -12.5v-56z" />
    <glyph glyph-name="quotesinglbase" unicode="&#x201a;" horiz-adv-x="298" 
d="M77 -111q47 0 79 21.5t48.5 58.5t16.5 81q0 47 -21 72.5t-56 25.5q-32 0 -54.5 -20.5t-22.5 -57.5q0 -35 22.5 -55.5t54.5 -20.5q6 0 9 1q-4 -25 -25 -37.5t-51 -12.5v-56z" />
    <glyph glyph-name="quotedblleft" unicode="&#x201c;" horiz-adv-x="514" 
d="M371 457q32 0 54.5 21t22.5 57t-22.5 56t-54.5 20q-6 0 -9 -1q5 25 25.5 37.5t50.5 12.5v56q-46 0 -78.5 -21.5t-49 -58t-16.5 -81.5q0 -46 21 -72t56 -26zM153 457q33 0 55.5 21t22.5 57t-22.5 56t-55.5 20q-5 0 -8 -1q5 25 25.5 37.5t50.5 12.5v56q-46 0 -78.5 -21.5
t-49 -58t-16.5 -81.5q0 -46 21 -72t55 -26z" />
    <glyph glyph-name="quotedblright" unicode="&#x201d;" horiz-adv-x="514" 
d="M294 457q47 0 79 21.5t48.5 58.5t16.5 81q0 47 -21 72.5t-56 25.5q-32 0 -54.5 -20.5t-22.5 -57.5q0 -35 22.5 -55.5t54.5 -20.5q6 0 9 1q-4 -25 -25 -37.5t-51 -12.5v-56zM77 457q47 0 79 21.5t48.5 58.5t16.5 81q0 47 -21 72.5t-56 25.5q-32 0 -54.5 -20.5t-22.5 -57.5
q0 -35 22.5 -55.5t54.5 -20.5q6 0 9 1q-4 -25 -25 -37.5t-51 -12.5v-56z" />
    <glyph glyph-name="quotedblbase" unicode="&#x201e;" horiz-adv-x="514" 
d="M294 -111q47 0 79 21.5t48.5 58.5t16.5 81q0 47 -21 72.5t-56 25.5q-32 0 -54.5 -20.5t-22.5 -57.5q0 -35 22.5 -55.5t54.5 -20.5q6 0 9 1q-4 -25 -25 -37.5t-51 -12.5v-56zM77 -111q47 0 79 21.5t48.5 58.5t16.5 81q0 47 -21 72.5t-56 25.5q-32 0 -54.5 -20.5
t-22.5 -57.5q0 -35 22.5 -55.5t54.5 -20.5q6 0 9 1q-4 -25 -25 -37.5t-51 -12.5v-56z" />
    <glyph glyph-name="dagger" unicode="&#x2020;" horiz-adv-x="678" 
d="M281 0h116v450h184v104h-184v156h-116v-156h-184v-104h184v-450z" />
    <glyph glyph-name="daggerdbl" unicode="&#x2021;" horiz-adv-x="678" 
d="M281 0h116v156h184v104h-184v190h184v104h-184v156h-116v-156h-184v-104h184v-190h-184v-104h184v-156z" />
    <glyph glyph-name="bullet" unicode="&#x2022;" horiz-adv-x="490" 
d="M245 92q46 0 84 22.5t61 61t23 84.5q0 47 -23 85t-61 60.5t-84 22.5t-84.5 -22.5t-61 -60.5t-22.5 -85q0 -46 22.5 -84.5t61 -61t84.5 -22.5z" />
    <glyph glyph-name="ellipsis" unicode="&#x2026;" horiz-adv-x="811" 
d="M153 -6q33 0 55.5 20.5t22.5 55.5q0 37 -22.5 57.5t-55.5 20.5q-31 0 -53.5 -20.5t-22.5 -57.5q0 -35 22.5 -55.5t53.5 -20.5zM405 -6q33 0 55.5 20.5t22.5 55.5q0 37 -22.5 57.5t-55.5 20.5q-31 0 -53.5 -20.5t-22.5 -57.5q0 -35 22.5 -55.5t53.5 -20.5zM657 -6
q33 0 55.5 20.5t22.5 55.5q0 37 -22.5 57.5t-55.5 20.5q-31 0 -53.5 -20.5t-22.5 -57.5q0 -35 22.5 -55.5t53.5 -20.5z" />
    <glyph glyph-name="perthousand" unicode="&#x2030;" horiz-adv-x="1433" 
d="M261 347q54 0 95.5 24t65 66t23.5 95q0 54 -23.5 96t-65 66t-95.5 24t-95.5 -24t-65 -66t-23.5 -96q0 -53 23.5 -95t65 -66t95.5 -24zM180 0h118l547 710h-119zM261 433q-40 0 -66.5 28t-26.5 71q0 44 26.5 72.5t66.5 28.5t66.5 -28.5t26.5 -72.5q0 -43 -26.5 -71
t-66.5 -28zM763 -8q54 0 95.5 24t65 66t23.5 96t-23.5 95.5t-65 65.5t-95.5 24t-95.5 -24t-65 -65.5t-23.5 -95.5t23.5 -96t65 -66t95.5 -24zM1173 -8q54 0 95.5 24t65 66t23.5 96t-23.5 95.5t-65 65.5t-95.5 24t-95.5 -24t-65 -65.5t-23.5 -95.5t23.5 -96t65 -66t95.5 -24z
M763 77q-40 0 -67 28.5t-27 72.5t27 71.5t67 27.5t66.5 -27.5t26.5 -71.5t-26.5 -72.5t-66.5 -28.5zM1173 77q-40 0 -67 28.5t-27 72.5t27 71.5t67 27.5t66.5 -27.5t26.5 -71.5t-26.5 -72.5t-66.5 -28.5z" />
    <glyph glyph-name="minute" unicode="&#x2032;" horiz-adv-x="250" 
d="M77 495h75l21 215h-96v-215z" />
    <glyph glyph-name="second" unicode="&#x2033;" horiz-adv-x="428" 
d="M254 495h76l22 215h-98v-215zM77 495h75l21 215h-96v-215z" />
    <glyph glyph-name="guilsinglleft" unicode="&#x2039;" horiz-adv-x="381" 
d="M196 54h138l-138 207l138 207h-138l-139 -207z" />
    <glyph glyph-name="guilsinglright" unicode="&#x203a;" horiz-adv-x="381" 
d="M47 54h139l139 207l-139 207h-139l137 -207z" />
    <glyph glyph-name="fraction" unicode="&#x2044;" horiz-adv-x="252" 
d="M-200 0h105l547 710h-106z" />
    <glyph glyph-name="uni2070" unicode="&#x2070;" horiz-adv-x="425" 
d="M212 277q82 0 130 59.5t48 160.5q0 102 -48 161t-130 59q-81 0 -129 -59t-48 -161t48 -161t129 -59zM213 354q-45 0 -68 37.5t-23 105.5t23 105.5t67 37.5q45 0 68 -36.5t23 -106.5q0 -68 -23 -105.5t-67 -37.5z" />
    <glyph glyph-name="uni2074" unicode="&#x2074;" horiz-adv-x="406" 
d="M225 284h85v96h61v75h-61v255h-105l-188 -249v-81h208v-96zM99 455l126 169v-169h-126z" />
    <glyph glyph-name="uni2075" unicode="&#x2075;" horiz-adv-x="378" 
d="M190 277q44 0 80 18t57.5 51.5t21.5 79.5q0 65 -42 105.5t-107 40.5q-19 0 -38.5 -4.5t-34.5 -15.5l12 82h187v76h-247l-38 -226l74 -20q11 16 28.5 27t44.5 11q33 0 53.5 -21t20.5 -54q0 -34 -20 -55t-53 -21q-31 0 -51.5 16t-25.5 44l-83 -2q5 -59 48.5 -95.5
t112.5 -36.5z" />
    <glyph glyph-name="uni2076" unicode="&#x2076;" horiz-adv-x="376" 
d="M195 277q66 0 109 41t43 105q0 62 -40.5 101t-101.5 39q-21 0 -40.5 -6t-35.5 -22q11 47 41.5 76.5t89.5 29.5q27 0 57 -5v76q-13 3 -29 4t-28 1q-73 0 -125 -34.5t-79 -93.5t-27 -131q0 -86 45 -133.5t121 -47.5zM192 351q-30 0 -50.5 19t-20.5 50t20 50.5t51 19.5
q30 0 49 -20t19 -50t-19 -49.5t-49 -19.5z" />
    <glyph glyph-name="uni2077" unicode="&#x2077;" horiz-adv-x="331" 
d="M86 284h87q5 104 44.5 194.5t102.5 160.5v71h-303v-76h198q-55 -71 -89.5 -160.5t-39.5 -189.5z" />
    <glyph glyph-name="uni2078" unicode="&#x2078;" horiz-adv-x="374" 
d="M187 277q71 0 114.5 35.5t43.5 91.5q0 38 -20 66t-55 39q27 14 43 39t16 54q0 51 -40.5 83t-101.5 32t-100.5 -32t-39.5 -83q0 -29 15 -54t42 -39q-34 -11 -54.5 -39t-20.5 -66q0 -57 44.5 -92t113.5 -35zM187 541q-26 0 -42 14t-16 37t16 37.5t42 14.5t42.5 -14
t16.5 -38t-16.5 -37.5t-42.5 -13.5zM187 350q-32 0 -51.5 16.5t-19.5 44.5q0 27 19.5 43t51.5 16t52 -16t20 -43q0 -28 -20 -44.5t-52 -16.5z" />
    <glyph glyph-name="uni2079" unicode="&#x2079;" horiz-adv-x="376" 
d="M116 277q74 0 125.5 35t78.5 93.5t27 130.5q0 86 -45 133.5t-121 47.5q-66 0 -109 -40.5t-43 -105.5q0 -61 40.5 -100.5t101.5 -39.5q21 0 41 6.5t35 21.5q-10 -48 -41.5 -77t-89.5 -29q-14 0 -28.5 1.5t-29.5 3.5v-76q15 -3 30 -4t28 -1zM184 504q-30 0 -49 19.5
t-19 50.5t19 50t49 19t50.5 -19t20.5 -50q0 -30 -20 -50t-51 -20z" />
    <glyph glyph-name="uni2080" unicode="&#x2080;" horiz-adv-x="425" 
d="M212 -7q82 0 130 59.5t48 160.5q0 102 -48 161t-130 59q-81 0 -129 -59t-48 -161t48 -161t129 -59zM213 70q-45 0 -68 37.5t-23 105.5t23 105.5t67 37.5q45 0 68 -36.5t23 -106.5q0 -68 -23 -105.5t-67 -37.5z" />
    <glyph glyph-name="uni2081" unicode="&#x2081;" horiz-adv-x="264" 
d="M113 0h85v426h-63l-118 -65v-78l96 50v-333z" />
    <glyph glyph-name="uni2082" unicode="&#x2082;" horiz-adv-x="376" 
d="M30 0h311v76h-185l96 95q39 38 58.5 71t19.5 71q0 53 -39.5 86.5t-103.5 33.5t-106.5 -36t-47.5 -98l83 -2q2 33 22 47.5t45 14.5q28 0 45 -13.5t17 -37.5t-20.5 -52t-72.5 -78l-122 -118v-60z" />
    <glyph glyph-name="uni2083" unicode="&#x2083;" horiz-adv-x="384" 
d="M191 -7q69 0 113.5 37t44.5 94q0 35 -20 62t-56 37q28 14 44 39.5t16 56.5q0 50 -41 82t-101 32q-64 0 -105 -35.5t-45 -92.5l82 -2q2 26 20 41t47 15q26 0 42 -13.5t16 -37.5q0 -23 -16.5 -38.5t-44.5 -15.5h-42v-71h49q34 0 51.5 -15t17.5 -40q0 -28 -20 -44.5
t-52 -16.5q-33 0 -54.5 15.5t-24.5 43.5l-83 -2q5 -59 49 -95t113 -36z" />
    <glyph glyph-name="uni2084" unicode="&#x2084;" horiz-adv-x="406" 
d="M225 0h85v96h61v75h-61v255h-105l-188 -249v-81h208v-96zM99 171l126 169v-169h-126z" />
    <glyph glyph-name="uni2085" unicode="&#x2085;" horiz-adv-x="378" 
d="M190 -7q44 0 80 18t57.5 51.5t21.5 79.5q0 65 -42 105.5t-107 40.5q-19 0 -38.5 -4.5t-34.5 -15.5l12 82h187v76h-247l-38 -226l74 -20q11 16 28.5 27t44.5 11q33 0 53.5 -21t20.5 -54q0 -34 -20 -55t-53 -21q-31 0 -51.5 16t-25.5 44l-83 -2q5 -59 48.5 -95.5
t112.5 -36.5z" />
    <glyph glyph-name="uni2086" unicode="&#x2086;" horiz-adv-x="376" 
d="M195 -7q66 0 109 41t43 105q0 62 -40.5 101t-101.5 39q-21 0 -40.5 -6t-35.5 -22q11 47 41.5 76.5t89.5 29.5q27 0 57 -5v76q-13 3 -29 4t-28 1q-73 0 -125 -34.5t-79 -93.5t-27 -131q0 -86 45 -133.5t121 -47.5zM192 67q-30 0 -50.5 19t-20.5 50t20 50.5t51 19.5
q30 0 49 -20t19 -50t-19 -49.5t-49 -19.5z" />
    <glyph glyph-name="uni2087" unicode="&#x2087;" horiz-adv-x="331" 
d="M86 0h87q5 104 44.5 194.5t102.5 160.5v71h-303v-76h198q-55 -71 -89.5 -160.5t-39.5 -189.5z" />
    <glyph glyph-name="uni2088" unicode="&#x2088;" horiz-adv-x="374" 
d="M187 -7q71 0 114.5 35.5t43.5 91.5q0 38 -20 66t-55 39q27 14 43 39t16 54q0 51 -40.5 83t-101.5 32t-100.5 -32t-39.5 -83q0 -29 15 -54t42 -39q-34 -11 -54.5 -39t-20.5 -66q0 -57 44.5 -92t113.5 -35zM187 257q-26 0 -42 14t-16 37t16 37.5t42 14.5t42.5 -14t16.5 -38
t-16.5 -37.5t-42.5 -13.5zM187 66q-32 0 -51.5 16.5t-19.5 44.5q0 27 19.5 43t51.5 16t52 -16t20 -43q0 -28 -20 -44.5t-52 -16.5z" />
    <glyph glyph-name="uni2089" unicode="&#x2089;" horiz-adv-x="376" 
d="M116 -7q74 0 125.5 35t78.5 93.5t27 130.5q0 86 -45 133.5t-121 47.5q-66 0 -109 -40.5t-43 -105.5q0 -61 40.5 -100.5t101.5 -39.5q21 0 41 6.5t35 21.5q-10 -48 -41.5 -77t-89.5 -29q-14 0 -28.5 1.5t-29.5 3.5v-76q15 -3 30 -4t28 -1zM184 220q-30 0 -49 19.5
t-19 50.5t19 50t49 19t50.5 -19t20.5 -50q0 -30 -20 -50t-51 -20z" />
    <glyph glyph-name="Euro" unicode="&#x20ac;" horiz-adv-x="689" 
d="M501 -12q37 0 70.5 6t63.5 16v115q-57 -30 -133 -30q-77 0 -133.5 37.5t-82.5 101.5h263v82h-288q-3 20 -3 39q0 20 3 39h288v82h-263q27 64 83.5 101.5t132.5 37.5q77 0 133 -31v116q-30 11 -63.5 16.5t-70.5 5.5q-84 0 -153.5 -31t-118.5 -86.5t-72 -128.5h-94v-82h77
q-1 -10 -1.5 -19.5t-0.5 -19.5t0.5 -19.5t1.5 -19.5h-77v-82h94q23 -73 72 -128.5t118.5 -86.5t153.5 -31z" />
    <glyph glyph-name="trademark" unicode="&#x2122;" horiz-adv-x="855" 
d="M392 355h78v204l96 -204h39l96 205v-205h78v355h-89l-105 -221l-104 221h-89v-355zM174 355h77v287h97v68h-271v-68h97v-287z" />
    <glyph glyph-name="estimated" unicode="&#x212e;" horiz-adv-x="913" 
d="M460 -10q72 0 125 17.5t93.5 49t75.5 72.5h-58q-48 -55 -101.5 -86t-134.5 -31q-49 0 -88.5 12t-75 37.5t-73.5 67.5v212h614v9q0 75 -28 140t-79 114.5t-120.5 77.5t-152.5 28t-152.5 -28t-120.5 -77.5t-79 -115t-28 -140.5q0 -74 27.5 -139t78.5 -114.5t121.5 -77.5
t155.5 -28zM223 360v210q53 62 105.5 90t128.5 28q49 0 85 -10t70.5 -34t77.5 -68v-216h-467z" />
    <glyph glyph-name="oneeighth" unicode="&#x215b;" horiz-adv-x="890" 
d="M113 284h85v426h-63l-118 -65v-78l96 50v-333zM64 0h105l547 710h-106zM703 -7q71 0 114.5 35.5t43.5 91.5q0 38 -20 66t-55 39q27 14 43 39t16 54q0 51 -40.5 83t-101.5 32t-100.5 -32t-39.5 -83q0 -29 15 -54t42 -39q-34 -11 -54.5 -39t-20.5 -66q0 -57 44.5 -92
t113.5 -35zM703 257q-26 0 -42 14t-16 37t16 37.5t42 14.5t42.5 -14t16.5 -38t-16.5 -37.5t-42.5 -13.5zM703 66q-32 0 -51.5 16.5t-19.5 44.5q0 27 19.5 43t51.5 16t52 -16t20 -43q0 -28 -20 -44.5t-52 -16.5z" />
    <glyph glyph-name="threeeighths" unicode="&#x215c;" horiz-adv-x="1011" 
d="M191 277q69 0 113.5 37t44.5 94q0 35 -20 62t-56 37q28 14 44 39.5t16 56.5q0 50 -41 82t-101 32q-64 0 -105 -35.5t-45 -92.5l82 -2q2 26 20 41t47 15q26 0 42 -13.5t16 -37.5q0 -23 -16.5 -38.5t-44.5 -15.5h-42v-71h49q34 0 51.5 -15t17.5 -40q0 -28 -20 -44.5
t-52 -16.5q-33 0 -54.5 15.5t-24.5 43.5l-83 -2q5 -59 49 -95t113 -36zM184 0h105l547 710h-106zM823 -7q71 0 114.5 35.5t43.5 91.5q0 38 -20 66t-55 39q27 14 43 39t16 54q0 51 -40.5 83t-101.5 32t-100.5 -32t-39.5 -83q0 -29 15 -54t42 -39q-34 -11 -54.5 -39t-20.5 -66
q0 -57 44.5 -92t113.5 -35zM823 257q-26 0 -42 14t-16 37t16 37.5t42 14.5t42.5 -14t16.5 -38t-16.5 -37.5t-42.5 -13.5zM823 66q-32 0 -51.5 16.5t-19.5 44.5q0 27 19.5 43t51.5 16t52 -16t20 -43q0 -28 -20 -44.5t-52 -16.5z" />
    <glyph glyph-name="fiveeighths" unicode="&#x215d;" horiz-adv-x="1005" 
d="M190 277q44 0 80 18t57.5 51.5t21.5 79.5q0 65 -42 105.5t-107 40.5q-19 0 -38.5 -4.5t-34.5 -15.5l12 82h187v76h-247l-38 -226l74 -20q11 16 28.5 27t44.5 11q33 0 53.5 -21t20.5 -54q0 -34 -20 -55t-53 -21q-31 0 -51.5 16t-25.5 44l-83 -2q5 -59 48.5 -95.5
t112.5 -36.5zM178 0h105l547 710h-106zM817 -7q71 0 114.5 35.5t43.5 91.5q0 38 -20 66t-55 39q27 14 43 39t16 54q0 51 -40.5 83t-101.5 32t-100.5 -32t-39.5 -83q0 -29 15 -54t42 -39q-34 -11 -54.5 -39t-20.5 -66q0 -57 44.5 -92t113.5 -35zM817 257q-26 0 -42 14t-16 37
t16 37.5t42 14.5t42.5 -14t16.5 -38t-16.5 -37.5t-42.5 -13.5zM817 66q-32 0 -51.5 16.5t-19.5 44.5q0 27 19.5 43t51.5 16t52 -16t20 -43q0 -28 -20 -44.5t-52 -16.5z" />
    <glyph glyph-name="seveneighths" unicode="&#x215e;" horiz-adv-x="958" 
d="M86 284h87q5 104 44.5 194.5t102.5 160.5v71h-303v-76h198q-55 -71 -89.5 -160.5t-39.5 -189.5zM131 0h105l547 710h-106zM771 -7q71 0 114.5 35.5t43.5 91.5q0 38 -20 66t-55 39q27 14 43 39t16 54q0 51 -40.5 83t-101.5 32t-100.5 -32t-39.5 -83q0 -29 15 -54t42 -39
q-34 -11 -54.5 -39t-20.5 -66q0 -57 44.5 -92t113.5 -35zM771 257q-26 0 -42 14t-16 37t16 37.5t42 14.5t42.5 -14t16.5 -38t-16.5 -37.5t-42.5 -13.5zM771 66q-32 0 -51.5 16.5t-19.5 44.5q0 27 19.5 43t51.5 16t52 -16t20 -43q0 -28 -20 -44.5t-52 -16.5z" />
    <glyph glyph-name="partialdiff" unicode="&#x2202;" horiz-adv-x="605" 
d="M296 -12q78 0 135.5 36.5t89 103t31.5 154.5q0 109 -44.5 208.5t-136.5 178.5t-235 126l-36 -96q115 -38 188 -100t108 -139q-25 14 -51.5 19.5t-52.5 5.5q-71 0 -125 -31t-84 -87.5t-30 -133.5q0 -76 31 -131t86 -84.5t126 -29.5zM299 84q-60 0 -93.5 40t-33.5 110
q0 75 37 117.5t107 42.5q29 0 57.5 -8.5t56.5 -28.5q6 -34 6 -72q0 -97 -37 -149t-100 -52z" />
    <glyph glyph-name="emptyset" unicode="&#x2205;" horiz-adv-x="791" 
d="M435 -12q80 0 147 27t116 76.5t76.5 116.5t27.5 147q0 71 -22.5 133t-63.5 109l105 113h-116l-52 -56q-93 68 -218 68q-78 0 -145 -27t-116.5 -76.5t-77 -116.5t-27.5 -147q0 -70 22 -131.5t61 -109.5l-106 -114h116l53 57q44 -33 100 -51t120 -18zM226 193
q-46 66 -46 162q0 80 31.5 139.5t89 92t134.5 32.5q84 0 146 -42zM435 91q-87 0 -149 42l357 385q48 -67 48 -163q0 -80 -33 -139.5t-91 -92t-132 -32.5z" />
    <glyph glyph-name="product" unicode="&#x220f;" horiz-adv-x="726" 
d="M158 -90h116v701h178v-701h116v701h114v99h-638v-99h114v-701z" />
    <glyph glyph-name="summation" unicode="&#x2211;" horiz-adv-x="606" 
d="M62 -90h492v99h-350l217 302l-217 300h350v99h-492v-93l230 -306l-230 -308v-93z" />
    <glyph glyph-name="minus" unicode="&#x2212;" 
d="M117 209h477v104h-477v-104z" />
    <glyph glyph-name="uni2215" unicode="&#x2215;" horiz-adv-x="508" 
d="M77 0h121l283 710h-121z" />
    <glyph glyph-name="uni2219" unicode="&#x2219;" horiz-adv-x="530" 
d="M275 92q46 0 84 22.5t61 61t23 84.5q0 47 -23 85t-61 60.5t-84 22.5t-84.5 -22.5t-61 -60.5t-22.5 -85q0 -46 22.5 -84.5t61 -61t84.5 -22.5z" />
    <glyph glyph-name="radical" unicode="&#x221a;" horiz-adv-x="911" 
d="M203 -155h135l292 766h265v99h-338l-285 -746l-129 374h-116z" />
    <glyph glyph-name="infinity" unicode="&#x221e;" horiz-adv-x="965" 
d="M290 79q54 0 100 29t91 91q86 -120 193 -120q54 0 95.5 24.5t65.5 66.5t24 95q0 54 -24 95t-65.5 64.5t-96.5 23.5q-53 0 -97.5 -28t-91.5 -90q-43 59 -89.5 88.5t-102.5 29.5q-54 0 -95.5 -24t-65.5 -66t-24 -96q0 -53 23.5 -94.5t65 -65t94.5 -23.5zM301 171
q-46 0 -70.5 26.5t-24.5 66.5q0 39 26 66.5t70 27.5q32 0 62.5 -22t66.5 -73q-31 -45 -63 -68.5t-67 -23.5zM665 171q-34 0 -65 21.5t-65 70.5q35 52 65.5 73.5t62.5 21.5q46 0 71.5 -27.5t25.5 -66.5q0 -40 -25 -66.5t-70 -26.5z" />
    <glyph glyph-name="integral" unicode="&#x222b;" horiz-adv-x="576" 
d="M137 -12q85 0 133 45.5t58 131.5l40 375q10 93 97 93q19 0 40 -4t40 -11l-6 89q-18 8 -41.5 11.5t-48.5 3.5q-85 0 -135 -46t-59 -135l-41 -376q-4 -45 -29.5 -66t-66.5 -21q-16 0 -37 3.5t-44 10.5l6 -89q42 -15 94 -15z" />
    <glyph glyph-name="approxequal" unicode="&#x2248;" 
d="M467 327q32 0 60.5 12t56.5 38v98q-32 -29 -60 -41t-59 -12q-26 0 -52 9.5t-52.5 22.5t-54.5 22.5t-59 9.5q-37 0 -63 -12t-56 -40v-98q27 27 54 40.5t65 13.5t73.5 -16t71.5 -31.5t75 -15.5zM467 103q32 0 60.5 12t56.5 39v98q-33 -31 -61 -42.5t-58 -11.5
q-26 0 -52 9.5t-52.5 22.5t-54.5 22.5t-59 9.5q-37 0 -63 -12t-56 -38v-99q27 26 54 39.5t65 13.5t73.5 -16t71.5 -31.5t75 -15.5z" />
    <glyph glyph-name="notequal" unicode="&#x2260;" 
d="M227 -85h109l37 175h233v104h-211l29 137h182v105h-159l37 174h-108l-38 -174h-232v-105h210l-30 -137h-180v-104h158z" />
    <glyph glyph-name="lessequal" unicode="&#x2264;" 
d="M597 155v107l-351 138l351 136v107l-483 -190v-107zM114 0h483v100h-483v-100z" />
    <glyph glyph-name="greaterequal" unicode="&#x2265;" 
d="M114 155l483 191v107l-483 190v-107l351 -136l-351 -138v-107zM114 0h483v100h-483v-100z" />
    <glyph glyph-name="lozenge" unicode="&#x25ca;" horiz-adv-x="697" 
d="M301 0h96l224 355l-224 355h-96l-224 -355zM349 120l-148 235l148 235l149 -235z" />
    <glyph glyph-name="zero.tf" horiz-adv-x="600" 
d="M300 -12q83 0 143.5 44.5t93 127t32.5 195.5q0 114 -33 196t-93 126.5t-143 44.5t-143.5 -44.5t-93 -126.5t-32.5 -196q0 -113 33 -195.5t93.5 -127t142.5 -44.5zM300 98q-72 0 -110.5 67t-38.5 190t38 190t111 67t111 -66.5t38 -190.5q0 -123 -37.5 -190t-111.5 -67z
" />
    <glyph glyph-name="one.tf" horiz-adv-x="600" 
d="M50 0h501v107h-191v603h-87l-192 -106v-113l160 85v-469h-191v-107z" />
    <glyph glyph-name="two.tf" horiz-adv-x="600" 
d="M47 0h497v107h-317l164 170q71 74 102.5 131t31.5 117q0 59 -28.5 103t-79.5 69t-119 25t-121.5 -27t-85.5 -76t-36 -114l116 -3q4 56 38 84.5t84 28.5t80.5 -25.5t30.5 -69.5q0 -30 -14.5 -61t-48.5 -71.5t-94 -101.5l-200 -202v-84z" />
    <glyph glyph-name="three.tf" horiz-adv-x="600" 
d="M298 -12q73 0 129.5 28t88.5 77t32 112q0 62 -33.5 106.5t-92.5 62.5q47 23 73.5 66.5t26.5 93.5q0 55 -29.5 97t-80.5 66.5t-114 24.5q-68 0 -120 -26.5t-83 -73.5t-35 -109l115 -3q4 49 36 77t86 28q47 0 75.5 -25t28.5 -69q0 -45 -29.5 -73.5t-79.5 -28.5h-67v-103h76
q62 0 93.5 -29t31.5 -77q0 -54 -35 -84.5t-93 -30.5q-57 0 -95 29t-43 81l-118 -3q5 -64 38.5 -112t89.5 -75t128 -27z" />
    <glyph glyph-name="four.tf" horiz-adv-x="600" 
d="M342 0h119v167h98v107h-98v436h-147l-302 -426v-117h330v-167zM127 274l215 311v-311h-215z" />
    <glyph glyph-name="five.tf" horiz-adv-x="600" 
d="M301 -12q72 0 129.5 30t91.5 86t34 132q0 71 -31 126t-85.5 86.5t-125.5 31.5q-74 0 -128 -41l23 164h312v107h-397l-59 -373l104 -28q19 29 51.5 49t78.5 20q61 0 97.5 -40t36.5 -101q0 -64 -36 -103t-96 -39q-57 0 -94 30t-44 82l-118 -3q5 -64 38.5 -113t89.5 -76
t128 -27z" />
    <glyph glyph-name="six.tf" horiz-adv-x="600" 
d="M311 -12q70 0 125 31t87 86t32 126q0 69 -30 122t-82 83t-118 30q-39 0 -75 -13.5t-64 -46.5q11 59 37.5 105.5t73.5 74t119 27.5q23 0 46.5 -2t45.5 -6v109q-22 4 -45 6t-48 2q-91 0 -160 -34t-116 -94t-70.5 -138.5t-23.5 -166.5q0 -96 33 -163t93 -102.5t140 -35.5z
M307 94q-55 0 -93 37t-38 96q0 57 37 95.5t94 38.5q55 0 90.5 -37.5t35.5 -96.5t-35.5 -96t-90.5 -37z" />
    <glyph glyph-name="seven.tf" horiz-adv-x="600" 
d="M173 0h124q11 176 82 331t183 278v101h-513v-107h364q-103 -125 -166 -278.5t-74 -324.5z" />
    <glyph glyph-name="eight.tf" horiz-adv-x="600" 
d="M300 -12q76 0 133 27t89 74.5t32 110.5q0 65 -34 112.5t-93 65.5q44 23 70 64.5t26 90.5q0 56 -29.5 98.5t-79.5 66.5t-114 24t-114.5 -24t-79.5 -66.5t-29 -98.5q0 -50 26 -91t71 -64q-59 -18 -93.5 -65t-34.5 -113q0 -63 32 -110.5t89.5 -74.5t132.5 -27zM300 425
q-46 0 -75.5 25.5t-29.5 69.5t29 70.5t76 26.5t76 -26.5t29 -70.5t-29 -69.5t-76 -25.5zM300 93q-60 0 -95.5 31t-35.5 84t35.5 83.5t95.5 30.5q61 0 96.5 -30.5t35.5 -83.5t-35.5 -84t-96.5 -31z" />
    <glyph glyph-name="nine.tf" horiz-adv-x="600" 
d="M184 -12q92 0 161 34t116 94t70.5 138.5t23.5 166.5q0 96 -33 163.5t-92.5 102.5t-139.5 35q-70 0 -125.5 -31t-87.5 -85.5t-32 -126.5q0 -69 30.5 -122t83 -83t117.5 -30q38 0 74 13.5t64 46.5q-10 -58 -37 -105t-74 -74.5t-119 -27.5q-23 0 -46.5 2t-45.5 6v-109
q22 -4 45 -6t47 -2zM293 349q-55 0 -90 38t-35 96q0 59 35 95.5t90 36.5q56 0 93 -36.5t37 -95.5q0 -57 -36.5 -95.5t-93.5 -38.5z" />
    <glyph glyph-name="zero.dnom" horiz-adv-x="425" 
d="M212 -7q82 0 130 59.5t48 160.5q0 102 -48 161t-130 59q-81 0 -129 -59t-48 -161t48 -161t129 -59zM213 70q-45 0 -68 37.5t-23 105.5t23 105.5t67 37.5q45 0 68 -36.5t23 -106.5q0 -68 -23 -105.5t-67 -37.5z" />
    <glyph glyph-name="one.dnom" horiz-adv-x="264" 
d="M113 0h85v426h-63l-118 -65v-78l96 50v-333z" />
    <glyph glyph-name="two.dnom" horiz-adv-x="376" 
d="M30 0h311v76h-185l96 95q39 38 58.5 71t19.5 71q0 53 -39.5 86.5t-103.5 33.5t-106.5 -36t-47.5 -98l83 -2q2 33 22 47.5t45 14.5q28 0 45 -13.5t17 -37.5t-20.5 -52t-72.5 -78l-122 -118v-60z" />
    <glyph glyph-name="three.dnom" horiz-adv-x="384" 
d="M191 -7q69 0 113.5 37t44.5 94q0 35 -20 62t-56 37q28 14 44 39.5t16 56.5q0 50 -41 82t-101 32q-64 0 -105 -35.5t-45 -92.5l82 -2q2 26 20 41t47 15q26 0 42 -13.5t16 -37.5q0 -23 -16.5 -38.5t-44.5 -15.5h-42v-71h49q34 0 51.5 -15t17.5 -40q0 -28 -20 -44.5
t-52 -16.5q-33 0 -54.5 15.5t-24.5 43.5l-83 -2q5 -59 49 -95t113 -36z" />
    <glyph glyph-name="four.dnom" horiz-adv-x="406" 
d="M225 0h85v96h61v75h-61v255h-105l-188 -249v-81h208v-96zM99 171l126 169v-169h-126z" />
    <glyph glyph-name="five.dnom" horiz-adv-x="378" 
d="M190 -7q44 0 80 18t57.5 51.5t21.5 79.5q0 65 -42 105.5t-107 40.5q-19 0 -38.5 -4.5t-34.5 -15.5l12 82h187v76h-247l-38 -226l74 -20q11 16 28.5 27t44.5 11q33 0 53.5 -21t20.5 -54q0 -34 -20 -55t-53 -21q-31 0 -51.5 16t-25.5 44l-83 -2q5 -59 48.5 -95.5
t112.5 -36.5z" />
    <glyph glyph-name="six.dnom" horiz-adv-x="376" 
d="M195 -7q66 0 109 41t43 105q0 62 -40.5 101t-101.5 39q-21 0 -40.5 -6t-35.5 -22q11 47 41.5 76.5t89.5 29.5q27 0 57 -5v76q-13 3 -29 4t-28 1q-73 0 -125 -34.5t-79 -93.5t-27 -131q0 -86 45 -133.5t121 -47.5zM192 67q-30 0 -50.5 19t-20.5 50t20 50.5t51 19.5
q30 0 49 -20t19 -50t-19 -49.5t-49 -19.5z" />
    <glyph glyph-name="seven.dnom" horiz-adv-x="331" 
d="M86 0h87q5 104 44.5 194.5t102.5 160.5v71h-303v-76h198q-55 -71 -89.5 -160.5t-39.5 -189.5z" />
    <glyph glyph-name="eight.dnom" horiz-adv-x="374" 
d="M187 -7q71 0 114.5 35.5t43.5 91.5q0 38 -20 66t-55 39q27 14 43 39t16 54q0 51 -40.5 83t-101.5 32t-100.5 -32t-39.5 -83q0 -29 15 -54t42 -39q-34 -11 -54.5 -39t-20.5 -66q0 -57 44.5 -92t113.5 -35zM187 257q-26 0 -42 14t-16 37t16 37.5t42 14.5t42.5 -14t16.5 -38
t-16.5 -37.5t-42.5 -13.5zM187 66q-32 0 -51.5 16.5t-19.5 44.5q0 27 19.5 43t51.5 16t52 -16t20 -43q0 -28 -20 -44.5t-52 -16.5z" />
    <glyph glyph-name="nine.dnom" horiz-adv-x="376" 
d="M116 -7q74 0 125.5 35t78.5 93.5t27 130.5q0 86 -45 133.5t-121 47.5q-66 0 -109 -40.5t-43 -105.5q0 -61 40.5 -100.5t101.5 -39.5q21 0 41 6.5t35 21.5q-10 -48 -41.5 -77t-89.5 -29q-14 0 -28.5 1.5t-29.5 3.5v-76q15 -3 30 -4t28 -1zM184 220q-30 0 -49 19.5
t-19 50.5t19 50t49 19t50.5 -19t20.5 -50q0 -30 -20 -50t-51 -20z" />
    <glyph glyph-name="zero.numr" horiz-adv-x="425" 
d="M212 277q82 0 130 59.5t48 160.5q0 102 -48 161t-130 59q-81 0 -129 -59t-48 -161t48 -161t129 -59zM213 354q-45 0 -68 37.5t-23 105.5t23 105.5t67 37.5q45 0 68 -36.5t23 -106.5q0 -68 -23 -105.5t-67 -37.5z" />
    <glyph glyph-name="one.numr" horiz-adv-x="264" 
d="M113 284h85v426h-63l-118 -65v-78l96 50v-333z" />
    <glyph glyph-name="two.numr" horiz-adv-x="376" 
d="M30 284h311v76h-185l96 95q39 38 58.5 71t19.5 71q0 53 -39.5 86.5t-103.5 33.5t-106.5 -36t-47.5 -98l83 -2q2 33 22 47.5t45 14.5q28 0 45 -13.5t17 -37.5t-20.5 -52t-72.5 -78l-122 -118v-60z" />
    <glyph glyph-name="three.numr" horiz-adv-x="384" 
d="M191 277q69 0 113.5 37t44.5 94q0 35 -20 62t-56 37q28 14 44 39.5t16 56.5q0 50 -41 82t-101 32q-64 0 -105 -35.5t-45 -92.5l82 -2q2 26 20 41t47 15q26 0 42 -13.5t16 -37.5q0 -23 -16.5 -38.5t-44.5 -15.5h-42v-71h49q34 0 51.5 -15t17.5 -40q0 -28 -20 -44.5
t-52 -16.5q-33 0 -54.5 15.5t-24.5 43.5l-83 -2q5 -59 49 -95t113 -36z" />
    <glyph glyph-name="four.numr" horiz-adv-x="406" 
d="M225 284h85v96h61v75h-61v255h-105l-188 -249v-81h208v-96zM99 455l126 169v-169h-126z" />
    <glyph glyph-name="five.numr" horiz-adv-x="378" 
d="M190 277q44 0 80 18t57.5 51.5t21.5 79.5q0 65 -42 105.5t-107 40.5q-19 0 -38.5 -4.5t-34.5 -15.5l12 82h187v76h-247l-38 -226l74 -20q11 16 28.5 27t44.5 11q33 0 53.5 -21t20.5 -54q0 -34 -20 -55t-53 -21q-31 0 -51.5 16t-25.5 44l-83 -2q5 -59 48.5 -95.5
t112.5 -36.5z" />
    <glyph glyph-name="six.numr" horiz-adv-x="376" 
d="M195 277q66 0 109 41t43 105q0 62 -40.5 101t-101.5 39q-21 0 -40.5 -6t-35.5 -22q11 47 41.5 76.5t89.5 29.5q27 0 57 -5v76q-13 3 -29 4t-28 1q-73 0 -125 -34.5t-79 -93.5t-27 -131q0 -86 45 -133.5t121 -47.5zM192 351q-30 0 -50.5 19t-20.5 50t20 50.5t51 19.5
q30 0 49 -20t19 -50t-19 -49.5t-49 -19.5z" />
    <glyph glyph-name="seven.numr" horiz-adv-x="331" 
d="M86 284h87q5 104 44.5 194.5t102.5 160.5v71h-303v-76h198q-55 -71 -89.5 -160.5t-39.5 -189.5z" />
    <glyph glyph-name="eight.numr" horiz-adv-x="374" 
d="M187 277q71 0 114.5 35.5t43.5 91.5q0 38 -20 66t-55 39q27 14 43 39t16 54q0 51 -40.5 83t-101.5 32t-100.5 -32t-39.5 -83q0 -29 15 -54t42 -39q-34 -11 -54.5 -39t-20.5 -66q0 -57 44.5 -92t113.5 -35zM187 541q-26 0 -42 14t-16 37t16 37.5t42 14.5t42.5 -14
t16.5 -38t-16.5 -37.5t-42.5 -13.5zM187 350q-32 0 -51.5 16.5t-19.5 44.5q0 27 19.5 43t51.5 16t52 -16t20 -43q0 -28 -20 -44.5t-52 -16.5z" />
    <glyph glyph-name="nine.numr" horiz-adv-x="376" 
d="M116 277q74 0 125.5 35t78.5 93.5t27 130.5q0 86 -45 133.5t-121 47.5q-66 0 -109 -40.5t-43 -105.5q0 -61 40.5 -100.5t101.5 -39.5q21 0 41 6.5t35 21.5q-10 -48 -41.5 -77t-89.5 -29q-14 0 -28.5 1.5t-29.5 3.5v-76q15 -3 30 -4t28 -1zM184 504q-30 0 -49 19.5
t-19 50.5t19 50t49 19t50.5 -19t20.5 -50q0 -30 -20 -50t-51 -20z" />
    <glyph glyph-name="exclamdown.case" horiz-adv-x="308" 
d="M101 491h107l8 -500h-124zM153 719q33 0 55.5 -20.5t22.5 -55.5q0 -37 -22.5 -57.5t-55.5 -20.5q-31 0 -53.5 20.5t-22.5 57.5q0 35 22.5 55.5t53.5 20.5z" />
    <glyph glyph-name="questiondown.case" horiz-adv-x="555" 
d="M352 491h-113v-17q0 -28 -14 -57t-57 -63q-60 -49 -86 -92t-26 -93q0 -54 28 -94t77.5 -62t115.5 -22q104 0 165 57t66 149l-117 3q-4 -49 -34 -76.5t-76 -27.5q-47 0 -75 22.5t-28 63.5q0 31 20 59t60 59q41 32 61 61t26.5 57t6.5 56v17zM292 719q-32 0 -54.5 -20.5
t-22.5 -55.5q0 -37 22.5 -57.5t54.5 -20.5q33 0 55.5 20.5t22.5 57.5q0 35 -22.5 55.5t-55.5 20.5z" />
    <glyph glyph-name="periodcentered.case" horiz-adv-x="308" 
d="M153 279q33 0 55.5 20t22.5 56t-22.5 57t-55.5 21q-31 0 -53.5 -21t-22.5 -57t22.5 -56t53.5 -20z" />
    <glyph glyph-name="bullet.case" horiz-adv-x="490" 
d="M245 187q46 0 84 22.5t61 61t23 84.5q0 47 -23 85t-61 60.5t-84 22.5t-84.5 -22.5t-61 -60.5t-22.5 -85q0 -46 22.5 -84.5t61 -61t84.5 -22.5z" />
    <glyph glyph-name="parenleft.case" horiz-adv-x="323" 
d="M168 -70h119q-61 98 -90.5 207t-29.5 218q0 228 120 425h-119q-59 -92 -90 -200t-31 -225q0 -112 31 -222.5t90 -202.5z" />
    <glyph glyph-name="parenright.case" horiz-adv-x="323" 
d="M37 -70h117q61 92 92 202.5t31 222.5q0 238 -123 425h-117q120 -199 120 -425q0 -109 -30 -218t-90 -207z" />
    <glyph glyph-name="braceleft.case" horiz-adv-x="410" 
d="M333 -70h40v105h-20q-50 0 -64.5 18.5t-14.5 55.5v139q0 44 -15.5 68.5t-71.5 38.5q50 12 68.5 36.5t18.5 70.5v140q0 45 19.5 59t59.5 14h20v105h-40q-88 0 -133.5 -41.5t-45.5 -118.5v-131q0 -46 -22.5 -68.5t-84.5 -22.5v-85q62 0 84.5 -23t22.5 -69v-130
q0 -80 47 -120.5t132 -40.5z" />
    <glyph glyph-name="braceright.case" horiz-adv-x="410" 
d="M37 -70h40q84 0 131.5 40.5t47.5 120.5v130q0 46 22.5 69t84.5 23v85q-62 0 -84.5 22.5t-22.5 68.5v131q0 77 -46 118.5t-133 41.5h-40v-105h20q40 0 59.5 -14t19.5 -59v-140q0 -46 18.5 -70.5t67.5 -36.5q-37 -9 -55.5 -23t-24.5 -34.5t-6 -49.5v-139q0 -37 -14.5 -55.5
t-64.5 -18.5h-20v-105z" />
    <glyph glyph-name="bracketleft.case" horiz-adv-x="322" 
d="M47 -70h239v105h-119v640h119v105h-239v-850z" />
    <glyph glyph-name="bracketright.case" horiz-adv-x="322" 
d="M37 -70h239v850h-239v-105h119v-640h-119v-105z" />
    <glyph glyph-name="hyphen.case" horiz-adv-x="504" 
d="M77 303h350v104h-350v-104z" />
    <glyph glyph-name="endash.case" horiz-adv-x="617" 
d="M77 303h464v104h-464v-104z" />
    <glyph glyph-name="emdash.case" horiz-adv-x="944" 
d="M77 303h790v104h-790v-104z" />
    <glyph glyph-name="uni2015.case" horiz-adv-x="984" 
d="M107 303h790v104h-790v-104z" />
    <glyph glyph-name="uni2010.case" horiz-adv-x="544" 
d="M107 303h350v104h-350v-104z" />
    <glyph glyph-name="guillemotleft.case" horiz-adv-x="678" 
d="M492 148h139l-138 207l138 207h-139l-139 -207zM196 148h138l-138 207l138 207h-138l-139 -207z" />
    <glyph glyph-name="guillemotright.case" horiz-adv-x="678" 
d="M47 148h139l139 207l-139 207h-139l137 -207zM344 148h138l139 207l-139 207h-138l137 -207z" />
    <glyph glyph-name="guilsinglleft.case" horiz-adv-x="381" 
d="M196 149h138l-138 207l138 207h-138l-139 -207z" />
    <glyph glyph-name="guilsinglright.case" horiz-adv-x="381" 
d="M47 148h139l139 207l-139 207h-139l137 -207z" />
    <glyph glyph-name="plus.case" 
d="M301 95h110v209h203v104h-203v207h-110v-207h-204v-104h204v-209z" />
    <glyph glyph-name="minus.case" 
d="M117 303h477v104h-477v-104z" />
    <glyph glyph-name="multiply.case" 
d="M177 105l179 174l179 -174l74 75l-178 175l178 175l-74 75l-179 -176l-179 176l-75 -75l178 -175l-178 -175z" />
    <glyph glyph-name="divide.case" 
d="M298 517h115v115h-115v-115zM97 309h517v93h-517v-93zM298 79h115v115h-115v-115z" />
    <glyph glyph-name="equal.case" 
d="M106 423h500v105h-500v-105zM106 182h500v104h-500v-104z" />
    <glyph glyph-name="greater.case" 
d="M114 90l483 212v106l-483 211v-107l363 -157l-363 -158v-107z" />
    <glyph glyph-name="less.case" 
d="M597 90v107l-363 158l363 157v107l-483 -211v-106z" />
    <glyph glyph-name="at.case" horiz-adv-x="891" 
d="M452 -47q92 0 171 27.5t127 68.5l-46 70q-48 -34 -111.5 -55.5t-140.5 -21.5q-89 0 -157 39.5t-106 109t-38 158.5q0 92 39.5 164t109.5 113t161 41q82 0 144.5 -33.5t98.5 -90.5t36 -130q0 -44 -13 -81t-34.5 -59t-48.5 -22q-22 0 -30.5 18t-2.5 50l41 231h-91l-6 -38
q-15 22 -43.5 34.5t-63.5 12.5q-63 0 -112.5 -30.5t-78 -82.5t-28.5 -117q0 -49 20 -86.5t55.5 -59t81.5 -21.5q41 0 76.5 17t58.5 45q11 -29 39.5 -45.5t67.5 -16.5q59 0 106 33t74 90t27 129q0 74 -28 136.5t-79 108.5t-119 71.5t-149 25.5q-87 0 -160.5 -30t-128 -85
t-84.5 -129t-30 -162q0 -86 29 -158.5t82.5 -126t125.5 -83t158 -29.5zM413 250q-40 0 -62.5 24t-22.5 64q0 59 33.5 96t81.5 37q44 0 67.5 -22t23.5 -61q0 -38 -16 -69.5t-43.5 -50t-61.5 -18.5z" />
    <glyph glyph-name="uni0335.case" horiz-adv-x="0" 
d="M127 210h317v104h-317v-104z" />
    <glyph glyph-name="uni0337.case" horiz-adv-x="0" 
d="M127 202l334 200v112l-334 -200v-112z" />
    <glyph glyph-name="uni0338.case" horiz-adv-x="0" 
d="M50 0h116l682 710h-116z" />
    </font>
</defs>
</svg>
