<?xml version="1.0" standalone="no"?>
<!DOCTYPE svg PUBLIC "-//W3C//DTD SVG 1.1//EN" "http://www.w3.org/Graphics/SVG/1.1/DTD/svg11.dtd" >
<svg xmlns="http://www.w3.org/2000/svg" version="1.1">
<metadata>
Created by FontForge 20201107 at Fri Mar 11 12:11:46 2022
 By 
Copyright (c) 2021 by PT Bank Central Asia TBK. All rights reserved.
</metadata>
<defs>
<font id="BCASans-Extrabold" horiz-adv-x="705" >
  <font-face 
    font-family="BCA Sans Extrabold"
    font-weight="800"
    font-stretch="normal"
    units-per-em="1000"
    panose-1="0 0 0 0 0 0 0 0 0 0"
    ascent="800"
    descent="-200"
    x-height="525"
    cap-height="710"
    bbox="-200 -230 1453 995"
    underline-thickness="50"
    underline-position="-125"
    unicode-range="U+0020-FB02"
  />
<missing-glyph horiz-adv-x="693" 
d="M70 0h553v710h-553v-710zM230 160v390h233v-390h-233z" />
    <glyph glyph-name="fi" unicode="fi" horiz-adv-x="730" 
d="M120 0h180v375h100v150h-100v29q0 46 58 46q20 0 37 -5h5v130q-15 7 -41 11t-52 4q-82 0 -134.5 -45.5t-52.5 -131.5v-38h-90v-150h90v-375zM580 574q42 0 73 25.5t31 71.5q0 47 -31 72.5t-73 25.5t-73 -25.5t-31 -72.5q0 -46 31 -71.5t73 -25.5zM490 0h180v525h-180
v-525z" />
    <glyph glyph-name="fl" unicode="fl" horiz-adv-x="740" 
d="M120 0h180v375h100v150h-100v29q0 46 58 46q20 0 37 -5h5v130q-15 7 -41 11t-52 4q-82 0 -134.5 -45.5t-52.5 -131.5v-38h-90v-150h90v-375zM490 0h180v710h-180v-710z" />
    <glyph glyph-name=".notdef" horiz-adv-x="693" 
d="M70 0h553v710h-553v-710zM230 160v390h233v-390h-233z" />
    <glyph glyph-name=".null" horiz-adv-x="0" 
 />
    <glyph glyph-name="nonmarkingreturn" horiz-adv-x="333" 
 />
    <glyph glyph-name="space" unicode=" " horiz-adv-x="220" 
 />
    <glyph glyph-name="exclam" unicode="!" horiz-adv-x="348" 
d="M92 260h165l15 462h-195zM174 -6q42 0 73 27t31 76q0 50 -31 77.5t-73 27.5t-73 -27.5t-31 -77.5q0 -49 31 -76t73 -27z" />
    <glyph glyph-name="quotedbl" unicode="&#x22;" horiz-adv-x="550" 
d="M310 420h130l40 290h-170v-290zM70 420h130l40 290h-170v-290z" />
    <glyph glyph-name="numbersign" unicode="#" horiz-adv-x="861" 
d="M135 0h174l35 165h102l-35 -165h174l35 165h130l29 140h-130l22 101h130l30 140h-131l35 164h-174l-35 -164h-102l35 164h-174l-35 -164h-129l-30 -140h130l-22 -101h-130l-29 -140h130zM373 305l22 101h102l-22 -101h-102z" />
    <glyph glyph-name="dollar" unicode="$" horiz-adv-x="667" 
d="M292 -150h90v140q67 8 120 37t84 79.5t31 120.5q0 60 -21.5 98t-56.5 60t-76.5 34t-80.5 22v114q14 -9 23.5 -23t11.5 -34l179 7q-8 83 -66.5 139t-147.5 72v144h-90v-139q-70 -4 -122.5 -33t-81 -76.5t-28.5 -108.5t21 -100.5t55 -63t75 -37t81 -23.5v-135
q-28 9 -47.5 29t-23.5 51l-181 -7q4 -64 38 -112t89.5 -77.5t124.5 -36.5v-141zM248 518q0 20 12 33t32 18v-104q-20 8 -32 20.5t-12 32.5zM429 201q0 -22 -13 -36t-34 -20v108q21 -9 34 -21t13 -31z" />
    <glyph glyph-name="percent" unicode="%" horiz-adv-x="1093" 
d="M272 320q59 0 104.5 26t71.5 71t26 102q0 58 -26 102.5t-71.5 70.5t-104.5 26t-104.5 -26t-71.5 -70.5t-26 -102.5q0 -57 26 -102t71.5 -71t104.5 -26zM222 0h150l499 710h-151zM272 436q-34 0 -56 23t-22 60t22 60t56 23t56 -23t22 -60t-22 -60t-56 -23zM821 -8
q59 0 104.5 26t71.5 71t26 102q0 58 -26 102.5t-71.5 70.5t-104.5 26t-104.5 -26t-71.5 -70.5t-26 -102.5q0 -57 26 -102t71.5 -71t104.5 -26zM821 108q-34 0 -56 23t-22 60t22 60t56 23t56 -23t22 -60t-22 -60t-56 -23z" />
    <glyph glyph-name="ampersand" unicode="&#x26;" horiz-adv-x="818" 
d="M344 -12q54 0 99.5 15.5t85.5 43.5l49 -47h195l-145 145q29 38 57 84.5t55 98.5h-177q-11 -20 -21.5 -38.5t-21.5 -35.5l-107 107q35 19 65 43.5t49 57.5t19 78q0 82 -53 132t-148 50q-59 0 -107 -23t-75.5 -64.5t-27.5 -95.5q0 -34 10 -70.5t44 -81.5q-48 -31 -81 -77
t-33 -124q0 -56 31 -101t91.5 -71t146.5 -26zM322 456q-18 23 -25 41.5t-7 38.5q0 29 16.5 42.5t38.5 13.5t37.5 -14t15.5 -40q0 -25 -21.5 -45t-54.5 -37zM346 128q-46 0 -76 21t-30 61q0 28 10.5 47t28.5 32l145 -140q-34 -21 -78 -21z" />
    <glyph glyph-name="quotesingle" unicode="'" horiz-adv-x="310" 
d="M70 420h130l40 290h-170v-290z" />
    <glyph glyph-name="parenleft" unicode="(" horiz-adv-x="375" 
d="M163 -140h182q-61 100 -90.5 209t-29.5 216q0 112 29.5 218t90.5 207h-182q-123 -187 -123 -425q0 -113 31 -223t92 -202z" />
    <glyph glyph-name="parenright" unicode=")" horiz-adv-x="375" 
d="M30 -140h182q61 92 92 202t31 223q0 238 -123 425h-182q62 -101 91 -207t29 -218q0 -107 -29 -216t-91 -209z" />
    <glyph glyph-name="asterisk" unicode="*" horiz-adv-x="589" 
d="M222 285l72 103l72 -103l109 76l-74 107l118 31l-34 127l-125 -33v117h-132v-117l-123 33l-35 -127l118 -31l-74 -107z" />
    <glyph glyph-name="plus" unicode="+" 
d="M270 0h166v184h179v160h-179v181h-166v-181h-180v-160h180v-184z" />
    <glyph glyph-name="comma" unicode="," horiz-adv-x="348" 
d="M89 -140q70 0 111.5 28t59.5 77t18 112q0 65 -31 95t-73 30t-73 -27.5t-31 -77.5q0 -49 31 -76t73 -27q7 0 11 1q-5 -29 -31.5 -44t-64.5 -15v-76z" />
    <glyph glyph-name="hyphen" unicode="-" horiz-adv-x="491" 
d="M70 185h351v160h-351v-160z" />
    <glyph glyph-name="period" unicode="." horiz-adv-x="348" 
d="M174 -6q42 0 73 27t31 76q0 50 -31 77.5t-73 27.5t-73 -27.5t-31 -77.5q0 -49 31 -76t73 -27z" />
    <glyph glyph-name="slash" unicode="/" horiz-adv-x="545" 
d="M40 0h189l286 710h-189z" />
    <glyph glyph-name="zero" unicode="0" horiz-adv-x="710" 
d="M355 -12q93 0 161.5 45t106 127.5t37.5 194.5q0 113 -37.5 195.5t-106.5 127t-162 44.5t-161 -44.5t-105.5 -127t-37.5 -195.5q0 -112 37.5 -194.5t106 -127.5t161.5 -45zM356 156q-58 0 -88 52.5t-30 146.5q0 95 29.5 147t87.5 52q59 0 88 -51.5t29 -147.5
q0 -95 -28.5 -147t-87.5 -52z" />
    <glyph glyph-name="one" unicode="1" horiz-adv-x="462" 
d="M177 0h185v710h-145l-197 -114v-170l157 84v-510z" />
    <glyph glyph-name="two" unicode="2" horiz-adv-x="629" 
d="M41 0h538v165h-265l142 134q51 48 82 99t31 114t-32 110t-89 73.5t-131 26.5q-78 0 -139 -30t-97 -84t-41 -127l180 -3q2 44 27.5 64t59.5 20q35 0 56 -16.5t21 -44.5q0 -21 -14.5 -44.5t-46 -55.5t-82.5 -80l-200 -187v-134z" />
    <glyph glyph-name="three" unicode="3" horiz-adv-x="645" 
d="M320 -12q80 0 142 28.5t97.5 79t35.5 114.5q0 58 -31 99.5t-84 57.5q44 26 69 68t25 90q0 58 -33 102.5t-90 69.5t-129 25q-76 0 -133 -28.5t-90.5 -80t-37.5 -119.5l180 -3q2 34 22.5 52.5t56.5 18.5q31 0 49.5 -16t18.5 -46q0 -28 -19.5 -47t-54.5 -19h-71v-152h88
q41 0 59 -18t18 -44q0 -34 -24.5 -53t-63.5 -19q-41 0 -67.5 19t-31.5 53l-181 -3q5 -68 41 -120t97 -80.5t142 -28.5z" />
    <glyph glyph-name="four" unicode="4" horiz-adv-x="685" 
d="M357 0h185v143h93v165h-93v402h-229l-293 -392v-175h337v-143zM197 308l160 219v-219h-160z" />
    <glyph glyph-name="five" unicode="5" horiz-adv-x="635" 
d="M319 -12q75 0 137.5 29t100.5 85.5t38 137.5q0 74 -32 128t-88.5 83.5t-130.5 29.5q-55 0 -97 -20l14 84h290v165h-422l-70 -385l163 -45q17 23 38 37t54 14q41 0 67 -25t26 -64q0 -42 -25 -68t-64 -26q-38 0 -63.5 19.5t-33.5 54.5l-181 -3q5 -69 41 -121t97 -81
t141 -29z" />
    <glyph glyph-name="six" unicode="6" horiz-adv-x="628" 
d="M326 -12q78 0 137 31.5t92 87t33 128.5q0 67 -31 119t-85 81.5t-124 29.5q-24 0 -46 -5t-42 -16q20 60 65 86t114 26q50 0 99 -9v167q-25 5 -50 6.5t-50 1.5q-88 0 -161 -31.5t-126 -89t-82 -136t-29 -173.5q0 -94 34.5 -162.5t98.5 -105t153 -36.5zM319 148
q-35 0 -58 23t-23 57q0 35 23 57t58 22t58 -22t23 -57q0 -34 -23 -57t-58 -23z" />
    <glyph glyph-name="seven" unicode="7" horiz-adv-x="561" 
d="M129 0h191q5 112 35.5 213.5t81 188.5t114.5 154v154h-531v-165h298q-79 -110 -132.5 -249t-56.5 -296z" />
    <glyph glyph-name="eight" unicode="8" horiz-adv-x="624" 
d="M312 -12q81 0 142 27t95.5 74.5t34.5 110.5q0 60 -30.5 104t-81.5 63q42 25 67 67t25 91q0 57 -33 101.5t-89.5 70t-129.5 25.5t-130 -25.5t-89.5 -70t-32.5 -101.5q0 -49 25 -91t68 -67q-52 -18 -82.5 -62t-30.5 -105q0 -63 34.5 -110.5t95.5 -74.5t142 -27zM312 434
q-31 0 -52.5 17.5t-21.5 47.5q0 29 21.5 46t52.5 17q32 0 53 -17t21 -46q0 -30 -21 -47.5t-53 -17.5zM312 148q-37 0 -60.5 18t-23.5 50t23.5 50t60.5 18q38 0 61 -18t23 -50t-23 -50t-61 -18z" />
    <glyph glyph-name="nine" unicode="9" horiz-adv-x="628" 
d="M190 -12q88 0 161 31.5t126 89t82 136t29 173.5t-34.5 163t-98.5 104.5t-153 36.5q-77 0 -136.5 -31.5t-92.5 -87t-33 -128.5q0 -67 31 -119t85 -81.5t124 -29.5q24 0 46.5 5t41.5 16q-19 -60 -64.5 -86t-114.5 -26q-49 0 -99 9v-167q26 -4 50.5 -6t49.5 -2zM309 403
q-35 0 -58 22.5t-23 56.5q0 35 23 57.5t58 22.5t58 -22.5t23 -57.5q0 -34 -23 -56.5t-58 -22.5z" />
    <glyph glyph-name="colon" unicode=":" horiz-adv-x="348" 
d="M174 323q42 0 73 27t31 76q0 50 -31 77.5t-73 27.5t-73 -27.5t-31 -77.5q0 -49 31 -76t73 -27zM174 -6q42 0 73 27t31 76q0 50 -31 77.5t-73 27.5t-73 -27.5t-31 -77.5q0 -49 31 -76t73 -27z" />
    <glyph glyph-name="semicolon" unicode=";" horiz-adv-x="348" 
d="M174 323q42 0 73 27t31 76q0 50 -31 77.5t-73 27.5t-73 -27.5t-31 -77.5q0 -49 31 -76t73 -27zM89 -140q70 0 111.5 28t59.5 77t18 112q0 65 -31 95t-73 30t-73 -27.5t-31 -77.5q0 -49 31 -76t73 -27q7 0 11 1q-5 -29 -31.5 -44t-64.5 -15v-76z" />
    <glyph glyph-name="less" unicode="&#x3c;" 
d="M608 -16v160l-326 121l326 119v160l-511 -199v-161z" />
    <glyph glyph-name="equal" unicode="=" 
d="M103 330h500v160h-500v-160zM103 50h500v160h-500v-160z" />
    <glyph glyph-name="greater" unicode="&#x3e;" 
d="M97 -16l511 200v161l-511 199v-160l326 -119l-326 -121v-160z" />
    <glyph glyph-name="question" unicode="?" horiz-adv-x="583" 
d="M190 260h173v11q0 18 12 40t45 49q60 49 86.5 87t26.5 91q0 55 -29 96t-82 64.5t-125 23.5q-118 0 -185.5 -61t-71.5 -160l180 -3q2 33 21 48.5t45 15.5t43 -12t17 -36q0 -23 -20 -43.5t-48 -40.5q-39 -28 -57.5 -54.5t-24.5 -52t-6 -52.5v-11zM282 -6q42 0 73 27t31 76
q0 50 -31 77.5t-73 27.5t-73 -27.5t-31 -77.5q0 -49 31 -76t73 -27z" />
    <glyph glyph-name="at" unicode="@" horiz-adv-x="908" 
d="M460 -162q106 0 190.5 30t135.5 70l-59 98q-48 -34 -116 -57t-151 -23q-84 0 -149.5 38t-103 104t-37.5 150q0 88 38.5 156.5t106.5 108t154 39.5q78 0 139 -31t95.5 -85t34.5 -124q0 -59 -21.5 -97.5t-54.5 -38.5q-19 0 -28 19.5t-4 48.5l40 213h-120l-5 -32
q-10 19 -36 30t-60 11q-66 0 -117.5 -31t-81 -84.5t-29.5 -122.5q0 -49 20.5 -88t56.5 -61t82 -22q44 0 80.5 18t55.5 46q15 -29 46 -46.5t74 -17.5q65 0 115 33t78.5 91t28.5 132q0 78 -29 143t-81.5 113t-123.5 74.5t-156 26.5q-91 0 -167 -31t-132.5 -88t-87.5 -133.5
t-31 -168.5q0 -89 30.5 -164t85.5 -130.5t130 -86t164 -30.5zM416 176q-28 0 -45.5 18t-17.5 48q0 47 28.5 76t64.5 29q29 0 46.5 -18t17.5 -49q0 -46 -29 -75t-65 -29z" />
    <glyph glyph-name="A" unicode="A" horiz-adv-x="780" 
d="M20 0h205l46 132h241l47 -132h201l-276 710h-189zM329 297l62 178l63 -178h-125z" />
    <glyph glyph-name="B" unicode="B" horiz-adv-x="700" 
d="M70 0h335q77 0 134.5 27t89 74.5t31.5 108.5q0 59 -27 102t-80 62q39 25 56.5 61.5t17.5 76.5q0 91 -59 144.5t-160 53.5h-338v-710zM255 441v114h130q25 0 41 -15.5t16 -39.5q0 -25 -16.5 -42t-40.5 -17h-130zM255 155v134h150q32 0 51 -18t19 -47q0 -30 -20 -49.5
t-50 -19.5h-150z" />
    <glyph glyph-name="C" unicode="C" horiz-adv-x="812" 
d="M425 -12q105 0 179 36t117 95.5t51 127.5l-180 15q-6 -32 -31 -57t-60 -38.5t-74 -13.5q-59 0 -102.5 26t-66.5 72t-23 104q0 59 23 104.5t66.5 71.5t102.5 26q39 0 74 -13.5t60 -38t31 -57.5l180 15q-8 69 -51 128t-117 95t-179 36q-84 0 -152.5 -27.5t-118.5 -77.5
t-77 -117t-27 -145t27 -145t77 -117t118.5 -77.5t152.5 -27.5z" />
    <glyph glyph-name="D" unicode="D" horiz-adv-x="770" 
d="M70 0h255q124 0 212 42t135.5 121.5t47.5 191.5q0 170 -103.5 262.5t-291.5 92.5h-255v-710zM255 165v380h77q98 0 150.5 -51.5t52.5 -138.5q0 -91 -52.5 -140.5t-150.5 -49.5h-77z" />
    <glyph glyph-name="E" unicode="E" horiz-adv-x="590" 
d="M70 0h490v165h-305v110h265v160h-265v110h305v165h-490v-710z" />
    <glyph glyph-name="F" unicode="F" horiz-adv-x="570" 
d="M70 0h185v275h255v160h-255v110h295v165h-480v-710z" />
    <glyph glyph-name="G" unicode="G" horiz-adv-x="841" 
d="M410 -12q66 0 120 23t91 65l10 -76h150v414h-366v-160h181q-7 -43 -49.5 -72t-109.5 -29q-62 0 -107.5 26t-70 72t-24.5 104q0 59 23 104.5t66.5 71.5t102.5 26q52 0 97 -24.5t62 -65.5l183 16q-12 64 -55.5 118.5t-116 87.5t-172.5 33q-84 0 -152.5 -27.5t-118.5 -77.5
t-77 -117t-27 -145t27 -145t75.5 -117t114 -77.5t143.5 -27.5z" />
    <glyph glyph-name="H" unicode="H" horiz-adv-x="755" 
d="M70 0h185v272h245v-272h185v710h-185v-273h-245v273h-185v-710z" />
    <glyph glyph-name="I" unicode="I" horiz-adv-x="325" 
d="M70 0h185v710h-185v-710z" />
    <glyph glyph-name="J" unicode="J" horiz-adv-x="674" 
d="M315 -12q84 0 150 30.5t104 86.5t38 132v473h-436v-165h251v-293q0 -46 -32 -72.5t-75 -26.5q-40 0 -72.5 27.5t-35.5 81.5l-187 -8q0 -69 36 -130t102.5 -98.5t156.5 -37.5z" />
    <glyph glyph-name="K" unicode="K" horiz-adv-x="743" 
d="M70 0h184v193l56 64l186 -257h227l-284 397l265 313h-219l-231 -264v264h-184v-710z" />
    <glyph glyph-name="L" unicode="L" horiz-adv-x="600" 
d="M70 0h510v165h-325v545h-185v-710z" />
    <glyph glyph-name="M" unicode="M" horiz-adv-x="936" 
d="M70 0h182v368l172 -368h90l170 367v-367h182v710h-213l-185 -391l-185 391h-213v-710z" />
    <glyph glyph-name="N" unicode="N" horiz-adv-x="765" 
d="M70 0h182v387l268 -387h175v710h-182v-380l-268 380h-175v-710z" />
    <glyph glyph-name="O" unicode="O" horiz-adv-x="855" 
d="M427 -12q83 0 152 28t119.5 77.5t78.5 116.5t28 145t-28.5 145t-79.5 116.5t-120 77.5t-150 28t-150 -27.5t-119.5 -77.5t-79 -117t-28.5 -145t28 -145t79 -117t119.5 -77.5t150.5 -27.5zM427 156q-55 0 -98 25t-67 70t-24 104t24 104t67 70t98 25q56 0 99 -25t67 -70
t24 -104t-24 -104t-67 -70t-99 -25z" />
    <glyph glyph-name="P" unicode="P" horiz-adv-x="645" 
d="M70 0h185v241h94q85 0 142 30t85.5 83t28.5 121q0 108 -62.5 171.5t-193.5 63.5h-279v-710zM255 401v149h95q32 0 52 -19.5t20 -54.5q0 -31 -20 -53t-52 -22h-95z" />
    <glyph glyph-name="Q" unicode="Q" horiz-adv-x="835" 
d="M427 -12q76 0 143 25l113 -113l122 121l-90 90q43 48 66.5 110.5t23.5 133.5q0 78 -28.5 145t-79.5 116.5t-120 77.5t-150 28t-150 -27.5t-119.5 -77.5t-79 -117t-28.5 -145t28 -145t79 -117t119.5 -77.5t150.5 -27.5zM427 156q-55 0 -98 25t-67 70t-24 104t24 104t67 70
t98 25q56 0 99 -25t67 -70t24 -104q0 -66 -31 -115l-139 139l-121 -122z" />
    <glyph glyph-name="R" unicode="R" horiz-adv-x="713" 
d="M70 0h185v241h57l174 -241h207l-195 265q64 28 96.5 83t32.5 127q0 108 -63.5 171.5t-194.5 63.5h-299v-710zM255 401v149h115q32 0 52 -19.5t20 -54.5q0 -31 -20 -53t-52 -22h-115z" />
    <glyph glyph-name="S" unicode="S" horiz-adv-x="667" 
d="M338 -12q78 0 141 27t100.5 80.5t37.5 131.5q0 60 -21.5 98t-57 60t-77 34.5t-80.5 21.5q-36 9 -66.5 16.5t-48.5 21.5t-18 39q0 26 20 40t51 14q34 0 64.5 -18t33.5 -56l179 7q-6 65 -44 114t-99 76t-137 27q-77 0 -134.5 -28t-89.5 -77t-32 -114q0 -62 21 -101.5
t55.5 -63t76 -36.5t81.5 -23q36 -9 67 -18t49.5 -23t18.5 -37q0 -33 -28 -48t-64 -15q-44 0 -77.5 21.5t-38.5 64.5l-181 -7q5 -70 46 -121.5t107 -79.5t145 -28z" />
    <glyph glyph-name="T" unicode="T" horiz-adv-x="600" 
d="M209 0h185v545h186v165h-560v-165h189v-545z" />
    <glyph glyph-name="U" unicode="U" horiz-adv-x="726" 
d="M363 -12q81 0 149.5 34t110 97.5t41.5 150.5v440h-186v-428q0 -61 -31 -95t-84 -34q-52 0 -83.5 34t-31.5 95v428h-186v-440q0 -87 41.5 -150.5t110.5 -97.5t149 -34z" />
    <glyph glyph-name="V" unicode="V" horiz-adv-x="760" 
d="M285 0h189l266 710h-201l-158 -454l-156 454h-205z" />
    <glyph glyph-name="W" unicode="W" horiz-adv-x="1086" 
d="M231 0h165l147 420l147 -420h165l211 710h-195l-116 -385l-137 385h-150l-137 -381l-113 381h-198z" />
    <glyph glyph-name="X" unicode="X" horiz-adv-x="761" 
d="M488 362l243 348h-215l-135 -194l-136 194h-215l243 -348l-253 -362h215l146 208l145 -208h215z" />
    <glyph glyph-name="Y" unicode="Y" horiz-adv-x="724" 
d="M269 0h185v314l250 396h-206l-136 -221l-137 221h-205l249 -396v-314z" />
    <glyph glyph-name="Z" unicode="Z" horiz-adv-x="599" 
d="M10 0h559v165h-311l301 445v100h-526v-165h291l-314 -445v-100z" />
    <glyph glyph-name="bracketleft" unicode="[" horiz-adv-x="362" 
d="M40 -140h292v160h-107v530h107v160h-292v-850z" />
    <glyph glyph-name="backslash" unicode="\" horiz-adv-x="545" 
d="M316 0h189l-286 710h-189z" />
    <glyph glyph-name="bracketright" unicode="]" horiz-adv-x="362" 
d="M30 -140h292v850h-292v-160h107v-530h-107v-160z" />
    <glyph glyph-name="asciicircum" unicode="^" 
d="M87 360h166l100 199l99 -199h166l-183 350h-165z" />
    <glyph glyph-name="underscore" unicode="_" horiz-adv-x="533" 
d="M50 -140h433v140h-433v-140z" />
    <glyph glyph-name="grave" unicode="`" horiz-adv-x="398" 
d="M176 600h152l-70 160h-188z" />
    <glyph glyph-name="a" unicode="a" horiz-adv-x="627" 
d="M215 -12q47 0 92 14t70 47v-49h170v342q0 87 -64 141t-188 54q-64 0 -118 -21t-89 -62.5t-42 -103.5l168 -6q8 29 29 41t48 12q32 0 54 -14.5t22 -40.5v-7l-152 -28q-41 -7 -81.5 -25t-67 -52t-26.5 -91q0 -67 48.5 -109t126.5 -42zM267 118q-23 0 -36 12.5t-13 28.5
q0 20 13.5 29.5t35.5 13.5l100 17v-13q0 -46 -29.5 -67t-70.5 -21z" />
    <glyph glyph-name="b" unicode="b" horiz-adv-x="678" 
d="M370 -12q76 0 136.5 35t96 97t35.5 142q0 81 -35.5 143t-95.5 97t-133 35q-84 0 -134 -41v214h-180v-710h160v45q28 -29 66 -43t84 -14zM349 150q-45 0 -77 30.5t-32 81.5q0 52 32 82.5t77 30.5t76 -30.5t31 -82.5q0 -51 -31 -81.5t-76 -30.5z" />
    <glyph glyph-name="c" unicode="c" horiz-adv-x="631" 
d="M325 -12q69 0 126.5 26t95 74.5t44.5 113.5l-165 15q-13 -37 -40 -52t-59 -15q-40 0 -72.5 30.5t-32.5 82.5q0 53 32.5 82.5t72.5 29.5q32 0 59 -15t40 -51l165 15q-7 66 -44.5 113.5t-95 73.5t-126.5 26q-81 0 -145.5 -36t-102 -98t-37.5 -140q0 -77 37.5 -139.5
t102 -99t145.5 -36.5z" />
    <glyph glyph-name="d" unicode="d" horiz-adv-x="678" 
d="M308 -12q47 0 84.5 14t65.5 43v-45h160v722h-180v-226q-50 41 -134 41q-73 0 -133 -35t-95.5 -97t-35.5 -143q0 -80 35.5 -142t96 -97t136.5 -35zM329 150q-45 0 -76 30.5t-31 81.5q0 52 31 82.5t76 30.5t77 -30.5t32 -82.5q0 -51 -32 -81.5t-77 -30.5z" />
    <glyph glyph-name="e" unicode="e" horiz-adv-x="634" 
d="M326 -12q96 0 165 47.5t97 134.5l-172 6q-10 -22 -32 -35t-59 -13q-21 0 -43.5 8.5t-39.5 27t-22 49.5h364q10 24 10 76q0 63 -32 119.5t-93.5 92.5t-151.5 36q-78 0 -141 -36t-99.5 -98t-36.5 -140q0 -77 37.5 -139.5t102.5 -99t146 -36.5zM219 328q5 30 21 47
t37.5 24.5t39.5 7.5q38 0 67 -20.5t31 -58.5h-196z" />
    <glyph glyph-name="f" unicode="f" horiz-adv-x="430" 
d="M120 0h180v375h100v150h-100v29q0 46 58 46q20 0 37 -5h5v130q-15 7 -41 11t-52 4q-82 0 -134.5 -45.5t-52.5 -131.5v-38h-90v-150h90v-375z" />
    <glyph glyph-name="g" unicode="g" horiz-adv-x="668" 
d="M325 -230q82 0 145.5 32t100.5 90t37 137v496h-160v-41q-26 27 -65 40t-80 13q-76 0 -135.5 -34.5t-93.5 -92.5t-34 -131q0 -72 34.5 -131t93 -93.5t131.5 -34.5q80 0 129 36v-27q0 -35 -15 -56.5t-39 -31t-51 -9.5q-31 0 -58.5 15.5t-40.5 52.5l-165 -15q8 -66 45 -114
t94.5 -74.5t126.5 -26.5zM325 182q-44 0 -73.5 26t-29.5 70t29.5 70.5t73.5 26.5t73.5 -26.5t29.5 -70.5t-29.5 -70t-73.5 -26z" />
    <glyph glyph-name="h" unicode="h" horiz-adv-x="614" 
d="M60 0h180v301q0 35 19.5 55.5t50.5 20.5q33 0 53.5 -20.5t20.5 -55.5v-301h180v315q0 103 -53.5 162.5t-144.5 59.5q-31 0 -66.5 -12.5t-59.5 -38.5v224h-180v-710z" />
    <glyph glyph-name="i" unicode="i" horiz-adv-x="300" 
d="M150 574q42 0 73 25.5t31 71.5q0 47 -31 72.5t-73 25.5t-73 -25.5t-31 -72.5q0 -46 31 -71.5t73 -25.5zM60 0h180v525h-180v-525z" />
    <glyph glyph-name="j" unicode="j" horiz-adv-x="300" 
d="M150 574q42 0 73 25.5t31 71.5q0 47 -31 72.5t-73 25.5t-73 -25.5t-31 -72.5q0 -46 31 -71.5t73 -25.5zM43 -230q87 0 142 48t55 139v568h-180v-549q0 -39 -17.5 -52.5t-41.5 -13.5q-15 0 -25.5 1.5t-20.5 3.5h-5v-130q15 -7 41.5 -11t51.5 -4z" />
    <glyph glyph-name="k" unicode="k" horiz-adv-x="627" 
d="M60 0h180v151l40 45l137 -196h210l-215 315l182 210h-209l-145 -158v355h-180v-722z" />
    <glyph glyph-name="l" unicode="l" horiz-adv-x="310" 
d="M60 0h180v710h-180v-710z" />
    <glyph glyph-name="m" unicode="m" horiz-adv-x="918" 
d="M60 0h180v301q0 35 19 55.5t48 20.5q32 0 49.5 -20.5t17.5 -55.5v-301h180v301q0 35 19 55.5t48 20.5q32 0 49.5 -20.5t17.5 -55.5v-301h180v315q0 103 -51 162.5t-142 59.5q-46 0 -90 -17.5t-71 -56.5q-51 74 -153 74q-39 0 -78 -13.5t-63 -47.5v49h-160v-525z" />
    <glyph glyph-name="n" unicode="n" horiz-adv-x="614" 
d="M60 0h180v301q0 35 19.5 55.5t50.5 20.5q33 0 53.5 -20.5t20.5 -55.5v-301h180v315q0 103 -53.5 162.5t-144.5 59.5q-38 0 -80 -15.5t-66 -49.5v53h-160v-525z" />
    <glyph glyph-name="o" unicode="o" horiz-adv-x="650" 
d="M325 -12q82 0 146.5 36t101.5 98.5t37 140.5t-36.5 140t-101 98t-147.5 36q-81 0 -145.5 -36t-102 -98t-37.5 -140t37.5 -140t102 -98.5t145.5 -36.5zM325 150q-45 0 -74 32t-29 81t29 80.5t74 31.5t74 -31.5t29 -80.5t-29 -81t-74 -32z" />
    <glyph glyph-name="p" unicode="p" horiz-adv-x="678" 
d="M60 -200h180v229q50 -41 134 -41q73 0 133 35t95.5 97.5t35.5 142.5q0 81 -35.5 142.5t-96 96.5t-136.5 35q-46 0 -84 -14t-66 -43v45h-160v-725zM349 150q-45 0 -77 30.5t-32 82.5q0 51 32 81.5t77 30.5t76 -30.5t31 -81.5q0 -52 -31 -82.5t-76 -30.5z" />
    <glyph glyph-name="q" unicode="q" horiz-adv-x="678" 
d="M438 -200h180v725h-160v-45q-28 29 -65.5 43t-84.5 14q-76 0 -136.5 -35t-96 -96.5t-35.5 -142.5q0 -80 35.5 -142.5t95.5 -97.5t133 -35q84 0 134 41v-229zM329 150q-45 0 -76 30.5t-31 82.5q0 51 31 81.5t76 30.5t77 -30.5t32 -81.5q0 -52 -32 -82.5t-77 -30.5z" />
    <glyph glyph-name="r" unicode="r" horiz-adv-x="417" 
d="M60 0h180v271q0 50 27.5 74t68.5 24q11 0 27.5 -1.5t26.5 -3.5h7v166q-9 3 -21.5 5t-29.5 2q-32 0 -68 -16t-58 -52v56h-160v-525z" />
    <glyph glyph-name="s" unicode="s" horiz-adv-x="528" 
d="M263 -12q104 0 164.5 46.5t60.5 125.5q0 48 -17 78.5t-44.5 48.5t-59.5 28t-62 17q-36 8 -61.5 18t-25.5 32q0 14 11.5 23t31.5 9t38 -12.5t22 -41.5l166 15q-4 76 -67 119t-166 43q-99 0 -157.5 -47.5t-58.5 -128.5q0 -45 17 -74t44.5 -47t59.5 -28t62 -18
q36 -9 61.5 -19t25.5 -31q0 -16 -13.5 -23.5t-33.5 -7.5q-26 0 -44 14.5t-23 47.5l-165 -15q2 -80 63.5 -126t170.5 -46z" />
    <glyph glyph-name="t" unicode="t" horiz-adv-x="440" 
d="M307 -12q26 0 52 4t41 11v130h-5q-17 -5 -37 -5q-28 0 -43 15t-15 41v191h100v150h-100v165h-10l-170 -60v-105h-90v-150h90v-210q0 -86 52.5 -131.5t134.5 -45.5z" />
    <glyph glyph-name="u" unicode="u" horiz-adv-x="600" 
d="M248 -12q37 0 76.5 13t65.5 41v-42h160v525h-180v-301q0 -34 -19 -55t-51 -21q-30 0 -50 21t-20 55v301h-180v-325q0 -63 24.5 -111t69 -74.5t104.5 -26.5z" />
    <glyph glyph-name="v" unicode="v" horiz-adv-x="637" 
d="M249 0h140l228 525h-186l-111 -265l-111 265h-189z" />
    <glyph glyph-name="w" unicode="w" horiz-adv-x="925" 
d="M216 0h136l105 282l96 -282h136l216 525h-193l-95 -237l-80 237h-145l-92 -234l-82 234h-198z" />
    <glyph glyph-name="x" unicode="x" horiz-adv-x="628" 
d="M20 0h204l90 126l90 -126h204l-195 266l185 259h-193l-91 -124l-91 124h-193l185 -259z" />
    <glyph glyph-name="y" unicode="y" horiz-adv-x="637" 
d="M152 -200q67 0 110.5 26.5t73 72t53.5 101.5l228 525h-186l-111 -264l-111 264h-189l207 -477l-7 -16q-18 -42 -45.5 -57t-53.5 -15q-15 0 -23.5 1.5t-13.5 3.5h-13v-150q14 -7 36 -11t45 -4z" />
    <glyph glyph-name="z" unicode="z" horiz-adv-x="509" 
d="M10 0h479v150h-223l212 305v70h-449v-150h203l-222 -305v-70z" />
    <glyph glyph-name="braceleft" unicode="{" horiz-adv-x="450" 
d="M366 -140h54v160h-20q-44 0 -55.5 14.5t-11.5 44.5v88q0 35 -7.5 57t-29.5 36.5t-67 25.5q60 13 82 39t22 78v88q0 35 15.5 47t51.5 12h20v160h-54q-101 0 -159.5 -48.5t-58.5 -136.5v-78q0 -48 -23 -71.5t-85 -23.5v-132q63 0 85.5 -24.5t22.5 -71.5v-79
q0 -85 57.5 -135t160.5 -50z" />
    <glyph glyph-name="bar" unicode="|" horiz-adv-x="400" 
d="M110 -100h180v855h-180v-855z" />
    <glyph glyph-name="braceright" unicode="}" horiz-adv-x="450" 
d="M30 -140h54q103 0 160.5 50t57.5 135v79q0 47 22.5 71.5t85.5 24.5v132q-61 0 -84.5 23.5t-23.5 71.5v78q0 88 -58.5 136.5t-159.5 48.5h-54v-160h20q36 0 51.5 -12t15.5 -47v-88q0 -52 22 -78t82 -39q-44 -11 -66.5 -25.5t-30 -36.5t-7.5 -57v-88q0 -30 -11.5 -44.5
t-55.5 -14.5h-20v-160z" />
    <glyph glyph-name="asciitilde" unicode="~" 
d="M448 177q77 0 121 49.5t34 139.5h-132q3 -30 -8.5 -42t-32.5 -12q-19 0 -35.5 8t-34.5 19t-42 19t-59 8q-47 0 -85 -22t-58 -64.5t-14 -102.5h132q-3 26 9 40t34 14q26 0 49.5 -13.5t52 -27t69.5 -13.5z" />
    <glyph glyph-name="uni00A0" unicode="&#xa0;" horiz-adv-x="220" 
 />
    <glyph glyph-name="exclamdown" unicode="&#xa1;" horiz-adv-x="348" 
d="M92 271h165l15 -462h-195zM174 537q42 0 73 -27t31 -76q0 -50 -31 -77.5t-73 -27.5t-73 27.5t-31 77.5q0 49 31 76t73 27z" />
    <glyph glyph-name="cent" unicode="&#xa2;" horiz-adv-x="631" 
d="M280 0h90v84q58 8 106 36t78 72.5t37 102.5l-165 15q-8 -24 -23 -38.5t-33 -21.5v211q18 -7 33 -21.5t23 -37.5l165 15q-7 59 -37 103t-78 71.5t-106 35.5v83h-90v-83q-70 -10 -124 -47.5t-85 -95.5t-31 -128t31 -128t85 -96t124 -48v-84zM222 356q0 36 16.5 62t41.5 39
v-202q-25 13 -41.5 39t-16.5 62z" />
    <glyph glyph-name="sterling" unicode="&#xa3;" horiz-adv-x="665" 
d="M40 0h585v158h-374q35 33 50 68t17 69h152v120h-170q-7 24 -13 43.5t-6 32.5q0 35 21.5 53t55.5 18q35 0 60 -20t27 -64l180 3q-7 109 -76 175t-201 66q-74 0 -131 -26.5t-89 -73.5t-32 -110q0 -22 5.5 -46.5t11.5 -50.5h-73v-120h79q-6 -30 -24 -62t-55 -65v-168z" />
    <glyph glyph-name="currency" unicode="&#xa4;" horiz-adv-x="641" 
d="M210 152q52 -29 111 -29q58 0 110 29l70 -71l90 90l-71 71q14 24 21.5 51.5t7.5 57.5q0 31 -7.5 59t-21.5 52l71 71l-90 89l-70 -70q-25 14 -53 21.5t-57 7.5q-30 0 -57.5 -7.5t-53.5 -21.5l-70 70l-90 -89l71 -72q-28 -50 -28 -110q0 -61 28 -109l-71 -71l90 -90z
M321 251q-43 0 -71.5 28.5t-28.5 71.5q0 44 28.5 73t71.5 29t71 -29t28 -73q0 -43 -28 -71.5t-71 -28.5z" />
    <glyph glyph-name="yen" unicode="&#xa5;" horiz-adv-x="704" 
d="M488 710l-136 -221l-137 221h-205l213 -339h-131v-120h167v-39h-167v-120h167v-92h185v92h168v120h-168v39h168v120h-132l214 339h-206z" />
    <glyph glyph-name="brokenbar" unicode="&#xa6;" horiz-adv-x="400" 
d="M110 388h180v367h-180v-367zM110 -100h180v367h-180v-367z" />
    <glyph glyph-name="section" unicode="&#xa7;" horiz-adv-x="540" 
d="M273 -79q63 0 114.5 21t82 60t30.5 93q0 50 -17.5 81t-45.5 50q29 20 46 48t17 62q0 49 -17.5 80.5t-45 50t-59.5 29t-62 17.5q-37 9 -63 19.5t-26 32.5q0 14 11.5 23t32.5 9q20 0 38 -10.5t22 -33.5h167q1 52 -31 90t-85 58.5t-118 20.5q-64 0 -113.5 -22t-77.5 -62
t-28 -94q0 -46 17.5 -76t44.5 -49q-29 -21 -45.5 -50.5t-16.5 -65.5q0 -46 17.5 -76.5t45.5 -49t60 -29t62 -18.5q35 -9 61.5 -19t26.5 -32q0 -16 -13.5 -23.5t-33.5 -7.5q-27 0 -45 12t-23 40h-167q0 -56 32.5 -96.5t86.5 -61.5t118 -21zM284 277q-27 7 -44 17.5t-17 29.5
q0 35 32 43q29 -7 48 -17.5t19 -29.5t-10.5 -29.5t-27.5 -13.5z" />
    <glyph glyph-name="dieresis" unicode="&#xa8;" horiz-adv-x="596" 
d="M174 574q42 0 73 25.5t31 71.5q0 47 -31 72.5t-73 25.5t-73 -25.5t-31 -72.5q0 -46 31 -71.5t73 -25.5zM422 574q42 0 73 25.5t31 71.5q0 47 -31 72.5t-73 25.5t-73 -25.5t-31 -72.5q0 -46 31 -71.5t73 -25.5z" />
    <glyph glyph-name="copyright" unicode="&#xa9;" horiz-adv-x="940" 
d="M470 -50q86 0 158.5 30.5t127 85.5t84.5 129t30 160q0 87 -30 160.5t-84 128.5t-127 85.5t-159 30.5q-85 0 -158 -30.5t-127.5 -85.5t-84.5 -128.5t-30 -160.5q0 -86 30 -160t84.5 -129t127.5 -85.5t158 -30.5zM470 68q-82 0 -145 37t-99 101.5t-36 148.5t36 148.5
t99 101.5t145 37t145 -37t99 -101.5t36 -148.5t-36 -148.5t-99 -101.5t-145 -37zM469 170q55 0 93 21t58.5 54t22.5 69l-112 7q-5 -21 -23.5 -30t-39.5 -9q-26 0 -48.5 19.5t-22.5 54.5q0 37 21.5 55t49.5 18q21 0 39.5 -9t23.5 -30l112 7q-2 36 -22.5 69t-58.5 54t-93 21
t-98.5 -24t-68.5 -66t-25 -95t25 -95.5t68.5 -66.5t98.5 -24z" />
    <glyph glyph-name="ordfeminine" unicode="&#xaa;" horiz-adv-x="446" 
d="M175 392q28 0 55 8t42 28v-29h104v205q0 53 -39 85t-113 32q-58 0 -101 -28t-49 -84l102 -4q5 17 17.5 24t27.5 7q18 0 31.5 -8.5t13.5 -23.5v-4l-91 -17q-24 -4 -48.5 -14.5t-40.5 -31t-16 -55.5q0 -40 29.5 -65t75.5 -25zM207 471q-13 0 -20.5 7.5t-7.5 16.5
q0 19 28 24l59 10v-6q0 -27 -17.5 -39.5t-41.5 -12.5z" />
    <glyph glyph-name="guillemotleft" unicode="&#xab;" horiz-adv-x="785" 
d="M531 50h214l-139 215l139 215h-214l-141 -215zM191 50h214l-139 215l139 215h-214l-141 -215z" />
    <glyph glyph-name="logicalnot" unicode="&#xac;" 
d="M449 0h166v344h-525v-160h359v-184z" />
    <glyph glyph-name="uni00AD" unicode="&#xad;" horiz-adv-x="531" 
d="M100 185h351v160h-351v-160z" />
    <glyph glyph-name="registered" unicode="&#xae;" horiz-adv-x="940" 
d="M470 -50q86 0 158.5 30.5t127 85.5t84.5 128.5t30 159.5q0 87 -30 160.5t-84 128.5t-127 85.5t-159 30.5q-85 0 -158 -30.5t-127.5 -85.5t-84.5 -128.5t-30 -160.5q0 -86 30 -159.5t84.5 -128.5t127.5 -85.5t158 -30.5zM470 68q-82 0 -145 36.5t-99 101t-36 148.5
t36 148.5t99 101.5t145 37t145 -37t99 -101.5t36 -148.5t-36 -148.5t-99 -101t-145 -36.5zM319 179h110v108h13l77 -108h131l-93 126q29 16 43.5 43.5t14.5 61.5q0 57 -33 90.5t-105 33.5h-158v-355zM429 383v55h49q11 0 17.5 -8.5t6.5 -19.5q0 -10 -6.5 -18.5t-17.5 -8.5
h-49z" />
    <glyph glyph-name="macron" unicode="&#xaf;" horiz-adv-x="484" 
d="M70 628h344v120h-344v-120z" />
    <glyph glyph-name="degree" unicode="&#xb0;" horiz-adv-x="512" 
d="M256 353q54 0 96 24t66 65.5t24 92.5q0 52 -24 93.5t-66 65.5t-96 24q-53 0 -95 -24t-66.5 -65.5t-24.5 -93.5q0 -51 24.5 -92.5t66.5 -65.5t95 -24zM256 458q-33 0 -54 23t-21 54q0 32 21.5 54.5t53.5 22.5t54 -22.5t22 -54.5q0 -31 -21.5 -54t-54.5 -23z" />
    <glyph glyph-name="plusminus" unicode="&#xb1;" 
d="M270 220h166v134h179v160h-179v134h-166v-134h-180v-160h180v-134zM90 0h525v160h-525v-160z" />
    <glyph glyph-name="uni00B2" unicode="&#xb2;" horiz-adv-x="378" 
d="M24 284h324v101h-158l85 79q30 28 48.5 59t18.5 68q0 56 -42.5 91t-109.5 35q-71 0 -117 -40t-50 -105l110 -2q2 28 17.5 39t33.5 11q20 0 32.5 -10t12.5 -26q0 -18 -20 -41t-65 -65l-120 -112v-82z" />
    <glyph glyph-name="uni00B3" unicode="&#xb3;" horiz-adv-x="388" 
d="M193 277q48 0 85 17t58.5 47.5t21.5 68.5q0 33 -17.5 58.5t-50.5 35.5q28 17 42 42.5t14 52.5q0 35 -20 61.5t-54.5 41.5t-77.5 15q-67 0 -110 -37t-47 -100l110 -2q2 42 46 42q17 0 28 -9.5t11 -27.5q0 -16 -11.5 -27t-31.5 -11h-43v-93h53q24 0 34.5 -10.5t10.5 -25.5
q0 -19 -14 -30.5t-37 -11.5q-24 0 -40 11.5t-18 30.5l-111 -1q5 -62 50.5 -100t118.5 -38z" />
    <glyph glyph-name="acute" unicode="&#xb4;" horiz-adv-x="398" 
d="M70 600h152l106 160h-188z" />
    <glyph glyph-name="uni00B5" unicode="&#xb5;" horiz-adv-x="635" 
d="M50 -155h180v145q8 -1 15 -1.5t13 -0.5q24 0 52 8t53 25.5t38 46.5q24 -37 71.5 -56.5t117.5 -19.5h20v140h-10q-20 0 -35 13.5t-15 38.5v341h-180v-305q0 -34 -18.5 -53t-51.5 -19q-30 0 -50 19t-20 53v305h-180v-680z" />
    <glyph glyph-name="paragraph" unicode="&#xb6;" horiz-adv-x="620" 
d="M273 -150h122v860h-122q-61 0 -111 -30t-80 -80t-30 -111t30 -111.5t80 -80.5t111 -30v-417zM445 -150h123v860h-123v-860z" />
    <glyph glyph-name="periodcentered" unicode="&#xb7;" horiz-adv-x="348" 
d="M174 159q42 0 73 27t31 76q0 50 -31 77.5t-73 27.5t-73 -27.5t-31 -77.5q0 -49 31 -76t73 -27z" />
    <glyph glyph-name="cedilla" unicode="&#xb8;" horiz-adv-x="335" 
d="M87 -44v-67h26q27 0 36.5 -4t9.5 -15q0 -8 -9.5 -11t-32.5 -3q-8 0 -23 1t-24 3v-72q10 -4 27.5 -6t36.5 -2q131 0 131 98q0 37 -21.5 60t-54.5 22l22 41v9h-94z" />
    <glyph glyph-name="uni00B9" unicode="&#xb9;" horiz-adv-x="279" 
d="M106 284h113v426h-89l-118 -69v-103l94 50v-304z" />
    <glyph glyph-name="ordmasculine" unicode="&#xba;" horiz-adv-x="483" 
d="M241 392q50 0 88.5 21.5t61 59t22.5 84.5t-22 84t-61 58.5t-89 21.5q-48 0 -87 -21.5t-61.5 -58.5t-22.5 -84t23 -84.5t61.5 -59t86.5 -21.5zM241 491q-25 0 -42.5 18.5t-17.5 47.5t17.5 47t42.5 18q26 0 43.5 -18t17.5 -47t-17.5 -47.5t-43.5 -18.5z" />
    <glyph glyph-name="guillemotright" unicode="&#xbb;" horiz-adv-x="785" 
d="M40 50h214l141 215l-141 215h-214l139 -215zM380 50h214l141 215l-141 215h-214l139 -215z" />
    <glyph glyph-name="onequarter" unicode="&#xbc;" horiz-adv-x="916" 
d="M106 284h113v426h-89l-118 -69v-103l94 50v-304zM79 0h150l499 710h-151zM718 0h113v85h55v101h-55v240h-140l-175 -234v-107h202v-85zM624 186l94 128v-128h-94z" />
    <glyph glyph-name="onehalf" unicode="&#xbd;" horiz-adv-x="906" 
d="M106 284h113v426h-89l-118 -69v-103l94 50v-304zM79 0h150l499 710h-151zM552 0h324v101h-158l85 79q30 28 48.5 59t18.5 68q0 56 -42.5 91t-109.5 35q-71 0 -117 -40t-50 -105l110 -2q2 28 17.5 39t33.5 11q20 0 32.5 -10t12.5 -26q0 -18 -20 -41t-65 -65l-120 -112v-82
z" />
    <glyph glyph-name="threequarters" unicode="&#xbe;" horiz-adv-x="1025" 
d="M193 277q48 0 85 17t58.5 47.5t21.5 68.5q0 33 -17.5 58.5t-50.5 35.5q28 17 42 42.5t14 52.5q0 35 -20 61.5t-54.5 41.5t-77.5 15q-67 0 -110 -37t-47 -100l110 -2q2 42 46 42q17 0 28 -9.5t11 -27.5q0 -16 -11.5 -27t-31.5 -11h-43v-93h53q24 0 34.5 -10.5t10.5 -25.5
q0 -19 -14 -30.5t-37 -11.5q-24 0 -40 11.5t-18 30.5l-111 -1q5 -62 50.5 -100t118.5 -38zM188 0h150l499 710h-151zM827 0h113v85h55v101h-55v240h-140l-175 -234v-107h202v-85zM733 186l94 128v-128h-94z" />
    <glyph glyph-name="questiondown" unicode="&#xbf;" horiz-adv-x="583" 
d="M393 271h-173v-11q0 -18 -12 -40t-45 -49q-60 -49 -86.5 -87t-26.5 -91q0 -55 29 -96t82 -64.5t125 -23.5q118 0 185.5 61t71.5 160l-180 3q-2 -33 -21 -48.5t-45 -15.5t-43 12t-17 36q0 23 20 43.5t48 40.5q39 28 57.5 54.5t24.5 52t6 52.5v11zM301 537q-42 0 -73 -27
t-31 -76q0 -50 31 -77.5t73 -27.5t73 27.5t31 77.5q0 49 -31 76t-73 27z" />
    <glyph glyph-name="Agrave" unicode="&#xc0;" horiz-adv-x="780" 
d="M20 0h205l46 132h241l47 -132h201l-276 710h-189zM329 297l62 178l63 -178h-125zM314 785h152l-70 160h-188z" />
    <glyph glyph-name="Aacute" unicode="&#xc1;" horiz-adv-x="780" 
d="M20 0h205l46 132h241l47 -132h201l-276 710h-189zM329 297l62 178l63 -178h-125zM314 785h152l106 160h-188z" />
    <glyph glyph-name="Acircumflex" unicode="&#xc2;" horiz-adv-x="780" 
d="M20 0h205l46 132h241l47 -132h201l-276 710h-189zM329 297l62 178l63 -178h-125zM170 785h168l52 81l52 -81h168l-118 160h-204z" />
    <glyph glyph-name="Atilde" unicode="&#xc3;" horiz-adv-x="780" 
d="M20 0h205l46 132h241l47 -132h201l-276 710h-189zM329 297l62 178l63 -178h-125zM462 785q50 0 85 38t36 112h-96q0 -25 -8.5 -38t-28.5 -13q-17 0 -33.5 12.5t-39.5 25.5t-60 13q-50 0 -85 -36.5t-35 -113.5h96q0 51 37 51q19 0 35 -13t38 -25.5t59 -12.5z" />
    <glyph glyph-name="Adieresis" unicode="&#xc4;" horiz-adv-x="780" 
d="M20 0h205l46 132h241l47 -132h201l-276 710h-189zM329 297l62 178l63 -178h-125zM266 759q42 0 73 25.5t31 71.5q0 47 -31 72.5t-73 25.5t-73 -25.5t-31 -72.5q0 -46 31 -71.5t73 -25.5zM514 759q42 0 73 25.5t31 71.5q0 47 -31 72.5t-73 25.5t-73 -25.5t-31 -72.5
q0 -46 31 -71.5t73 -25.5z" />
    <glyph glyph-name="Aring" unicode="&#xc5;" horiz-adv-x="780" 
d="M20 0h205l46 132h241l47 -132h201l-276 710h-189zM329 297l62 178l63 -178h-125zM390 775q46 0 78 31t32 80q0 47 -32 78t-78 31t-78 -31t-32 -78q0 -49 32 -80t78 -31zM390 847q-16 0 -26 11t-10 28q0 16 10 26.5t26 10.5t26 -10.5t10 -26.5q0 -17 -10 -28t-26 -11z" />
    <glyph glyph-name="AE" unicode="&#xc6;" horiz-adv-x="1044" 
d="M1014 710h-719l-275 -710h205l46 132h253v-132h490v165h-305v110h265v160h-265v110h305v165zM415 545h109v-248h-195z" />
    <glyph glyph-name="Ccedilla" unicode="&#xc7;" horiz-adv-x="812" 
d="M425 -12q105 0 179 36t117 95.5t51 127.5l-180 15q-6 -32 -31 -57t-60 -38.5t-74 -13.5q-59 0 -102.5 26t-66.5 72t-23 104q0 59 23 104.5t66.5 71.5t102.5 26q39 0 74 -13.5t60 -38t31 -57.5l180 15q-8 69 -51 128t-117 95t-179 36q-84 0 -152.5 -27.5t-118.5 -77.5
t-77 -117t-27 -145t27 -145t77 -117t118.5 -77.5t152.5 -27.5zM325 -44v-67h26q27 0 36.5 -4t9.5 -15q0 -8 -9.5 -11t-32.5 -3q-8 0 -23 1t-24 3v-72q10 -4 27.5 -6t36.5 -2q131 0 131 98q0 37 -21.5 60t-54.5 22l22 41v9h-94z" />
    <glyph glyph-name="Egrave" unicode="&#xc8;" horiz-adv-x="590" 
d="M70 0h490v165h-305v110h265v160h-265v110h305v165h-490v-710zM219 785h152l-70 160h-188z" />
    <glyph glyph-name="Eacute" unicode="&#xc9;" horiz-adv-x="590" 
d="M70 0h490v165h-305v110h265v160h-265v110h305v165h-490v-710zM219 785h152l106 160h-188z" />
    <glyph glyph-name="Ecircumflex" unicode="&#xca;" horiz-adv-x="590" 
d="M70 0h490v165h-305v110h265v160h-265v110h305v165h-490v-710zM75 785h168l52 81l52 -81h168l-118 160h-204z" />
    <glyph glyph-name="Edieresis" unicode="&#xcb;" horiz-adv-x="590" 
d="M70 0h490v165h-305v110h265v160h-265v110h305v165h-490v-710zM171 759q42 0 73 25.5t31 71.5q0 47 -31 72.5t-73 25.5t-73 -25.5t-31 -72.5q0 -46 31 -71.5t73 -25.5zM419 759q42 0 73 25.5t31 71.5q0 47 -31 72.5t-73 25.5t-73 -25.5t-31 -72.5q0 -46 31 -71.5t73 -25.5
z" />
    <glyph glyph-name="Igrave" unicode="&#xcc;" horiz-adv-x="325" 
d="M70 0h185v710h-185v-710zM87 785h152l-70 160h-188z" />
    <glyph glyph-name="Iacute" unicode="&#xcd;" horiz-adv-x="325" 
d="M70 0h185v710h-185v-710zM87 785h152l106 160h-188z" />
    <glyph glyph-name="Icircumflex" unicode="&#xce;" horiz-adv-x="325" 
d="M70 0h185v710h-185v-710zM-57 785h168l52 81l52 -81h168l-118 160h-204z" />
    <glyph glyph-name="Idieresis" unicode="&#xcf;" horiz-adv-x="325" 
d="M70 0h185v710h-185v-710zM39 759q42 0 73 25.5t31 71.5q0 47 -31 72.5t-73 25.5t-73 -25.5t-31 -72.5q0 -46 31 -71.5t73 -25.5zM287 759q42 0 73 25.5t31 71.5q0 47 -31 72.5t-73 25.5t-73 -25.5t-31 -72.5q0 -46 31 -71.5t73 -25.5z" />
    <glyph glyph-name="Eth" unicode="&#xd0;" horiz-adv-x="770" 
d="M70 0h255q124 0 212 42t135.5 121.5t47.5 191.5q0 170 -103.5 262.5t-291.5 92.5h-255v-710zM255 165v380h77q98 0 150.5 -51.5t52.5 -138.5q0 -91 -52.5 -140.5t-150.5 -49.5h-77zM-12 275h350v160h-350v-160z" />
    <glyph glyph-name="Ntilde" unicode="&#xd1;" horiz-adv-x="765" 
d="M70 0h182v387l268 -387h175v710h-182v-380l-268 380h-175v-710zM455 785q50 0 85 38t36 112h-96q0 -25 -8.5 -38t-28.5 -13q-17 0 -33.5 12.5t-39.5 25.5t-60 13q-50 0 -85 -36.5t-35 -113.5h96q0 51 37 51q19 0 35 -13t38 -25.5t59 -12.5z" />
    <glyph glyph-name="Ograve" unicode="&#xd2;" horiz-adv-x="855" 
d="M427 -12q83 0 152 28t119.5 77.5t78.5 116.5t28 145t-28.5 145t-79.5 116.5t-120 77.5t-150 28t-150 -27.5t-119.5 -77.5t-79 -117t-28.5 -145t28 -145t79 -117t119.5 -77.5t150.5 -27.5zM427 156q-55 0 -98 25t-67 70t-24 104t24 104t67 70t98 25q56 0 99 -25t67 -70
t24 -104t-24 -104t-67 -70t-99 -25zM352 785h152l-70 160h-188z" />
    <glyph glyph-name="Oacute" unicode="&#xd3;" horiz-adv-x="855" 
d="M427 -12q83 0 152 28t119.5 77.5t78.5 116.5t28 145t-28.5 145t-79.5 116.5t-120 77.5t-150 28t-150 -27.5t-119.5 -77.5t-79 -117t-28.5 -145t28 -145t79 -117t119.5 -77.5t150.5 -27.5zM427 156q-55 0 -98 25t-67 70t-24 104t24 104t67 70t98 25q56 0 99 -25t67 -70
t24 -104t-24 -104t-67 -70t-99 -25zM352 785h152l106 160h-188z" />
    <glyph glyph-name="Ocircumflex" unicode="&#xd4;" horiz-adv-x="855" 
d="M427 -12q83 0 152 28t119.5 77.5t78.5 116.5t28 145t-28.5 145t-79.5 116.5t-120 77.5t-150 28t-150 -27.5t-119.5 -77.5t-79 -117t-28.5 -145t28 -145t79 -117t119.5 -77.5t150.5 -27.5zM427 156q-55 0 -98 25t-67 70t-24 104t24 104t67 70t98 25q56 0 99 -25t67 -70
t24 -104t-24 -104t-67 -70t-99 -25zM208 785h168l52 81l52 -81h168l-118 160h-204z" />
    <glyph glyph-name="Otilde" unicode="&#xd5;" horiz-adv-x="855" 
d="M427 -12q83 0 152 28t119.5 77.5t78.5 116.5t28 145t-28.5 145t-79.5 116.5t-120 77.5t-150 28t-150 -27.5t-119.5 -77.5t-79 -117t-28.5 -145t28 -145t79 -117t119.5 -77.5t150.5 -27.5zM427 156q-55 0 -98 25t-67 70t-24 104t24 104t67 70t98 25q56 0 99 -25t67 -70
t24 -104t-24 -104t-67 -70t-99 -25zM500 785q50 0 85 38t36 112h-96q0 -25 -8.5 -38t-28.5 -13q-17 0 -33.5 12.5t-39.5 25.5t-60 13q-50 0 -85 -36.5t-35 -113.5h96q0 51 37 51q19 0 35 -13t38 -25.5t59 -12.5z" />
    <glyph glyph-name="Odieresis" unicode="&#xd6;" horiz-adv-x="855" 
d="M427 -12q83 0 152 28t119.5 77.5t78.5 116.5t28 145t-28.5 145t-79.5 116.5t-120 77.5t-150 28t-150 -27.5t-119.5 -77.5t-79 -117t-28.5 -145t28 -145t79 -117t119.5 -77.5t150.5 -27.5zM427 156q-55 0 -98 25t-67 70t-24 104t24 104t67 70t98 25q56 0 99 -25t67 -70
t24 -104t-24 -104t-67 -70t-99 -25zM304 759q42 0 73 25.5t31 71.5q0 47 -31 72.5t-73 25.5t-73 -25.5t-31 -72.5q0 -46 31 -71.5t73 -25.5zM552 759q42 0 73 25.5t31 71.5q0 47 -31 72.5t-73 25.5t-73 -25.5t-31 -72.5q0 -46 31 -71.5t73 -25.5z" />
    <glyph glyph-name="multiply" unicode="&#xd7;" 
d="M196 0l157 151l156 -151l113 113l-156 151l156 151l-113 113l-156 -151l-157 151l-113 -113l156 -151l-156 -151z" />
    <glyph glyph-name="Oslash" unicode="&#xd8;" horiz-adv-x="855" 
d="M427 -12q83 0 152 28t119.5 77.5t78.5 116.5t28 145t-28.5 145t-79.5 116.5t-120 77.5t-150 28t-150 -27.5t-119.5 -77.5t-79 -117t-28.5 -145t28 -145t79 -117t119.5 -77.5t150.5 -27.5zM427 156q-55 0 -98 25t-67 70t-24 104t24 104t67 70t98 25q56 0 99 -25t67 -70
t24 -104t-24 -104t-67 -70t-99 -25zM17 0h139l682 710h-139z" />
    <glyph glyph-name="Ugrave" unicode="&#xd9;" horiz-adv-x="726" 
d="M363 -12q81 0 149.5 34t110 97.5t41.5 150.5v440h-186v-428q0 -61 -31 -95t-84 -34q-52 0 -83.5 34t-31.5 95v428h-186v-440q0 -87 41.5 -150.5t110.5 -97.5t149 -34zM287 785h152l-70 160h-188z" />
    <glyph glyph-name="Uacute" unicode="&#xda;" horiz-adv-x="726" 
d="M363 -12q81 0 149.5 34t110 97.5t41.5 150.5v440h-186v-428q0 -61 -31 -95t-84 -34q-52 0 -83.5 34t-31.5 95v428h-186v-440q0 -87 41.5 -150.5t110.5 -97.5t149 -34zM287 785h152l106 160h-188z" />
    <glyph glyph-name="Ucircumflex" unicode="&#xdb;" horiz-adv-x="726" 
d="M363 -12q81 0 149.5 34t110 97.5t41.5 150.5v440h-186v-428q0 -61 -31 -95t-84 -34q-52 0 -83.5 34t-31.5 95v428h-186v-440q0 -87 41.5 -150.5t110.5 -97.5t149 -34zM143 785h168l52 81l52 -81h168l-118 160h-204z" />
    <glyph glyph-name="Udieresis" unicode="&#xdc;" horiz-adv-x="726" 
d="M363 -12q81 0 149.5 34t110 97.5t41.5 150.5v440h-186v-428q0 -61 -31 -95t-84 -34q-52 0 -83.5 34t-31.5 95v428h-186v-440q0 -87 41.5 -150.5t110.5 -97.5t149 -34zM239 759q42 0 73 25.5t31 71.5q0 47 -31 72.5t-73 25.5t-73 -25.5t-31 -72.5q0 -46 31 -71.5t73 -25.5
zM487 759q42 0 73 25.5t31 71.5q0 47 -31 72.5t-73 25.5t-73 -25.5t-31 -72.5q0 -46 31 -71.5t73 -25.5z" />
    <glyph glyph-name="Yacute" unicode="&#xdd;" horiz-adv-x="724" 
d="M269 0h185v314l250 396h-206l-136 -221l-137 221h-205l249 -396v-314zM286 785h152l106 160h-188z" />
    <glyph glyph-name="Thorn" unicode="&#xde;" horiz-adv-x="645" 
d="M70 0h185v121h94q85 0 142 30t85.5 83t28.5 121q0 108 -62.5 171.5t-193.5 63.5h-94v120h-185v-710zM255 281v149h95q32 0 52 -19.5t20 -54.5q0 -31 -20 -53t-52 -22h-95z" />
    <glyph glyph-name="germandbls" unicode="&#xdf;" horiz-adv-x="699" 
d="M60 0h180v466q0 44 29 70t74 26q43 0 67 -15t24 -41t-17 -41.5t-50 -15.5h-34v-160h74q32 0 51 -18t19 -48q0 -28 -19.5 -45.5t-50.5 -17.5h-74v-160h61q68 0 118 19.5t82.5 51.5t48.5 71t16 78q0 56 -29.5 98t-74.5 58q28 23 41 48t16.5 48.5t3.5 39.5q0 64 -34.5 111
t-98 73t-150.5 26q-84 0 -145 -31.5t-94.5 -88.5t-33.5 -136v-466z" />
    <glyph glyph-name="agrave" unicode="&#xe0;" horiz-adv-x="627" 
d="M215 -12q47 0 92 14t70 47v-49h170v342q0 87 -64 141t-188 54q-64 0 -118 -21t-89 -62.5t-42 -103.5l168 -6q8 29 29 41t48 12q32 0 54 -14.5t22 -40.5v-7l-152 -28q-41 -7 -81.5 -25t-67 -52t-26.5 -91q0 -67 48.5 -109t126.5 -42zM267 118q-23 0 -36 12.5t-13 28.5
q0 20 13.5 29.5t35.5 13.5l100 17v-13q0 -46 -29.5 -67t-70.5 -21zM238 600h152l-70 160h-188z" />
    <glyph glyph-name="aacute" unicode="&#xe1;" horiz-adv-x="627" 
d="M215 -12q47 0 92 14t70 47v-49h170v342q0 87 -64 141t-188 54q-64 0 -118 -21t-89 -62.5t-42 -103.5l168 -6q8 29 29 41t48 12q32 0 54 -14.5t22 -40.5v-7l-152 -28q-41 -7 -81.5 -25t-67 -52t-26.5 -91q0 -67 48.5 -109t126.5 -42zM267 118q-23 0 -36 12.5t-13 28.5
q0 20 13.5 29.5t35.5 13.5l100 17v-13q0 -46 -29.5 -67t-70.5 -21zM238 600h152l106 160h-188z" />
    <glyph glyph-name="acircumflex" unicode="&#xe2;" horiz-adv-x="627" 
d="M215 -12q47 0 92 14t70 47v-49h170v342q0 87 -64 141t-188 54q-64 0 -118 -21t-89 -62.5t-42 -103.5l168 -6q8 29 29 41t48 12q32 0 54 -14.5t22 -40.5v-7l-152 -28q-41 -7 -81.5 -25t-67 -52t-26.5 -91q0 -67 48.5 -109t126.5 -42zM267 118q-23 0 -36 12.5t-13 28.5
q0 20 13.5 29.5t35.5 13.5l100 17v-13q0 -46 -29.5 -67t-70.5 -21zM94 600h168l52 81l52 -81h168l-118 160h-204z" />
    <glyph glyph-name="atilde" unicode="&#xe3;" horiz-adv-x="627" 
d="M215 -12q47 0 92 14t70 47v-49h170v342q0 87 -64 141t-188 54q-64 0 -118 -21t-89 -62.5t-42 -103.5l168 -6q8 29 29 41t48 12q32 0 54 -14.5t22 -40.5v-7l-152 -28q-41 -7 -81.5 -25t-67 -52t-26.5 -91q0 -67 48.5 -109t126.5 -42zM267 118q-23 0 -36 12.5t-13 28.5
q0 20 13.5 29.5t35.5 13.5l100 17v-13q0 -46 -29.5 -67t-70.5 -21zM386 600q50 0 85 38t36 112h-96q0 -25 -8.5 -38t-28.5 -13q-17 0 -33.5 12.5t-39.5 25.5t-60 13q-50 0 -85 -36.5t-35 -113.5h96q0 51 37 51q19 0 35 -13t38 -25.5t59 -12.5z" />
    <glyph glyph-name="adieresis" unicode="&#xe4;" horiz-adv-x="627" 
d="M215 -12q47 0 92 14t70 47v-49h170v342q0 87 -64 141t-188 54q-64 0 -118 -21t-89 -62.5t-42 -103.5l168 -6q8 29 29 41t48 12q32 0 54 -14.5t22 -40.5v-7l-152 -28q-41 -7 -81.5 -25t-67 -52t-26.5 -91q0 -67 48.5 -109t126.5 -42zM267 118q-23 0 -36 12.5t-13 28.5
q0 20 13.5 29.5t35.5 13.5l100 17v-13q0 -46 -29.5 -67t-70.5 -21zM190 574q42 0 73 25.5t31 71.5q0 47 -31 72.5t-73 25.5t-73 -25.5t-31 -72.5q0 -46 31 -71.5t73 -25.5zM438 574q42 0 73 25.5t31 71.5q0 47 -31 72.5t-73 25.5t-73 -25.5t-31 -72.5q0 -46 31 -71.5
t73 -25.5z" />
    <glyph glyph-name="aring" unicode="&#xe5;" horiz-adv-x="627" 
d="M215 -12q47 0 92 14t70 47v-49h170v342q0 87 -64 141t-188 54q-64 0 -118 -21t-89 -62.5t-42 -103.5l168 -6q8 29 29 41t48 12q32 0 54 -14.5t22 -40.5v-7l-152 -28q-41 -7 -81.5 -25t-67 -52t-26.5 -91q0 -67 48.5 -109t126.5 -42zM267 118q-23 0 -36 12.5t-13 28.5
q0 20 13.5 29.5t35.5 13.5l100 17v-13q0 -46 -29.5 -67t-70.5 -21zM314 590q46 0 78 31t32 80q0 47 -32 78t-78 31t-78 -31t-32 -78q0 -49 32 -80t78 -31zM314 662q-16 0 -26 11t-10 28q0 16 10 26.5t26 10.5t26 -10.5t10 -26.5q0 -17 -10 -28t-26 -11z" />
    <glyph glyph-name="ae" unicode="&#xe6;" horiz-adv-x="971" 
d="M215 -12q47 0 92 14t70 47v-49h170v10q54 -22 116 -22q96 0 165 47.5t97 134.5l-172 6q-10 -22 -32 -35t-59 -13q-21 0 -43.5 8.5t-39.5 27t-22 49.5h364q10 24 10 76q0 63 -32 119.5t-93.5 92.5t-151.5 36q-49 0 -92 -14.5t-78 -40.5q-32 26 -79 40.5t-110 14.5
q-64 0 -118 -21t-89 -62.5t-42 -103.5l168 -6q8 29 29 41t48 12q32 0 54 -14.5t22 -40.5v-7l-152 -28q-41 -7 -81.5 -25t-67 -52t-26.5 -91q0 -67 48.5 -109t126.5 -42zM556 328q5 30 21 47t37.5 24.5t39.5 7.5q38 0 67 -20.5t31 -58.5h-196zM267 118q-23 0 -36 12.5
t-13 28.5q0 20 13.5 29.5t35.5 13.5l100 17v-13q0 -46 -29.5 -67t-70.5 -21z" />
    <glyph glyph-name="ccedilla" unicode="&#xe7;" horiz-adv-x="631" 
d="M325 -12q69 0 126.5 26t95 74.5t44.5 113.5l-165 15q-13 -37 -40 -52t-59 -15q-40 0 -72.5 30.5t-32.5 82.5q0 53 32.5 82.5t72.5 29.5q32 0 59 -15t40 -51l165 15q-7 66 -44.5 113.5t-95 73.5t-126.5 26q-81 0 -145.5 -36t-102 -98t-37.5 -140q0 -77 37.5 -139.5
t102 -99t145.5 -36.5zM235 -44v-67h26q27 0 36.5 -4t9.5 -15q0 -8 -9.5 -11t-32.5 -3q-8 0 -23 1t-24 3v-72q10 -4 27.5 -6t36.5 -2q131 0 131 98q0 37 -21.5 60t-54.5 22l22 41v9h-94z" />
    <glyph glyph-name="egrave" unicode="&#xe8;" horiz-adv-x="634" 
d="M326 -12q96 0 165 47.5t97 134.5l-172 6q-10 -22 -32 -35t-59 -13q-21 0 -43.5 8.5t-39.5 27t-22 49.5h364q10 24 10 76q0 63 -32 119.5t-93.5 92.5t-151.5 36q-78 0 -141 -36t-99.5 -98t-36.5 -140q0 -77 37.5 -139.5t102.5 -99t146 -36.5zM219 328q5 30 21 47
t37.5 24.5t39.5 7.5q38 0 67 -20.5t31 -58.5h-196zM241 600h152l-70 160h-188z" />
    <glyph glyph-name="eacute" unicode="&#xe9;" horiz-adv-x="634" 
d="M326 -12q96 0 165 47.5t97 134.5l-172 6q-10 -22 -32 -35t-59 -13q-21 0 -43.5 8.5t-39.5 27t-22 49.5h364q10 24 10 76q0 63 -32 119.5t-93.5 92.5t-151.5 36q-78 0 -141 -36t-99.5 -98t-36.5 -140q0 -77 37.5 -139.5t102.5 -99t146 -36.5zM219 328q5 30 21 47
t37.5 24.5t39.5 7.5q38 0 67 -20.5t31 -58.5h-196zM241 600h152l106 160h-188z" />
    <glyph glyph-name="ecircumflex" unicode="&#xea;" horiz-adv-x="634" 
d="M326 -12q96 0 165 47.5t97 134.5l-172 6q-10 -22 -32 -35t-59 -13q-21 0 -43.5 8.5t-39.5 27t-22 49.5h364q10 24 10 76q0 63 -32 119.5t-93.5 92.5t-151.5 36q-78 0 -141 -36t-99.5 -98t-36.5 -140q0 -77 37.5 -139.5t102.5 -99t146 -36.5zM219 328q5 30 21 47
t37.5 24.5t39.5 7.5q38 0 67 -20.5t31 -58.5h-196zM97 600h168l52 81l52 -81h168l-118 160h-204z" />
    <glyph glyph-name="edieresis" unicode="&#xeb;" horiz-adv-x="634" 
d="M326 -12q96 0 165 47.5t97 134.5l-172 6q-10 -22 -32 -35t-59 -13q-21 0 -43.5 8.5t-39.5 27t-22 49.5h364q10 24 10 76q0 63 -32 119.5t-93.5 92.5t-151.5 36q-78 0 -141 -36t-99.5 -98t-36.5 -140q0 -77 37.5 -139.5t102.5 -99t146 -36.5zM219 328q5 30 21 47
t37.5 24.5t39.5 7.5q38 0 67 -20.5t31 -58.5h-196zM193 574q42 0 73 25.5t31 71.5q0 47 -31 72.5t-73 25.5t-73 -25.5t-31 -72.5q0 -46 31 -71.5t73 -25.5zM441 574q42 0 73 25.5t31 71.5q0 47 -31 72.5t-73 25.5t-73 -25.5t-31 -72.5q0 -46 31 -71.5t73 -25.5z" />
    <glyph glyph-name="igrave" unicode="&#xec;" horiz-adv-x="300" 
d="M60 0h180v525h-180v-525zM74 600h152l-70 160h-188z" />
    <glyph glyph-name="iacute" unicode="&#xed;" horiz-adv-x="300" 
d="M60 0h180v525h-180v-525zM74 600h152l106 160h-188z" />
    <glyph glyph-name="icircumflex" unicode="&#xee;" horiz-adv-x="300" 
d="M60 0h180v525h-180v-525zM-70 600h168l52 81l52 -81h168l-118 160h-204z" />
    <glyph glyph-name="idieresis" unicode="&#xef;" horiz-adv-x="300" 
d="M60 0h180v525h-180v-525zM26 574q42 0 73 25.5t31 71.5q0 47 -31 72.5t-73 25.5t-73 -25.5t-31 -72.5q0 -46 31 -71.5t73 -25.5zM274 574q42 0 73 25.5t31 71.5q0 47 -31 72.5t-73 25.5t-73 -25.5t-31 -72.5q0 -46 31 -71.5t73 -25.5z" />
    <glyph glyph-name="eth" unicode="&#xf0;" horiz-adv-x="610" 
d="M305 -12q77 0 136.5 33.5t94 99t34.5 162.5q0 86 -26 158t-76 132l99 29l-22 75l-141 -40q-56 47 -128 85l-97 -75q22 -12 42.5 -25t38.5 -27l-109 -31l22 -75l153 44q30 -38 44 -79q-22 8 -44 10.5t-41 2.5q-67 0 -122.5 -29t-89 -79.5t-33.5 -116.5q0 -78 34.5 -135
t94.5 -88t136 -31zM305 150q-34 0 -58.5 24t-24.5 68q0 45 24.5 69t58.5 24q35 0 59 -24t24 -69q0 -44 -24 -68t-59 -24z" />
    <glyph glyph-name="ntilde" unicode="&#xf1;" horiz-adv-x="614" 
d="M60 0h180v301q0 35 19.5 55.5t50.5 20.5q33 0 53.5 -20.5t20.5 -55.5v-301h180v315q0 103 -53.5 162.5t-144.5 59.5q-38 0 -80 -15.5t-66 -49.5v53h-160v-525zM379 600q50 0 85 38t36 112h-96q0 -25 -8.5 -38t-28.5 -13q-17 0 -33.5 12.5t-39.5 25.5t-60 13
q-50 0 -85 -36.5t-35 -113.5h96q0 51 37 51q19 0 35 -13t38 -25.5t59 -12.5z" />
    <glyph glyph-name="ograve" unicode="&#xf2;" horiz-adv-x="650" 
d="M325 -12q82 0 146.5 36t101.5 98.5t37 140.5t-36.5 140t-101 98t-147.5 36q-81 0 -145.5 -36t-102 -98t-37.5 -140t37.5 -140t102 -98.5t145.5 -36.5zM325 150q-45 0 -74 32t-29 81t29 80.5t74 31.5t74 -31.5t29 -80.5t-29 -81t-74 -32zM249 600h152l-70 160h-188z" />
    <glyph glyph-name="oacute" unicode="&#xf3;" horiz-adv-x="650" 
d="M325 -12q82 0 146.5 36t101.5 98.5t37 140.5t-36.5 140t-101 98t-147.5 36q-81 0 -145.5 -36t-102 -98t-37.5 -140t37.5 -140t102 -98.5t145.5 -36.5zM325 150q-45 0 -74 32t-29 81t29 80.5t74 31.5t74 -31.5t29 -80.5t-29 -81t-74 -32zM249 600h152l106 160h-188z" />
    <glyph glyph-name="ocircumflex" unicode="&#xf4;" horiz-adv-x="650" 
d="M325 -12q82 0 146.5 36t101.5 98.5t37 140.5t-36.5 140t-101 98t-147.5 36q-81 0 -145.5 -36t-102 -98t-37.5 -140t37.5 -140t102 -98.5t145.5 -36.5zM325 150q-45 0 -74 32t-29 81t29 80.5t74 31.5t74 -31.5t29 -80.5t-29 -81t-74 -32zM105 600h168l52 81l52 -81h168
l-118 160h-204z" />
    <glyph glyph-name="otilde" unicode="&#xf5;" horiz-adv-x="650" 
d="M325 -12q82 0 146.5 36t101.5 98.5t37 140.5t-36.5 140t-101 98t-147.5 36q-81 0 -145.5 -36t-102 -98t-37.5 -140t37.5 -140t102 -98.5t145.5 -36.5zM325 150q-45 0 -74 32t-29 81t29 80.5t74 31.5t74 -31.5t29 -80.5t-29 -81t-74 -32zM397 600q50 0 85 38t36 112h-96
q0 -25 -8.5 -38t-28.5 -13q-17 0 -33.5 12.5t-39.5 25.5t-60 13q-50 0 -85 -36.5t-35 -113.5h96q0 51 37 51q19 0 35 -13t38 -25.5t59 -12.5z" />
    <glyph glyph-name="odieresis" unicode="&#xf6;" horiz-adv-x="650" 
d="M325 -12q82 0 146.5 36t101.5 98.5t37 140.5t-36.5 140t-101 98t-147.5 36q-81 0 -145.5 -36t-102 -98t-37.5 -140t37.5 -140t102 -98.5t145.5 -36.5zM325 150q-45 0 -74 32t-29 81t29 80.5t74 31.5t74 -31.5t29 -80.5t-29 -81t-74 -32zM201 574q42 0 73 25.5t31 71.5
q0 47 -31 72.5t-73 25.5t-73 -25.5t-31 -72.5q0 -46 31 -71.5t73 -25.5zM449 574q42 0 73 25.5t31 71.5q0 47 -31 72.5t-73 25.5t-73 -25.5t-31 -72.5q0 -46 31 -71.5t73 -25.5z" />
    <glyph glyph-name="divide" unicode="&#xf7;" 
d="M268 430h170v160h-170v-160zM90 225h525v140h-525v-140zM268 0h170v160h-170v-160z" />
    <glyph glyph-name="oslash" unicode="&#xf8;" horiz-adv-x="650" 
d="M325 -12q82 0 146.5 36t101.5 98.5t37 140.5t-36.5 140t-101 98t-147.5 36q-81 0 -145.5 -36t-102 -98t-37.5 -140t37.5 -140t102 -98.5t145.5 -36.5zM325 150q-45 0 -74 32t-29 81t29 80.5t74 31.5t74 -31.5t29 -80.5t-29 -81t-74 -32zM3 0h139l504 525h-139z" />
    <glyph glyph-name="ugrave" unicode="&#xf9;" horiz-adv-x="600" 
d="M248 -12q37 0 76.5 13t65.5 41v-42h160v525h-180v-301q0 -34 -19 -55t-51 -21q-30 0 -50 21t-20 55v301h-180v-325q0 -63 24.5 -111t69 -74.5t104.5 -26.5zM224 600h152l-70 160h-188z" />
    <glyph glyph-name="uacute" unicode="&#xfa;" horiz-adv-x="600" 
d="M248 -12q37 0 76.5 13t65.5 41v-42h160v525h-180v-301q0 -34 -19 -55t-51 -21q-30 0 -50 21t-20 55v301h-180v-325q0 -63 24.5 -111t69 -74.5t104.5 -26.5zM224 600h152l106 160h-188z" />
    <glyph glyph-name="ucircumflex" unicode="&#xfb;" horiz-adv-x="600" 
d="M248 -12q37 0 76.5 13t65.5 41v-42h160v525h-180v-301q0 -34 -19 -55t-51 -21q-30 0 -50 21t-20 55v301h-180v-325q0 -63 24.5 -111t69 -74.5t104.5 -26.5zM80 600h168l52 81l52 -81h168l-118 160h-204z" />
    <glyph glyph-name="udieresis" unicode="&#xfc;" horiz-adv-x="600" 
d="M248 -12q37 0 76.5 13t65.5 41v-42h160v525h-180v-301q0 -34 -19 -55t-51 -21q-30 0 -50 21t-20 55v301h-180v-325q0 -63 24.5 -111t69 -74.5t104.5 -26.5zM176 574q42 0 73 25.5t31 71.5q0 47 -31 72.5t-73 25.5t-73 -25.5t-31 -72.5q0 -46 31 -71.5t73 -25.5zM424 574
q42 0 73 25.5t31 71.5q0 47 -31 72.5t-73 25.5t-73 -25.5t-31 -72.5q0 -46 31 -71.5t73 -25.5z" />
    <glyph glyph-name="yacute" unicode="&#xfd;" horiz-adv-x="637" 
d="M152 -200q67 0 110.5 26.5t73 72t53.5 101.5l228 525h-186l-111 -264l-111 264h-189l207 -477l-7 -16q-18 -42 -45.5 -57t-53.5 -15q-15 0 -23.5 1.5t-13.5 3.5h-13v-150q14 -7 36 -11t45 -4zM243 600h152l106 160h-188z" />
    <glyph glyph-name="thorn" unicode="&#xfe;" horiz-adv-x="678" 
d="M60 -200h180v229q50 -41 134 -41q73 0 133 35t95.5 97.5t35.5 142.5q0 81 -35.5 142.5t-96 96.5t-136.5 35q-77 0 -130 -39v224h-180v-922zM349 150q-45 0 -77 30.5t-32 82.5q0 51 32 81.5t77 30.5t76 -30.5t31 -81.5q0 -52 -31 -82.5t-76 -30.5z" />
    <glyph glyph-name="ydieresis" unicode="&#xff;" horiz-adv-x="637" 
d="M152 -200q67 0 110.5 26.5t73 72t53.5 101.5l228 525h-186l-111 -264l-111 264h-189l207 -477l-7 -16q-18 -42 -45.5 -57t-53.5 -15q-15 0 -23.5 1.5t-13.5 3.5h-13v-150q14 -7 36 -11t45 -4zM195 574q42 0 73 25.5t31 71.5q0 47 -31 72.5t-73 25.5t-73 -25.5t-31 -72.5
q0 -46 31 -71.5t73 -25.5zM443 574q42 0 73 25.5t31 71.5q0 47 -31 72.5t-73 25.5t-73 -25.5t-31 -72.5q0 -46 31 -71.5t73 -25.5z" />
    <glyph glyph-name="dotlessi" unicode="&#x131;" horiz-adv-x="300" 
d="M60 0h180v525h-180v-525z" />
    <glyph glyph-name="Lslash" unicode="&#x141;" horiz-adv-x="600" 
d="M70 0h510v165h-325v545h-185v-710zM-37 171l400 200v168l-400 -200v-168z" />
    <glyph glyph-name="lslash" unicode="&#x142;" horiz-adv-x="310" 
d="M60 0h180v710h-180v-710zM-10 251l320 160v168l-320 -160v-168z" />
    <glyph glyph-name="OE" unicode="&#x152;" horiz-adv-x="1145" 
d="M427 -12q56 0 106 15t92 42v-45h490v165h-305v110h265v160h-265v110h305v165h-490v-45q-42 27 -92 42t-106 15q-81 0 -150 -27.5t-119.5 -77.5t-79 -117t-28.5 -145t28 -145t79 -117t119.5 -77.5t150.5 -27.5zM427 156q-55 0 -98 25t-67 70t-24 104t24 104t67 70t98 25
q56 0 99 -25t67 -70t24 -104t-24 -104t-67 -70t-99 -25z" />
    <glyph glyph-name="oe" unicode="&#x153;" horiz-adv-x="1027" 
d="M325 -12q59 0 109.5 19t87.5 53q38 -34 88.5 -53t108.5 -19q96 0 165 47.5t97 134.5l-172 6q-10 -22 -32 -35t-59 -13q-21 0 -43.5 8.5t-39.5 27t-22 49.5h364q10 24 10 76q0 63 -32 119.5t-93.5 92.5t-151.5 36q-55 0 -103.5 -18.5t-85.5 -52.5q-37 34 -87 52.5
t-109 18.5q-81 0 -145.5 -36t-102 -98t-37.5 -140t37.5 -140t102 -98.5t145.5 -36.5zM612 328q5 30 21 47t37.5 24.5t39.5 7.5q38 0 67 -20.5t31 -58.5h-196zM325 150q-45 0 -74 32t-29 81t29 80.5t74 31.5t74 -31.5t29 -80.5t-29 -81t-74 -32z" />
    <glyph glyph-name="Scaron" unicode="&#x160;" horiz-adv-x="667" 
d="M338 -12q78 0 141 27t100.5 80.5t37.5 131.5q0 60 -21.5 98t-57 60t-77 34.5t-80.5 21.5q-36 9 -66.5 16.5t-48.5 21.5t-18 39q0 26 20 40t51 14q34 0 64.5 -18t33.5 -56l179 7q-6 65 -44 114t-99 76t-137 27q-77 0 -134.5 -28t-89.5 -77t-32 -114q0 -62 21 -101.5
t55.5 -63t76 -36.5t81.5 -23q36 -9 67 -18t49.5 -23t18.5 -37q0 -33 -28 -48t-64 -15q-44 0 -77.5 21.5t-38.5 64.5l-181 -7q5 -70 46 -121.5t107 -79.5t145 -28zM232 785h204l118 160h-168l-52 -81l-52 81h-168z" />
    <glyph glyph-name="scaron" unicode="&#x161;" horiz-adv-x="528" 
d="M263 -12q104 0 164.5 46.5t60.5 125.5q0 48 -17 78.5t-44.5 48.5t-59.5 28t-62 17q-36 8 -61.5 18t-25.5 32q0 14 11.5 23t31.5 9t38 -12.5t22 -41.5l166 15q-4 76 -67 119t-166 43q-99 0 -157.5 -47.5t-58.5 -128.5q0 -45 17 -74t44.5 -47t59.5 -28t62 -18
q36 -9 61.5 -19t25.5 -31q0 -16 -13.5 -23.5t-33.5 -7.5q-26 0 -44 14.5t-23 47.5l-165 -15q2 -80 63.5 -126t170.5 -46zM162 600h204l118 160h-168l-52 -81l-52 81h-168z" />
    <glyph glyph-name="Ydieresis" unicode="&#x178;" horiz-adv-x="724" 
d="M269 0h185v314l250 396h-206l-136 -221l-137 221h-205l249 -396v-314zM238 759q42 0 73 25.5t31 71.5q0 47 -31 72.5t-73 25.5t-73 -25.5t-31 -72.5q0 -46 31 -71.5t73 -25.5zM486 759q42 0 73 25.5t31 71.5q0 47 -31 72.5t-73 25.5t-73 -25.5t-31 -72.5q0 -46 31 -71.5
t73 -25.5z" />
    <glyph glyph-name="Zcaron" unicode="&#x17d;" horiz-adv-x="599" 
d="M10 0h559v165h-311l301 445v100h-526v-165h291l-314 -445v-100zM198 785h204l118 160h-168l-52 -81l-52 81h-168z" />
    <glyph glyph-name="zcaron" unicode="&#x17e;" horiz-adv-x="509" 
d="M10 0h479v150h-223l212 305v70h-449v-150h203l-222 -305v-70zM153 600h204l118 160h-168l-52 -81l-52 81h-168z" />
    <glyph glyph-name="florin" unicode="&#x192;" horiz-adv-x="440" 
d="M123 -230q83 0 135 45.5t52 131.5v233h100v150h-100v224q0 46 58 46q20 0 37 -5h5v130q-15 7 -41 11t-52 4q-82 0 -134.5 -45.5t-52.5 -131.5v-233h-90v-150h90v-224q0 -46 -58 -46q-20 0 -37 5h-5v-130q15 -7 41.5 -11t51.5 -4z" />
    <glyph glyph-name="uni0237" unicode="&#x237;" horiz-adv-x="300" 
d="M43 -230q87 0 142 48t55 139v568h-180v-549q0 -39 -17.5 -52.5t-41.5 -13.5q-15 0 -25.5 1.5t-20.5 3.5h-5v-130q15 -7 41.5 -11t51.5 -4z" />
    <glyph glyph-name="circumflex" unicode="&#x2c6;" horiz-adv-x="580" 
d="M70 600h168l52 81l52 -81h168l-118 160h-204z" />
    <glyph glyph-name="caron" unicode="&#x2c7;" horiz-adv-x="580" 
d="M188 600h204l118 160h-168l-52 -81l-52 81h-168z" />
    <glyph glyph-name="breve" unicode="&#x2d8;" horiz-adv-x="526" 
d="M263 600q62 0 104 21.5t65 58t24 80.5h-135q-1 -22 -16 -36t-42 -14t-42 14t-16 36h-135q2 -44 24.5 -80.5t65 -58t103.5 -21.5z" />
    <glyph glyph-name="dotaccent" unicode="&#x2d9;" horiz-adv-x="348" 
d="M174 574q42 0 73 25.5t31 71.5q0 47 -31 72.5t-73 25.5t-73 -25.5t-31 -72.5q0 -46 31 -71.5t73 -25.5z" />
    <glyph glyph-name="ring" unicode="&#x2da;" horiz-adv-x="360" 
d="M180 590q46 0 78 31t32 80q0 47 -32 78t-78 31t-78 -31t-32 -78q0 -49 32 -80t78 -31zM180 662q-16 0 -26 11t-10 28q0 16 10 26.5t26 10.5t26 -10.5t10 -26.5q0 -17 -10 -28t-26 -11z" />
    <glyph glyph-name="ogonek" unicode="&#x2db;" horiz-adv-x="368" 
d="M208 -226q35 0 68 10v81q-7 -1 -15 -2.5t-18 -1.5q-31 0 -45 15.5t-14 35.5q0 31 30 57t84 31l-124 21q-55 -27 -79.5 -64.5t-24.5 -74.5q0 -46 37 -77t101 -31z" />
    <glyph glyph-name="tilde" unicode="&#x2dc;" horiz-adv-x="526" 
d="M335 600q50 0 85 38t36 112h-96q0 -25 -8.5 -38t-28.5 -13q-17 0 -33.5 12.5t-39.5 25.5t-60 13q-50 0 -85 -36.5t-35 -113.5h96q0 51 37 51q19 0 35 -13t38 -25.5t59 -12.5z" />
    <glyph glyph-name="hungarumlaut" unicode="&#x2dd;" horiz-adv-x="648" 
d="M70 600h152l106 160h-188zM320 600h152l106 160h-188z" />
    <glyph glyph-name="gravecomb" unicode="&#x300;" horiz-adv-x="0" 
d="M176 600h152l-70 160h-188z" />
    <glyph glyph-name="acutecomb" unicode="&#x301;" horiz-adv-x="0" 
d="M70 600h152l106 160h-188z" />
    <glyph glyph-name="uni0302" unicode="&#x302;" horiz-adv-x="0" 
d="M70 600h168l52 81l52 -81h168l-118 160h-204z" />
    <glyph glyph-name="tildecomb" unicode="&#x303;" horiz-adv-x="0" 
d="M335 600q50 0 85 38t36 112h-96q0 -25 -8.5 -38t-28.5 -13q-17 0 -33.5 12.5t-39.5 25.5t-60 13q-50 0 -85 -36.5t-35 -113.5h96q0 51 37 51q19 0 35 -13t38 -25.5t59 -12.5z" />
    <glyph glyph-name="uni0304" unicode="&#x304;" horiz-adv-x="0" 
d="M70 628h344v120h-344v-120z" />
    <glyph glyph-name="uni0306" unicode="&#x306;" horiz-adv-x="0" 
d="M263 600q62 0 104 21.5t65 58t24 80.5h-135q-1 -22 -16 -36t-42 -14t-42 14t-16 36h-135q2 -44 24.5 -80.5t65 -58t103.5 -21.5z" />
    <glyph glyph-name="uni0307" unicode="&#x307;" horiz-adv-x="0" 
d="M174 574q42 0 73 25.5t31 71.5q0 47 -31 72.5t-73 25.5t-73 -25.5t-31 -72.5q0 -46 31 -71.5t73 -25.5z" />
    <glyph glyph-name="uni0308" unicode="&#x308;" horiz-adv-x="0" 
d="M174 574q42 0 73 25.5t31 71.5q0 47 -31 72.5t-73 25.5t-73 -25.5t-31 -72.5q0 -46 31 -71.5t73 -25.5zM422 574q42 0 73 25.5t31 71.5q0 47 -31 72.5t-73 25.5t-73 -25.5t-31 -72.5q0 -46 31 -71.5t73 -25.5z" />
    <glyph glyph-name="uni030A" unicode="&#x30a;" horiz-adv-x="0" 
d="M180 590q46 0 78 31t32 80q0 47 -32 78t-78 31t-78 -31t-32 -78q0 -49 32 -80t78 -31zM180 662q-16 0 -26 11t-10 28q0 16 10 26.5t26 10.5t26 -10.5t10 -26.5q0 -17 -10 -28t-26 -11z" />
    <glyph glyph-name="uni030B" unicode="&#x30b;" horiz-adv-x="0" 
d="M70 600h152l106 160h-188zM320 600h152l106 160h-188z" />
    <glyph glyph-name="uni030C" unicode="&#x30c;" horiz-adv-x="0" 
d="M188 600h204l118 160h-168l-52 -81l-52 81h-168z" />
    <glyph glyph-name="uni0327" unicode="&#x327;" horiz-adv-x="0" 
d="M87 -44v-67h26q27 0 36.5 -4t9.5 -15q0 -8 -9.5 -11t-32.5 -3q-8 0 -23 1t-24 3v-72q10 -4 27.5 -6t36.5 -2q131 0 131 98q0 37 -21.5 60t-54.5 22l22 41v9h-94z" />
    <glyph glyph-name="uni0328" unicode="&#x328;" horiz-adv-x="0" 
d="M208 -226q35 0 68 10v81q-7 -1 -15 -2.5t-18 -1.5q-31 0 -45 15.5t-14 35.5q0 31 30 57t84 31l-124 21q-55 -27 -79.5 -64.5t-24.5 -74.5q0 -46 37 -77t101 -31z" />
    <glyph glyph-name="uni0335" unicode="&#x335;" horiz-adv-x="0" 
d="M121 185h350v160h-350v-160z" />
    <glyph glyph-name="uni0337" unicode="&#x337;" horiz-adv-x="0" 
d="M121 177l320 160v168l-320 -160v-168z" />
    <glyph glyph-name="uni0338" unicode="&#x338;" horiz-adv-x="0" 
d="M50 0h139l504 525h-139z" />
    <glyph glyph-name="uni0394" unicode="&#x394;" horiz-adv-x="780" 
d="M20 0h740l-276 710h-189zM283 165l108 311l110 -311h-218z" />
    <glyph glyph-name="uni03A9" unicode="&#x3a9;" horiz-adv-x="874" 
d="M50 0h335v165q-65 14 -101 64t-36 126q0 59 24 104t67 70t98 25q56 0 98.5 -25t66.5 -70t24 -104q0 -76 -36 -126t-101 -64v-165h335v165h-76q32 39 49 87t17 103q0 78 -28.5 145t-79 117t-119.5 77.5t-150 27.5t-150 -27.5t-119.5 -77.5t-79 -117t-28.5 -145
q0 -55 17.5 -103t48.5 -87h-76v-165z" />
    <glyph glyph-name="pi" unicode="&#x3c0;" horiz-adv-x="730" 
d="M597 -12q26 0 52 4t41 11v130h-5q-17 -5 -37 -5q-28 0 -43 15t-15 41v191h100v150h-660v-150h90v-375h180v375h110v-210q0 -86 52.5 -131.5t134.5 -45.5z" />
    <glyph glyph-name="uni2010" unicode="&#x2010;" horiz-adv-x="531" 
d="M100 185h351v160h-351v-160z" />
    <glyph glyph-name="endash" unicode="&#x2013;" horiz-adv-x="645" 
d="M70 185h505v160h-505v-160z" />
    <glyph glyph-name="emdash" unicode="&#x2014;" horiz-adv-x="940" 
d="M70 185h800v160h-800v-160z" />
    <glyph glyph-name="uni2015" unicode="&#x2015;" horiz-adv-x="980" 
d="M100 185h800v160h-800v-160z" />
    <glyph glyph-name="quoteleft" unicode="&#x2018;" horiz-adv-x="338" 
d="M174 380q42 0 73 28t31 77t-31 76t-73 27h-5t-5 -1q7 26 32.5 39.5t62.5 13.5v76q-87 0 -138 -57t-51 -154q0 -57 28 -91t76 -34z" />
    <glyph glyph-name="quoteright" unicode="&#x2019;" horiz-adv-x="338" 
d="M79 380q87 0 138 57t51 154q0 57 -28 91t-76 34q-42 0 -73 -27.5t-31 -77.5q0 -49 31 -76t73 -27h5t5 1q-7 -26 -32.5 -39.5t-62.5 -13.5v-76z" />
    <glyph glyph-name="quotesinglbase" unicode="&#x201a;" horiz-adv-x="338" 
d="M79 -134q87 0 138 57t51 154q0 57 -28 91t-76 34q-42 0 -73 -27.5t-31 -77.5q0 -49 31 -76t73 -27h5t5 1q-7 -26 -32.5 -39.5t-62.5 -13.5v-76z" />
    <glyph glyph-name="quotedblleft" unicode="&#x201c;" horiz-adv-x="608" 
d="M444 380q42 0 73 28t31 77t-31 76t-73 27h-5t-5 -1q7 26 32.5 39.5t62.5 13.5v76q-87 0 -138 -57t-51 -154q0 -57 28 -91t76 -34zM174 380q42 0 73 28t31 77t-31 76t-73 27h-5t-5 -1q7 26 32.5 39.5t62.5 13.5v76q-87 0 -138 -57t-51 -154q0 -57 28 -91t76 -34z" />
    <glyph glyph-name="quotedblright" unicode="&#x201d;" horiz-adv-x="608" 
d="M349 380q87 0 138 57t51 154q0 57 -28 91t-76 34q-42 0 -73 -27.5t-31 -77.5q0 -49 31 -76t73 -27h5t5 1q-7 -26 -32.5 -39.5t-62.5 -13.5v-76zM79 380q87 0 138 57t51 154q0 57 -28 91t-76 34q-42 0 -73 -27.5t-31 -77.5q0 -49 31 -76t73 -27h5t5 1q-7 -26 -32.5 -39.5
t-62.5 -13.5v-76z" />
    <glyph glyph-name="quotedblbase" unicode="&#x201e;" horiz-adv-x="608" 
d="M349 -134q87 0 138 57t51 154q0 57 -28 91t-76 34q-42 0 -73 -27.5t-31 -77.5q0 -49 31 -76t73 -27h5t5 1q-7 -26 -32.5 -39.5t-62.5 -13.5v-76zM79 -134q87 0 138 57t51 154q0 57 -28 91t-76 34q-42 0 -73 -27.5t-31 -77.5q0 -49 31 -76t73 -27h5t5 1
q-7 -26 -32.5 -39.5t-62.5 -13.5v-76z" />
    <glyph glyph-name="dagger" unicode="&#x2020;" horiz-adv-x="707" 
d="M263 0h180v406h174v160h-174v144h-180v-144h-173v-160h173v-406z" />
    <glyph glyph-name="daggerdbl" unicode="&#x2021;" horiz-adv-x="707" 
d="M263 0h180v144h174v160h-174v102h174v160h-174v144h-180v-144h-173v-160h173v-102h-173v-160h173v-144z" />
    <glyph glyph-name="bullet" unicode="&#x2022;" horiz-adv-x="591" 
d="M296 37q62 0 113 30.5t81.5 82t30.5 113.5q0 63 -30.5 114t-81.5 81t-113 30t-113.5 -30t-82 -81t-30.5 -114q0 -62 30.5 -113.5t82 -82t113.5 -30.5z" />
    <glyph glyph-name="ellipsis" unicode="&#x2026;" horiz-adv-x="948" 
d="M174 -6q42 0 73 27t31 76q0 50 -31 77.5t-73 27.5t-73 -27.5t-31 -77.5q0 -49 31 -76t73 -27zM474 -6q42 0 73 27t31 76q0 50 -31 77.5t-73 27.5t-73 -27.5t-31 -77.5q0 -49 31 -76t73 -27zM774 -6q42 0 73 27t31 76q0 50 -31 77.5t-73 27.5t-73 -27.5t-31 -77.5
q0 -49 31 -76t73 -27z" />
    <glyph glyph-name="perthousand" unicode="&#x2030;" horiz-adv-x="1523" 
d="M272 320q59 0 104.5 26t71.5 71t26 102q0 58 -26 102.5t-71.5 70.5t-104.5 26t-104.5 -26t-71.5 -70.5t-26 -102.5q0 -57 26 -102t71.5 -71t104.5 -26zM222 0h150l499 710h-151zM272 436q-34 0 -56 23t-22 60t22 60t56 23t56 -23t22 -60t-22 -60t-56 -23zM821 -8
q59 0 104.5 26t71.5 71t26 102q0 58 -26 102.5t-71.5 70.5t-104.5 26t-104.5 -26t-71.5 -70.5t-26 -102.5q0 -57 26 -102t71.5 -71t104.5 -26zM1251 -8q59 0 104.5 26t71.5 71t26 102q0 58 -26 102.5t-71.5 70.5t-104.5 26t-104.5 -26t-71.5 -70.5t-26 -102.5q0 -57 26 -102
t71.5 -71t104.5 -26zM821 108q-34 0 -56 23t-22 60t22 60t56 23t56 -23t22 -60t-22 -60t-56 -23zM1251 108q-34 0 -56 23t-22 60t22 60t56 23t56 -23t22 -60t-22 -60t-56 -23z" />
    <glyph glyph-name="minute" unicode="&#x2032;" horiz-adv-x="285" 
d="M70 470h111l34 240h-145v-240z" />
    <glyph glyph-name="second" unicode="&#x2033;" horiz-adv-x="486" 
d="M271 470h111l34 240h-145v-240zM70 470h111l34 240h-145v-240z" />
    <glyph glyph-name="guilsinglleft" unicode="&#x2039;" horiz-adv-x="445" 
d="M191 50h214l-139 215l139 215h-214l-141 -215z" />
    <glyph glyph-name="guilsinglright" unicode="&#x203a;" horiz-adv-x="445" 
d="M40 50h214l141 215l-141 215h-214l139 -215z" />
    <glyph glyph-name="fraction" unicode="&#x2044;" horiz-adv-x="249" 
d="M-200 0h150l499 710h-151z" />
    <glyph glyph-name="uni2070" unicode="&#x2070;" horiz-adv-x="427" 
d="M213 277q84 0 134 60t50 160q0 101 -50 160.5t-134 59.5t-133.5 -59.5t-49.5 -160.5t50 -160.5t133 -59.5zM214 379q-34 0 -51.5 31.5t-17.5 86.5q0 56 17 87t51 31q35 0 52 -30.5t17 -87.5q0 -55 -16.5 -86.5t-51.5 -31.5z" />
    <glyph glyph-name="uni2074" unicode="&#x2074;" horiz-adv-x="412" 
d="M214 284h113v85h55v101h-55v240h-140l-175 -234v-107h202v-85zM120 470l94 128v-128h-94z" />
    <glyph glyph-name="uni2075" unicode="&#x2075;" horiz-adv-x="382" 
d="M192 277q45 0 82.5 17.5t60.5 51t23 82.5q0 66 -42 105.5t-109 39.5q-14 0 -29.5 -3t-27.5 -9l8 48h173v101h-253l-43 -231l100 -28q10 13 21.5 21.5t32.5 8.5q23 0 38.5 -14.5t15.5 -37.5t-14.5 -39t-37.5 -16q-47 0 -56 44l-111 -2q5 -62 50 -100.5t118 -38.5z" />
    <glyph glyph-name="uni2076" unicode="&#x2076;" horiz-adv-x="378" 
d="M196 277q70 0 114 41t44 107q0 60 -40.5 99t-103.5 39q-13 0 -26.5 -2.5t-25.5 -8.5q12 35 39 49.5t67 14.5q30 0 60 -6v102q-16 3 -31 4t-30 1q-70 0 -124 -33t-84.5 -91t-30.5 -134q0 -85 46 -133.5t126 -48.5zM192 374q-20 0 -33.5 13.5t-13.5 33.5t13.5 33t33.5 13
t33.5 -13t13.5 -33q0 -19 -13.5 -33t-33.5 -14z" />
    <glyph glyph-name="uni2077" unicode="&#x2077;" horiz-adv-x="338" 
d="M77 284h117q4 101 42 186.5t96 145.5v94h-320v-101h177q-46 -64 -78 -147.5t-34 -177.5z" />
    <glyph glyph-name="uni2078" unicode="&#x2078;" horiz-adv-x="375" 
d="M188 277q72 0 117.5 35t45.5 92q0 36 -18 62.5t-48 37.5q25 15 40 40t15 55q0 51 -43.5 84.5t-108.5 33.5q-66 0 -109 -33.5t-43 -84.5q0 -29 15 -54.5t40 -40.5q-31 -11 -49 -38t-18 -62q0 -57 46 -92t118 -35zM188 545q-19 0 -31.5 10.5t-12.5 27.5t12.5 27t31.5 10
q18 0 30.5 -10t12.5 -27q0 -18 -13 -28t-30 -10zM188 374q-22 0 -35.5 10.5t-13.5 29.5q0 18 13.5 28.5t35.5 10.5q21 0 34.5 -10.5t13.5 -28.5q0 -19 -13.5 -29.5t-34.5 -10.5z" />
    <glyph glyph-name="uni2079" unicode="&#x2079;" horiz-adv-x="378" 
d="M114 277q71 0 125 33t84.5 91t30.5 134q0 84 -46 133t-126 49q-70 0 -114 -41.5t-44 -106.5q0 -60 40.5 -99t103.5 -39q12 0 26 2.5t25 8.5q-12 -36 -39.5 -50t-65.5 -14q-30 0 -60 6v-102q16 -3 30.5 -4t29.5 -1zM186 527q-21 0 -34 13.5t-13 32.5q0 20 13.5 33.5
t33.5 13.5t33.5 -13.5t13.5 -33.5q0 -19 -13.5 -32.5t-33.5 -13.5z" />
    <glyph glyph-name="uni2080" unicode="&#x2080;" horiz-adv-x="427" 
d="M213 -7q84 0 134 60t50 160q0 101 -50 160.5t-134 59.5t-133.5 -59.5t-49.5 -160.5t50 -160.5t133 -59.5zM214 95q-34 0 -51.5 31.5t-17.5 86.5q0 56 17 87t51 31q35 0 52 -30.5t17 -87.5q0 -55 -16.5 -86.5t-51.5 -31.5z" />
    <glyph glyph-name="uni2081" unicode="&#x2081;" horiz-adv-x="279" 
d="M106 0h113v426h-89l-118 -69v-103l94 50v-304z" />
    <glyph glyph-name="uni2082" unicode="&#x2082;" horiz-adv-x="378" 
d="M24 0h324v101h-158l85 79q30 28 48.5 59t18.5 68q0 56 -42.5 91t-109.5 35q-71 0 -117 -40t-50 -105l110 -2q2 28 17.5 39t33.5 11q20 0 32.5 -10t12.5 -26q0 -18 -20 -41t-65 -65l-120 -112v-82z" />
    <glyph glyph-name="uni2083" unicode="&#x2083;" horiz-adv-x="388" 
d="M193 -7q48 0 85 17t58.5 47.5t21.5 68.5q0 33 -17.5 58.5t-50.5 35.5q28 17 42 42.5t14 52.5q0 35 -20 61.5t-54.5 41.5t-77.5 15q-67 0 -110 -37t-47 -100l110 -2q2 42 46 42q17 0 28 -9.5t11 -27.5q0 -16 -11.5 -27t-31.5 -11h-43v-93h53q24 0 34.5 -10.5t10.5 -25.5
q0 -19 -14 -30.5t-37 -11.5q-24 0 -40 11.5t-18 30.5l-111 -1q5 -62 50.5 -100t118.5 -38z" />
    <glyph glyph-name="uni2084" unicode="&#x2084;" horiz-adv-x="412" 
d="M214 0h113v85h55v101h-55v240h-140l-175 -234v-107h202v-85zM120 186l94 128v-128h-94z" />
    <glyph glyph-name="uni2085" unicode="&#x2085;" horiz-adv-x="382" 
d="M192 -7q45 0 82.5 17.5t60.5 51t23 82.5q0 66 -42 105.5t-109 39.5q-14 0 -29.5 -3t-27.5 -9l8 48h173v101h-253l-43 -231l100 -28q10 13 21.5 21.5t32.5 8.5q23 0 38.5 -14.5t15.5 -37.5t-14.5 -39t-37.5 -16q-47 0 -56 44l-111 -2q5 -62 50 -100.5t118 -38.5z" />
    <glyph glyph-name="uni2086" unicode="&#x2086;" horiz-adv-x="378" 
d="M196 -7q70 0 114 41t44 107q0 60 -40.5 99t-103.5 39q-13 0 -26.5 -2.5t-25.5 -8.5q12 35 39 49.5t67 14.5q30 0 60 -6v102q-16 3 -31 4t-30 1q-70 0 -124 -33t-84.5 -91t-30.5 -134q0 -85 46 -133.5t126 -48.5zM192 90q-20 0 -33.5 13.5t-13.5 33.5t13.5 33t33.5 13
t33.5 -13t13.5 -33q0 -19 -13.5 -33t-33.5 -14z" />
    <glyph glyph-name="uni2087" unicode="&#x2087;" horiz-adv-x="338" 
d="M77 0h117q4 101 42 186.5t96 145.5v94h-320v-101h177q-46 -64 -78 -147.5t-34 -177.5z" />
    <glyph glyph-name="uni2088" unicode="&#x2088;" horiz-adv-x="375" 
d="M188 -7q72 0 117.5 35t45.5 92q0 36 -18 62.5t-48 37.5q25 15 40 40t15 55q0 51 -43.5 84.5t-108.5 33.5q-66 0 -109 -33.5t-43 -84.5q0 -29 15 -54.5t40 -40.5q-31 -11 -49 -38t-18 -62q0 -57 46 -92t118 -35zM188 261q-19 0 -31.5 10.5t-12.5 27.5t12.5 27t31.5 10
q18 0 30.5 -10t12.5 -27q0 -18 -13 -28t-30 -10zM188 90q-22 0 -35.5 10.5t-13.5 29.5q0 18 13.5 28.5t35.5 10.5q21 0 34.5 -10.5t13.5 -28.5q0 -19 -13.5 -29.5t-34.5 -10.5z" />
    <glyph glyph-name="uni2089" unicode="&#x2089;" horiz-adv-x="378" 
d="M114 -7q71 0 125 33t84.5 91t30.5 134q0 84 -46 133t-126 49q-70 0 -114 -41.5t-44 -106.5q0 -60 40.5 -99t103.5 -39q12 0 26 2.5t25 8.5q-12 -36 -39.5 -50t-65.5 -14q-30 0 -60 6v-102q16 -3 30.5 -4t29.5 -1zM186 243q-21 0 -34 13.5t-13 32.5q0 20 13.5 33.5
t33.5 13.5t33.5 -13.5t13.5 -33.5q0 -19 -13.5 -32.5t-33.5 -13.5z" />
    <glyph glyph-name="Euro" unicode="&#x20ac;" horiz-adv-x="670" 
d="M496 -12q38 0 71.5 5t62.5 14v178q-51 -32 -132 -32q-46 0 -83 16.5t-62 45.5h167v120h-213q-1 5 -1 10v10v10t1 10h213v120h-167q25 29 62 45.5t83 16.5q81 0 132 -32v178q-29 9 -62.5 14t-71.5 5q-85 0 -154.5 -28.5t-119.5 -79.5t-76 -119h-96v-120h71v-40h-71v-120
h96q26 -68 76 -119t119.5 -79.5t154.5 -28.5z" />
    <glyph glyph-name="trademark" unicode="&#x2122;" horiz-adv-x="883" 
d="M397 355h113v148l69 -148h54l67 147v-147h113v355h-132l-76 -160l-76 160h-132v-355zM160 355h114v256h88v99h-292v-99h90v-256z" />
    <glyph glyph-name="estimated" unicode="&#x212e;" horiz-adv-x="900" 
d="M453 -10q72 0 125 17.5t93.5 49t75.5 72.5h-58q-48 -55 -101.5 -86t-134.5 -31q-49 0 -88.5 12t-75 37.5t-73.5 67.5v212h614v9q0 75 -28 140t-79 114.5t-120.5 77.5t-152.5 28t-152.5 -28t-120.5 -77.5t-79 -115t-28 -140.5q0 -74 27.5 -139t78.5 -114.5t121.5 -77.5
t155.5 -28zM216 360v210q53 62 105.5 90t128.5 28q49 0 85 -10t70.5 -34t77.5 -68v-216h-467z" />
    <glyph glyph-name="oneeighth" unicode="&#x215b;" horiz-adv-x="903" 
d="M106 284h113v426h-89l-118 -69v-103l94 50v-304zM79 0h150l499 710h-151zM716 -7q72 0 117.5 35t45.5 92q0 36 -18 62.5t-48 37.5q25 15 40 40t15 55q0 51 -43.5 84.5t-108.5 33.5q-66 0 -109 -33.5t-43 -84.5q0 -29 15 -54.5t40 -40.5q-31 -11 -49 -38t-18 -62
q0 -57 46 -92t118 -35zM716 261q-19 0 -31.5 10.5t-12.5 27.5t12.5 27t31.5 10q18 0 30.5 -10t12.5 -27q0 -18 -13 -28t-30 -10zM716 90q-22 0 -35.5 10.5t-13.5 29.5q0 18 13.5 28.5t35.5 10.5q21 0 34.5 -10.5t13.5 -28.5q0 -19 -13.5 -29.5t-34.5 -10.5z" />
    <glyph glyph-name="threeeighths" unicode="&#x215c;" horiz-adv-x="1012" 
d="M193 277q48 0 85 17t58.5 47.5t21.5 68.5q0 33 -17.5 58.5t-50.5 35.5q28 17 42 42.5t14 52.5q0 35 -20 61.5t-54.5 41.5t-77.5 15q-67 0 -110 -37t-47 -100l110 -2q2 42 46 42q17 0 28 -9.5t11 -27.5q0 -16 -11.5 -27t-31.5 -11h-43v-93h53q24 0 34.5 -10.5t10.5 -25.5
q0 -19 -14 -30.5t-37 -11.5q-24 0 -40 11.5t-18 30.5l-111 -1q5 -62 50.5 -100t118.5 -38zM188 0h150l499 710h-151zM825 -7q72 0 117.5 35t45.5 92q0 36 -18 62.5t-48 37.5q25 15 40 40t15 55q0 51 -43.5 84.5t-108.5 33.5q-66 0 -109 -33.5t-43 -84.5q0 -29 15 -54.5
t40 -40.5q-31 -11 -49 -38t-18 -62q0 -57 46 -92t118 -35zM825 261q-19 0 -31.5 10.5t-12.5 27.5t12.5 27t31.5 10q18 0 30.5 -10t12.5 -27q0 -18 -13 -28t-30 -10zM825 90q-22 0 -35.5 10.5t-13.5 29.5q0 18 13.5 28.5t35.5 10.5q21 0 34.5 -10.5t13.5 -28.5
q0 -19 -13.5 -29.5t-34.5 -10.5z" />
    <glyph glyph-name="fiveeighths" unicode="&#x215d;" horiz-adv-x="1006" 
d="M192 277q45 0 82.5 17.5t60.5 51t23 82.5q0 66 -42 105.5t-109 39.5q-14 0 -29.5 -3t-27.5 -9l8 48h173v101h-253l-43 -231l100 -28q10 13 21.5 21.5t32.5 8.5q23 0 38.5 -14.5t15.5 -37.5t-14.5 -39t-37.5 -16q-47 0 -56 44l-111 -2q5 -62 50 -100.5t118 -38.5zM182 0
h150l499 710h-151zM819 -7q72 0 117.5 35t45.5 92q0 36 -18 62.5t-48 37.5q25 15 40 40t15 55q0 51 -43.5 84.5t-108.5 33.5q-66 0 -109 -33.5t-43 -84.5q0 -29 15 -54.5t40 -40.5q-31 -11 -49 -38t-18 -62q0 -57 46 -92t118 -35zM819 261q-19 0 -31.5 10.5t-12.5 27.5
t12.5 27t31.5 10q18 0 30.5 -10t12.5 -27q0 -18 -13 -28t-30 -10zM819 90q-22 0 -35.5 10.5t-13.5 29.5q0 18 13.5 28.5t35.5 10.5q21 0 34.5 -10.5t13.5 -28.5q0 -19 -13.5 -29.5t-34.5 -10.5z" />
    <glyph glyph-name="seveneighths" unicode="&#x215e;" horiz-adv-x="962" 
d="M77 284h117q4 101 42 186.5t96 145.5v94h-320v-101h177q-46 -64 -78 -147.5t-34 -177.5zM138 0h150l499 710h-151zM775 -7q72 0 117.5 35t45.5 92q0 36 -18 62.5t-48 37.5q25 15 40 40t15 55q0 51 -43.5 84.5t-108.5 33.5q-66 0 -109 -33.5t-43 -84.5q0 -29 15 -54.5
t40 -40.5q-31 -11 -49 -38t-18 -62q0 -57 46 -92t118 -35zM775 261q-19 0 -31.5 10.5t-12.5 27.5t12.5 27t31.5 10q18 0 30.5 -10t12.5 -27q0 -18 -13 -28t-30 -10zM775 90q-22 0 -35.5 10.5t-13.5 29.5q0 18 13.5 28.5t35.5 10.5q21 0 34.5 -10.5t13.5 -28.5
q0 -19 -13.5 -29.5t-34.5 -10.5z" />
    <glyph glyph-name="partialdiff" unicode="&#x2202;" horiz-adv-x="628" 
d="M308 -12q87 0 149.5 39.5t96.5 110t34 161.5q0 75 -21 147t-69.5 137.5t-131.5 120.5t-206 96l-54 -145q93 -32 151.5 -72.5t91.5 -84.5q-14 3 -28.5 4t-29.5 1q-76 0 -132.5 -33t-87.5 -91.5t-31 -135.5q0 -81 35 -138t96 -87t137 -30zM312 133q-40 0 -63 28.5t-23 83.5
q0 54 23.5 87.5t77.5 33.5q18 0 38 -4t41 -14q1 -11 1.5 -23t0.5 -23q0 -86 -26 -127.5t-70 -41.5z" />
    <glyph glyph-name="emptyset" unicode="&#x2205;" horiz-adv-x="827" 
d="M456 -12q83 0 152 27.5t119.5 76.5t78.5 116.5t28 146.5q0 69 -21.5 128.5t-60.5 106.5l112 120h-166l-38 -41q-43 26 -95 39.5t-109 13.5q-81 0 -150 -27t-119.5 -76.5t-79 -116.5t-28.5 -147q0 -67 20 -125t56 -105l-116 -125h166l41 45q91 -57 210 -57zM269 247
q-12 23 -18.5 50t-6.5 58q0 68 29 116t77 74t105 26q50 0 95 -20zM455 139q-54 0 -100 23l285 307q28 -50 28 -114q0 -68 -29 -116.5t-77.5 -74t-106.5 -25.5z" />
    <glyph glyph-name="product" unicode="&#x220f;" horiz-adv-x="771" 
d="M137 -90h180v648h137v-648h180v648h100v152h-697v-152h100v-648z" />
    <glyph glyph-name="summation" unicode="&#x2211;" horiz-adv-x="624" 
d="M55 -90h524v152h-302l178 250l-178 246h302v152h-524v-141l202 -257l-202 -261v-141z" />
    <glyph glyph-name="minus" unicode="&#x2212;" 
d="M110 184h485v160h-485v-160z" />
    <glyph glyph-name="uni2215" unicode="&#x2215;" horiz-adv-x="565" 
d="M70 0h189l286 710h-189z" />
    <glyph glyph-name="uni2219" unicode="&#x2219;" horiz-adv-x="631" 
d="M326 37q62 0 113 30.5t81.5 82t30.5 113.5q0 63 -30.5 114t-81.5 81t-113 30t-113.5 -30t-82 -81t-30.5 -114q0 -62 30.5 -113.5t82 -82t113.5 -30.5z" />
    <glyph glyph-name="radical" unicode="&#x221a;" horiz-adv-x="941" 
d="M199 -155h211l260 712h261v153h-371l-254 -688l-107 333h-179z" />
    <glyph glyph-name="infinity" unicode="&#x221e;" horiz-adv-x="980" 
d="M301 66q51 0 94.5 24t92.5 80q47 -53 92.5 -78.5t97.5 -25.5q59 0 104.5 27t71.5 73.5t26 105.5q0 58 -25 102.5t-70 69.5t-105 25q-54 0 -98 -23.5t-90 -77.5q-81 101 -191 101q-58 0 -103.5 -26t-71.5 -72t-26 -105t25.5 -104t71 -70.5t104.5 -25.5zM318 206
q-35 0 -51.5 19t-16.5 45q0 25 16.5 44t50.5 19q42 0 95 -65q-25 -29 -48 -45.5t-46 -16.5zM663 206q-21 0 -43 14t-51 48q52 65 95 65q34 0 50.5 -19t16.5 -44q0 -26 -16.5 -45t-51.5 -19z" />
    <glyph glyph-name="integral" unicode="&#x222b;" horiz-adv-x="606" 
d="M138 -12q104 0 166.5 54.5t73.5 158.5l33 299q5 46 28 67t64 21q34 0 78 -14l-9 134q-17 7 -42.5 10.5t-51.5 3.5q-104 0 -168 -55.5t-76 -165.5l-33 -300q-4 -41 -28 -59.5t-62 -18.5q-16 0 -36 3.5t-45 10.5l10 -135q19 -7 45.5 -10.5t52.5 -3.5z" />
    <glyph glyph-name="approxequal" unicode="&#x2248;" 
d="M468 306q34 0 64.5 12t58.5 38v142q-34 -29 -63.5 -40.5t-64.5 -11.5q-34 0 -68 15.5t-71 30.5t-82 15q-40 0 -67.5 -12t-59.5 -38v-143q29 27 57.5 40t69.5 13q39 0 74.5 -15t72.5 -30.5t79 -15.5zM468 55q34 0 64.5 12t58.5 38v142q-34 -29 -63.5 -40.5t-64.5 -11.5
q-34 0 -68 15.5t-71 30.5t-82 15q-40 0 -67.5 -12t-59.5 -38v-143q29 27 57.5 40t69.5 13q39 0 74.5 -15t72.5 -30.5t79 -15.5z" />
    <glyph glyph-name="notequal" unicode="&#x2260;" 
d="M191 -100h166l32 150h214v160h-180l26 120h154v160h-120l32 150h-166l-32 -150h-214v-160h180l-26 -120h-154v-160h120z" />
    <glyph glyph-name="lessequal" unicode="&#x2264;" 
d="M608 180v160l-296 81l296 79v160l-511 -159v-161zM97 0h511v150h-511v-150z" />
    <glyph glyph-name="greaterequal" unicode="&#x2265;" 
d="M97 180l511 160v161l-511 159v-160l296 -79l-296 -81v-160zM97 0h511v150h-511v-150z" />
    <glyph glyph-name="lozenge" unicode="&#x25ca;" horiz-adv-x="757" 
d="M309 0h140l238 355l-238 355h-140l-239 -355zM380 170l-121 185l121 185l121 -185z" />
    <glyph glyph-name="zero.tf" horiz-adv-x="600" 
d="M300 -12q86 0 149.5 45t98.5 127.5t35 194.5q0 113 -35 195.5t-99 127t-150 44.5t-149.5 -44.5t-98 -127t-34.5 -195.5q0 -112 35 -194.5t98.5 -127.5t149.5 -45zM301 156q-51 0 -76.5 52.5t-25.5 146.5q0 95 25 147t76 52t76 -52t25 -147q0 -94 -24.5 -146.5
t-75.5 -52.5z" />
    <glyph glyph-name="one.tf" horiz-adv-x="600" 
d="M33 0h535v165h-176v545h-144l-193 -114v-170l154 84v-345h-176v-165z" />
    <glyph glyph-name="two.tf" horiz-adv-x="600" 
d="M32 0h526v165h-256l137 134q55 53 82.5 104t27.5 109q0 63 -31.5 110t-87.5 73.5t-128 26.5q-76 0 -135.5 -30t-95 -84t-40.5 -127l178 -3q2 44 26.5 64t56.5 20q33 0 53.5 -16.5t20.5 -44.5q0 -21 -14 -44.5t-44.5 -55.5t-80.5 -80l-195 -187v-134z" />
    <glyph glyph-name="three.tf" horiz-adv-x="600" 
d="M298 -12q77 0 137 28.5t94.5 79t34.5 114.5q0 58 -29.5 99.5t-80.5 57.5q43 26 66.5 68.5t23.5 89.5q0 58 -32.5 102.5t-87.5 69.5t-124 25q-73 0 -128.5 -28.5t-88 -80t-36.5 -119.5l178 -3q2 32 20 51.5t53 19.5q29 0 46 -16t17 -46q0 -28 -18.5 -47t-50.5 -19h-68
v-152h85q38 0 54.5 -18t16.5 -44q0 -34 -23 -53t-59 -19q-38 0 -63 19t-30 53l-178 -3q5 -68 40 -120t94 -80.5t137 -28.5z" />
    <glyph glyph-name="four.tf" horiz-adv-x="600" 
d="M310 0h180v143h86v165h-86v402h-223l-272 -392v-175h315v-143zM167 308l143 219v-219h-143z" />
    <glyph glyph-name="five.tf" horiz-adv-x="600" 
d="M302 -12q73 0 134 29t98 85.5t37 137.5q0 74 -31 128t-86 83.5t-127 29.5q-53 0 -93 -20l13 84h281v165h-411l-69 -385l162 -45q17 23 36.5 37t50.5 14q38 0 63 -25t25 -64q0 -42 -23.5 -68t-60.5 -26t-60.5 19.5t-31.5 54.5l-179 -3q5 -69 40 -121t94.5 -81t137.5 -29z
" />
    <glyph glyph-name="six.tf" horiz-adv-x="600" 
d="M312 -12q76 0 134 31.5t90.5 87t32.5 128.5q0 67 -30 119t-83 81.5t-122 29.5q-22 0 -43.5 -5t-40.5 -16q20 60 63.5 86t109.5 26q49 0 97 -9v167q-25 5 -50 6.5t-48 1.5q-86 0 -157.5 -31.5t-123.5 -89t-80.5 -136t-28.5 -173.5q0 -94 34 -162.5t96.5 -105t149.5 -36.5z
M305 148q-33 0 -55 23t-22 57q0 35 22 57t55 22q34 0 56 -22t22 -57q0 -34 -22 -57t-56 -23z" />
    <glyph glyph-name="seven.tf" horiz-adv-x="600" 
d="M145 0h194q5 112 36.5 213.5t84 188.5t119.5 154v154h-547v-165h311q-83 -110 -138.5 -249t-59.5 -296z" />
    <glyph glyph-name="eight.tf" horiz-adv-x="600" 
d="M300 -12q79 0 139 27t94 74.5t34 110.5q0 60 -29.5 104t-79.5 63q41 25 65.5 67t24.5 91q0 57 -32.5 101.5t-88.5 70t-127 25.5t-127.5 -25.5t-88.5 -70t-32 -101.5q0 -49 24.5 -91t66.5 -67q-50 -18 -80 -62t-30 -105q0 -63 34 -110.5t94 -74.5t139 -27zM300 434
q-30 0 -50.5 17.5t-20.5 47.5q0 29 20.5 46t50.5 17t50.5 -17t20.5 -46q0 -30 -20.5 -47.5t-50.5 -17.5zM300 148q-36 0 -58.5 18t-22.5 50t22.5 50t58.5 18t58.5 -18t22.5 -50t-22.5 -50t-58.5 -18z" />
    <glyph glyph-name="nine.tf" horiz-adv-x="600" 
d="M179 -12q86 0 157.5 31.5t123.5 89t80.5 136t28.5 173.5t-33.5 163t-96.5 104.5t-150 36.5q-76 0 -134 -31.5t-90.5 -87t-32.5 -128.5q0 -67 30 -119t83.5 -81.5t121.5 -29.5q23 0 44 5t40 16q-19 -60 -63 -86t-110 -26q-49 0 -97 9v-167q25 -4 49.5 -6t48.5 -2zM296 403
q-34 0 -56 22.5t-22 56.5q0 35 22 57.5t56 22.5q33 0 55 -22.5t22 -57.5q0 -34 -22 -56.5t-55 -22.5z" />
    <glyph glyph-name="zero.dnom" horiz-adv-x="427" 
d="M213 -7q84 0 134 60t50 160q0 101 -50 160.5t-134 59.5t-133.5 -59.5t-49.5 -160.5t50 -160.5t133 -59.5zM214 95q-34 0 -51.5 31.5t-17.5 86.5q0 56 17 87t51 31q35 0 52 -30.5t17 -87.5q0 -55 -16.5 -86.5t-51.5 -31.5z" />
    <glyph glyph-name="one.dnom" horiz-adv-x="279" 
d="M106 0h113v426h-89l-118 -69v-103l94 50v-304z" />
    <glyph glyph-name="two.dnom" horiz-adv-x="378" 
d="M24 0h324v101h-158l85 79q30 28 48.5 59t18.5 68q0 56 -42.5 91t-109.5 35q-71 0 -117 -40t-50 -105l110 -2q2 28 17.5 39t33.5 11q20 0 32.5 -10t12.5 -26q0 -18 -20 -41t-65 -65l-120 -112v-82z" />
    <glyph glyph-name="three.dnom" horiz-adv-x="388" 
d="M193 -7q48 0 85 17t58.5 47.5t21.5 68.5q0 33 -17.5 58.5t-50.5 35.5q28 17 42 42.5t14 52.5q0 35 -20 61.5t-54.5 41.5t-77.5 15q-67 0 -110 -37t-47 -100l110 -2q2 42 46 42q17 0 28 -9.5t11 -27.5q0 -16 -11.5 -27t-31.5 -11h-43v-93h53q24 0 34.5 -10.5t10.5 -25.5
q0 -19 -14 -30.5t-37 -11.5q-24 0 -40 11.5t-18 30.5l-111 -1q5 -62 50.5 -100t118.5 -38z" />
    <glyph glyph-name="four.dnom" horiz-adv-x="412" 
d="M214 0h113v85h55v101h-55v240h-140l-175 -234v-107h202v-85zM120 186l94 128v-128h-94z" />
    <glyph glyph-name="five.dnom" horiz-adv-x="382" 
d="M192 -7q45 0 82.5 17.5t60.5 51t23 82.5q0 66 -42 105.5t-109 39.5q-14 0 -29.5 -3t-27.5 -9l8 48h173v101h-253l-43 -231l100 -28q10 13 21.5 21.5t32.5 8.5q23 0 38.5 -14.5t15.5 -37.5t-14.5 -39t-37.5 -16q-47 0 -56 44l-111 -2q5 -62 50 -100.5t118 -38.5z" />
    <glyph glyph-name="six.dnom" horiz-adv-x="378" 
d="M196 -7q70 0 114 41t44 107q0 60 -40.5 99t-103.5 39q-13 0 -26.5 -2.5t-25.5 -8.5q12 35 39 49.5t67 14.5q30 0 60 -6v102q-16 3 -31 4t-30 1q-70 0 -124 -33t-84.5 -91t-30.5 -134q0 -85 46 -133.5t126 -48.5zM192 90q-20 0 -33.5 13.5t-13.5 33.5t13.5 33t33.5 13
t33.5 -13t13.5 -33q0 -19 -13.5 -33t-33.5 -14z" />
    <glyph glyph-name="seven.dnom" horiz-adv-x="338" 
d="M77 0h117q4 101 42 186.5t96 145.5v94h-320v-101h177q-46 -64 -78 -147.5t-34 -177.5z" />
    <glyph glyph-name="eight.dnom" horiz-adv-x="375" 
d="M188 -7q72 0 117.5 35t45.5 92q0 36 -18 62.5t-48 37.5q25 15 40 40t15 55q0 51 -43.5 84.5t-108.5 33.5q-66 0 -109 -33.5t-43 -84.5q0 -29 15 -54.5t40 -40.5q-31 -11 -49 -38t-18 -62q0 -57 46 -92t118 -35zM188 261q-19 0 -31.5 10.5t-12.5 27.5t12.5 27t31.5 10
q18 0 30.5 -10t12.5 -27q0 -18 -13 -28t-30 -10zM188 90q-22 0 -35.5 10.5t-13.5 29.5q0 18 13.5 28.5t35.5 10.5q21 0 34.5 -10.5t13.5 -28.5q0 -19 -13.5 -29.5t-34.5 -10.5z" />
    <glyph glyph-name="nine.dnom" horiz-adv-x="378" 
d="M114 -7q71 0 125 33t84.5 91t30.5 134q0 84 -46 133t-126 49q-70 0 -114 -41.5t-44 -106.5q0 -60 40.5 -99t103.5 -39q12 0 26 2.5t25 8.5q-12 -36 -39.5 -50t-65.5 -14q-30 0 -60 6v-102q16 -3 30.5 -4t29.5 -1zM186 243q-21 0 -34 13.5t-13 32.5q0 20 13.5 33.5
t33.5 13.5t33.5 -13.5t13.5 -33.5q0 -19 -13.5 -32.5t-33.5 -13.5z" />
    <glyph glyph-name="zero.numr" horiz-adv-x="427" 
d="M213 277q84 0 134 60t50 160q0 101 -50 160.5t-134 59.5t-133.5 -59.5t-49.5 -160.5t50 -160.5t133 -59.5zM214 379q-34 0 -51.5 31.5t-17.5 86.5q0 56 17 87t51 31q35 0 52 -30.5t17 -87.5q0 -55 -16.5 -86.5t-51.5 -31.5z" />
    <glyph glyph-name="one.numr" horiz-adv-x="279" 
d="M106 284h113v426h-89l-118 -69v-103l94 50v-304z" />
    <glyph glyph-name="two.numr" horiz-adv-x="378" 
d="M24 284h324v101h-158l85 79q30 28 48.5 59t18.5 68q0 56 -42.5 91t-109.5 35q-71 0 -117 -40t-50 -105l110 -2q2 28 17.5 39t33.5 11q20 0 32.5 -10t12.5 -26q0 -18 -20 -41t-65 -65l-120 -112v-82z" />
    <glyph glyph-name="three.numr" horiz-adv-x="388" 
d="M193 277q48 0 85 17t58.5 47.5t21.5 68.5q0 33 -17.5 58.5t-50.5 35.5q28 17 42 42.5t14 52.5q0 35 -20 61.5t-54.5 41.5t-77.5 15q-67 0 -110 -37t-47 -100l110 -2q2 42 46 42q17 0 28 -9.5t11 -27.5q0 -16 -11.5 -27t-31.5 -11h-43v-93h53q24 0 34.5 -10.5t10.5 -25.5
q0 -19 -14 -30.5t-37 -11.5q-24 0 -40 11.5t-18 30.5l-111 -1q5 -62 50.5 -100t118.5 -38z" />
    <glyph glyph-name="four.numr" horiz-adv-x="412" 
d="M214 284h113v85h55v101h-55v240h-140l-175 -234v-107h202v-85zM120 470l94 128v-128h-94z" />
    <glyph glyph-name="five.numr" horiz-adv-x="382" 
d="M192 277q45 0 82.5 17.5t60.5 51t23 82.5q0 66 -42 105.5t-109 39.5q-14 0 -29.5 -3t-27.5 -9l8 48h173v101h-253l-43 -231l100 -28q10 13 21.5 21.5t32.5 8.5q23 0 38.5 -14.5t15.5 -37.5t-14.5 -39t-37.5 -16q-47 0 -56 44l-111 -2q5 -62 50 -100.5t118 -38.5z" />
    <glyph glyph-name="six.numr" horiz-adv-x="378" 
d="M196 277q70 0 114 41t44 107q0 60 -40.5 99t-103.5 39q-13 0 -26.5 -2.5t-25.5 -8.5q12 35 39 49.5t67 14.5q30 0 60 -6v102q-16 3 -31 4t-30 1q-70 0 -124 -33t-84.5 -91t-30.5 -134q0 -85 46 -133.5t126 -48.5zM192 374q-20 0 -33.5 13.5t-13.5 33.5t13.5 33t33.5 13
t33.5 -13t13.5 -33q0 -19 -13.5 -33t-33.5 -14z" />
    <glyph glyph-name="seven.numr" horiz-adv-x="338" 
d="M77 284h117q4 101 42 186.5t96 145.5v94h-320v-101h177q-46 -64 -78 -147.5t-34 -177.5z" />
    <glyph glyph-name="eight.numr" horiz-adv-x="375" 
d="M188 277q72 0 117.5 35t45.5 92q0 36 -18 62.5t-48 37.5q25 15 40 40t15 55q0 51 -43.5 84.5t-108.5 33.5q-66 0 -109 -33.5t-43 -84.5q0 -29 15 -54.5t40 -40.5q-31 -11 -49 -38t-18 -62q0 -57 46 -92t118 -35zM188 545q-19 0 -31.5 10.5t-12.5 27.5t12.5 27t31.5 10
q18 0 30.5 -10t12.5 -27q0 -18 -13 -28t-30 -10zM188 374q-22 0 -35.5 10.5t-13.5 29.5q0 18 13.5 28.5t35.5 10.5q21 0 34.5 -10.5t13.5 -28.5q0 -19 -13.5 -29.5t-34.5 -10.5z" />
    <glyph glyph-name="nine.numr" horiz-adv-x="378" 
d="M114 277q71 0 125 33t84.5 91t30.5 134q0 84 -46 133t-126 49q-70 0 -114 -41.5t-44 -106.5q0 -60 40.5 -99t103.5 -39q12 0 26 2.5t25 8.5q-12 -36 -39.5 -50t-65.5 -14q-30 0 -60 6v-102q16 -3 30.5 -4t29.5 -1zM186 527q-21 0 -34 13.5t-13 32.5q0 20 13.5 33.5
t33.5 13.5t33.5 -13.5t13.5 -33.5q0 -19 -13.5 -32.5t-33.5 -13.5z" />
    <glyph glyph-name="exclamdown.case" horiz-adv-x="348" 
d="M92 453h165l15 -462h-195zM174 719q42 0 73 -27t31 -76q0 -50 -31 -77.5t-73 -27.5t-73 27.5t-31 77.5q0 49 31 76t73 27z" />
    <glyph glyph-name="questiondown.case" horiz-adv-x="583" 
d="M393 453h-173v-11q0 -18 -12 -40t-45 -49q-60 -49 -86.5 -87t-26.5 -91q0 -55 29 -96t82 -64.5t125 -23.5q118 0 185.5 61t71.5 160l-180 3q-2 -33 -21 -48.5t-45 -15.5t-43 12t-17 36q0 23 20 43.5t48 40.5q39 28 57.5 54.5t24.5 52t6 52.5v11zM301 719q-42 0 -73 -27
t-31 -76q0 -50 31 -77.5t73 -27.5t73 27.5t31 77.5q0 49 -31 76t-73 27z" />
    <glyph glyph-name="periodcentered.case" horiz-adv-x="348" 
d="M174 251q42 0 73 27t31 76q0 50 -31 77.5t-73 27.5t-73 -27.5t-31 -77.5q0 -49 31 -76t73 -27z" />
    <glyph glyph-name="bullet.case" horiz-adv-x="591" 
d="M296 130q62 0 113 30.5t81.5 82t30.5 113.5q0 63 -30.5 114t-81.5 81t-113 30t-113.5 -30t-82 -81t-30.5 -114q0 -62 30.5 -113.5t82 -82t113.5 -30.5z" />
    <glyph glyph-name="parenleft.case" horiz-adv-x="375" 
d="M163 -70h182q-61 100 -90.5 209t-29.5 216q0 112 29.5 218t90.5 207h-182q-123 -187 -123 -425q0 -113 31 -223t92 -202z" />
    <glyph glyph-name="parenright.case" horiz-adv-x="375" 
d="M30 -70h182q61 92 92 202t31 223q0 238 -123 425h-182q62 -101 91 -207t29 -218q0 -107 -29 -216t-91 -209z" />
    <glyph glyph-name="braceleft.case" horiz-adv-x="450" 
d="M366 -70h54v160h-20q-44 0 -55.5 14.5t-11.5 44.5v88q0 35 -7.5 57t-29.5 36.5t-67 25.5q60 13 82 39t22 78v88q0 35 15.5 47t51.5 12h20v160h-54q-101 0 -159.5 -48.5t-58.5 -136.5v-78q0 -48 -23 -71.5t-85 -23.5v-132q63 0 85.5 -24.5t22.5 -71.5v-79q0 -85 57.5 -135
t160.5 -50z" />
    <glyph glyph-name="braceright.case" horiz-adv-x="450" 
d="M30 -70h54q103 0 160.5 50t57.5 135v79q0 47 22.5 71.5t85.5 24.5v132q-61 0 -84.5 23.5t-23.5 71.5v78q0 88 -58.5 136.5t-159.5 48.5h-54v-160h20q36 0 51.5 -12t15.5 -47v-88q0 -52 22 -78t82 -39q-44 -11 -66.5 -25.5t-30 -36.5t-7.5 -57v-88q0 -30 -11.5 -44.5
t-55.5 -14.5h-20v-160z" />
    <glyph glyph-name="bracketleft.case" horiz-adv-x="362" 
d="M40 -70h292v160h-107v530h107v160h-292v-850z" />
    <glyph glyph-name="bracketright.case" horiz-adv-x="362" 
d="M30 -70h292v850h-292v-160h107v-530h-107v-160z" />
    <glyph glyph-name="hyphen.case" horiz-adv-x="491" 
d="M70 275h351v160h-351v-160z" />
    <glyph glyph-name="endash.case" horiz-adv-x="645" 
d="M70 275h505v160h-505v-160z" />
    <glyph glyph-name="emdash.case" horiz-adv-x="940" 
d="M70 275h800v160h-800v-160z" />
    <glyph glyph-name="uni2015.case" horiz-adv-x="980" 
d="M100 275h800v160h-800v-160z" />
    <glyph glyph-name="uni2010.case" horiz-adv-x="531" 
d="M100 275h351v160h-351v-160z" />
    <glyph glyph-name="guillemotleft.case" horiz-adv-x="785" 
d="M531 140h214l-139 215l139 215h-214l-141 -215zM191 140h214l-139 215l139 215h-214l-141 -215z" />
    <glyph glyph-name="guillemotright.case" horiz-adv-x="785" 
d="M40 140h214l141 215l-141 215h-214l139 -215zM380 140h214l141 215l-141 215h-214l139 -215z" />
    <glyph glyph-name="guilsinglleft.case" horiz-adv-x="445" 
d="M191 140h214l-139 215l139 215h-214l-141 -215z" />
    <glyph glyph-name="guilsinglright.case" horiz-adv-x="445" 
d="M40 140h214l141 215l-141 215h-214l139 -215z" />
    <glyph glyph-name="plus.case" 
d="M270 93h166v184h179v160h-179v181h-166v-181h-180v-160h180v-184z" />
    <glyph glyph-name="minus.case" 
d="M110 275h485v160h-485v-160z" />
    <glyph glyph-name="multiply.case" 
d="M196 91l157 151l156 -151l113 113l-156 151l156 151l-113 113l-156 -151l-157 151l-113 -113l156 -151l-156 -151z" />
    <glyph glyph-name="divide.case" 
d="M268 490h170v160h-170v-160zM90 285h525v140h-525v-140zM268 60h170v160h-170v-160z" />
    <glyph glyph-name="equal.case" 
d="M103 415h500v160h-500v-160zM103 135h500v160h-500v-160z" />
    <glyph glyph-name="greater.case" 
d="M97 75l511 200v161l-511 199v-160l326 -119l-326 -121v-160z" />
    <glyph glyph-name="less.case" 
d="M608 75v160l-326 121l326 119v160l-511 -199v-161z" />
    <glyph glyph-name="at.case" horiz-adv-x="908" 
d="M460 -61q106 0 190.5 30t135.5 70l-59 98q-48 -34 -116 -57t-151 -23q-84 0 -149.5 38t-103 104t-37.5 150q0 88 38.5 156.5t106.5 108t154 39.5q78 0 139 -31t95.5 -85t34.5 -124q0 -59 -21.5 -97.5t-54.5 -38.5q-19 0 -28 19.5t-4 48.5l40 213h-120l-5 -32
q-10 19 -36 30t-60 11q-66 0 -117.5 -31t-81 -84.5t-29.5 -122.5q0 -49 20.5 -88t56.5 -61t82 -22q44 0 80.5 18t55.5 46q15 -29 46 -46.5t74 -17.5q65 0 115 33t78.5 91t28.5 132q0 78 -29 143t-81.5 113t-123.5 74.5t-156 26.5q-91 0 -167 -31t-132.5 -88t-87.5 -133.5
t-31 -168.5q0 -89 30.5 -164t85.5 -130.5t130 -86t164 -30.5zM416 277q-28 0 -45.5 18t-17.5 48q0 47 28.5 76t64.5 29q29 0 46.5 -18t17.5 -49q0 -46 -29 -75t-65 -29z" />
    <glyph glyph-name="uni0335.case" horiz-adv-x="0" 
d="M121 185h350v160h-350v-160z" />
    <glyph glyph-name="uni0337.case" horiz-adv-x="0" 
d="M121 177l400 200v168l-400 -200v-168z" />
    <glyph glyph-name="uni0338.case" horiz-adv-x="0" 
d="M50 0h139l682 710h-139z" />
    </font>
</defs>
</svg>
